<!-- Generated by IcoMoon.io -->
<svg version="1.1" xmlns="http://www.w3.org/2000/svg" width="1024" height="1024" viewBox="0 0 1024 1024">
<title></title>
<g id="icomoon-ignore">
    <line stroke-width="1" x1="16" y1="0" x2="16" y2="1024" stroke="#449FDB" opacity="0.3"></line>
    <line stroke-width="1" x1="32" y1="0" x2="32" y2="1024" stroke="#449FDB" opacity="1"></line>
    <line stroke-width="1" x1="48" y1="0" x2="48" y2="1024" stroke="#449FDB" opacity="0.3"></line>
    <line stroke-width="1" x1="64" y1="0" x2="64" y2="1024" stroke="#449FDB" opacity="1"></line>
    <line stroke-width="1" x1="80" y1="0" x2="80" y2="1024" stroke="#449FDB" opacity="0.3"></line>
    <line stroke-width="1" x1="96" y1="0" x2="96" y2="1024" stroke="#449FDB" opacity="1"></line>
    <line stroke-width="1" x1="112" y1="0" x2="112" y2="1024" stroke="#449FDB" opacity="0.3"></line>
    <line stroke-width="1" x1="128" y1="0" x2="128" y2="1024" stroke="#449FDB" opacity="1"></line>
    <line stroke-width="1" x1="144" y1="0" x2="144" y2="1024" stroke="#449FDB" opacity="0.3"></line>
    <line stroke-width="1" x1="160" y1="0" x2="160" y2="1024" stroke="#449FDB" opacity="1"></line>
    <line stroke-width="1" x1="176" y1="0" x2="176" y2="1024" stroke="#449FDB" opacity="0.3"></line>
    <line stroke-width="1" x1="192" y1="0" x2="192" y2="1024" stroke="#449FDB" opacity="1"></line>
    <line stroke-width="1" x1="208" y1="0" x2="208" y2="1024" stroke="#449FDB" opacity="0.3"></line>
    <line stroke-width="1" x1="224" y1="0" x2="224" y2="1024" stroke="#449FDB" opacity="1"></line>
    <line stroke-width="1" x1="240" y1="0" x2="240" y2="1024" stroke="#449FDB" opacity="0.3"></line>
    <line stroke-width="1" x1="256" y1="0" x2="256" y2="1024" stroke="#449FDB" opacity="1"></line>
    <line stroke-width="1" x1="272" y1="0" x2="272" y2="1024" stroke="#449FDB" opacity="0.3"></line>
    <line stroke-width="1" x1="288" y1="0" x2="288" y2="1024" stroke="#449FDB" opacity="1"></line>
    <line stroke-width="1" x1="304" y1="0" x2="304" y2="1024" stroke="#449FDB" opacity="0.3"></line>
    <line stroke-width="1" x1="320" y1="0" x2="320" y2="1024" stroke="#449FDB" opacity="1"></line>
    <line stroke-width="1" x1="336" y1="0" x2="336" y2="1024" stroke="#449FDB" opacity="0.3"></line>
    <line stroke-width="1" x1="352" y1="0" x2="352" y2="1024" stroke="#449FDB" opacity="1"></line>
    <line stroke-width="1" x1="368" y1="0" x2="368" y2="1024" stroke="#449FDB" opacity="0.3"></line>
    <line stroke-width="1" x1="384" y1="0" x2="384" y2="1024" stroke="#449FDB" opacity="1"></line>
    <line stroke-width="1" x1="400" y1="0" x2="400" y2="1024" stroke="#449FDB" opacity="0.3"></line>
    <line stroke-width="1" x1="416" y1="0" x2="416" y2="1024" stroke="#449FDB" opacity="1"></line>
    <line stroke-width="1" x1="432" y1="0" x2="432" y2="1024" stroke="#449FDB" opacity="0.3"></line>
    <line stroke-width="1" x1="448" y1="0" x2="448" y2="1024" stroke="#449FDB" opacity="1"></line>
    <line stroke-width="1" x1="464" y1="0" x2="464" y2="1024" stroke="#449FDB" opacity="0.3"></line>
    <line stroke-width="1" x1="480" y1="0" x2="480" y2="1024" stroke="#449FDB" opacity="1"></line>
    <line stroke-width="1" x1="496" y1="0" x2="496" y2="1024" stroke="#449FDB" opacity="0.3"></line>
    <line stroke-width="1" x1="512" y1="0" x2="512" y2="1024" stroke="#449FDB" opacity="1"></line>
    <line stroke-width="1" x1="528" y1="0" x2="528" y2="1024" stroke="#449FDB" opacity="0.3"></line>
    <line stroke-width="1" x1="544" y1="0" x2="544" y2="1024" stroke="#449FDB" opacity="1"></line>
    <line stroke-width="1" x1="560" y1="0" x2="560" y2="1024" stroke="#449FDB" opacity="0.3"></line>
    <line stroke-width="1" x1="576" y1="0" x2="576" y2="1024" stroke="#449FDB" opacity="1"></line>
    <line stroke-width="1" x1="592" y1="0" x2="592" y2="1024" stroke="#449FDB" opacity="0.3"></line>
    <line stroke-width="1" x1="608" y1="0" x2="608" y2="1024" stroke="#449FDB" opacity="1"></line>
    <line stroke-width="1" x1="624" y1="0" x2="624" y2="1024" stroke="#449FDB" opacity="0.3"></line>
    <line stroke-width="1" x1="640" y1="0" x2="640" y2="1024" stroke="#449FDB" opacity="1"></line>
    <line stroke-width="1" x1="656" y1="0" x2="656" y2="1024" stroke="#449FDB" opacity="0.3"></line>
    <line stroke-width="1" x1="672" y1="0" x2="672" y2="1024" stroke="#449FDB" opacity="1"></line>
    <line stroke-width="1" x1="688" y1="0" x2="688" y2="1024" stroke="#449FDB" opacity="0.3"></line>
    <line stroke-width="1" x1="704" y1="0" x2="704" y2="1024" stroke="#449FDB" opacity="1"></line>
    <line stroke-width="1" x1="720" y1="0" x2="720" y2="1024" stroke="#449FDB" opacity="0.3"></line>
    <line stroke-width="1" x1="736" y1="0" x2="736" y2="1024" stroke="#449FDB" opacity="1"></line>
    <line stroke-width="1" x1="752" y1="0" x2="752" y2="1024" stroke="#449FDB" opacity="0.3"></line>
    <line stroke-width="1" x1="768" y1="0" x2="768" y2="1024" stroke="#449FDB" opacity="1"></line>
    <line stroke-width="1" x1="784" y1="0" x2="784" y2="1024" stroke="#449FDB" opacity="0.3"></line>
    <line stroke-width="1" x1="800" y1="0" x2="800" y2="1024" stroke="#449FDB" opacity="1"></line>
    <line stroke-width="1" x1="816" y1="0" x2="816" y2="1024" stroke="#449FDB" opacity="0.3"></line>
    <line stroke-width="1" x1="832" y1="0" x2="832" y2="1024" stroke="#449FDB" opacity="1"></line>
    <line stroke-width="1" x1="848" y1="0" x2="848" y2="1024" stroke="#449FDB" opacity="0.3"></line>
    <line stroke-width="1" x1="864" y1="0" x2="864" y2="1024" stroke="#449FDB" opacity="1"></line>
    <line stroke-width="1" x1="880" y1="0" x2="880" y2="1024" stroke="#449FDB" opacity="0.3"></line>
    <line stroke-width="1" x1="896" y1="0" x2="896" y2="1024" stroke="#449FDB" opacity="1"></line>
    <line stroke-width="1" x1="912" y1="0" x2="912" y2="1024" stroke="#449FDB" opacity="0.3"></line>
    <line stroke-width="1" x1="928" y1="0" x2="928" y2="1024" stroke="#449FDB" opacity="1"></line>
    <line stroke-width="1" x1="944" y1="0" x2="944" y2="1024" stroke="#449FDB" opacity="0.3"></line>
    <line stroke-width="1" x1="960" y1="0" x2="960" y2="1024" stroke="#449FDB" opacity="1"></line>
    <line stroke-width="1" x1="976" y1="0" x2="976" y2="1024" stroke="#449FDB" opacity="0.3"></line>
    <line stroke-width="1" x1="992" y1="0" x2="992" y2="1024" stroke="#449FDB" opacity="1"></line>
    <line stroke-width="1" x1="1008" y1="0" x2="1008" y2="1024" stroke="#449FDB" opacity="0.3"></line>
    <line stroke-width="1" x1="0" y1="16" x2="1024" y2="16" stroke="#449FDB" opacity="0.3"></line>
    <line stroke-width="1" x1="0" y1="32" x2="1024" y2="32" stroke="#449FDB" opacity="1"></line>
    <line stroke-width="1" x1="0" y1="48" x2="1024" y2="48" stroke="#449FDB" opacity="0.3"></line>
    <line stroke-width="1" x1="0" y1="64" x2="1024" y2="64" stroke="#449FDB" opacity="1"></line>
    <line stroke-width="1" x1="0" y1="80" x2="1024" y2="80" stroke="#449FDB" opacity="0.3"></line>
    <line stroke-width="1" x1="0" y1="96" x2="1024" y2="96" stroke="#449FDB" opacity="1"></line>
    <line stroke-width="1" x1="0" y1="112" x2="1024" y2="112" stroke="#449FDB" opacity="0.3"></line>
    <line stroke-width="1" x1="0" y1="128" x2="1024" y2="128" stroke="#449FDB" opacity="1"></line>
    <line stroke-width="1" x1="0" y1="144" x2="1024" y2="144" stroke="#449FDB" opacity="0.3"></line>
    <line stroke-width="1" x1="0" y1="160" x2="1024" y2="160" stroke="#449FDB" opacity="1"></line>
    <line stroke-width="1" x1="0" y1="176" x2="1024" y2="176" stroke="#449FDB" opacity="0.3"></line>
    <line stroke-width="1" x1="0" y1="192" x2="1024" y2="192" stroke="#449FDB" opacity="1"></line>
    <line stroke-width="1" x1="0" y1="208" x2="1024" y2="208" stroke="#449FDB" opacity="0.3"></line>
    <line stroke-width="1" x1="0" y1="224" x2="1024" y2="224" stroke="#449FDB" opacity="1"></line>
    <line stroke-width="1" x1="0" y1="240" x2="1024" y2="240" stroke="#449FDB" opacity="0.3"></line>
    <line stroke-width="1" x1="0" y1="256" x2="1024" y2="256" stroke="#449FDB" opacity="1"></line>
    <line stroke-width="1" x1="0" y1="272" x2="1024" y2="272" stroke="#449FDB" opacity="0.3"></line>
    <line stroke-width="1" x1="0" y1="288" x2="1024" y2="288" stroke="#449FDB" opacity="1"></line>
    <line stroke-width="1" x1="0" y1="304" x2="1024" y2="304" stroke="#449FDB" opacity="0.3"></line>
    <line stroke-width="1" x1="0" y1="320" x2="1024" y2="320" stroke="#449FDB" opacity="1"></line>
    <line stroke-width="1" x1="0" y1="336" x2="1024" y2="336" stroke="#449FDB" opacity="0.3"></line>
    <line stroke-width="1" x1="0" y1="352" x2="1024" y2="352" stroke="#449FDB" opacity="1"></line>
    <line stroke-width="1" x1="0" y1="368" x2="1024" y2="368" stroke="#449FDB" opacity="0.3"></line>
    <line stroke-width="1" x1="0" y1="384" x2="1024" y2="384" stroke="#449FDB" opacity="1"></line>
    <line stroke-width="1" x1="0" y1="400" x2="1024" y2="400" stroke="#449FDB" opacity="0.3"></line>
    <line stroke-width="1" x1="0" y1="416" x2="1024" y2="416" stroke="#449FDB" opacity="1"></line>
    <line stroke-width="1" x1="0" y1="432" x2="1024" y2="432" stroke="#449FDB" opacity="0.3"></line>
    <line stroke-width="1" x1="0" y1="448" x2="1024" y2="448" stroke="#449FDB" opacity="1"></line>
    <line stroke-width="1" x1="0" y1="464" x2="1024" y2="464" stroke="#449FDB" opacity="0.3"></line>
    <line stroke-width="1" x1="0" y1="480" x2="1024" y2="480" stroke="#449FDB" opacity="1"></line>
    <line stroke-width="1" x1="0" y1="496" x2="1024" y2="496" stroke="#449FDB" opacity="0.3"></line>
    <line stroke-width="1" x1="0" y1="512" x2="1024" y2="512" stroke="#449FDB" opacity="1"></line>
    <line stroke-width="1" x1="0" y1="528" x2="1024" y2="528" stroke="#449FDB" opacity="0.3"></line>
    <line stroke-width="1" x1="0" y1="544" x2="1024" y2="544" stroke="#449FDB" opacity="1"></line>
    <line stroke-width="1" x1="0" y1="560" x2="1024" y2="560" stroke="#449FDB" opacity="0.3"></line>
    <line stroke-width="1" x1="0" y1="576" x2="1024" y2="576" stroke="#449FDB" opacity="1"></line>
    <line stroke-width="1" x1="0" y1="592" x2="1024" y2="592" stroke="#449FDB" opacity="0.3"></line>
    <line stroke-width="1" x1="0" y1="608" x2="1024" y2="608" stroke="#449FDB" opacity="1"></line>
    <line stroke-width="1" x1="0" y1="624" x2="1024" y2="624" stroke="#449FDB" opacity="0.3"></line>
    <line stroke-width="1" x1="0" y1="640" x2="1024" y2="640" stroke="#449FDB" opacity="1"></line>
    <line stroke-width="1" x1="0" y1="656" x2="1024" y2="656" stroke="#449FDB" opacity="0.3"></line>
    <line stroke-width="1" x1="0" y1="672" x2="1024" y2="672" stroke="#449FDB" opacity="1"></line>
    <line stroke-width="1" x1="0" y1="688" x2="1024" y2="688" stroke="#449FDB" opacity="0.3"></line>
    <line stroke-width="1" x1="0" y1="704" x2="1024" y2="704" stroke="#449FDB" opacity="1"></line>
    <line stroke-width="1" x1="0" y1="720" x2="1024" y2="720" stroke="#449FDB" opacity="0.3"></line>
    <line stroke-width="1" x1="0" y1="736" x2="1024" y2="736" stroke="#449FDB" opacity="1"></line>
    <line stroke-width="1" x1="0" y1="752" x2="1024" y2="752" stroke="#449FDB" opacity="0.3"></line>
    <line stroke-width="1" x1="0" y1="768" x2="1024" y2="768" stroke="#449FDB" opacity="1"></line>
    <line stroke-width="1" x1="0" y1="784" x2="1024" y2="784" stroke="#449FDB" opacity="0.3"></line>
    <line stroke-width="1" x1="0" y1="800" x2="1024" y2="800" stroke="#449FDB" opacity="1"></line>
    <line stroke-width="1" x1="0" y1="816" x2="1024" y2="816" stroke="#449FDB" opacity="0.3"></line>
    <line stroke-width="1" x1="0" y1="832" x2="1024" y2="832" stroke="#449FDB" opacity="1"></line>
    <line stroke-width="1" x1="0" y1="848" x2="1024" y2="848" stroke="#449FDB" opacity="0.3"></line>
    <line stroke-width="1" x1="0" y1="864" x2="1024" y2="864" stroke="#449FDB" opacity="1"></line>
    <line stroke-width="1" x1="0" y1="880" x2="1024" y2="880" stroke="#449FDB" opacity="0.3"></line>
    <line stroke-width="1" x1="0" y1="896" x2="1024" y2="896" stroke="#449FDB" opacity="1"></line>
    <line stroke-width="1" x1="0" y1="912" x2="1024" y2="912" stroke="#449FDB" opacity="0.3"></line>
    <line stroke-width="1" x1="0" y1="928" x2="1024" y2="928" stroke="#449FDB" opacity="1"></line>
    <line stroke-width="1" x1="0" y1="944" x2="1024" y2="944" stroke="#449FDB" opacity="0.3"></line>
    <line stroke-width="1" x1="0" y1="960" x2="1024" y2="960" stroke="#449FDB" opacity="1"></line>
    <line stroke-width="1" x1="0" y1="976" x2="1024" y2="976" stroke="#449FDB" opacity="0.3"></line>
    <line stroke-width="1" x1="0" y1="992" x2="1024" y2="992" stroke="#449FDB" opacity="1"></line>
    <line stroke-width="1" x1="0" y1="1008" x2="1024" y2="1008" stroke="#449FDB" opacity="0.3"></line>
</g>
<path fill="#000" d="M876.8 1024h-716.8c-42.342 0-76.8-34.458-76.8-76.8v-716.8c0-42.342 34.458-76.8 76.8-76.8h51.2c14.131 0 25.6 11.469 25.6 25.6s-11.469 25.6-25.6 25.6h-51.2c-14.131 0-25.6 11.469-25.6 25.6v716.8c0 14.131 11.469 25.6 25.6 25.6h716.8c14.131 0 25.6-11.469 25.6-25.6v-716.8c0-14.131-11.469-25.6-25.6-25.6h-51.2c-14.131 0-25.6-11.469-25.6-25.6s11.469-25.6 25.6-25.6h51.2c42.342 0 76.8 34.458 76.8 76.8v716.8c0 42.342-34.458 76.8-76.8 76.8z"></path>
<path fill="#000" d="M723.251 256c0 0 0 0-0.051 0h-409.6c-14.131 0-25.6-11.469-25.6-25.6 0-51.456 23.194-91.443 65.331-112.486 14.080-7.066 28.006-10.906 39.117-13.005 10.906-59.597 63.232-104.909 125.901-104.909s114.995 45.312 125.901 104.909c11.162 2.099 25.037 5.939 39.117 13.005 41.779 20.89 64.922 60.314 65.331 111.104 0.051 0.461 0.051 0.922 0.051 1.382 0 14.131-11.469 25.6-25.6 25.6zM342.272 204.8h352.256c-4.915-18.227-15.718-31.59-32.666-40.448-19.917-10.394-40.96-10.752-41.216-10.752-14.131 0-25.446-11.469-25.446-25.6 0-42.342-34.458-76.8-76.8-76.8s-76.8 34.458-76.8 76.8c0 14.131-11.469 25.6-25.6 25.6-0.051 0-21.146 0.358-41.062 10.752-16.947 8.858-27.75 22.17-32.666 40.448z"></path>
<path fill="#000" d="M518.4 153.6c-6.758 0-13.363-2.714-18.074-7.526s-7.526-11.366-7.526-18.074 2.714-13.363 7.526-18.074c4.762-4.762 11.366-7.526 18.074-7.526s13.363 2.714 18.074 7.526c4.762 4.762 7.526 11.366 7.526 18.074s-2.714 13.312-7.526 18.074c-4.762 4.762-11.366 7.526-18.074 7.526z"></path>
<path fill="#000" d="M672 870.4h-307.2c-21.76 0-40.755-9.062-52.173-24.883s-13.978-36.71-7.117-57.344c1.126-3.328 11.725-33.229 43.469-63.078 28.877-27.136 81.715-59.443 169.421-59.443s140.544 32.307 169.421 59.443c31.744 29.85 42.342 59.75 43.469 63.078 6.861 20.634 4.301 41.523-7.117 57.344s-30.413 24.883-52.173 24.883zM518.4 716.8c-133.581 0-164.045 86.63-164.301 87.501-1.587 4.762-1.536 8.96 0.102 11.213s5.632 3.635 10.65 3.635h307.2c5.018 0 9.011-1.382 10.65-3.635s1.69-6.4 0.154-11.11c-1.638-4.557-33.331-87.654-164.352-87.654z"></path>
<path fill="#000" d="M518.4 614.4c-70.554 0-128-57.446-128-128s57.446-128 128-128 128 57.446 128 128-57.446 128-128 128zM518.4 409.6c-42.342 0-76.8 34.458-76.8 76.8s34.458 76.8 76.8 76.8c42.342 0 76.8-34.458 76.8-76.8s-34.458-76.8-76.8-76.8z"></path>
</svg>
