<?xml version="1.0" encoding="UTF-8" standalone="no"?>
<svg
   xmlns:dc="http://purl.org/dc/elements/1.1/"
   xmlns:cc="http://creativecommons.org/ns#"
   xmlns:rdf="http://www.w3.org/1999/02/22-rdf-syntax-ns#"
   xmlns:svg="http://www.w3.org/2000/svg"
   xmlns="http://www.w3.org/2000/svg"
   xmlns:sodipodi="http://sodipodi.sourceforge.net/DTD/sodipodi-0.dtd"
   xmlns:inkscape="http://www.inkscape.org/namespaces/inkscape"
   version="1.1"
   x="0px"
   y="0px"
   width="500"
   height="500"
   viewBox="0 0 500 500"
   enable-background="new 0 0 1400 980"
   xml:space="preserve"
   id="svg6817"
   sodipodi:docname="scale.svg"
   inkscape:version="1.0.1 (3bc2e813f5, 2020-09-07)"><metadata
   id="metadata6823"><rdf:RDF><cc:Work
       rdf:about=""><dc:format>image/svg+xml</dc:format><dc:type
         rdf:resource="http://purl.org/dc/dcmitype/StillImage" /><dc:title></dc:title></cc:Work></rdf:RDF></metadata><defs
   id="defs6821">
	
	
	
	
	
	
	
	

		
		
	
			
			
			
			
			
			
			
			
			
			
			
		</defs><sodipodi:namedview
   pagecolor="#ffffff"
   bordercolor="#666666"
   borderopacity="1"
   objecttolerance="10"
   gridtolerance="10"
   guidetolerance="10"
   inkscape:pageopacity="0"
   inkscape:pageshadow="2"
   inkscape:window-width="1366"
   inkscape:window-height="705"
   id="namedview6819"
   showgrid="false"
   inkscape:zoom="0.47928571"
   inkscape:cx="150.38827"
   inkscape:cy="490"
   inkscape:window-x="-8"
   inkscape:window-y="-8"
   inkscape:window-maximized="1"
   inkscape:current-layer="svg6817" />

<g
   id="g8514"
   transform="matrix(1.5568639,0,0,1.5568639,-148.70512,-115.26808)"><g
     id="g5916"
     style="fill:#666666"
     transform="translate(-287.92846,-392.25037)">
				<g
   id="g5914"
   style="fill:#666666">
					<path
   fill="#c8c8c8"
   d="m 643.665,734.633 v 14.613 c -0.224,0.024 -0.449,0.024 -0.674,0.024 H 461.649 c -9.168,0 -16.588,-7.419 -16.588,-16.587 v -55.284 l 12.791,-11.242 v 51.886 c 0,9.171 7.445,16.59 16.588,16.59 z"
   id="path5912"
   style="fill:#666666" />
				</g>
			</g><g
     id="g5920"
     style="fill:#666666"
     transform="translate(-287.92846,-392.25037)">
				<path
   fill="#c8c8c8"
   d="m 443.5,677.387 v 55.284 c 0,9.168 7.42,16.587 16.588,16.587 h 181.341 c 0.226,0 0.45,0 0.675,-0.024 8.869,-0.349 15.914,-7.618 15.914,-16.563 V 577.686 l -89.709,95.529 -60.455,-67.274 -64.354,59.48 v 11.966"
   id="path5918"
   style="fill:#666666" />
			</g><g
     id="g5932"
     style="fill:#666666"
     transform="translate(-287.92846,-392.25037)">
				<g
   id="g5924"
   style="fill:#666666">
					<path
   fill="#c8c8c8"
   d="m 659.579,577.697 v 154.986 c 0,8.943 -7.044,16.213 -15.914,16.563 V 611.771 l -69.999,80.992 -67.05,-69.475 -61.555,54.11 v -11.967 l 64.353,-59.479 60.455,67.274 z"
   id="path5922"
   style="fill:#666666" />
				</g>
				<g
   id="g5930"
   style="fill:#666666">
					<g
   id="g5928"
   style="fill:#666666">
						<path
   fill="#c8c8c8"
   d="M 643.665,611.771 V 734.632 H 474.44 c -9.144,0 -16.588,-7.419 -16.588,-16.59 v -51.886 l 48.764,-42.868 67.05,69.475 12.717,-14.716 z"
   id="path5926"
   style="fill:#666666" />
					</g>
				</g>
			</g><g
     id="g5948"
     style="fill:#666666"
     transform="translate(-287.92846,-392.25037)">
				<g
   id="g5942"
   style="fill:#666666">
					<line
   fill="#c8c8c8"
   x1="420.198"
   y1="749.271"
   x2="692.04797"
   y2="748.76099"
   id="line5940"
   style="fill:#666666" />
				</g>
				<g
   id="g5946"
   style="fill:#666666">
					<path
   fill="#c8c8c8"
   d="m 420.197,753.018 c -2.055,0 -3.73,-1.659 -3.746,-3.718 -0.016,-2.071 1.649,-3.76 3.719,-3.776 l 271.85,-0.511 c 0.01,0 0.019,0 0.028,0 2.057,0 3.731,1.659 3.747,3.719 0.016,2.071 -1.649,3.759 -3.719,3.776 l -271.85,0.51 c -0.01,0 -0.019,0 -0.029,0 z"
   id="path5944"
   style="fill:#666666" />
				</g>
			</g><g
     id="g5958"
     style="fill:#666666"
     transform="translate(-287.92846,-392.25037)">
				<path
   fill="#c8c8c8"
   d="M 641.429,753.005 H 460.088 c -11.212,0 -20.335,-9.121 -20.335,-20.334 v -68.89 l 68.348,-63.171 60.268,67.067 93.396,-99.456 V 732.67 c 0,10.92 -8.516,19.817 -19.406,20.303 -0.31,0.027 -0.619,0.032 -0.93,0.032 z M 447.247,667.061 v 65.61 c 0,7.08 5.76,12.84 12.841,12.84 l 181.622,-0.002 c 7.152,-0.291 12.561,-5.921 12.561,-12.838 V 587.148 l -86.023,91.604 -60.642,-67.481 z"
   id="path5956"
   style="fill:#666666" />
			</g><g
     id="g5966"
     style="fill:#666666"
     transform="translate(-287.92846,-392.25037)">
				<g
   id="g5964"
   style="fill:#666666">
					<circle
   fill="#c8c8c8"
   cx="442.80301"
   cy="667.92902"
   r="6.6690001"
   id="circle5960"
   style="fill:#666666" />
					<path
   fill="#020202"
   d="m 442.804,678.346 c -5.744,0 -10.417,-4.674 -10.417,-10.417 0,-5.743 4.673,-10.417 10.417,-10.417 5.743,0 10.416,4.674 10.416,10.417 0,5.743 -4.674,10.417 -10.416,10.417 z m 0,-13.34 c -1.612,0 -2.923,1.311 -2.923,2.923 0,1.612 1.311,2.923 2.923,2.923 1.611,0 2.921,-1.311 2.921,-2.923 0,-1.612 -1.31,-2.923 -2.921,-2.923 z"
   id="path5962"
   style="fill:#666666" />
				</g>
			</g><g
     id="g5974"
     style="fill:#666666"
     transform="translate(-287.92846,-392.25037)">
				<g
   id="g5972"
   style="fill:#666666">
					<path
   fill="#c8c8c8"
   d="m 513.28,605.943 c 0,3.684 -2.986,6.67 -6.669,6.67 -3.683,0 -6.67,-2.986 -6.67,-6.67 0,-3.68 2.987,-6.67 6.67,-6.67 3.683,0 6.669,2.991 6.669,6.67 z"
   id="path5968"
   style="fill:#666666" />
					<path
   fill="#020202"
   d="m 506.611,616.36 c -5.744,0 -10.417,-4.675 -10.417,-10.417 0,-5.743 4.673,-10.417 10.417,-10.417 5.743,0 10.416,4.674 10.416,10.417 0,5.743 -4.673,10.417 -10.416,10.417 z m 0,-13.339 c -1.611,0 -2.922,1.31 -2.922,2.923 0,1.612 1.311,2.922 2.922,2.922 1.611,0 2.922,-1.31 2.922,-2.922 0,-1.614 -1.31,-2.923 -2.922,-2.923 z"
   id="path5970"
   style="fill:#666666" />
				</g>
			</g><g
     id="g5982"
     style="fill:#666666"
     transform="translate(-287.92846,-392.25037)">
				<g
   id="g5980"
   style="fill:#666666">
					<path
   fill="#c8c8c8"
   d="m 573.676,671.718 c 0,3.681 -2.986,6.67 -6.67,6.67 -3.684,0 -6.669,-2.989 -6.669,-6.67 0,-3.685 2.986,-6.67 6.669,-6.67 3.684,0 6.67,2.985 6.67,6.67 z"
   id="path5976"
   style="fill:#666666" />
					<path
   fill="#020202"
   d="m 567.006,682.135 c -5.744,0 -10.417,-4.675 -10.417,-10.417 0,-5.743 4.673,-10.417 10.417,-10.417 5.744,0 10.417,4.674 10.417,10.417 10e-4,5.742 -4.673,10.417 -10.417,10.417 z m 0,-13.34 c -1.611,0 -2.922,1.31 -2.922,2.923 0,1.612 1.311,2.922 2.922,2.922 1.612,0 2.923,-1.31 2.923,-2.922 0,-1.614 -1.311,-2.923 -2.923,-2.923 z"
   id="path5978"
   style="fill:#666666" />
				</g>
			</g><g
     id="g5990"
     style="fill:#666666"
     transform="translate(-287.92846,-392.25037)">
				<g
   id="g5988"
   style="fill:#666666">
					<path
   fill="#c8c8c8"
   d="m 663.451,577.689 c 0,3.68 -2.986,6.668 -6.67,6.668 -3.683,0 -6.67,-2.988 -6.67,-6.668 0,-3.684 2.987,-6.67 6.67,-6.67 3.683,10e-4 6.67,2.987 6.67,6.67 z"
   id="path5984"
   style="fill:#666666" />
					<path
   fill="#020202"
   d="m 656.781,588.104 c -5.744,0 -10.417,-4.672 -10.417,-10.415 0,-5.742 4.673,-10.417 10.417,-10.417 5.744,0 10.417,4.675 10.417,10.417 0,5.744 -4.674,10.415 -10.417,10.415 z m 0,-13.336 c -1.611,0 -2.923,1.31 -2.923,2.922 0,1.61 1.312,2.921 2.923,2.921 1.611,0 2.922,-1.311 2.922,-2.921 0,-1.613 -1.311,-2.922 -2.922,-2.922 z"
   id="path5986"
   style="fill:#666666" />
				</g>
			</g><g
     id="g6074"
     transform="translate(-301.92846,-394.25037)">
			<g
   id="g5998">
				<g
   id="g5996">
					<path
   fill="#cd4c4c"
   d="m 635.072,711.503 v 14.613 c -0.224,0.024 -0.449,0.024 -0.674,0.024 H 453.057 c -9.168,0 -16.588,-7.419 -16.588,-16.587 V 654.27 l 12.791,-11.242 v 51.886 c 0,9.17 7.445,16.589 16.588,16.589 z"
   id="path5994" />
				</g>
			</g>
			<g
   id="g6002">
				<path
   fill="#dc5654"
   d="m 434.907,654.258 v 55.284 c 0,9.168 7.42,16.587 16.588,16.587 h 181.341 c 0.226,0 0.45,0 0.675,-0.024 8.869,-0.349 15.914,-7.619 15.914,-16.563 V 554.556 l -89.709,95.53 -60.455,-67.274 -64.353,59.48 v 11.966"
   id="path6000" />
			</g>
			<g
   id="g6014">
				<g
   id="g6006">
					<path
   fill="#fef5f5"
   d="m 650.986,554.568 v 154.985 c 0,8.944 -7.044,16.214 -15.914,16.563 V 588.642 l -69.999,80.993 -67.05,-69.476 -61.555,54.111 v -11.967 l 64.353,-59.48 60.455,67.275 z"
   id="path6004" />
				</g>
				<g
   id="g6012">
					<g
   id="g6010">
						<path
   fill="#dc5654"
   d="M 635.072,588.642 V 711.503 H 465.848 c -9.144,0 -16.588,-7.419 -16.588,-16.589 v -51.886 l 48.764,-42.869 67.05,69.476 12.717,-14.716 z"
   id="path6008" />
					</g>
				</g>
			</g>
			<g
   id="g6020">
				<g
   id="g6018">
					<path
   fill="#020202"
   d="m 436.465,602.523 c -0.903,0 -1.808,-0.324 -2.526,-0.98 -1.528,-1.396 -1.634,-3.767 -0.239,-5.294 l 65.584,-58.355 c 0.708,-0.773 1.707,-1.218 2.755,-1.22 0.004,0 0.007,0 0.011,0 1.045,0 2.043,0.437 2.752,1.205 l 59.425,64.315 84.025,-89.64 c 1.414,-1.51 3.788,-1.582 5.296,-0.172 1.51,1.414 1.587,3.788 0.171,5.296 l -86.778,92.578 c -0.709,0.757 -1.698,1.186 -2.733,1.186 -0.005,0 -0.009,0 -0.014,0 -1.041,-0.005 -2.032,-0.438 -2.738,-1.205 l -59.39,-64.278 -62.833,55.345 c -0.74,0.809 -1.752,1.219 -2.768,1.219 z"
   id="path6016" />
				</g>
			</g>
			<g
   id="g6030">
				<g
   id="g6024">
					<line
   fill="#ffd44c"
   x1="411.60501"
   y1="726.14099"
   x2="683.45502"
   y2="725.63098"
   id="line6022" />
				</g>
				<g
   id="g6028">
					<path
   fill="#020202"
   d="m 411.604,729.888 c -2.055,0 -3.73,-1.658 -3.746,-3.718 -0.016,-2.071 1.649,-3.759 3.719,-3.776 l 271.85,-0.51 c 0.01,0 0.019,0 0.028,0 2.056,0 3.731,1.659 3.747,3.718 0.016,2.071 -1.649,3.76 -3.719,3.776 l -271.85,0.51 c -0.009,0 -0.019,0 -0.029,0 z"
   id="path6026" />
				</g>
			</g>
			<g
   id="g6036">
				<g
   id="g6034">
					<polygon
   points="662.139,500.238 641.518,504.49 658.629,526.827 "
   id="polygon6032" />
				</g>
			</g>
			<g
   id="g6040">
				<path
   fill="#020202"
   d="M 632.836,729.876 H 451.495 c -11.212,0 -20.335,-9.122 -20.335,-20.334 v -68.89 l 68.348,-63.172 60.268,67.067 93.396,-99.455 v 164.449 c 0,10.92 -8.516,19.816 -19.406,20.303 -0.31,0.027 -0.619,0.032 -0.93,0.032 z M 438.654,643.931 v 65.611 c 0,7.08 5.76,12.84 12.841,12.84 l 181.622,-0.003 c 7.151,-0.29 12.56,-5.921 12.56,-12.837 V 564.019 l -86.023,91.605 -60.642,-67.482 z"
   id="path6038" />
			</g>
			<g
   id="g6048">
				<g
   id="g6046">
					<path
   fill="#ffffff"
   d="m 440.879,644.8 c 0,3.681 -2.985,6.67 -6.669,6.67 -3.683,0 -6.67,-2.989 -6.67,-6.67 0,-3.682 2.987,-6.67 6.67,-6.67 3.685,0 6.669,2.988 6.669,6.67 z"
   id="path6042" />
					<path
   fill="#020202"
   d="m 434.21,655.217 c -5.744,0 -10.417,-4.675 -10.417,-10.417 0,-5.743 4.673,-10.418 10.417,-10.418 5.743,0 10.416,4.675 10.416,10.418 0,5.742 -4.672,10.417 -10.416,10.417 z m 0,-13.34 c -1.611,0 -2.922,1.31 -2.922,2.923 0,1.612 1.311,2.922 2.922,2.922 1.612,0 2.921,-1.31 2.921,-2.922 0.001,-1.613 -1.309,-2.923 -2.921,-2.923 z"
   id="path6044" />
				</g>
			</g>
			<g
   id="g6056">
				<g
   id="g6054">
					<path
   fill="#ffffff"
   d="m 504.688,582.813 c 0,3.684 -2.986,6.67 -6.669,6.67 -3.683,0 -6.67,-2.986 -6.67,-6.67 0,-3.679 2.987,-6.67 6.67,-6.67 3.683,0 6.669,2.992 6.669,6.67 z"
   id="path6050" />
					<path
   fill="#020202"
   d="m 498.019,593.23 c -5.744,0 -10.417,-4.674 -10.417,-10.417 0,-5.742 4.673,-10.417 10.417,-10.417 5.743,0 10.416,4.675 10.416,10.417 0,5.744 -4.673,10.417 -10.416,10.417 z m 0,-13.338 c -1.611,0 -2.922,1.31 -2.922,2.922 0,1.613 1.311,2.923 2.922,2.923 1.611,0 2.921,-1.31 2.921,-2.923 0,-1.613 -1.31,-2.922 -2.921,-2.922 z"
   id="path6052" />
				</g>
			</g>
			<g
   id="g6064">
				<g
   id="g6062">
					<circle
   fill="#ffffff"
   cx="558.414"
   cy="648.58801"
   r="6.6700001"
   id="circle6058" />
					<path
   fill="#020202"
   d="m 558.414,659.005 c -5.744,0 -10.417,-4.674 -10.417,-10.417 0,-5.742 4.673,-10.417 10.417,-10.417 5.744,0 10.417,4.675 10.417,10.417 0,5.743 -4.673,10.417 -10.417,10.417 z m 0,-13.34 c -1.611,0 -2.922,1.311 -2.922,2.923 0,1.613 1.311,2.923 2.922,2.923 1.611,0 2.923,-1.31 2.923,-2.923 -10e-4,-1.612 -1.312,-2.923 -2.923,-2.923 z"
   id="path6060" />
				</g>
			</g>
			<g
   id="g6072">
				<g
   id="g6070">
					<path
   fill="#ffffff"
   d="m 654.857,554.561 c 0,3.679 -2.986,6.668 -6.669,6.668 -3.683,0 -6.67,-2.989 -6.67,-6.668 0,-3.684 2.987,-6.67 6.67,-6.67 3.684,0 6.669,2.986 6.669,6.67 z"
   id="path6066" />
					<path
   fill="#020202"
   d="m 648.188,564.976 c -5.744,0 -10.417,-4.672 -10.417,-10.415 0,-5.743 4.673,-10.417 10.417,-10.417 5.744,0 10.417,4.674 10.417,10.417 0,5.743 -4.673,10.415 -10.417,10.415 z m 0,-13.338 c -1.612,0 -2.923,1.311 -2.923,2.923 0,1.61 1.311,2.92 2.923,2.92 1.611,0 2.922,-1.31 2.922,-2.92 0,-1.613 -1.311,-2.923 -2.922,-2.923 z"
   id="path6068" />
				</g>
			</g>
		</g></g>
</svg>
