<?xml version="1.0" encoding="utf-8"?>
<svg id="master-artboard" viewBox="0 0 300 300" version="1.1" xmlns="http://www.w3.org/2000/svg" x="0px" y="0px" style="enable-background:new 0 0 550 385;" width="300px" height="300px"><rect id="ee-background" x="0" y="0" width="300" height="300" style="fill: white; fill-opacity: 0; pointer-events: none;" transform="matrix(1, 0, 0, 1, 0, 10)"/>

<radialGradient id="color_2_" cx="274.4093" cy="198.1489" r="382.5455" gradientTransform="matrix(1 0 0 0.9685 0 -1.2556)" gradientUnits="userSpaceOnUse">
		<stop offset="0" style="stop-color:#FFFFFF"/>
		<stop offset="0.4249" style="stop-color:#FDFDFD"/>
		<stop offset="0.6586" style="stop-color:#F5F5F5"/>
		<stop offset="0.8453" style="stop-color:#E7E7E7"/>
		<stop offset="1" style="stop-color:#D5D5D5"/>
	</radialGradient>
<radialGradient id="bottom_shadow_1_" cx="275.0002" cy="711.6214" r="112.4843" gradientTransform="matrix(1 0 0 0.1714 0 170.241)" gradientUnits="userSpaceOnUse">
		<stop offset="0" style="stop-color:#333333"/>
		<stop offset="8.602788e-02" style="stop-color:#5E5E5E"/>
		<stop offset="0.1969" style="stop-color:#8F8F8F"/>
		<stop offset="0.3072" style="stop-color:#B7B7B7"/>
		<stop offset="0.4147" style="stop-color:#D6D6D6"/>
		<stop offset="0.5186" style="stop-color:#EDEDED"/>
		<stop offset="0.6173" style="stop-color:#FAFAFA"/>
		<stop offset="0.7055" style="stop-color:#FFFFFF"/>
	</radialGradient><path id="bottom_shadow" class="st1" d="M387.5,292.2c0,10.6-50.4,19.3-112.5,19.3c-62.1,0-112.5-8.6-112.5-19.3&#10;&#9;&#9;c0-10.7,50.4-19.3,112.5-19.3C337.1,272.9,387.5,281.6,387.5,292.2z" style="opacity: 0.2; fill: url('#bottom_shadow_1_');" transform="matrix(1, 0, 0, 1, -125.31201171875, -28.510147094726562)"/><g transform="matrix(1, 0, 0, 1, -125.31201171875, -28.510147094726562)">
			<path class="st2" d="M333.7,105.4c0,0-22,22-28,28c-5.9,5.9-39-3.3-44.9,2.6l-59,67.1c-5.4,6.4-5.6,13.1-3.2,17.2&#10;&#9;&#9;&#9;&#9;c0,0,4.6,8,8.4,9.7c9.6,4.3,19.7-3.4,19.7-3.4l44.8,32.8c5.9,4.6,13.9,5.1,21.4,0c7.5-5.1,33.7-29.2,44-44.2&#10;&#9;&#9;&#9;&#9;c10.5-15.3,15.6-25,20.6-30c5-5,28-28,28-28L333.7,105.4z" style="fill: rgb(236, 193, 156);"/>
			<path class="st2" d="M229.7,219.3l-5.2,5.6c-5.4,6.4-6.9,14.5-1,20.4c0,0,3.1,3.1,5.9,5.9c7.4,7.4,23.3-3.3,23.3-3.3l9.2,6.8&#10;&#9;&#9;&#9;&#9;C259.1,238.5,243,229.6,229.7,219.3z" style="fill: rgb(236, 193, 156);"/>
			<path class="st2" d="M254.1,236.7l-4.5,6.1c-4.7,6.9-5.4,15.1,1.1,20.4c0,0,3.5,2.8,6.5,5.3c8.2,6.6,22.9-5.7,22.9-5.7&#10;&#9;&#9;&#9;&#9;S268.5,245.5,254.1,236.7z" style="fill: rgb(236, 193, 156);"/>
			
				<linearGradient id="SVGID_1_" gradientUnits="userSpaceOnUse" x1="719.5247" y1="-194.3768" x2="734.5446" y2="-194.3768" gradientTransform="matrix(0.7071 -0.7071 0.7071 0.7071 -49.1092 808.6375)">
				<stop offset="0.5031" style="stop-color:#FFFFFF"/>
				<stop offset="1" style="stop-color:#B19175"/>
			</linearGradient>
			<path class="st3" d="M305.7,133.3c-2.7,2.7-9.8,2.2-17,1.8l60.7,60.7c3.9-6.4,6-8.8,8-10.8c5-5,28-28,28-28l-51.8-51.7&#10;&#9;&#9;&#9;&#9;C333.7,105.4,311.7,127.4,305.7,133.3z" style="opacity: 0.5; fill: url('#SVGID_1_');"/>
			<linearGradient id="SVGID_2_" gradientUnits="userSpaceOnUse" x1="337.7406" y1="179.4176" x2="331.0246" y2="190.9307">
				<stop offset="0" style="stop-color:#FFFFFF"/>
				<stop offset="0.3398" style="stop-color:#DBDBDB"/>
				<stop offset="1" style="stop-color:#6E6E6E"/>
			</linearGradient>
			<path class="st4" d="M320.6,171.1c0,0,16.3,26.1,26,29.2l7.8-11.7C354.4,188.6,345.1,183.9,320.6,171.1z" style="opacity: 0; fill: url('#SVGID_2_');"/>
			<g>
				<path class="st5" d="M386.3,155.9c2.4,2.4,2.4,6.5,0,8.9l-18.5,18.5c-2.4,2.5-6.5,2.5-8.9,0l-50.6-50.6c-2.4-2.4-2.4-6.5,0-8.9&#10;&#9;&#9;&#9;&#9;&#9;l18.5-18.5c2.4-2.4,6.5-2.4,8.9,0L386.3,155.9z" style="fill: rgb(242, 242, 242);"/>
				
					<linearGradient id="SVGID_3_" gradientUnits="userSpaceOnUse" x1="746.3896" y1="-189.5118" x2="752.3139" y2="-189.5118" gradientTransform="matrix(0.7071 -0.7071 0.7071 0.7071 -49.1092 808.6375)">
					<stop offset="0" style="stop-color:#FFFFFF"/>
					<stop offset="0.489" style="stop-color:#E6E6E6"/>
					<stop offset="1" style="stop-color:#636363"/>
				</linearGradient>
				<path class="st6" d="M390,152.1c2.4,2.4,2.4,6.5,0,8.9l-18.5,18.5L312,120l18.5-18.5c2.4-2.4,6.5-2.4,8.9,0L390,152.1z" style="opacity: 0.8; fill: url('#SVGID_3_');"/>
				
					<linearGradient id="SVGID_4_" gradientUnits="userSpaceOnUse" x1="750.116" y1="-163.4743" x2="750.116" y2="-148.4542" gradientTransform="matrix(0.7071 -0.7071 0.7071 0.7071 -49.1092 808.6375)">
					<stop offset="0" style="stop-color:#FFFFFF"/>
					<stop offset="0.489" style="stop-color:#E6E6E6"/>
					<stop offset="1" style="stop-color:#B3B3B3"/>
				</linearGradient>
				<path class="st7" d="M372.1,153.1c-7,7.4-13.8,15-21.3,22l8.1,8.1c2.4,2.5,6.5,2.5,8.9,0l18.5-18.5c2.4-2.4,2.4-6.5,0-8.9&#10;&#9;&#9;&#9;&#9;&#9;l-8.7-8.7C375.8,149.2,374,151.2,372.1,153.1z" style="opacity: 0.6; fill: url('#SVGID_4_');"/>
			</g>
			<g>
				<linearGradient id="SVGID_5_" gradientUnits="userSpaceOnUse" x1="334.6366" y1="86.1535" x2="397.6469" y2="164.8595">
					<stop offset="0" style="stop-color:#4D4D4D"/>
					<stop offset="1" style="stop-color:#1A1A1A"/>
				</linearGradient>
				<path class="st8" d="M413.2,138.5c2.4,2.4,2.4,6.5,0,8.9L388,172.5c-2.4,2.4-6.5,2.4-8.9,0l-60-60c-2.4-2.4-2.4-6.5,0-8.9&#10;&#9;&#9;&#9;&#9;&#9;l25.2-25.2c2.5-2.5,6.5-2.5,8.9,0L413.2,138.5z" style="fill: url('#SVGID_5_');"/>
				<linearGradient id="SVGID_6_" gradientUnits="userSpaceOnUse" x1="353.377" y1="138.2726" x2="340.7621" y2="150.8888">
					<stop offset="0" style="stop-color:#FFFFFF"/>
					<stop offset="3.333382e-02" style="stop-color:#EDEDED"/>
					<stop offset="0.2313" style="stop-color:#898989"/>
					<stop offset="0.3909" style="stop-color:#3F3F3F"/>
					<stop offset="0.5044" style="stop-color:#121212"/>
					<stop offset="0.5613" style="stop-color:#000000"/>
				</linearGradient>
				<path class="st9" d="M319.1,103.6c-2.4,2.4-2.4,6.5,0,8.9l60,60c2.4,2.4,6.5,2.4,8.9,0l9.3-9.3l-68.9-68.9L319.1,103.6z" style="opacity: 0.35; fill: url('#SVGID_6_');"/>
			</g>
		</g><path class="st10" d="M216.3,105.4c0,0,22,22,28,28c5.9,5.9,39-3.3,44.9,2.6l60.1,67.5c5.4,6.4,6.9,14.5,1,20.4&#10;&#9;&#9;&#9;&#9;c0,0-3.1,3.1-5.9,5.9c-7.4,7.4-17.1,0.8-17.1,0.8s2.7,2.3,2.7,5.3c0,2.6-14.4,19-19.8,16.1c-1.5-0.8-3.6-2.2-3.6-2.2&#10;&#9;&#9;&#9;&#9;s0.8,0.2,2.4,2.3c0.3,0.4,0.6,1.8-0.3,2.8c-3,3.5-9.8,8.6-15.6,9.5c-1.6,0.5-3.2,0.2-3.2,0.2c-2.2,1.7-9.7,3-14.1,2.6&#10;&#9;&#9;&#9;&#9;c-4.4-0.4-15.1-3.4-19.9-6.6c-7.5-5.1-32.5-30.4-42.8-45.4c-10.5-15.3-15.6-25-20.6-30c-5-5-28-28-28-28L216.3,105.4z" style="fill: rgb(240, 208, 180);" transform="matrix(1, 0, 0, 1, -125.31201171875, -28.510147094726562)"/><path class="st11" d="M349.3,203.4l-9.4-10.6c1.7,10.9-3,22.3-22.8,26.2c0,9.5-7.9,18.1-19.4,21.8c-3.6,10.4-9,11.3-17.1,13.7&#10;&#9;&#9;&#9;&#9;c-9.5,6.1-21.4,10.7-38.8-6.6c6,5.9,11.2,10.7,14,12.6c4.8,3.2,15.4,6.2,19.9,6.6c4.4,0.4,11.9-0.9,14.1-2.6c0,0,1.6,0.3,3.2-0.2&#10;&#9;&#9;&#9;&#9;c5.9-0.9,12.6-6,15.6-9.5c0.8-1,0.6-2.4,0.3-2.8c-0.8-1.1-1.4-1.6-1.8-1.9c-0.3-0.2-0.6-0.4-0.6-0.4s0.2,0.1,0.6,0.4&#10;&#9;&#9;&#9;&#9;c0.7,0.5,2,1.3,3.1,1.8c5.4,2.9,19.8-13.5,19.8-16.1c0-3-2.7-5.3-2.7-5.3s9.7,6.6,17.1-0.8c2.8-2.8,5.9-5.9,5.9-5.9&#10;&#9;&#9;&#9;&#9;C356.2,217.8,354.7,209.8,349.3,203.4z" style="opacity: 0.2; fill: rgb(245, 224, 205);" transform="matrix(1, 0, 0, 1, -125.31201171875, -28.510147094726562)"/><path class="st12" d="M327.3,230.5c0,0-5.4-7.5-9.6-9.6C317.7,220.9,322,228.2,327.3,230.5z" style="opacity: 0.35; fill: rgb(240, 208, 180);" transform="matrix(1, 0, 0, 1, -125.31201171875, -28.510147094726562)"/><path class="st12" d="M307.3,250.5c0,0-5.4-7.5-9.6-9.6C297.7,240.8,302,248.2,307.3,250.5z" style="opacity: 0.35; fill: rgb(240, 208, 180);" transform="matrix(1, 0, 0, 1, -125.31201171875, -28.510147094726562)"/><path class="st12" d="M290.2,264.2c0,0-5.4-7.5-9.6-9.6C280.6,254.6,284.9,261.9,290.2,264.2z" style="opacity: 0.35; fill: rgb(240, 208, 180);" transform="matrix(1, 0, 0, 1, -125.31201171875, -28.510147094726562)"/><radialGradient id="SVGID_7_" cx="306.8745" cy="249.8155" r="1.7368" gradientUnits="userSpaceOnUse">
					<stop offset="0" style="stop-color:#FFE6C9"/>
					<stop offset="0.1193" style="stop-color:#F4DCBF"/>
					<stop offset="0.4011" style="stop-color:#DEC7AB"/>
					<stop offset="0.653" style="stop-color:#CFBCA1"/>
					<stop offset="1" style="stop-color:#B3A98E"/>
				</radialGradient><path class="st13" d="M307.1,250.1c-0.4-0.3-0.6-0.4-0.6-0.4S306.8,249.9,307.1,250.1z" style="fill: url('#SVGID_7_');" transform="matrix(1, 0, 0, 1, -125.31201171875, -28.510147094726562)"/><path class="st14" d="M292.3,137.1c0,0-18.9-2.7-27.9-1.6c-9.1,1.2-16,21.8-20.4,32.2c-4.4,10.4,7.2,18.2,21.7,11.3&#10;&#9;&#9;&#9;&#9;c11.3-5.3,18.8-18.4,18.8-18.4s18.4,11.5,36.1,10.5L292.3,137.1z" style="fill: rgb(223, 178, 139);" transform="matrix(1, 0, 0, 1, -125.31201171875, -28.510147094726562)"/><path class="st2" d="M291.8,135.3c0,0-20.2-2.7-29.3-1.6c-9.1,1.2-16,21.8-20.4,32.2c-4.4,10.4,7.2,18.2,21.7,11.3&#10;&#9;&#9;&#9;&#9;c11.3-5.3,18.8-20.5,18.8-20.5s20.3,15.4,37.9,14.4L291.8,135.3z" style="fill: rgb(236, 193, 156);" transform="matrix(1, 0, 0, 1, -125.31201171875, -28.510147094726562)"/><path class="st15" d="M241.4,168.1c0,0,6.5-0.6,13,3.8c6.4,4.4,12-7.5,11.6-10c-0.4-2.6-9.9-10-19.7-6.3L241.4,168.1z" style="fill: rgb(249, 236, 225);" transform="matrix(1, 0, 0, 1, -125.31201171875, -28.510147094726562)"/><linearGradient id="SVGID_8_" gradientUnits="userSpaceOnUse" x1="1680.3153" y1="766.4136" x2="1695.3356" y2="766.4136" gradientTransform="matrix(-0.7071 -0.7071 -0.7071 0.7071 1957.859 808.6375)">
				<stop offset="0.5031" style="stop-color:#FFFFFF"/>
				<stop offset="1" style="stop-color:#B19175"/>
			</linearGradient><path class="st16" d="M244.3,133.3c2.7,2.7,9.8,2.2,17,1.8l-60.7,60.7c-3.9-6.4-6-8.8-8-10.8c-5-5-28-28-28-28l51.8-51.7&#10;&#9;&#9;&#9;&#9;C216.3,105.4,238.3,127.4,244.3,133.3z" style="opacity: 0.5; fill: url('#SVGID_8_');" transform="matrix(1, 0, 0, 1, -125.31201171875, -28.510147094726562)"/><path class="st5" d="M163.7,155.9c-2.4,2.4-2.4,6.5,0,8.9l18.5,18.5c2.4,2.5,6.5,2.5,8.9,0l50.6-50.6c2.4-2.4,2.4-6.5,0-8.9&#10;&#9;&#9;&#9;&#9;&#9;l-18.5-18.5c-2.4-2.4-6.5-2.4-8.9,0L163.7,155.9z" style="fill: rgb(242, 242, 242);" transform="matrix(1, 0, 0, 1, -125.31201171875, -28.510147094726562)"/><linearGradient id="SVGID_9_" gradientUnits="userSpaceOnUse" x1="1707.1798" y1="771.2792" x2="1713.1041" y2="771.2792" gradientTransform="matrix(-0.7071 -0.7071 -0.7071 0.7071 1957.859 808.6375)">
					<stop offset="0" style="stop-color:#FFFFFF"/>
					<stop offset="0.489" style="stop-color:#E6E6E6"/>
					<stop offset="1" style="stop-color:#636363"/>
				</linearGradient><path class="st17" d="M160,152.1c-2.4,2.4-2.4,6.5,0,8.9l18.5,18.5L238,120l-18.5-18.5c-2.4-2.4-6.5-2.4-8.9,0L160,152.1z" style="opacity: 0.8; fill: url('#SVGID_9_');" transform="matrix(1, 0, 0, 1, -125.31201171875, -28.510147094726562)"/><linearGradient id="SVGID_10_" gradientUnits="userSpaceOnUse" x1="1710.9061" y1="797.3164" x2="1710.9061" y2="812.3359" gradientTransform="matrix(-0.7071 -0.7071 -0.7071 0.7071 1957.859 808.6375)">
					<stop offset="0" style="stop-color:#FFFFFF"/>
					<stop offset="0.489" style="stop-color:#E6E6E6"/>
					<stop offset="1" style="stop-color:#B3B3B3"/>
				</linearGradient><path class="st18" d="M177.9,153.1c7,7.4,13.8,15,21.3,22l-8.1,8.1c-2.4,2.5-6.5,2.5-8.9,0l-18.5-18.5c-2.4-2.4-2.4-6.5,0-8.9&#10;&#9;&#9;&#9;&#9;&#9;l8.7-8.7C174.2,149.2,176,151.2,177.9,153.1z" style="opacity: 0.6; fill: url('#SVGID_10_');" transform="matrix(1, 0, 0, 1, -125.31201171875, -28.510147094726562)"/><linearGradient id="SVGID_11_" gradientUnits="userSpaceOnUse" x1="218.3014" y1="91.0636" x2="149.4144" y2="159.9506">
					<stop offset="0" style="stop-color:#4D4D4D"/>
					<stop offset="1" style="stop-color:#1A1A1A"/>
				</linearGradient><path class="st19" d="M136.8,138.5c-2.4,2.4-2.4,6.5,0,8.9l25.2,25.2c2.4,2.4,6.5,2.4,8.9,0l60-60c2.4-2.4,2.4-6.5,0-8.9&#10;&#9;&#9;&#9;&#9;&#9;l-25.2-25.2c-2.5-2.5-6.5-2.5-8.9,0L136.8,138.5z" style="fill: url('#SVGID_11_');" transform="matrix(1, 0, 0, 1, -125.31201171875, -28.510147094726562)"/><linearGradient id="SVGID_12_" gradientUnits="userSpaceOnUse" x1="196.1256" y1="137.7748" x2="205.515" y2="147.1641">
					<stop offset="0" style="stop-color:#FFFFFF"/>
					<stop offset="3.333382e-02" style="stop-color:#EDEDED"/>
					<stop offset="0.2313" style="stop-color:#898989"/>
					<stop offset="0.3909" style="stop-color:#3F3F3F"/>
					<stop offset="0.5044" style="stop-color:#121212"/>
					<stop offset="0.5613" style="stop-color:#000000"/>
				</linearGradient><path class="st20" d="M230.9,103.6c2.4,2.4,2.4,6.5,0,8.9l-60,60c-2.4,2.4-6.5,2.4-8.9,0l-9.3-9.3l68.9-68.9L230.9,103.6z" style="opacity: 0.35; fill: url('#SVGID_12_');" transform="matrix(1, 0, 0, 1, -125.31201171875, -28.510147094726562)"/><g transform="matrix(1, 0, 0, 1, -125.31201171875, -28.510147094726562)">
					<linearGradient id="SVGID_13_" gradientUnits="userSpaceOnUse" x1="163.2671" y1="144.0137" x2="163.2671" y2="162.9877">
						<stop offset="0" style="stop-color:#FFFBCC"/>
						<stop offset="1" style="stop-color:#C3922E"/>
					</linearGradient>
					<path d="M 171.000003 152.800003 A 7.7 7.7 0 0 1 163.300003 160.500003 A 7.7 7.7 0 0 1 155.600003 152.800003 A 7.7 7.7 0 0 1 163.300003 145.100003 A 7.7 7.7 0 0 1 171.000003 152.800003 Z" class="st21" style="fill: url('#SVGID_13_');"/>
					<linearGradient id="SVGID_14_" gradientUnits="userSpaceOnUse" x1="163.2671" y1="159.7182" x2="163.2671" y2="140.3787">
						<stop offset="0" style="stop-color:#FFFBCC"/>
						<stop offset="1" style="stop-color:#C3922E"/>
					</linearGradient>
					<path d="M 170.000003 152.800003 A 6.7 6.7 0 0 1 163.300003 159.500003 A 6.7 6.7 0 0 1 156.600003 152.800003 A 6.7 6.7 0 0 1 163.300003 146.100003 A 6.7 6.7 0 0 1 170.000003 152.800003 Z" class="st22" style="fill: url('#SVGID_14_');"/>
					<linearGradient id="SVGID_15_" gradientUnits="userSpaceOnUse" x1="163.2673" y1="143.951" x2="163.2673" y2="161.6153">
						<stop offset="0" style="stop-color:#FFFBCC"/>
						<stop offset="1" style="stop-color:#C3922E"/>
					</linearGradient>
					<path d="M 168.900003 152.800003 A 5.6 5.6 0 0 1 163.300003 158.400003 A 5.6 5.6 0 0 1 157.700003 152.800003 A 5.6 5.6 0 0 1 163.300003 147.200003 A 5.6 5.6 0 0 1 168.900003 152.800003 Z" class="st23" style="fill: url('#SVGID_15_');"/>
				</g><linearGradient id="SVGID_16_" gradientUnits="userSpaceOnUse" x1="116.9884" y1="153.1523" x2="116.9884" y2="154.3908" gradientTransform="matrix(0.7071 -0.7071 0.7071 0.7071 -28.0601 126.8827)">
					<stop offset="0" style="stop-color:#FFFFFF"/>
					<stop offset="0.489" style="stop-color:#DBDBDB"/>
					<stop offset="1" style="stop-color:#A4A4A4"/>
				</linearGradient><path class="st24" d="M165.8,150.1c0.3,0.3,0.3,0.8,0,1.1l-4.1,4.1c-0.3,0.3-0.8,0.3-1.1,0l0,0c-0.3-0.3-0.3-0.8,0-1.1l4.1-4.1&#10;&#9;&#9;&#9;&#9;&#9;C165,149.8,165.5,149.8,165.8,150.1L165.8,150.1z" style="fill: url('#SVGID_16_');" transform="matrix(1, 0, 0, 1, -125.31201171875, -28.510147094726562)"/>

</svg>