<?xml version="1.0" encoding="UTF-8" standalone="no"?>
<svg
   xmlns:dc="http://purl.org/dc/elements/1.1/"
   xmlns:cc="http://creativecommons.org/ns#"
   xmlns:rdf="http://www.w3.org/1999/02/22-rdf-syntax-ns#"
   xmlns:svg="http://www.w3.org/2000/svg"
   xmlns="http://www.w3.org/2000/svg"
   xmlns:sodipodi="http://sodipodi.sourceforge.net/DTD/sodipodi-0.dtd"
   xmlns:inkscape="http://www.inkscape.org/namespaces/inkscape"
   version="1.1"
   x="0px"
   y="0px"
   viewBox="0 0 1400 1400"
   enable-background="new 0 0 1400 1400"
   xml:space="preserve"
   id="svg20429"
   sodipodi:docname="lock.svg"
   inkscape:version="1.0.1 (3bc2e813f5, 2020-09-07)"><metadata
   id="metadata20435"><rdf:RDF><cc:Work
       rdf:about=""><dc:format>image/svg+xml</dc:format><dc:type
         rdf:resource="http://purl.org/dc/dcmitype/StillImage" /><dc:title></dc:title></cc:Work></rdf:RDF></metadata><defs
   id="defs20433">
	
	

	

		
		
		
		
		
		
		
		
		
		
		
		
		
		
	
	
	
	
	
	
	
	
	
	
	
	
	
	
	
	
	
	
	
	
	
	
	
	
	
	
	
	
	
	
	
	
	
	
	
	
	
	
	
	
</defs><sodipodi:namedview
   pagecolor="#ffffff"
   bordercolor="#666666"
   borderopacity="1"
   objecttolerance="10"
   gridtolerance="10"
   guidetolerance="10"
   inkscape:pageopacity="0"
   inkscape:pageshadow="2"
   inkscape:window-width="1366"
   inkscape:window-height="705"
   id="namedview20431"
   showgrid="false"
   inkscape:zoom="0.27173103"
   inkscape:cx="604.82366"
   inkscape:cy="532.19766"
   inkscape:window-x="-8"
   inkscape:window-y="-8"
   inkscape:window-maximized="1"
   inkscape:current-layer="svg20429" />
<g
   id="Layer_2"
   display="none">
	<g
   display="inline"
   id="g20311">
		<path
   fill="none"
   stroke="#0E1235"
   stroke-width="8"
   stroke-miterlimit="10"
   d="M816.964,844.095H567.049    c-14.356,0-25.994-11.638-25.994-25.994V609.102c0-14.356,11.638-25.994,25.994-25.994h249.915    c14.356,0,25.994,11.638,25.994,25.994v208.999C842.958,832.457,831.32,844.095,816.964,844.095z"
   id="path20187" />
		
			<line
   fill="none"
   stroke="#0E1235"
   stroke-width="8"
   stroke-miterlimit="10"
   x1="541.055"
   y1="818.101"
   x2="842.958"
   y2="818.101"
   id="line20189" />
		<path
   fill="none"
   stroke="#0E1235"
   stroke-width="8"
   stroke-miterlimit="10"
   d="M564.458,669.515h-23.403v-18h23.403    c2.209,0,4,1.791,4,4v10C568.458,667.724,566.667,669.515,564.458,669.515z"
   id="path20191" />
		<path
   fill="none"
   stroke="#0E1235"
   stroke-width="8"
   stroke-miterlimit="10"
   d="M819.555,715.682h23.403v18h-23.403    c-2.209,0-4-1.791-4-4v-10C815.555,717.473,817.346,715.682,819.555,715.682z"
   id="path20193" />
		<path
   fill="none"
   stroke="#0E1235"
   stroke-width="8"
   stroke-miterlimit="10"
   d="M581.958,707.682h-40.903v-18h40.903    c2.209,0,4,1.791,4,4v10C585.958,705.891,584.167,707.682,581.958,707.682z"
   id="path20195" />
		<path
   fill="none"
   stroke="#0E1235"
   stroke-width="8"
   stroke-miterlimit="10"
   d="M720.756,667.682    c0-16.489-13.882-29.736-30.596-28.692c-14.512,0.906-26.231,12.859-26.875,27.385c-0.443,9.991,4.217,18.918,11.591,24.397    l-10.35,76.296c-0.672,4.954,3.18,9.364,8.18,9.364h19.3h19.3c5,0,8.852-4.41,8.18-9.364l-10.35-76.296    C716.187,685.532,720.756,677.141,720.756,667.682z"
   id="path20197" />
		
			<line
   fill="none"
   stroke="#0E1235"
   stroke-width="6"
   stroke-linecap="round"
   stroke-miterlimit="10"
   x1="706.625"
   y1="583.108"
   x2="702.291"
   y2="604.348"
   id="line20199" />
		
			<line
   fill="none"
   stroke="#0E1235"
   stroke-width="6"
   stroke-linecap="round"
   stroke-miterlimit="10"
   x1="720.756"
   y1="583.108"
   x2="716.423"
   y2="604.348"
   id="line20201" />
		
			<line
   fill="none"
   stroke="#0E1235"
   stroke-width="6"
   stroke-linecap="round"
   stroke-miterlimit="10"
   x1="734.888"
   y1="583.108"
   x2="730.555"
   y2="604.348"
   id="line20203" />
		
			<line
   fill="none"
   stroke="#0E1235"
   stroke-width="6"
   stroke-linecap="round"
   stroke-miterlimit="10"
   x1="749.02"
   y1="583.108"
   x2="744.687"
   y2="604.348"
   id="line20205" />
		
			<line
   fill="none"
   stroke="#0E1235"
   stroke-width="6"
   stroke-linecap="round"
   stroke-miterlimit="10"
   x1="763.152"
   y1="583.108"
   x2="758.819"
   y2="604.348"
   id="line20207" />
		
			<line
   fill="none"
   stroke="#0E1235"
   stroke-width="6"
   stroke-linecap="round"
   stroke-miterlimit="10"
   x1="573.291"
   y1="786.682"
   x2="601.291"
   y2="786.682"
   id="line20209" />
		
			<line
   fill="none"
   stroke="#0E1235"
   stroke-width="6"
   stroke-linecap="round"
   stroke-miterlimit="10"
   x1="620.625"
   y1="786.682"
   x2="626.625"
   y2="786.682"
   id="line20211" />
		
			<line
   fill="none"
   stroke="#0E1235"
   stroke-width="6"
   stroke-linecap="round"
   stroke-miterlimit="10"
   x1="810.722"
   y1="786.682"
   x2="782.722"
   y2="786.682"
   id="line20213" />
		
			<line
   fill="none"
   stroke="#0E1235"
   stroke-width="6"
   stroke-linecap="round"
   stroke-miterlimit="10"
   x1="763.388"
   y1="786.682"
   x2="757.388"
   y2="786.682"
   id="line20215" />
		<g
   id="g20219">
			<path
   fill="none"
   stroke="#0E1235"
   stroke-width="8"
   stroke-miterlimit="10"
   d="M615.938,583.105v-71.06     c0-41.94,34.13-76.06,76.07-76.06s76.06,34.12,76.06,76.06v71.06 M565.938,583.125v-71.08c0-69.51,56.56-126.06,126.07-126.06     s126.06,56.55,126.06,126.06v71.08"
   id="path20217" />
		</g>
		
			<line
   fill="none"
   stroke="#0E1235"
   stroke-width="6"
   stroke-miterlimit="10"
   x1="565.938"
   y1="533.015"
   x2="615.938"
   y2="533.015"
   id="line20221" />
		
			<line
   fill="none"
   stroke="#0E1235"
   stroke-width="6"
   stroke-miterlimit="10"
   x1="565.938"
   y1="551.015"
   x2="615.938"
   y2="551.015"
   id="line20223" />
		
			<line
   fill="none"
   stroke="#0E1235"
   stroke-width="6"
   stroke-miterlimit="10"
   x1="818.075"
   y1="533.015"
   x2="768.075"
   y2="533.015"
   id="line20225" />
		
			<line
   fill="none"
   stroke="#0E1235"
   stroke-width="6"
   stroke-miterlimit="10"
   x1="818.075"
   y1="551.015"
   x2="768.075"
   y2="551.015"
   id="line20227" />
		<path
   fill="none"
   stroke="#0E1235"
   stroke-width="6"
   stroke-miterlimit="10"
   d="M541.055,742.969h-38.203    c-4.175,0-7.56-3.385-7.56-7.56v-40.06c0-5.523-4.477-10-10-10h-20"
   id="path20229" />
		<path
   fill="none"
   stroke="#0E1235"
   stroke-width="6"
   stroke-miterlimit="10"
   d="M509.958,742.969v21.296    c0,4.28-3.47,7.75-7.75,7.75h-35.5c-4.832,0-8.75,3.917-8.75,8.75v31.25"
   id="path20231" />
		<circle
   fill="#0E1235"
   cx="465.291"
   cy="685.348"
   r="7.667"
   id="circle20233" />
		<circle
   fill="#0E1235"
   cx="541.239"
   cy="910.187"
   r="7.667"
   id="circle20235" />
		<path
   fill="none"
   stroke="#0E1235"
   stroke-width="8"
   stroke-miterlimit="10"
   d="M457.958,806.399c0,0,23.5,22.66,43,22.58    c0,0,11.5,46.92-43,85.92c-54.5-39-43-85.92-43-85.92C434.458,829.059,457.958,806.399,457.958,806.399z"
   id="path20237" />
		<path
   fill="none"
   stroke="#0E1235"
   stroke-width="6"
   stroke-miterlimit="10"
   d="M457.958,899.783    c-28.391-23.392-32.2-48.113-32.07-60.274c12.555-3.256,24.433-11.261,32.07-17.285c7.635,6.021,19.509,14.022,32.059,17.281    C490.154,851.739,486.321,876.417,457.958,899.783z"
   id="path20239" />
		
			<line
   fill="none"
   stroke="#0E1235"
   stroke-width="4"
   stroke-linecap="round"
   stroke-miterlimit="10"
   x1="495.291"
   y1="718.015"
   x2="512.625"
   y2="718.015"
   id="line20241" />
		
			<line
   fill="none"
   stroke="#0E1235"
   stroke-width="4"
   stroke-linecap="round"
   stroke-miterlimit="10"
   x1="472.958"
   y1="772.015"
   x2="472.958"
   y2="763.015"
   id="line20243" />
		
			<line
   fill="none"
   stroke="#0E1235"
   stroke-width="4"
   stroke-linecap="round"
   stroke-miterlimit="10"
   x1="498.291"
   y1="772.015"
   x2="498.291"
   y2="796.348"
   id="line20245" />
		<path
   fill="none"
   stroke="#0E1235"
   stroke-width="6"
   stroke-miterlimit="10"
   d="M842.958,742.969h38.203    c4.175,0,7.56-3.385,7.56-7.56v-40.06c0-5.523,4.477-10,10-10h20"
   id="path20247" />
		<path
   fill="none"
   stroke="#0E1235"
   stroke-width="6"
   stroke-miterlimit="10"
   d="M874.055,742.969v21.296    c0,4.28,3.47,7.75,7.75,7.75h35.5c4.833,0,8.75,3.917,8.75,8.75v55.25"
   id="path20249" />
		<circle
   fill="#0E1235"
   cx="918.722"
   cy="685.348"
   r="7.667"
   id="circle20251" />
		
			<line
   fill="none"
   stroke="#0E1235"
   stroke-width="4"
   stroke-linecap="round"
   stroke-miterlimit="10"
   x1="888.722"
   y1="718.015"
   x2="871.388"
   y2="718.015"
   id="line20253" />
		
			<line
   fill="none"
   stroke="#0E1235"
   stroke-width="4"
   stroke-linecap="round"
   stroke-miterlimit="10"
   x1="911.055"
   y1="772.015"
   x2="911.055"
   y2="763.015"
   id="line20255" />
		
			<line
   fill="none"
   stroke="#0E1235"
   stroke-width="4"
   stroke-linecap="round"
   stroke-miterlimit="10"
   x1="885.722"
   y1="772.015"
   x2="885.722"
   y2="796.348"
   id="line20257" />
		<path
   fill="none"
   stroke="#0E1235"
   stroke-width="8"
   stroke-miterlimit="10"
   d="M976.173,836.015H875.937    c-5.458,0-9.882,4.424-9.882,9.882v59.12c0,5.458,4.424,9.882,9.882,9.882h100.236c5.458,0,9.882-4.424,9.882-9.882v-59.12    C986.055,840.439,981.631,836.015,976.173,836.015z"
   id="path20259" />
		<path
   fill="none"
   stroke="#0E1235"
   stroke-width="5"
   stroke-miterlimit="10"
   d="M896.673,872.682H884.34    c-1.868,0-3.382-1.514-3.382-3.382v-15.903c0-1.868,1.514-3.382,3.382-3.382h12.333c1.868,0,3.382,1.514,3.382,3.382V869.3    C900.055,871.168,898.541,872.682,896.673,872.682z"
   id="path20261" />
		<path
   fill="none"
   stroke="#0E1235"
   stroke-width="5"
   stroke-miterlimit="10"
   d="M927.958,898.015h-43.667    c-1.841,0-3.333-1.492-3.333-3.333v-7c0-1.841,1.492-3.333,3.333-3.333h43.667c1.841,0,3.333,1.492,3.333,3.333v7    C931.291,896.523,929.799,898.015,927.958,898.015z"
   id="path20263" />
		<path
   fill="none"
   stroke="#0E1235"
   stroke-width="5"
   stroke-miterlimit="10"
   d="M971.958,898.015h-26.667    c-1.841,0-3.333-1.492-3.333-3.333v-7c0-1.841,1.492-3.333,3.333-3.333h26.667c1.841,0,3.333,1.492,3.333,3.333v7    C975.291,896.523,973.799,898.015,971.958,898.015z"
   id="path20265" />
		
			<line
   fill="none"
   stroke="#0E1235"
   stroke-width="6"
   stroke-linecap="round"
   stroke-miterlimit="10"
   x1="917.458"
   y1="856.515"
   x2="966.458"
   y2="856.515"
   id="line20267" />
		<path
   fill="none"
   stroke="#0E1235"
   stroke-width="6"
   stroke-miterlimit="10"
   d="M692.006,869.308h-78.882    c-6.535,0-11.833,5.298-11.833,11.833v10.833"
   id="path20269" />
		<path
   fill="none"
   stroke="#0E1235"
   stroke-width="6"
   stroke-miterlimit="10"
   d="M692.006,844.095v25.213h78.882    c6.535,0,11.833,5.298,11.833,11.833v10.833"
   id="path20271" />
		<path
   fill="none"
   stroke="#0E1235"
   stroke-width="8"
   stroke-miterlimit="10"
   d="M790.379,1014.015H593.634    c-7.25,0-13.128-5.877-13.128-13.128v-95.785c0-7.25,5.877-13.128,13.128-13.128h196.745c7.25,0,13.128,5.877,13.128,13.128    v95.785C803.506,1008.138,797.629,1014.015,790.379,1014.015z"
   id="path20273" />
		<g
   id="g20291">
			<path
   fill="none"
   stroke="#0E1235"
   stroke-width="5"
   stroke-miterlimit="10"
   d="M691.456,974.552c0.369,0.02,0.731,0.02,1.1,0     c2.189-0.119,10.208-0.609,11.171-1.472c1.116-1,2.233-15.167,2.233-15.167s10.047-3.5,10.047-18c0-7.25-6-11.25-12-13.438     c-7.668-2.796-16.332-2.796-24,0c-6,2.188-12,6.188-12,13.438c0,14.5,10.047,18,10.047,18s1.116,14.167,2.233,15.167     C681.248,973.943,689.267,974.433,691.456,974.552z"
   id="path20275" />
			<path
   fill="#0E1235"
   d="M684.53,971.83c0.28-2.419,0.664-4.826,1.149-7.213c0.591,0.333,0.789,1.075,0.931,1.739     c0.452,2.107,0.904,4.215,1.356,6.322"
   id="path20277" />
			<path
   fill="#0E1235"
   d="M690.288,971.83c0.28-2.419,0.664-4.826,1.149-7.213c0.591,0.333,0.789,1.075,0.931,1.739     c0.452,2.107,0.904,4.215,1.356,6.322"
   id="path20279" />
			<path
   fill="#0E1235"
   d="M696.047,971.83c0.28-2.419,0.664-4.826,1.149-7.213c0.591,0.333,0.789,1.075,0.931,1.739     c0.452,2.107,0.904,4.215,1.356,6.322"
   id="path20281" />
			<g
   id="g20287">
				<circle
   fill="#0E1235"
   cx="682.465"
   cy="942.872"
   r="5.125"
   id="circle20283" />
				<circle
   fill="#0E1235"
   cx="701.548"
   cy="942.872"
   r="5.125"
   id="circle20285" />
			</g>
			<path
   fill="#0E1235"
   d="M692.006,949.526l-0.023-0.053l-0.023,0.053l-3.245,7.285c-0.529,1.188,0.34,2.526,1.64,2.526h1.604     h0.047h1.604c1.3,0,2.169-1.339,1.64-2.526L692.006,949.526z"
   id="path20289" />
		</g>
		
			<line
   fill="none"
   stroke="#0E1235"
   stroke-width="5"
   stroke-miterlimit="10"
   x1="668.006"
   y1="939.914"
   x2="582.587"
   y2="898.015"
   id="line20293" />
		
			<line
   fill="none"
   stroke="#0E1235"
   stroke-width="5"
   stroke-miterlimit="10"
   x1="715.912"
   y1="939.914"
   x2="801.332"
   y2="898.015"
   id="line20295" />
		<path
   fill="none"
   stroke="#0E1235"
   stroke-width="6"
   stroke-miterlimit="10"
   d="M558.958,844.095v28.567    c0,4.407-3.573,7.98-7.98,7.98h-1.943c-4.407,0-7.98,3.573-7.98,7.98v20.893"
   id="path20297" />
		
			<line
   fill="none"
   stroke="#0E1235"
   stroke-width="4"
   stroke-linecap="round"
   stroke-miterlimit="10"
   x1="560.625"
   y1="865.015"
   x2="569.958"
   y2="865.015"
   id="line20299" />
		
			<line
   fill="none"
   stroke="#0E1235"
   stroke-width="4"
   stroke-linecap="round"
   stroke-miterlimit="10"
   x1="545.987"
   y1="833.328"
   x2="526.958"
   y2="833.328"
   id="line20301" />
		<circle
   fill="#0E1235"
   cx="842.774"
   cy="910.187"
   r="7.667"
   id="circle20303" />
		<path
   fill="none"
   stroke="#0E1235"
   stroke-width="6"
   stroke-miterlimit="10"
   d="M825.055,844.095v28.567    c0,4.407,3.573,7.98,7.98,7.98h1.943c4.407,0,7.98,3.573,7.98,7.98v20.893"
   id="path20305" />
		
			<line
   fill="none"
   stroke="#0E1235"
   stroke-width="4"
   stroke-linecap="round"
   stroke-miterlimit="10"
   x1="823.388"
   y1="865.015"
   x2="814.055"
   y2="865.015"
   id="line20307" />
		
			<line
   fill="none"
   stroke="#0E1235"
   stroke-width="4"
   stroke-linecap="round"
   stroke-miterlimit="10"
   x1="838.026"
   y1="833.328"
   x2="857.055"
   y2="833.328"
   id="line20309" />
	</g>
</g>


<g
   id="g21130"
   transform="matrix(0.96716789,0,0,0.96716789,194.88562,9.412607)"><rect
     x="183.64665"
     y="534.75458"
     fill="#8ea3ae"
     width="121.43451"
     height="72.551849"
     id="rect20319"
     style="stroke-width:1.80406" /><polygon
     fill="#ffce00"
     points="891.609,767.57 922.707,767.57 922.707,751.544 891.609,751.544 891.602,751.544 "
     id="polygon20321"
     transform="matrix(1.8040544,0,0,1.8040544,-703.14538,-342.07729)" /><path
     fill="#577483"
     d="m 608.14604,863.39913 c 0,-19.96187 -8.01541,-38.4895 -22.57413,-52.16424 -13.41134,-12.60131 -30.64727,-19.39718 -48.95123,-19.39718 -1.54426,0 -3.09394,0.0487 -4.65083,0.14612 -35.90431,2.24244 -65.27792,32.17712 -66.87088,68.14815 -1.05539,23.82435 9.73285,46.53197 28.85764,60.74612 l 5.48072,4.0717 -30.84393,227.3614 c -0.48528,3.5721 0.55385,7.0305 2.92437,9.7473 2.37053,2.7133 5.66114,4.2071 9.26382,4.2071 h 111.60603 c 3.6027,0 6.8951,-1.4938 9.26383,-4.2071 2.37233,-2.7132 3.41146,-6.177 2.92438,-9.7491 l -30.84393,-227.3596 5.48072,-4.0717 c 18.38691,-13.66572 28.93342,-34.61439 28.93342,-57.47897 z"
     id="path20323"
     style="stroke-width:1.80406" /><path
     fill="#577483"
     d="m 175.29203,1361.9009 h 722.58334 c 31.11452,0 57.06234,-22.4658 62.51949,-52.0235 H 112.77433 c 5.45727,29.5559 31.40499,52.0235 62.5177,52.0235 z"
     id="path20325"
     style="stroke-width:1.80406" /><polygon
     fill="#ffce00"
     points="451.675,648.706 451.675,664.732 482.78,664.732 482.772,648.706 "
     id="polygon20329"
     transform="matrix(1.8040544,0,0,1.8040544,-703.14538,-342.07729)" /><polygon
     fill="#ffce00"
     points="451.675,709.874 451.675,725.901 510.827,725.901 510.819,709.874 "
     id="polygon20331"
     transform="matrix(1.8040544,0,0,1.8040544,-703.14538,-342.07729)" /><rect
     x="768.06836"
     y="534.75458"
     fill="#8ea3ae"
     width="121.43451"
     height="72.551849"
     id="rect20339"
     style="stroke-width:1.80406" /><path
     fill="#c3d6dd"
     d="M 905.37299,990.61022 H 961.4593 V 694.0363 c 0,-12.7673 -3.76323,-24.64338 -10.2579,-34.61801 -11.35117,-17.41994 -31.01714,-28.97311 -53.33321,-28.97311 H 748.79193 l -5.92812,28.97311 -4.61298,22.5994 c -0.82985,4.10782 -4.45059,6.9402 -8.47725,6.9402 -0.58631,0 -1.15278,-0.0614 -1.7391,-0.18222 -4.69414,-0.95073 -7.72857,-5.54385 -6.77783,-10.21816 l 3.90577,-19.14102 5.92814,-28.97311 h -23.16588 l -5.90828,28.97311 -4.61296,22.5994 c -0.82987,4.10783 -4.4506,6.94019 -8.49709,6.94019 -0.56647,0 -1.1528,-0.0614 -1.74091,-0.1822 -4.69417,-0.95074 -7.70873,-5.54387 -6.758,-10.21818 l 3.90578,-19.14101 5.90827,-28.97311 h -23.14602 l -5.90827,28.97311 -4.61296,22.59939 c -0.84971,4.10783 -4.47226,6.94019 -8.4971,6.94019 -0.56647,0 -1.1528,-0.0614 -1.73911,-0.1822 -4.69415,-0.95074 -7.72857,-5.54386 -6.77783,-10.21817 l 3.90396,-19.14102 5.92812,-28.97312 h -23.16585 l -5.90828,28.97312 -4.61297,22.5994 c -0.82986,4.10783 -4.4506,6.94019 -8.49709,6.94019 -0.56649,0 -1.15279,-0.0614 -1.73911,-0.18221 -4.69415,-0.95073 -7.70873,-5.54386 -6.75799,-10.21816 l 3.90579,-19.14102 5.90827,-28.97311 h -23.14602 l -5.90827,28.97311 -4.61298,22.59939 c -0.84971,4.10783 -4.4506,6.9402 -8.49709,6.9402 -0.56647,0 -1.15279,-0.0614 -1.74091,-0.18221 -4.69416,-0.95074 -7.72857,-5.54385 -6.758,-10.21816 l 3.90579,-19.14103 5.90827,-28.97311 H 175.28661 c -22.2963,0 -41.96229,11.55317 -53.3134,28.97311 -6.51444,9.97463 -10.2777,21.85071 -10.2777,34.61801 v 111.0594 h 56.1061 c 12.74745,0 23.12616,10.37872 23.12616,23.12616 v 28.9136 c 0,12.74743 -10.37871,23.12616 -23.12616,23.12616 h -56.1061 v 35.18448 h 106.70802 c 12.74744,0 23.12616,10.3787 23.12616,23.12616 v 28.91362 c 0,12.7672 -10.37872,23.12618 -23.12616,23.12618 H 111.69551 V 1286.7313 H 961.45739 V 1065.7959 H 905.3712 c -12.76732,0 -23.14604,-10.3787 -23.14604,-23.1261 v -28.9135 c 0,-12.7656 10.38063,-23.14608 23.14783,-23.14608 z M 274.30756,1216.1477 h -80.97138 c -4.77533,0 -8.65945,-3.8841 -8.65945,-8.6793 0,-4.7952 3.88412,-8.6793 8.65945,-8.6793 h 80.97138 c 4.77534,0 8.65947,3.8841 8.65947,8.6793 0,4.7933 -3.88413,8.6793 -8.65947,8.6793 z m 73.24282,0 h -17.36042 c -4.77534,0 -8.65946,-3.8841 -8.65946,-8.6793 0,-4.7952 3.88412,-8.6793 8.65946,-8.6793 h 17.36042 c 4.77533,0 8.65946,3.8841 8.65946,8.6793 0,4.7933 -3.88413,8.6793 -8.65946,8.6793 z m 279.94234,-66.9521 c 1.37649,10.137 -1.69942,20.375 -8.41772,28.0837 -6.73814,7.689 -16.46922,12.1196 -26.68738,12.1196 H 480.7834 c -10.23801,0 -19.94922,-4.4306 -26.68737,-12.1196 -6.73815,-7.7087 -9.79241,-17.9467 -8.41772,-28.0837 l 29.03445,-214.10514 c -21.87236,-18.91733 -34.01184,-46.81884 -32.71653,-75.97416 2.10352,-47.62884 40.99172,-87.24407 88.51955,-90.21896 26.46367,-1.63809 51.65549,7.40566 70.89573,25.47324 18.97865,17.84572 29.86431,42.99424 29.86431,69.03397 0,27.47574 -12.15933,53.77886 -32.81754,71.66426 z m 115.49015,66.9521 h -17.36041 c -4.79519,0 -8.6793,-3.8841 -8.6793,-8.6793 0,-4.7952 3.88411,-8.6793 8.6793,-8.6793 h 17.36041 c 4.77534,0 8.65947,3.8841 8.65947,8.6793 0,4.7933 -3.88413,8.6793 -8.65947,8.6793 z m 145.51505,-8.681 c 0,4.795 -3.88405,8.6792 -8.6793,8.6792 h -80.95155 c -4.79518,0 -8.65947,-3.8842 -8.65947,-8.6792 0,-4.7953 3.86429,-8.6794 8.65947,-8.6794 h 80.95155 c 4.79525,0 8.6793,3.8841 8.6793,8.6794 z"
     id="path20347"
     style="stroke-width:1.80406" /><rect
     x="768.06836"
     y="482.71118"
     fill="#ffce00"
     width="121.43451"
     height="34.695576"
     id="rect20349"
     style="stroke-width:1.80406" /><path
     fill="#8ea3ae"
     d="m 305.08112,413.40481 c 0,-127.63865 103.85401,-231.47822 231.50711,-231.47822 127.63865,0 231.48002,103.83957 231.48002,231.47822 v 51.95675 h 121.43454 v -51.95675 c 0,-194.59794 -158.31663,-352.914553 -352.91638,-352.914553 -194.61236,0 -352.9416,158.316613 -352.9416,352.914553 v 51.95675 h 121.43452 v -51.95675 z"
     id="path20351"
     style="stroke-width:1.80406" /><path
     fill="#e0e9ed"
     d="M 841.05121,235.09387 C 770.9439,147.48537 660.55382,90.874142 536.58641,90.874142 c -124.00708,0 -234.45852,56.652728 -304.54603,144.320748 61.34686,-104.44212 174.89406,-174.711846 304.54603,-174.711846 129.59246,0 243.09815,70.208386 304.4648,174.610826 z"
     id="path20353"
     style="stroke-width:1.80406" /><path
     fill="#8ea3ae"
     d="m 889.50997,413.4066 v 51.95858 H 768.07186 V 413.4066 c 0,-25.19 -4.04649,-49.42928 -11.53333,-72.15134 -30.36944,-92.42352 -117.49265,-159.33409 -219.95212,-159.33409 -102.45946,0 -189.60251,66.91057 -219.97196,159.33409 -7.48682,22.72206 -11.53333,46.96134 -11.53333,72.15134 v 51.95858 H 183.64301 V 413.4066 c 0,-64.9676 17.64365,-125.88871 48.39737,-178.21171 70.08751,-87.66982 180.53895,-144.320748 304.54603,-144.320748 123.96741,0 234.35749,56.611228 304.4648,144.219728 30.79533,52.34104 48.45876,113.30364 48.45876,178.31273 z"
     id="path20355"
     style="stroke-width:1.80406" /><polyline
     opacity="0.4"
     fill="#8ea3ae"
     points="445.414,875.892 926.922,875.892 926.922,907.295 451.675,907.295  "
     id="polyline20361"
     transform="matrix(1.8040544,0,0,1.8040544,-703.14538,-342.07729)" /><path
     opacity="0.5"
     fill="#8ea3ae"
     d="m 175.28661,630.44518 h 392.3566 l -5.90829,28.97311 H 121.97321 c 11.35111,-17.42175 31.0171,-28.97311 53.3134,-28.97311 z"
     id="path20363"
     style="stroke-width:1.80406" /><polygon
     opacity="0.5"
     fill="#8ea3ae"
     points="727.051,539.076 723.776,555.136 710.946,555.136 714.221,539.076 "
     id="polygon20365"
     transform="matrix(1.8040544,0,0,1.8040544,-703.14538,-342.07729)" /><polygon
     opacity="0.5"
     fill="#8ea3ae"
     points="749.706,539.076 746.42,555.136 733.59,555.136 736.865,539.076 "
     id="polygon20367"
     transform="matrix(1.8040544,0,0,1.8040544,-703.14538,-342.07729)" /><polygon
     opacity="0.5"
     fill="#8ea3ae"
     points="772.35,539.076 769.075,555.136 756.245,555.136 759.519,539.076 "
     id="polygon20369"
     transform="matrix(1.8040544,0,0,1.8040544,-703.14538,-342.07729)" /><polygon
     opacity="0.5"
     fill="#8ea3ae"
     points="795.004,539.076 791.718,555.136 778.888,555.136 782.163,539.076 "
     id="polygon20371"
     transform="matrix(1.8040544,0,0,1.8040544,-703.14538,-342.07729)" /><path
     opacity="0.5"
     fill="#8ea3ae"
     d="M 951.19961,659.41829 H 742.862 l 5.92813,-28.97311 h 149.07626 c 22.31619,0 41.98216,11.55136 53.33322,28.97311 z"
     id="path20373"
     style="stroke-width:1.80406" /><rect
     x="100.9109"
     y="953.03162"
     fill="#ff9d00"
     width="123.9259"
     height="23.032364"
     id="rect20375"
     style="stroke-width:1.80406" /><rect
     x="100.9109"
     y="842.67957"
     fill="#ff9d00"
     width="73.850777"
     height="19.573992"
     id="rect20377"
     style="stroke-width:1.80406" /><path
     fill="#5b7682"
     d="m 375.57275,243.96801 c 0,0 -91.72173,51.25679 -91.72173,164.56044 0,113.30363 0,213.12016 0,213.12016 h 31.02433 V 374.80886 c -0.001,0 39.09746,-115.60019 60.6974,-130.84085 z"
     id="path20387"
     style="stroke-width:1.80406" /><rect
     x="183.64665"
     y="482.71118"
     fill="#ffce00"
     width="121.43451"
     height="34.695576"
     id="rect20389"
     style="stroke-width:1.80406" /><rect
     x="283.85104"
     y="482.71118"
     fill="#ff9d00"
     width="21.230114"
     height="34.695576"
     id="rect20391"
     style="stroke-width:1.80406" /><path
     fill="#5b7682"
     d="m 697.66863,243.96801 c 0,0 91.72174,51.25679 91.72174,164.56044 0,113.30363 0,213.12016 0,213.12016 H 758.36604 V 374.80886 c 0,0 -39.09746,-115.60019 -60.69741,-130.84085 z"
     id="path20393"
     style="stroke-width:1.80406" /><rect
     x="768.16028"
     y="482.71118"
     fill="#ff9d00"
     width="21.230114"
     height="34.695576"
     id="rect20395"
     style="stroke-width:1.80406" /><path
     fill="#190d3a"
     d="m 631.27582,863.39913 c 0,-26.03251 -10.88386,-51.19006 -29.86792,-69.02313 -19.24566,-18.08383 -44.41943,-27.12395 -70.88311,-25.47866 -47.53684,2.96947 -86.42683,42.59373 -88.53577,90.20815 -1.29352,29.16974 10.84416,57.07667 32.72916,75.97409 l -29.04709,214.11782 c -1.3747,10.137 1.69582,20.3696 8.42312,28.0747 6.72914,7.7034 16.45659,12.1214 26.68559,12.1214 h 111.60603 c 10.22899,0 19.95464,-4.418 26.68557,-12.1214 6.72911,-7.7033 9.80141,-17.9359 8.42492,-28.0747 L 598.44745,935.0742 c 20.67085,-17.89079 32.82837,-44.19753 32.82837,-71.67507 z m -26.69999,288.90847 c 0.48527,3.5721 -0.55387,7.0359 -2.92438,9.7491 -2.36873,2.7133 -5.66113,4.2071 -9.26383,4.2071 H 480.78159 c -3.60268,0 -6.89329,-1.4938 -9.26382,-4.2071 -2.37052,-2.7169 -3.40965,-6.1752 -2.92437,-9.7473 l 30.84212,-227.3614 -5.48071,-4.07169 c -19.12478,-14.21415 -29.91484,-36.9218 -28.85766,-60.74613 1.59478,-35.97105 30.9666,-65.90391 66.87088,-68.14817 1.55691,-0.0975 3.10659,-0.14612 4.65086,-0.14612 18.30393,0 35.53806,6.79407 48.95121,19.3972 14.55872,13.67654 22.57414,32.20238 22.57414,52.16423 0,22.86459 -10.5465,43.81327 -28.93343,57.47718 l -5.48071,4.07171 z"
     id="path20398"
     style="stroke-width:1.80406" /><path
     fill="#190d3a"
     d="M 274.29674,1198.7928 H 193.3398 c -4.78978,0 -8.6739,3.8822 -8.6739,8.6739 0,4.7914 3.88412,8.6738 8.6739,8.6738 h 80.95694 c 4.78977,0 8.67389,-3.8824 8.67389,-8.6738 0,-4.7917 -3.88412,-8.6739 -8.67389,-8.6739 z"
     id="path20400"
     style="stroke-width:1.80406" /><path
     fill="#190d3a"
     d="m 347.54496,1198.7928 h -17.34778 c -4.78977,0 -8.6739,3.8822 -8.6739,8.6739 0,4.7914 3.88413,8.6738 8.6739,8.6738 h 17.34778 c 4.78976,0 8.6739,-3.8824 8.6739,-8.6738 0,-4.7917 -3.88414,-8.6739 -8.6739,-8.6739 z"
     id="path20402"
     style="stroke-width:1.80406" /><path
     fill="#190d3a"
     d="m 798.87068,1198.7928 c -4.79156,0 -8.6739,3.8822 -8.6739,8.6739 0,4.7914 3.88234,8.6738 8.6739,8.6738 h 80.95703 c 4.79142,0 8.6738,-3.8824 8.6738,-8.6738 0,-4.7917 -3.88238,-8.6739 -8.6738,-8.6739 z"
     id="path20404"
     style="stroke-width:1.80406" /><path
     fill="#190d3a"
     d="m 742.97205,1198.7928 h -17.34779 c -4.79157,0 -8.6739,3.8822 -8.6739,8.6739 0,4.7914 3.88233,8.6738 8.6739,8.6738 h 17.34779 c 4.79156,0 8.6739,-3.8824 8.6739,-8.6738 0,-4.7917 -3.88234,-8.6739 -8.6739,-8.6739 z"
     id="path20406"
     style="stroke-width:1.80406" /><path
     id="path20410"
     d="m 536.59239,37.359062 c -207.36705,0 -376.07488,168.695898 -376.07487,376.046698 v 195.18672 c -40.8005,7.03761 -71.943723,42.65581 -71.943723,85.43536 v 111.06565 75.1748 35.17551 75.17479 81.78851 h -0.683573 v 17.3464 h 0.683573 v 208.5587 c 0,13.718 3.213829,26.6986 8.911031,38.2409 h -0.468615 c 2.041197,3.4619 3.403477,7.3688 3.875897,11.5644 h 3.47421 c 8.77155,12.4559 20.73898,22.4888 34.69634,28.9353 a 32.86196,32.86196 0 0 1 12.14916,6.1239 h 771.6668 a 26.993751,28.167393 0 0 1 7.0611,-4.2282 v -0.087 c 15.74759,-6.2925 29.22741,-17.0664 38.86109,-30.7465 h 2.75896 a 59.855713,58.68207 0 0 1 4.81679,-11.5642 h -0.6942 c 5.49375,-11.1303 8.64844,-23.6022 8.86879,-36.7789 V 825.69563 c 0,-0.33072 0.0383,-0.65154 0.049,-0.97954 V 694.02784 c 0,-42.78676 -31.15184,-78.41029 -71.9613,-85.43888 V 413.40576 C 912.63914,206.05496 743.945,37.359062 536.59239,37.359062 Z m -0.004,23.132069 c 194.59975,0 352.91451,158.316699 352.91451,352.914629 v 51.95466 H 768.0712 v -51.95466 c 0,-127.63865 -103.84409,-231.47922 -231.48274,-231.47922 -127.6531,0 -231.5074,103.84057 -231.5074,231.47922 v 51.95466 h -121.4319 v -51.95466 h -0.004 c 0,-194.59793 158.33043,-352.914629 352.94281,-352.914629 z m 0,144.563969 c 114.88399,0 208.35066,93.46848 208.35066,208.35066 v 193.8971 H 328.21001 v -193.8971 c 0,-114.88399 93.47863,-208.35066 208.37886,-208.35066 z M 183.64606,482.71036 h 121.43541 v 34.69633 H 183.64606 Z m 584.42203,0 h 121.43542 v 34.69633 H 768.06809 Z m -584.42203,52.04272 h 121.43541 v 72.55331 H 183.64606 Z m 584.42555,0 h 121.4319 v 72.55331 h -121.4319 z m -592.77988,95.68184 h 392.34662 l -9.81661,48.11399 c -0.95795,4.69234 2.07105,9.27442 6.76521,10.23237 0.5845,0.12091 1.16693,0.17619 1.74062,0.17619 4.03748,0 7.65287,-2.83175 8.49175,-6.94139 l 10.52483,-51.58116 h 23.15319 l -9.81658,48.11399 c -0.95795,4.69234 2.06925,9.27442 6.76521,10.23237 0.58451,0.12091 1.16693,0.17619 1.74062,0.17619 4.03747,0 7.65285,-2.83175 8.49174,-6.94139 l 10.52484,-51.58116 h 23.15319 l -9.81657,48.11399 c -0.95796,4.69234 2.06925,9.27442 6.7652,10.23237 0.58451,0.12091 1.17044,0.17619 1.74413,0.17619 4.03748,0 7.64934,-2.83175 8.48823,-6.94139 l 10.52482,-51.58116 h 23.15672 l -9.82011,48.11399 c -0.95796,4.69234 2.06925,9.27442 6.7652,10.23237 0.58452,0.12091 1.17048,0.17619 1.74416,0.17619 4.03747,0 7.64934,-2.83175 8.48822,-6.94139 l 10.52482,-51.58116 h 23.15673 l -9.81658,48.11399 c -0.95795,4.69234 2.06925,9.27442 6.76519,10.23237 0.58451,0.12091 1.16695,0.17619 1.74065,0.17619 4.03747,0 7.65285,-2.83175 8.49174,-6.94139 l 10.52481,-51.58116 h 149.09165 c 35.06544,0 63.59302,28.52932 63.59302,63.59292 v 296.59075 h -56.10186 c -12.75475,0 -23.12857,10.37571 -23.12857,23.12861 v 28.9142 c 0,12.7546 10.37561,23.1286 23.12857,23.1284 h 56.10186 v 220.9546 H 111.70233 V 990.61859 h 106.69643 c 12.75467,0 23.12854,-10.3792 23.12854,-23.13204 v -28.91422 c 0,-12.75464 -10.37568,-23.12853 -23.12854,-23.12853 H 111.70233 v -35.17551 h 56.09833 c 12.75468,0 23.12857,-10.37923 23.12857,-23.13208 v -28.9142 c 0,-12.75467 -10.3757,-23.12852 -23.12857,-23.12852 H 111.70233 V 694.02784 c 0,-35.0636 28.52399,-63.59292 63.5894,-63.59292 z m -63.5894,197.78709 h 56.09833 l 0.0141,28.9142 h -56.11245 z m 0,110.35032 h 106.69643 l 0.0141,28.91422 H 111.70233 Z m 793.65009,75.17487 h 0.0143 56.10186 v 28.9142 h -56.10186 z m -792.57894,296.1292 h 847.62018 c -5.45547,29.5558 -31.40377,52.0251 -62.51829,52.0251 H 175.29173 c -31.11272,0 -57.06098,-22.4674 -62.51825,-52.0251 z"
     style="stroke-width:1.80406" /></g>
</svg>
