<?xml version="1.0" encoding="UTF-8" standalone="no"?>
<svg
   xmlns:dc="http://purl.org/dc/elements/1.1/"
   xmlns:cc="http://creativecommons.org/ns#"
   xmlns:rdf="http://www.w3.org/1999/02/22-rdf-syntax-ns#"
   xmlns:svg="http://www.w3.org/2000/svg"
   xmlns="http://www.w3.org/2000/svg"
   xmlns:sodipodi="http://sodipodi.sourceforge.net/DTD/sodipodi-0.dtd"
   xmlns:inkscape="http://www.inkscape.org/namespaces/inkscape"
   version="1.1"
   x="0px"
   y="0px"
   viewBox="0 0 500 500"
   xml:space="preserve"
   id="svg292"
   sodipodi:docname="megaphone.svg"
   width="500"
   height="500"
   inkscape:version="1.0.1 (3bc2e813f5, 2020-09-07)"><metadata
   id="metadata298"><rdf:RDF><cc:Work
       rdf:about=""><dc:format>image/svg+xml</dc:format><dc:type
         rdf:resource="http://purl.org/dc/dcmitype/StillImage" /><dc:title></dc:title></cc:Work></rdf:RDF></metadata><defs
   id="defs296">
	
	

		
		
		
		
	
			
			
		
			
		
			
			
			
			
			
			
			
			
			
			
			
			
			
			
			
			
			
			
			
			
			
			
			
			
			
			
			
			
			
			
			
			
			
			
			
			
			
		
				
				
				
				
				
				
			
				
				
				
				
				
				
				
				
				
				
				
				
				
			<filter
   inkscape:collect="always"
   style="color-interpolation-filters:sRGB"
   id="filter1609"
   x="-2.9585027e-05"
   width="1.0000592"
   y="-3.0426781e-05"
   height="1.0000609"><feGaussianBlur
     inkscape:collect="always"
     stdDeviation="0.0053635076"
     id="feGaussianBlur1611" /></filter></defs><sodipodi:namedview
   pagecolor="#ffffff"
   bordercolor="#666666"
   borderopacity="1"
   objecttolerance="10"
   gridtolerance="10"
   guidetolerance="10"
   inkscape:pageopacity="0"
   inkscape:pageshadow="2"
   inkscape:window-width="1366"
   inkscape:window-height="705"
   id="namedview294"
   showgrid="false"
   inkscape:zoom="0.54897959"
   inkscape:cx="441.0589"
   inkscape:cy="389.7392"
   inkscape:window-x="-8"
   inkscape:window-y="-8"
   inkscape:window-maximized="1"
   inkscape:current-layer="svg292"
   inkscape:document-rotation="0" />
<style
   type="text/css"
   id="style2">
	.st0{display:none;}
	.st1{display:inline;}
	.st2{fill:none;stroke:#050A0F;stroke-width:4;stroke-linejoin:round;stroke-miterlimit:10;}
	.st3{fill:#050A0F;}
	.st4{fill:none;stroke:#050A0F;stroke-width:2;stroke-linecap:round;stroke-linejoin:round;stroke-miterlimit:10;}
	.st5{fill:none;stroke:#050A0F;stroke-width:2;stroke-linejoin:round;stroke-miterlimit:10;}
	.st6{fill:#F04B36;}
	.st7{opacity:0.46;}
	.st8{fill:#A32323;}
	.st9{fill:#60718D;}
	.st10{fill:#A9B3C1;}
	.st11{fill:#FFFFFF;}
	.st12{fill:#BC2E2A;}
	.st13{fill:#445D7B;}
</style>
<g
   id="Layer_2"
   class="st0">
			<g
   class="st1"
   id="g164">
				<g
   id="g18">
					<polygon
   class="st2"
   points="812.2,307.7 812.2,339.7 812.2,371.7 797.7,363.1 797.7,339.7 797.7,316.4 "
   id="polygon4" />
					<path
   class="st2"
   d="m 797.7,363.1 -201.5,33.2 c 0,0 -10,-23.5 -10,-56.5 0,-33 10,-56.5 10,-56.5 l 201.5,33.2"
   id="path6" />
					<path
   class="st2"
   d="m 605.2,394.8 c -2.9,-9.5 -8,-29.7 -8,-55 0,-25.3 5.1,-45.5 8,-55"
   id="path8" />
					<path
   class="st2"
   d="m 784,365.5 c 0.2,1.6 0.3,3.3 0.3,5 0,24.7 -21.9,44.8 -49,44.8 -23,0 -42.2,-14.5 -47.5,-33.9"
   id="path10" />
					<path
   class="st2"
   d="m 772.4,367.4 c 0.1,1 0.2,2.1 0.2,3.1 0,18.8 -16.7,34 -37.2,34 -17.2,0 -31.6,-10.6 -35.9,-25.1"
   id="path12" />
					<circle
   class="st3"
   cx="777.5"
   cy="324"
   r="1.6"
   id="circle14" />
					<circle
   class="st3"
   cx="770.40002"
   cy="323.10001"
   r="1.6"
   id="circle16" />
				</g>
				<g
   id="g54">
					<path
   class="st2"
   d="m 1173.4,324.7 v 32.8 c 0,4.8 -3.9,8.7 -8.7,8.7 h -1.8 c 0,0 -69.2,-4 -121.5,23.7 0,0 -15,-36 -15,-65.2 0,-29.2 15,-65.2 15,-65.2 52.3,27.7 121.5,23.7 121.5,23.7 h 1.8 c 4.8,0 8.7,3.9 8.7,8.7 v 32.8"
   id="path20" />
					<path
   class="st2"
   d="m 1049.8,385.8 v 0 c -4.4,-14.1 -11.3,-39.3 -11.3,-61.1 0,-21.8 6.8,-47 11.3,-61.1 v 0"
   id="path22" />
					<path
   class="st2"
   d="m 1028.5,345.5 c -9.5,-3.4 -16.3,-11.4 -16.3,-20.8 0,-9.4 6.7,-17.4 16.3,-20.8"
   id="path24" />
					<path
   class="st2"
   d="m 1199.8,355.2 h -26.3 v -61 h 26.3 c 6.3,0 11.3,5.1 11.3,11.3 v 38.3 c 0,6.3 -5.1,11.4 -11.3,11.4 z"
   id="path26" />
					<g
   id="g42">
						<line
   class="st4"
   x1="1211"
   y1="305.10001"
   x2="1194.9"
   y2="305.10001"
   id="line28" />
						<line
   class="st4"
   x1="1211"
   y1="311.60001"
   x2="1194.9"
   y2="311.60001"
   id="line30" />
						<line
   class="st4"
   x1="1211"
   y1="318.10001"
   x2="1194.9"
   y2="318.10001"
   id="line32" />
						<line
   class="st4"
   x1="1211"
   y1="324.70001"
   x2="1194.9"
   y2="324.70001"
   id="line34" />
						<line
   class="st4"
   x1="1211"
   y1="331.20001"
   x2="1194.9"
   y2="331.20001"
   id="line36" />
						<line
   class="st4"
   x1="1211"
   y1="337.79999"
   x2="1194.9"
   y2="337.79999"
   id="line38" />
						<line
   class="st4"
   x1="1211"
   y1="344.29999"
   x2="1194.9"
   y2="344.29999"
   id="line40" />
					</g>
					<path
   class="st2"
   d="m 1164.4,366.2 -9.3,67.9 c -0.4,3.1 -3.3,5.3 -6.5,4.9 l -12.1,-1.7 c -3.1,-0.4 -5.3,-3.3 -4.9,-6.5 l 8.9,-64.6"
   id="path44" />
					<path
   class="st2"
   d="m 1138.4,381.4 c -1.3,-0.5 -2.8,-0.6 -4.2,-0.1 -3.1,1.1 -4.7,4.4 -3.6,7.5 0.9,2.6 3.6,4.2 6.2,3.9"
   id="path46" />
					<line
   class="st4"
   x1="1156.7"
   y1="366"
   x2="1145"
   y2="438.5"
   id="line48" />
					<line
   class="st4"
   x1="1127.4"
   y1="294.20001"
   x2="1134.3"
   y2="294.20001"
   id="line50" />
					<line
   class="st4"
   x1="1141.2"
   y1="294.20001"
   x2="1164.4"
   y2="294.20001"
   id="line52" />
				</g>
				<g
   id="g86">
					<path
   class="st2"
   d="m 354.4,322.5 v 31.7 c 0,3.7 -3,6.9 -7.1,7.7 l -130.9,25.4 c 0,0 -17,-25.1 -17,-64.8 0,-39.7 17,-64.8 17,-64.8 l 130.9,25.4 c 4.2,0.8 7.1,4 7.1,7.7 z"
   id="path56" />
					<path
   class="st2"
   d="m 270.7,376.8 c -4.9,-10.9 -11.4,-29.8 -11.4,-54.3 0,-24.5 6.4,-43.3 11.4,-54.3"
   id="path58" />
					<path
   class="st2"
   d="m 200.4,339.1 c -6.7,-2.5 -11.5,-9 -11.5,-16.6 0,-7.6 4.8,-14.1 11.5,-16.6"
   id="path60" />
					<path
   class="st2"
   d="M 353.5,287.5 H 365 c 2.5,0 4.6,2.1 4.6,4.6 v 30.4 30.4 c 0,2.5 -2.1,4.6 -4.6,4.6 h -11.4"
   id="path62" />
					<path
   class="st2"
   d="m 365,357.5 -4.7,16 c -0.5,1.8 -2.1,3 -4,3 H 328.4 L 321,367"
   id="path64" />
					<path
   class="st2"
   d="m 339.6,376.5 c 0,0 -7.8,44 -13.8,59.3 0,0 10.3,6.8 21,4.8 0,0 7.5,-26.3 13.4,-67"
   id="path66" />
					<path
   class="st2"
   d="m 336.8,391.4 c 0,0 -6.6,0 -7.4,6.6 -0.6,4.9 4.3,8.4 4.3,8.4"
   id="path68" />
					<path
   class="st2"
   d="m 373.7,344.8 h -4.2 v -44.7 h 4.2 c 6.9,0 12.5,5.6 12.5,12.5 v 19.7 c 0,6.9 -5.6,12.5 -12.5,12.5 z"
   id="path70" />
					<line
   class="st4"
   x1="385.39999"
   y1="308.29999"
   x2="379.39999"
   y2="308.29999"
   id="line72" />
					<line
   class="st4"
   x1="385.39999"
   y1="313.70001"
   x2="379.39999"
   y2="313.70001"
   id="line74" />
					<line
   class="st4"
   x1="385.39999"
   y1="319"
   x2="379.39999"
   y2="319"
   id="line76" />
					<line
   class="st4"
   x1="385.39999"
   y1="324.29999"
   x2="379.39999"
   y2="324.29999"
   id="line78" />
					<line
   class="st4"
   x1="385.39999"
   y1="329.60001"
   x2="379.39999"
   y2="329.60001"
   id="line80" />
					<line
   class="st4"
   x1="385.39999"
   y1="335"
   x2="379.39999"
   y2="335"
   id="line82" />
					<circle
   class="st3"
   cx="353.60001"
   cy="369.60001"
   r="1.9"
   id="circle84" />
				</g>
				<g
   id="g98">
					<path
   class="st2"
   d="m 784.3,664.1 c 0.1,22.7 -19.3,42 -44.4,43.4 -20.9,1.2 -39.3,-10.2 -46.3,-27.1"
   id="path88" />
					<path
   class="st2"
   d="m 704.9,678.4 c 5.8,11.9 19.3,19.8 34.4,18.9 18.4,-1.1 32.7,-14.7 33.7,-31.1"
   id="path90" />
					<path
   class="st2"
   d="m 591.4,704.1 h -1 c -2.9,0 -5.3,-2.4 -5.3,-5.3 V 583 c 0,-2.9 2.4,-5.3 5.3,-5.3 h 1 c 2.9,0 5.3,2.4 5.3,5.3 v 115.8 c 0,2.9 -2.4,5.3 -5.3,5.3 z"
   id="path92" />
					<path
   class="st2"
   d="m 808.1,668.1 h -1 c -2.9,0 -5.3,-2.4 -5.3,-5.3 V 619 c 0,-2.9 2.4,-5.3 5.3,-5.3 h 1 c 2.9,0 5.3,2.4 5.3,5.3 v 43.8 c 0,2.9 -2.4,5.3 -5.3,5.3 z"
   id="path94" />
					<polyline
   class="st2"
   points="596.7,697.8 801.8,661 801.8,640.9 801.8,620.9 596.7,584      "
   id="polyline96" />
				</g>
				<g
   id="g130">
					<path
   class="st2"
   d="m 364.8,645.3 -154.6,34.2 c 0,0 -7.7,-24.2 -7.7,-58.2 0,-34 7.7,-58.2 7.7,-58.2 l 154.6,34.2 z"
   id="path100" />
					<path
   class="st2"
   d="m 349.6,648.9 -2.2,68.2 c -0.1,3.1 -2.1,5.5 -4.4,5.2 l -9,-1.1 c -2.3,-0.3 -4.1,-3 -4,-6.2 l 2.1,-62.5"
   id="path102" />
					<path
   class="st2"
   d="m 203,636.4 c -0.3,0 -0.7,0.1 -1,0.1 h -2.7 c -4.2,0 -7.7,-3.4 -7.7,-7.7 v -15 c 0,-4.2 3.4,-7.7 7.7,-7.7 h 2.7 c 0.3,0 0.7,0 1,0.1"
   id="path104" />
					<path
   class="st2"
   d="M 376,643.4 H 364.7 V 599 H 376 c 4.1,0 7.5,3.4 7.5,7.5 v 29.4 c 0,4.2 -3.3,7.5 -7.5,7.5 z"
   id="path106" />
					<g
   id="g120">
						<line
   class="st4"
   x1="383.5"
   y1="607.90002"
   x2="374.10001"
   y2="607.90002"
   id="line108" />
						<line
   class="st4"
   x1="383.5"
   y1="613.29999"
   x2="374.10001"
   y2="613.29999"
   id="line110" />
						<line
   class="st4"
   x1="383.5"
   y1="618.59998"
   x2="374.10001"
   y2="618.59998"
   id="line112" />
						<line
   class="st4"
   x1="383.5"
   y1="623.90002"
   x2="374.10001"
   y2="623.90002"
   id="line114" />
						<line
   class="st4"
   x1="383.5"
   y1="629.29999"
   x2="374.10001"
   y2="629.29999"
   id="line116" />
						<line
   class="st4"
   x1="383.5"
   y1="634.59998"
   x2="374.10001"
   y2="634.59998"
   id="line118" />
					</g>
					<line
   class="st4"
   x1="342.10001"
   y1="699.40002"
   x2="347.89999"
   y2="699.79999"
   id="line122" />
					<line
   class="st4"
   x1="342.10001"
   y1="695.40002"
   x2="347.89999"
   y2="695.79999"
   id="line124" />
					<path
   class="st2"
   d="m 331,684.1 -4.1,-0.3 c -1.1,-0.1 -1.9,-1 -1.8,-2.1 l 0.6,-8.2 c 0.1,-1.1 1,-1.9 2.1,-1.8 l 3.7,-0.1 z"
   id="path126" />
					<line
   class="st2"
   x1="299.70001"
   y1="659.70001"
   x2="299.70001"
   y2="583"
   id="line128" />
				</g>
				<g
   id="g162">
					<path
   class="st2"
   d="m 1197.8,655.1 h -47.7 v -51.9 h 47.7 c 4.1,0 7.5,3.4 7.5,7.5 v 36.9 c 0,4.1 -3.3,7.5 -7.5,7.5 z"
   id="path132" />
					<line
   class="st4"
   x1="1150.1"
   y1="612.90002"
   x2="1169.3"
   y2="612.90002"
   id="line134" />
					<line
   class="st4"
   x1="1175.2"
   y1="612.90002"
   x2="1178.7"
   y2="612.90002"
   id="line136" />
					<g
   id="g146">
						<line
   class="st4"
   x1="1195"
   y1="617.70001"
   x2="1205.3"
   y2="617.70001"
   id="line138" />
						<line
   class="st4"
   x1="1195"
   y1="625.29999"
   x2="1205.3"
   y2="625.29999"
   id="line140" />
						<line
   class="st4"
   x1="1195"
   y1="633"
   x2="1205.3"
   y2="633"
   id="line142" />
						<line
   class="st4"
   x1="1195"
   y1="640.70001"
   x2="1205.3"
   y2="640.70001"
   id="line144" />
					</g>
					<circle
   class="st5"
   cx="1166.7"
   cy="638.29999"
   r="5.3000002"
   id="circle148" />
					<path
   class="st2"
   d="m 1150.1,655.1 c 0,0 -76,-6.5 -107.5,38.4 0,0 -14.5,-23.2 -14.5,-64.4 0,-41.2 14.5,-64.4 14.5,-64.4 31.4,44.9 107.5,38.4 107.5,38.4"
   id="path150" />
					<line
   class="st2"
   x1="1133.7"
   y1="654.90002"
   x2="1133.7"
   y2="603.5"
   id="line152" />
					<polyline
   class="st2"
   points="1178.4,655.1 1167,720.5 1144.1,716.6 1154.8,655.1      "
   id="polyline154" />
					<line
   class="st4"
   x1="1159.7"
   y1="719.29999"
   x2="1172"
   y2="655.09998"
   id="line156" />
					<path
   class="st2"
   d="m 1028.7,642.4 c -6.1,-1.3 -10.7,-6.7 -10.7,-13.2 0,-6.5 4.6,-11.9 10.7,-13.2"
   id="path158" />
					<path
   class="st2"
   d="m 1150,682.9 c -0.1,0 -0.3,0 -0.4,0 -3,0 -5.5,-2.5 -5.5,-5.5 0,-3 2.4,-5.5 5.5,-5.5 0.8,0 1.5,0.2 2.2,0.5"
   id="path160" />
				</g>
			</g>
		</g><path
   class="st8"
   d="M 461.62302,231.74988 358.19145,205.47769 c -0.221,-0.0561 -0.221,-0.0561 -0.44201,-0.11228 v 0 c -1.60319,-0.17195 -166.35958,-28.61079 -208.24928,-139.709926 -0.60334,-1.329587 -1.70484,-2.550441 -3.30803,-2.722393 -1.54705,-0.392961 -3.09765,0.154247 -4.04136,1.090873 -1.55413,1.487375 -35.02595,34.157036 -58.620231,102.037716 -14.825216,0.93965 -27.861645,11.50907 -31.566699,26.09557 -3.705054,14.5865 2.707188,30.09599 15.286917,37.99664 -11.659868,70.9121 2.220079,115.3741 2.819882,117.64386 0.3262,1.49446 1.704842,2.55044 3.030888,2.88726 0,0 0,0 0.221007,0.0561 1.326046,0.33682 2.820503,0.0106 3.98522,-0.86987 89.774706,-77.42036 248.131456,-23.78665 249.678516,-23.39369 v 0 c 0.221,0.0561 0.221,0.0561 0.44201,0.11227 l 5.08318,1.29116 -11.99159,26.83295 c -0.44202,-0.11228 -0.88403,-0.22455 -1.32605,-0.33683 -8.8403,-2.24548 -17.98608,3.19524 -20.23157,12.03555 -1.90866,7.51425 1.60267,14.99362 7.94867,18.72294 l -29.33693,65.48096 c -1.05953,2.31881 -0.0738,4.92184 2.24496,5.98137 l 47.31636,21.19402 c 0.22101,0.0561 0.44202,0.11228 0.66302,0.16841 0.88403,0.22455 1.8242,0.22809 2.65564,-0.26652 1.05244,-0.43847 1.99615,-1.3751 2.49784,-2.424 l 59.2317,-132.23182 38.45533,9.76787 c 11.27139,2.863 22.91147,-4.06156 25.77447,-15.33295 l 20.26552,-79.78375 c 3.14014,-11.43626 -3.78442,-23.07634 -15.05581,-25.93934 z"
   id="path179"
   style="opacity:1;fill:#666666;stroke-width:2.28026" /><path
   class="st6"
   d="m 437.71148,197.88362 -101.00049,-25.65469 -3.76119,14.80751 38.01331,9.6556 c 1.32605,0.33682 1.98553,1.4454 1.64871,2.77145 -0.33682,1.32604 -1.4454,1.98552 -2.77145,1.6487 l -38.01331,-9.65559 -22.00577,86.63498 101.00048,25.65469 c 6.63023,1.68412 13.55885,-2.43764 15.24296,-9.06787 l 3.3121,-13.03945 -18.34364,-4.65939 c -1.32604,-0.33682 -1.98552,-1.4454 -1.6487,-2.77145 0.33682,-1.32604 1.4454,-1.98552 2.77145,-1.6487 l 18.34363,4.65939 3.19982,-12.59744 -18.34363,-4.65938 c -1.32605,-0.33683 -1.98553,-1.44541 -1.64871,-2.77145 0.33683,-1.32605 1.4454,-1.98553 2.77145,-1.64871 l 18.34363,4.65939 3.19982,-12.59744 -18.34363,-4.65938 c -1.32605,-0.33682 -1.98553,-1.4454 -1.6487,-2.77145 0.33682,-1.32604 1.4454,-1.98553 2.77144,-1.6487 l 18.34364,4.65938 3.19981,-12.59743 -18.34363,-4.65939 c -1.32604,-0.33682 -1.98553,-1.4454 -1.6487,-2.77145 0.33682,-1.32604 1.4454,-1.98552 2.77145,-1.6487 l 18.34363,4.65939 3.31209,-13.03945 c 1.68412,-6.63023 -2.21664,-13.50272 -9.06787,-15.24297 z m -90.90756,69.83935 c -7.73526,-1.9648 -12.35164,-9.72486 -10.38684,-17.46012 1.96481,-7.73527 9.72486,-12.35164 17.46013,-10.38684 7.73526,1.9648 12.35164,9.72486 10.38683,17.46012 -1.9648,7.73527 -9.72485,12.35164 -17.46012,10.38684 z m 43.81117,-61.33389 -7.73527,-1.9648 c -1.32605,-0.33682 -1.98553,-1.4454 -1.6487,-2.77144 0.33682,-1.32605 1.4454,-1.98553 2.77144,-1.64871 l 7.73527,1.9648 c 1.32605,0.33683 1.98553,1.4454 1.64871,2.77145 -0.33683,1.32605 -1.66641,1.92939 -2.77145,1.6487 z"
   id="path230"
   style="stroke-width:2.28026" /><circle
   class="st11"
   cx="402.04007"
   cy="159.51044"
   r="9.8051081"
   id="circle242"
   transform="rotate(14.252044)"
   style="stroke-width:2.28026" /><path
   class="st6"
   d="m 292.34242,322.82261 c -4.19915,-1.06661 -8.41245,1.62746 -9.47906,5.8266 -0.84206,3.31512 0.47336,6.47244 3.06578,8.30726 z"
   id="path244"
   style="stroke-width:2.28026" /><path
   class="st11"
   d="M 115.97302,29.817339 C 104.031,43.487941 71.962092,85.454081 53.829784,156.83954 35.641338,228.44601 43.908087,280.1871 47.822485,298.12059 87.205375,267.18765 143.39141,253.46247 210.51148,258.748 c 20.29073,1.62496 38.86245,4.46015 54.05938,7.61445 l 26.7213,-105.19962 C 276.43205,156.68248 258.70239,150.53217 240.15191,142.05598 178.64555,114.66968 135.82017,75.795046 115.97302,29.817339 Z"
   id="path246"
   style="stroke-width:2.28026" /><path
   class="st10"
   d="m 31.287006,151.11355 c -2.526173,9.94534 0.974538,20.24521 8.527229,26.63371 1.410512,-7.40553 3.154305,-15.19693 5.175244,-23.1532 2.020938,-7.95628 4.15061,-15.4144 6.501289,-22.81639 -9.685904,2.0098 -17.677589,9.39054 -20.203762,19.33588 z"
   id="path248"
   style="stroke-width:2.28026" /><polygon
   class="st9"
   points="1156.5,657.1 1146.4,714.9 1159.1,717.1 1170.6,657.1 "
   id="polygon252"
   transform="matrix(2.2100762,0.56137177,-0.56137177,2.2100762,-1869.7756,-1812.0656)" /><path
   class="st12"
   d="m 300.29733,163.68546 -26.55288,104.5366 c 12.65357,2.97881 22.10076,5.61372 27.29267,7.40303 l 26.7213,-105.19963 c -5.36032,-1.12628 -15.19693,-3.1543 -27.46109,-6.74 z"
   id="path254"
   style="stroke-width:2.28026" /><polygon
   class="st13"
   points="1161.1,717.5 1165.4,718.2 1176,657.1 1172.6,657.1 "
   id="polygon256"
   transform="matrix(2.2100762,0.56137177,-0.56137177,2.2100762,-1869.7756,-1812.0656)" /><path
   class="st3"
   d="M 440.01309,188.82231 334.59246,162.04487 c -0.22101,-0.0561 -0.22101,-0.0561 -0.44202,-0.11227 v 0 c -1.82419,-0.22809 -169.73083,-29.23184 -212.49747,-142.43586 -0.60335,-1.32959 -1.70484,-2.55044 -3.2519,-2.9434 -1.54705,-0.39296 -3.09764,0.15424 -4.04135,1.09087 -1.55414,1.48738 -35.63639,34.70778 -59.7885,103.85838 -15.04622,0.88351 -28.3598,11.61779 -32.17713,26.64631 -3.81732,15.02852 2.75979,30.81515 15.56053,38.77194 -11.9967,72.23815 2.10072,117.69645 2.92153,120.02235 0.54721,1.55059 1.70484,2.55044 3.03089,2.88726 0,0 0,0 0.221,0.0561 1.54706,0.39296 3.04151,0.0668 4.04136,-1.09088 91.60599,-79.07261 253.00071,-24.43197 254.71264,-23.76187 v 0 c 0.221,0.0561 0.221,0.0561 0.44201,0.11228 l 5.08318,1.29115 -12.10387,27.27497 c -0.44201,-0.11228 -0.88403,-0.22455 -1.32604,-0.33682 -9.06131,-2.30163 -18.4281,3.08296 -20.78586,12.36528 -1.90867,7.51426 1.54653,15.21463 8.11354,19.00009 l -29.89477,66.75087 c -1.05952,2.3188 -0.0738,4.92184 2.24497,5.98137 l 48.36526,21.69571 c 0.22101,0.0561 0.44201,0.11228 0.66302,0.16842 0.88403,0.22454 1.8242,0.22809 2.87664,-0.21039 1.05244,-0.43847 1.99615,-1.3751 2.49785,-2.424 l 60.34736,-134.77164 39.33936,9.99242 c 11.49239,2.91914 23.40962,-4.17029 26.32875,-15.66269 l 20.71462,-81.55181 c 2.80686,-11.05038 -4.06156,-22.91147 -15.77497,-25.88674 z M 39.9265,177.30524 c -7.55269,-6.38849 -11.0534,-16.68836 -8.52723,-26.63371 2.52617,-9.94534 10.51786,-17.32608 20.20376,-19.33587 -2.29454,7.18097 -4.48035,14.8601 -6.50129,22.81638 -2.07707,8.17728 -3.76473,15.74768 -5.17524,23.1532 z m 224.97764,88.67133 c -15.19693,-3.1543 -33.71252,-6.2105 -54.05938,-7.61445 -67.17622,-5.06453 -123.30611,8.43964 -162.689,39.37259 -3.97054,-17.71248 -12.18115,-69.67458 6.00729,-141.28105 18.13231,-71.38546 50.14509,-113.13059 62.14324,-127.0222 19.84715,45.97771 62.67254,84.85234 124.1789,112.23864 18.60661,8.25519 36.28014,14.6265 51.14024,19.10685 z m 36.18911,9.42751 c -5.24805,-1.5683 -14.86011,-4.48035 -27.29267,-7.40303 l 26.55288,-104.5366 c 12.5413,3.42082 22.10077,5.61372 27.51722,6.51899 z m -18.11762,52.80311 c 1.0666,-4.19914 5.22377,-6.6722 9.47906,-5.8266 l -6.41329,14.13387 c -2.42754,-1.55768 -3.90783,-4.99215 -3.06577,-8.30727 z m -20.38842,83.04627 54.76906,-122.07255 31.16207,7.91534 -59.15432,126.36981 z m 40.13892,17.95932 -9.11037,-3.96095 59.32273,-127.03283 7.51426,1.90866 z m 140.74112,-203.04675 -18.34363,-4.65938 c -1.32605,-0.33683 -2.43463,0.32266 -2.77145,1.6487 -0.33682,1.32605 0.32266,2.43463 1.6487,2.77145 l 18.34364,4.65939 -3.19982,12.59743 -18.34363,-4.65939 c -1.32605,-0.33682 -2.43463,0.32266 -2.77145,1.64871 -0.33683,1.32604 0.32266,2.43462 1.6487,2.77145 l 18.34363,4.65938 -3.19981,12.59744 -18.34364,-4.65939 c -1.32604,-0.33682 -2.43462,0.32266 -2.77144,1.64871 -0.33683,1.32604 0.32265,2.43462 1.6487,2.77144 l 18.34363,4.65939 -3.19982,12.59743 -18.34363,-4.65938 c -1.32605,-0.33683 -2.43462,0.32266 -2.77145,1.6487 -0.33682,1.32605 0.32266,2.43463 1.64871,2.77145 l 18.34363,4.65939 -3.31209,13.03945 c -1.68412,6.63022 -8.61274,10.75199 -15.24297,9.06787 l -101.00048,-25.65469 22.00577,-86.63499 38.01331,9.6556 c 1.32605,0.33682 2.43463,-0.32266 2.77145,-1.64871 0.33682,-1.32604 -0.32266,-2.43462 -1.6487,-2.77144 l -38.01331,-9.6556 3.76119,-14.80751 101.00048,25.65469 c 6.63023,1.68412 10.75199,8.61274 9.06787,15.24296 z"
   id="path279"
   style="stroke:#000000;stroke-width:5;stroke-miterlimit:4;stroke-dasharray:none;stroke-opacity:1;paint-order:stroke markers fill;filter:url(#filter1609)" /><path
   class="st3"
   d="m 391.73783,201.96893 -7.73527,-1.9648 c -1.32604,-0.33682 -2.43462,0.32266 -2.77144,1.64871 -0.33683,1.32604 0.32265,2.43462 1.6487,2.77144 l 7.73527,1.9648 c 1.32604,0.33683 2.43462,-0.32265 2.77145,-1.6487 0.33682,-1.32605 -0.54367,-2.49076 -1.64871,-2.77145 z"
   id="path281"
   style="stroke-width:2.28026" /><path
   class="st3"
   d="m 353.93334,239.655 c -7.73526,-1.9648 -15.49532,2.65157 -17.46012,10.38684 -1.9648,7.73527 2.65157,15.49532 10.38684,17.46012 7.73527,1.9648 15.49532,-2.65157 17.46012,-10.38684 1.9648,-7.73526 -2.65157,-15.49532 -10.38684,-17.46012 z m -6.00667,23.64782 c -5.30419,-1.34729 -8.43673,-6.61305 -7.08943,-11.91723 1.34729,-5.30418 6.61304,-8.43672 11.91722,-7.08943 5.30419,1.34729 8.43672,6.61305 7.08943,11.91723 -1.34729,5.30418 -6.61304,8.43672 -11.91722,7.08943 z"
   id="path283"
   style="stroke-width:2.28026" />

</svg>
