<?xml version="1.0" encoding="UTF-8" standalone="no"?>
<svg
   xmlns:dc="http://purl.org/dc/elements/1.1/"
   xmlns:cc="http://creativecommons.org/ns#"
   xmlns:rdf="http://www.w3.org/1999/02/22-rdf-syntax-ns#"
   xmlns:svg="http://www.w3.org/2000/svg"
   xmlns="http://www.w3.org/2000/svg"
   xmlns:sodipodi="http://sodipodi.sourceforge.net/DTD/sodipodi-0.dtd"
   xmlns:inkscape="http://www.inkscape.org/namespaces/inkscape"
   version="1.1"
   x="0px"
   y="0px"
   viewBox="0 0 1000 1000"
   xml:space="preserve"
   id="svg1049"
   sodipodi:docname="ribbon.svg"
   width="1000"
   height="1000"
   inkscape:version="1.0.1 (3bc2e813f5, 2020-09-07)"><metadata
   id="metadata1055"><rdf:RDF><cc:Work
       rdf:about=""><dc:format>image/svg+xml</dc:format><dc:type
         rdf:resource="http://purl.org/dc/dcmitype/StillImage" /><dc:title></dc:title></cc:Work></rdf:RDF></metadata><defs
   id="defs1053">
	
	

		
		
		
		
	
			
			
			
			
			
			
			
			
			
			
			
		<filter
   inkscape:collect="always"
   style="color-interpolation-filters:sRGB"
   id="filter1174"
   x="-0.0048894612"
   width="1.0097789"
   y="-0.0028487267"
   height="1.0056975"><feGaussianBlur
     inkscape:collect="always"
     stdDeviation="1.1848794"
     id="feGaussianBlur1176" /></filter></defs><sodipodi:namedview
   pagecolor="#ffffff"
   bordercolor="#666666"
   borderopacity="1"
   objecttolerance="10"
   gridtolerance="10"
   guidetolerance="10"
   inkscape:pageopacity="0"
   inkscape:pageshadow="2"
   inkscape:window-width="1366"
   inkscape:window-height="705"
   id="namedview1051"
   showgrid="false"
   inkscape:zoom="0.38428571"
   inkscape:cx="700"
   inkscape:cy="595.91078"
   inkscape:window-x="-8"
   inkscape:window-y="-8"
   inkscape:window-maximized="1"
   inkscape:current-layer="svg1049" />
<style
   type="text/css"
   id="style945">
	.st0{fill:#FBB03B;}
	.st1{fill:#0B3CA7;}
	.st2{fill:#08286F;}
	.st3{fill:#0F50DE;}
	.st4{fill:#FFFFFF;}
	.st5{fill:#082D7D;}
	.st6{opacity:0.4;fill:#FFFFFF;}
	.st7{opacity:0.61;fill:#08286F;}
	.st8{fill:#0D0E1F;}
	.st9{font-family:'Montserrat-BlackItalic';}
	.st10{font-size:162.3169px;}
	.st11{font-family:'Rubik-Bold';}
	.st12{font-size:32.4476px;}
	.st13{font-size:22.9444px;}
</style>
<g
   id="g1221"
   transform="matrix(0.97407948,0,0,0.97407948,-171.62057,-183.17165)"><path
     class="st1"
     d="m 544.4,709.4 c -9.6,-6.4 -14.8,-17.2 -13.8,-28.7 l 1.5,-17.3 c 0.2,-2.2 -0.1,-4.4 -0.7,-6.5 L 434.5,825 530.1,821.3 549,790 c 1.2,-2 3.8,-2.7 5.9,-1.5 2,1.2 2.7,3.8 1.5,5.9 l -18.8,31.3 37.2,70.3 V 712 c -10.2,4.4 -21.3,3.4 -30.4,-2.6 z"
     id="path949" /><path
     class="st2"
     d="m 781.6,608.8 c -8.7,0 -12.9,3.5 -17.8,7.6 -5.4,4.5 -11.4,9.5 -23.2,9.5 -11.8,0 -17.9,-5.1 -23.2,-9.5 -4.9,-4.1 -9.1,-7.6 -17.8,-7.6 -8.7,0 -12.9,3.5 -17.8,7.6 -5.4,4.5 -11.4,9.5 -23.2,9.5 -11.8,0 -17.9,-5.1 -23.2,-9.5 -4.9,-4.1 -9.1,-7.6 -17.8,-7.6 -8.7,0 -12.9,3.5 -17.8,7.6 -0.2,0.2 -0.4,0.4 -0.6,0.5 21.7,15.6 47.2,26.3 74.9,30.4 0.8,-0.6 1.5,-1.2 2.3,-1.9 5.4,-4.5 11.4,-9.6 23.2,-9.6 11.8,0 17.9,5.1 23.2,9.5 0.7,0.6 1.5,1.2 2.2,1.8 27.6,-4.2 53,-14.9 74.7,-30.6 -0.1,-0.1 -0.2,-0.2 -0.3,-0.3 -4.9,-3.9 -9.1,-7.4 -17.8,-7.4 z"
     id="path951" /><g
     id="g955">
				<path
   class="st3"
   d="m 798.6,701.3 v 126.9 c 0,2.4 -1.9,4.3 -4.3,4.3 -2.4,0 -4.3,-1.9 -4.3,-4.3 V 703.9 c -3.4,2.1 -6.1,5.4 -7.3,9.3 l -5.3,16.6 c -3,9.5 -10,16.7 -19.1,19.9 l 0.6,2.1 c 0,0 2,6.6 -0.1,11.3 -4.3,-2.7 -6.3,-9.3 -6.3,-9.3 l -0.8,-2.5 c -1.5,0.2 -3,0.4 -4.5,0.4 -9.1,0 -17.7,-3.9 -23.8,-11.1 l -11.2,-13.3 c -2.5,-2.9 -5.8,-4.9 -9.5,-5.7 v 12.5 c 0,0 0,25.7 -3.3,39.9 -3.3,-14.2 -3.3,-39.9 -3.3,-39.9 v -12.6 c -3.9,0.7 -7.4,2.7 -10,5.8 L 675,740.5 c -4.2,4.9 -9.5,8.3 -15.3,10 l -0.3,2.1 c 0,0 -1.4,9.2 -5.5,13.8 -2.5,-5.5 -1.2,-14.4 -1.1,-14.8 -2.6,0.1 -5.2,-0.1 -7.8,-0.6 -11.4,-2.3 -20.2,-10.2 -23.8,-21.2 l -5.3,-16.6 c -1.3,-3.9 -3.9,-7.2 -7.3,-9.3 v 124.3 c 0,2.4 -1.9,4.3 -4.3,4.3 -2.4,0 -4.3,-1.9 -4.3,-4.3 V 701.3 c -2.8,-0.1 -5.7,0.5 -8.3,1.9 l -2.9,1.5 v 413.5 l 111.2,-88.4 111.2,88.4 V 705.4 l -4.4,-2.3 c -2.5,-1.3 -5.4,-1.9 -8.2,-1.8 z m -190.1,376.4 c 0,2.4 -1.9,4.3 -4.3,4.3 -2.4,0 -4.3,-1.9 -4.3,-4.3 V 908.5 c 0,-2.4 1.9,-4.3 4.3,-4.3 2.4,0 4.3,1.9 4.3,4.3 z M 762.7,904 c -0.9,1.3 -2.7,1.6 -4,0.7 -1,-0.7 -2,-1.5 -2.8,-2.2 -2.8,-2.3 -5,-4.2 -9.8,-4.2 -4.8,0 -7,1.9 -9.8,4.2 -3.1,2.6 -6.6,5.5 -13.5,5.5 -6.9,0 -10.4,-2.9 -13.5,-5.5 -2.8,-2.3 -5,-4.2 -9.8,-4.2 -4.8,0 -7,1.9 -9.8,4.2 -3.1,2.6 -6.6,5.5 -13.5,5.5 -6.9,0 -10.4,-2.9 -13.5,-5.5 -2.8,-2.3 -5,-4.2 -9.8,-4.2 -4.8,0 -7,1.8 -9.8,4.2 -1,0.8 -2,1.6 -3.1,2.4 -1.3,0.9 -3.1,0.6 -4,-0.8 -0.9,-1.3 -0.6,-3.1 0.8,-4 0.9,-0.6 1.7,-1.3 2.6,-2.1 3.1,-2.6 6.6,-5.5 13.5,-5.5 6.9,0 10.4,2.9 13.5,5.5 2.8,2.3 5,4.2 9.8,4.2 4.8,0 7,-1.8 9.8,-4.2 3.1,-2.6 6.6,-5.5 13.5,-5.5 6.9,0 10.4,2.9 13.5,5.5 2.8,2.3 5,4.2 9.8,4.2 4.8,0 7,-1.9 9.8,-4.2 3.1,-2.6 6.6,-5.5 13.5,-5.5 6.8,0 10.4,2.9 13.5,5.5 0.8,0.7 1.6,1.4 2.5,1.9 1.2,1 1.5,2.8 0.6,4.1 z m 35.9,173.7 c 0,2.4 -1.9,4.3 -4.3,4.3 -2.4,0 -4.3,-1.9 -4.3,-4.3 V 908.5 c 0,-2.4 1.9,-4.3 4.3,-4.3 2.4,0 4.3,1.9 4.3,4.3 z"
   id="path953" />
			</g><path
     class="st1"
     d="m 686.1,648.7 c 4.3,0.3 8.7,0.5 13.2,0.5 4.6,0 9.2,-0.2 13.8,-0.6 -3.5,-2.4 -7.3,-4.2 -13.4,-4.2 -6.2,0.1 -10.1,1.8 -13.6,4.3 z"
     id="path957" /><path
     class="st1"
     d="m 799.4,580.7 c -4.9,-4.1 -9.1,-7.6 -17.8,-7.6 -8.7,0 -12.9,3.5 -17.8,7.6 -5.4,4.5 -11.4,9.5 -23.2,9.5 -11.8,0 -17.9,-5.1 -23.2,-9.5 -4.9,-4.1 -9.1,-7.6 -17.8,-7.6 -8.7,0 -12.9,3.5 -17.8,7.6 -5.4,4.5 -11.4,9.5 -23.2,9.5 -11.8,0 -17.9,-5.1 -23.2,-9.5 -4.9,-4.1 -9.1,-7.6 -17.8,-7.6 -8.7,0 -12.9,3.5 -17.8,7.6 -5.4,4.5 -11.4,9.5 -23.2,9.5 -2.7,0 -5.1,-0.3 -7.3,-0.7 6.9,8 14.6,15.4 22.9,22 0.7,-0.6 1.4,-1.2 2.2,-1.8 5.4,-4.5 11.4,-9.5 23.2,-9.5 11.8,0 17.9,5.1 23.2,9.5 4.9,4.1 9.1,7.6 17.8,7.6 8.7,0 12.9,-3.5 17.7,-7.6 5.4,-4.5 11.4,-9.6 23.2,-9.6 11.8,0 17.9,5.1 23.2,9.5 4.9,4.1 9.1,7.6 17.8,7.6 8.7,0 12.9,-3.5 17.8,-7.6 5.4,-4.5 11.4,-9.5 23.2,-9.5 11.8,0 17.9,5.1 23.2,9.5 0.6,0.5 1.2,1 1.8,1.5 8.1,-6.5 15.6,-13.7 22.4,-21.6 -1.9,0.4 -4.1,0.6 -6.4,0.6 -11.7,0.2 -17.7,-4.9 -23.1,-9.4 z"
     id="path959" /><polygon
     class="st0"
     points="588.8,1172.3 700,1083.8 811.2,1172.3 811.2,1136.3 700,1047.9 588.8,1136.3 "
     id="polygon961" /><path
     class="st1"
     d="m 866.5,663.3 1.5,17.3 c 1,11.5 -4.2,22.3 -13.8,28.7 -8.7,5.8 -19.1,6.9 -28.6,3.2 V 895.9 L 862.8,825.6 844,794.3 c -1.2,-2 -0.6,-4.7 1.5,-5.9 2,-1.2 4.7,-0.6 5.9,1.5 l 18.9,31.3 95.6,3.7 -97.8,-169.6 c -1.3,2.5 -1.8,5.2 -1.6,8 z"
     id="path963" /><path
     class="st3"
     d="m 870.8,477.6 c 0,35.3 -10.7,68.1 -29.1,95.4 -0.5,0.4 -0.9,0.8 -1.4,1.1 -4.9,4.1 -9.1,7.6 -17.8,7.6 -0.6,0 -1.1,0 -1.7,0 v -12.5 c 0,0 0,-15.4 -3.3,-23.9 -3.3,8.5 -3.3,23.9 -3.3,23.9 v 11.1 c -3.7,-1.4 -6.5,-3.7 -9.5,-6.2 -5.4,-4.5 -11.4,-9.5 -23.3,-9.5 -11.8,0 -17.9,5.1 -23.2,9.5 -4.9,4.1 -9.1,7.6 -17.8,7.6 -8.7,0 -12.9,-3.5 -17.8,-7.6 -5.4,-4.5 -11.4,-9.5 -23.3,-9.5 -11.8,0 -17.9,5.1 -23.3,9.5 -4.9,4.1 -9,7.6 -17.8,7.6 -8.7,0 -12.9,-3.5 -17.8,-7.6 -5.4,-4.5 -11.4,-9.5 -23.3,-9.5 -3.8,0 -7,0.5 -9.8,1.4 v -7.3 c 0,0 0,-16.9 -3.3,-26.2 -3.3,9.3 -3.3,26.2 -3.3,26.2 V 569 c -2.5,1.6 -4.7,3.4 -6.8,5.1 -4.9,4.1 -9.1,7.6 -17.7,7.6 -8.7,0 -12.9,-3.5 -17.8,-7.6 -0.9,-0.8 -1.9,-1.6 -2.9,-2.4 -17.8,-27.1 -28.3,-59.4 -28.3,-94.2 0,-94.6 77,-171.6 171.6,-171.6 95.1,0.1 172,77.1 172,171.7 z"
     id="path965" /><g
     id="g969">
				<path
   class="st3"
   d="m 846.2,697.5 c 5.3,-3.5 8.1,-9.4 7.5,-15.7 l -1.5,-17.3 c -0.8,-9.2 2.5,-18.3 9.1,-24.8 6.5,-6.5 15.6,-9.9 24.8,-9.1 l 17.3,1.5 c 6.3,0.5 12.2,-2.3 15.7,-7.6 3.5,-5.3 3.9,-11.7 1,-17.4 l -8,-15.4 c -4.2,-8.2 -4.6,-17.8 -1.1,-26.4 3.5,-8.6 10.6,-15.1 19.4,-17.9 l 16.6,-5.3 c 6,-1.9 10.4,-6.8 11.6,-13 1.2,-6.2 -0.9,-12.3 -5.7,-16.4 l -13.3,-11.2 c -7.1,-6 -11.1,-14.7 -11.1,-24 0,-9.3 4.1,-18 11.1,-24 l 13.3,-11.2 c 4.8,-4.1 7,-10.2 5.7,-16.4 -1.2,-6.2 -5.6,-11 -11.6,-13 l -16.6,-5.3 c -8.8,-2.8 -15.9,-9.3 -19.4,-17.9 -3.5,-8.6 -3.1,-18.2 1.1,-26.4 l 8,-15.4 c 2.9,-5.6 2.5,-12.1 -1,-17.4 -3.5,-5.3 -9.4,-8.1 -15.7,-7.5 l -17.3,1.5 c -9.2,0.8 -18.3,-2.5 -24.8,-9.1 -6.5,-6.5 -9.9,-15.6 -9.1,-24.8 l 1.5,-17.3 c 0.5,-6.3 -2.3,-12.2 -7.5,-15.7 -5.3,-3.5 -11.7,-3.9 -17.4,-1 l -15.4,8 c -8.2,4.2 -17.8,4.6 -26.4,1.1 -8.6,-3.5 -15.1,-10.6 -17.9,-19.4 l -5.3,-16.6 c -1.9,-6 -6.8,-10.4 -13,-11.6 -6.2,-1.2 -12.3,0.9 -16.4,5.7 l -11.2,13.3 c -6,7.1 -14.7,11.1 -24,11.1 -9.3,0 -18,-4.1 -24,-11.1 L 664,223.8 c -4.1,-4.8 -10.2,-7 -16.4,-5.7 -6.2,1.2 -11,5.6 -13,11.6 l -5.3,16.6 c -2.8,8.8 -9.3,15.9 -17.9,19.4 -8.6,3.5 -18.2,3.1 -26.4,-1.1 l -15.4,-8 c -5.6,-2.9 -12.1,-2.5 -17.4,1 -5.3,3.5 -8.1,9.4 -7.5,15.7 l 1.5,17.3 c 0.8,9.2 -2.5,18.3 -9.1,24.8 -6.5,6.5 -15.6,9.9 -24.8,9.1 L 495,323 c -6.3,-0.5 -12.2,2.3 -15.7,7.5 -3.5,5.3 -3.9,11.7 -1,17.4 l 8,15.4 c 4.2,8.2 4.6,17.8 1.1,26.4 -3.5,8.6 -10.6,15.1 -19.4,17.9 l -16.6,5.3 c -6,1.9 -10.4,6.8 -11.6,13 -1.2,6.2 0.9,12.3 5.7,16.4 l 13.3,11.2 c 7.1,6 11.1,14.7 11.1,24 0,9.3 -4.1,18 -11.1,24 l -13.3,11.2 c -4.8,4.1 -7,10.2 -5.7,16.4 1.2,6.2 5.6,11 11.6,13 l 16.6,5.3 c 8.8,2.8 15.9,9.3 19.4,17.9 3.5,8.6 3.1,18.2 -1.1,26.4 l -8,15.4 c -2.9,5.6 -2.5,12.1 1,17.4 3.5,5.3 9.4,8.1 15.7,7.5 l 17.3,-1.5 c 9.2,-0.8 18.3,2.5 24.8,9.1 6.5,6.5 9.9,15.6 9.1,24.8 l -1.5,17.3 c -0.5,6.3 2.3,12.2 7.5,15.7 5.3,3.5 11.7,3.9 17.4,1 l 15.4,-8 c 4.5,-2.3 9.4,-3.5 14.4,-3.5 4.1,0 8.2,0.8 12,2.4 8.6,3.5 15.1,10.6 17.9,19.4 l 5.3,16.6 c 1.9,6 6.8,10.4 13,11.6 6.2,1.2 12.3,-0.9 16.4,-5.7 l 11.2,-13.3 c 6,-7.1 14.7,-11.1 24,-11.1 0,0 0,0 0,0 9.3,0 18,4.1 24,11.1 l 11.2,13.3 c 4.1,4.8 10.2,7 16.4,5.7 6.2,-1.2 11,-5.6 13,-11.6 l 5.3,-16.6 c 2.8,-8.8 9.3,-15.9 17.9,-19.4 8.5,-3.5 18.2,-3.1 26.4,1.1 l 15.4,8 c 5.7,3 12.2,2.6 17.4,-0.9 z m -95.9,-19.1 1.5,5.6 c 0,0 3,11.1 1.5,18.2 -4.9,-5.3 -7.9,-16.4 -7.9,-16.4 l -1.6,-5.8 c -14.4,3.2 -29.3,4.9 -44.6,4.9 -69.5,0 -131.1,-34.4 -168.7,-87.1 -0.9,0.9 -1.7,1.7 -2.7,2.5 0,0 -2,1.8 -5.1,3.4 -3,1.6 -7.1,2.7 -10.3,2.2 2,-2.6 4.8,-5 7.1,-7 2.2,-2 4,-3.6 4,-3.6 1.1,-1 2.2,-2 3.2,-3.1 -21.9,-32.8 -34.6,-72.2 -34.6,-114.6 0,-68.8 33.7,-129.9 85.5,-167.6 l -5.5,-7.3 c 0,0 -7.9,-10.5 -9.5,-18.3 7,3.8 14.9,14.4 14.9,14.4 l 5.6,7.5 c 33.2,-22.6 73.2,-35.8 116.3,-35.8 76.5,0 143.5,41.7 179.4,103.6 l 4,-3.8 c 0,0 7.6,-7.2 14,-8.8 -1.9,6.4 -9.4,13.6 -9.4,13.6 l -5.3,5 c 15.6,29.1 24.5,62.4 24.5,97.6 -0.1,96.5 -66.6,177.9 -156.3,200.7 z"
   id="path967" />
			</g><g
     id="g973">
				<path
   class="st0"
   d="m 699.3,284.6 c -106.4,0 -193,86.6 -193,193 0,106.4 86.6,193 193,193 106.4,0 193,-86.6 193,-193 -0.1,-106.4 -86.6,-193 -193,-193 z m 0,373.1 c -62.4,0 -117.4,-31.9 -149.8,-80.1 v 0 0 c -19.2,-28.6 -30.4,-63 -30.4,-100 0,-99.3 80.8,-180.1 180.1,-180.1 99.3,0 180.1,80.8 180.1,180.1 0.1,99.3 -80.7,180.1 -180,180.1 z"
   id="path971" />
			</g><g
     id="Layer_5">
			<rect
   x="584.70001"
   y="700"
   class="st4"
   width="8.3000002"
   height="475.70001"
   id="rect976" />
			<path
   class="st5"
   d="m 537.1,702.7 c 0,0 0,16.8 27.6,26.8 v 156.3 l 15.5,20.5 V 702.7 c 0.1,0 -21.7,9.9 -43.1,0 z"
   id="path978" />
			<polyline
   class="st4"
   points="488.3,731.4 441.3,821.7 485,824.7 425.7,828.3 488.3,725    "
   id="polyline980" />
			<g
   id="g984">
				<path
   class="st3"
   d="m 952.9,512.8 -13.3,-11.2 c -0.2,-0.2 -0.5,-0.4 -0.7,-0.6 -6.6,-6 -10.4,-14.4 -10.4,-23.4 0,-9.3 4.1,-18 11.1,-24 l 13.3,-11.2 c 4.8,-4.1 7,-10.2 5.7,-16.4 -1.2,-6.2 -5.6,-11 -11.6,-13 l -16.6,-5.3 c -8.8,-2.8 -15.9,-9.3 -19.4,-17.9 -3.5,-8.6 -3.1,-18.2 1.1,-26.4 l 8,-15.5 c 2.9,-5.6 2.5,-12.1 -1,-17.4 -3.5,-5.3 -9.4,-8.1 -15.7,-7.5 l -17.3,1.4 c -9.2,0.8 -18.3,-2.5 -24.8,-9.1 -6.5,-6.5 -9.8,-15.6 -9.1,-24.8 l 1.5,-17.3 c 0.5,-6.3 -2.3,-12.2 -7.5,-15.7 -5.3,-3.5 -11.7,-3.9 -17.4,-1 l -15.4,8 c -8.2,4.3 -17.9,4.6 -26.4,1.1 -8.5,-3.5 -15.1,-10.6 -17.9,-19.5 l -5.3,-16.6 c -1.9,-6 -6.8,-10.3 -13,-11.6 -6.2,-1.2 -12.3,0.9 -16.4,5.7 l -11.2,13.3 c -6,7.1 -14.7,11.1 -24,11.1 -9.3,0 -18,-4 -24,-11.1 L 664,223.6 c -4.1,-4.8 -10.2,-7 -16.4,-5.7 -4.1,0.8 -7.6,3 -10.1,6.1 -1.3,1.6 -2.2,3.4 -2.9,5.5 l -3.9,12.2 -1.4,4.4 c -2.8,8.8 -9.3,15.9 -17.9,19.5 -8.5,3.5 -18.2,3.1 -26.4,-1.1 l -15.4,-8 c -5.6,-2.9 -12.1,-2.5 -17.4,1 -0.6,0.4 -1.3,0.9 -1.8,1.4 -0.1,0.9 0,1.8 0,2.7 l 1.5,18.8 c 0.8,9.9 -2.5,19.6 -8.9,26.7 -1.5,3 -3.5,5.8 -5.9,8.2 -6.5,6.5 -15.6,9.8 -24.8,9.1 L 495,323 c -4,-0.3 -7.9,0.7 -11,2.8 -2.4,5.3 -2.4,11.4 0.1,16.8 l 8,16.7 c 4.2,8.9 4.6,19.3 1.1,28.6 -3.5,9.3 -10.6,16.3 -19.4,19.4 l -16.6,5.7 c -6,2.1 -10.3,7.3 -11.6,14 -1.2,6.7 0.9,13.4 5.7,17.8 l 13.3,12.2 c 7.1,6.5 11.1,15.9 11.1,26 0,10 -4.1,19.5 -11.1,26 l -13.3,12.2 c -4.8,4.4 -7,11 -5.8,17.8 1.7,1.4 3.7,2.5 5.8,3.2 l 16.6,5.3 c 8.8,2.8 15.9,9.3 19.5,17.9 0.7,1.7 1.2,3.3 1.6,5.1 1.7,2.3 3.1,4.9 4.1,7.7 3.5,9.3 3.1,19.7 -1.1,28.6 l -8,16.7 c -0.7,1.5 -1.2,3.1 -1.6,4.7 3.4,2.9 7.8,4.3 12.5,3.9 l 17.3,-1.5 c 9.2,-0.8 18.3,2.5 24.8,9.1 6.2,6.2 9.5,14.7 9.2,23.4 4.3,6.5 6.3,14.4 5.7,22.5 l -0.9,11 c 0.4,0.3 0.8,0.6 1.2,0.9 5.3,3.5 11.8,3.9 17.4,1 l 15.4,-8 c 4.5,-2.3 9.4,-3.5 14.4,-3.5 4.1,0 8.2,0.8 12,2.4 8.5,3.5 15.1,10.6 17.9,19.5 l 5.3,16.5 c 1.9,6 6.8,10.4 13,11.6 6.2,1.2 12.3,-0.9 16.4,-5.7 L 675.2,718 c 4.8,-5.7 11.5,-9.5 18.8,-10.7 1.7,-0.3 3.4,-0.4 5.2,-0.4 2.3,0 4.6,0.3 6.8,0.7 2.2,0.5 4.4,1.2 6.4,2.2 4.1,1.9 7.8,4.7 10.8,8.2 l 11.2,13.3 c 4.1,4.8 10.2,7 16.4,5.7 6.2,-1.2 11.1,-5.6 13,-11.6 l 5.3,-16.6 c 2.8,-8.8 9.3,-15.9 17.9,-19.4 8.5,-3.5 18.2,-3.1 26.4,1.1 l 15.4,8 c 5.6,2.9 12.1,2.5 17.4,-1 5.3,-3.5 8.1,-9.4 7.5,-15.7 l -1.5,-17.3 c -0.8,-9.2 2.5,-18.3 9.1,-24.8 6.5,-6.5 15.6,-9.9 24.8,-9.1 l 17.3,1.5 c 6.3,0.5 12.2,-2.3 15.7,-7.6 1.9,-2.8 2.8,-5.9 2.9,-9.1 0.1,-2.8 -0.6,-5.6 -1.9,-8.3 l -5.3,-10.2 -2.7,-5.3 c -4.2,-8.2 -4.7,-17.8 -1.1,-26.4 3.5,-8.6 10.6,-15.1 19.4,-17.9 L 947,542 c 6,-1.9 10.3,-6.8 11.6,-13 0.6,-2.9 0.4,-5.7 -0.4,-8.3 -0.9,-3 -2.7,-5.7 -5.3,-7.9 z m -253.6,172 c -69.5,0 -131.1,-34.4 -168.7,-87 -0.8,0.8 -1.5,1.5 -2.4,2.2 -0.1,0.1 -0.2,0.2 -0.3,0.3 0,0 -2,1.8 -5.1,3.4 -3,1.6 -7.1,2.7 -10.3,2.2 2,-2.6 4.8,-5 7.1,-7 2.2,-2 4,-3.6 4,-3.6 0.5,-0.4 1,-0.8 1.4,-1.3 0.6,-0.6 1.2,-1.2 1.8,-1.8 -4.5,-6.8 -8.6,-13.8 -12.3,-21.1 C 500.1,543 492,511.2 492,477.6 c 0,-56.5 22.7,-107.7 59.5,-145.1 8,-8.2 16.7,-15.7 26,-22.5 l -1.7,-2.3 -3.8,-5 c 0,0 -7.9,-10.5 -9.5,-18.3 7,3.8 14.9,14.4 14.9,14.4 l 3.5,4.7 2,2.8 c 33.2,-22.6 73.2,-35.8 116.3,-35.8 76.5,0 143.5,41.7 179.4,103.6 l 4,-3.8 c 0,0 0.3,-0.3 0.9,-0.8 1.6,-1.4 5.1,-4.3 8.8,-6.3 v 0 c 1.4,-0.8 2.9,-1.4 4.3,-1.7 -1.9,6.4 -9.4,13.6 -9.4,13.6 l -5.3,5 c 15.6,29.1 24.5,62.4 24.5,97.6 0,96.6 -66.5,178 -156.1,200.9 l 1.5,5.6 c 0,0 3,11.1 1.5,18.2 -4.9,-5.3 -7.9,-16.4 -7.9,-16.4 l -1.6,-5.8 c -14.3,2.9 -29.2,4.6 -44.5,4.6 z"
   id="path982" />
			</g>
			<path
   class="st6"
   d="m 552,685.6 -0.9,11 c -4.5,-3.6 -6.8,-9 -6.3,-14.8 l 1.5,-17.3 c 0,-0.5 0.1,-0.9 0.1,-1.4 4.1,6.5 6.2,14.4 5.6,22.5 z"
   id="path986" />
			<path
   class="st6"
   d="m 492.1,606.7 -8,16.7 c -0.7,1.5 -1.2,3.1 -1.6,4.7 -1.2,-1 -2.3,-2.2 -3.2,-3.6 -3.5,-5.3 -3.9,-11.7 -1,-17.4 l 8,-15.5 c 3.4,-6.6 4.3,-14.2 2.7,-21.3 1.7,2.3 3.1,4.9 4.1,7.7 3.6,9.4 3.2,19.8 -1,28.7 z"
   id="path988" />
			<path
   class="st6"
   d="m 493.2,388 c -3.5,9.3 -10.6,16.3 -19.4,19.4 l -16.6,5.7 c -6,2.1 -10.3,7.3 -11.6,14 -1.2,6.7 0.9,13.4 5.7,17.8 l 13.3,12.2 c 7.1,6.5 11.1,15.9 11.1,26 0,10 -4.1,19.5 -11.1,26 l -13.3,12.2 c -4.8,4.4 -7,11 -5.8,17.8 -2.9,-2.4 -5,-5.8 -5.7,-9.8 -1.2,-6.2 0.9,-12.3 5.7,-16.4 l 13.3,-11.2 c 7.1,-6 11.1,-14.7 11.1,-24 0,-9.3 -4.1,-18 -11.1,-24 l -13.3,-11.2 c -4.8,-4.1 -7,-10.2 -5.7,-16.4 1.2,-6.2 5.6,-11 11.6,-13 l 16.6,-5.3 c 8.8,-2.8 15.9,-9.3 19.5,-17.9 3.5,-8.6 3.1,-18.2 -1.1,-26.4 l -8,-15.5 c -2.9,-5.6 -2.5,-12.1 1,-17.4 1.3,-1.9 2.8,-3.5 4.6,-4.7 -2.4,5.3 -2.4,11.4 0.1,16.8 l 8,16.7 c 4.2,8.9 4.6,19.3 1.1,28.6 z"
   id="path990" />
			<path
   class="st6"
   d="m 543,307.2 c 2.5,-5.1 3.7,-10.8 3.2,-16.6 l -1.5,-17.3 c -0.5,-5.5 1.7,-10.7 5.7,-14.3 -0.1,0.9 0,1.8 0,2.7 l 1.5,18.8 c 0.8,9.9 -2.4,19.7 -8.9,26.7 z"
   id="path992" />
			<rect
   x="805.5"
   y="700"
   class="st4"
   width="8.3000002"
   height="475.70001"
   id="rect994" />
			<path
   class="st5"
   d="m 861.4,702.7 c 0,0 0,16.8 -27.6,26.8 v 156.3 l -15.5,20.5 V 702.7 c 0,0 21.7,9.9 43.1,0 z"
   id="path996" />
			<polyline
   class="st4"
   points="910.2,731.4 957.2,821.7 913.5,824.7 972.8,828.3 910.2,725    "
   id="polyline998" />
			<path
   class="st6"
   d="m 846.6,685.6 0.9,11 c 4.5,-3.6 6.8,-9 6.3,-14.8 l -1.5,-17.3 c 0,-0.5 -0.1,-0.9 -0.1,-1.4 -4.2,6.5 -6.3,14.4 -5.6,22.5 z"
   id="path1000" />
			<path
   class="st6"
   d="m 906.4,606.7 8,16.7 c 0.7,1.5 1.2,3.1 1.6,4.7 1.2,-1 2.3,-2.2 3.2,-3.6 3.5,-5.3 3.9,-11.7 1,-17.4 l -8,-15.5 c -3.4,-6.6 -4.3,-14.2 -2.7,-21.3 -1.7,2.3 -3.1,4.9 -4.1,7.7 -3.6,9.4 -3.2,19.8 1,28.7 z"
   id="path1002" />
			<path
   class="st6"
   d="m 905.3,388 c 3.5,9.3 10.6,16.3 19.4,19.4 l 16.6,5.7 c 6,2.1 10.3,7.3 11.6,14 1.2,6.7 -0.9,13.4 -5.7,17.8 l -13.3,12.2 c -7.1,6.5 -11.1,15.9 -11.1,26 0,10 4.1,19.5 11.1,26 l 13.3,12.2 c 4.8,4.4 7,11 5.8,17.8 2.9,-2.4 5,-5.8 5.7,-9.8 1.2,-6.2 -0.9,-12.3 -5.7,-16.4 l -13.3,-11.2 c -7.1,-6 -11.1,-14.7 -11.1,-24 0,-9.3 4.1,-18 11.1,-24 L 953,442.5 c 4.8,-4.1 7,-10.2 5.7,-16.4 -1.2,-6.2 -5.6,-11 -11.6,-13 l -16.6,-5.3 c -8.8,-2.8 -15.9,-9.3 -19.5,-17.9 -3.5,-8.6 -3.1,-18.2 1.1,-26.4 l 8,-15.5 c 2.9,-5.6 2.5,-12.1 -1,-17.4 -1.3,-1.9 -2.8,-3.5 -4.6,-4.7 2.4,5.3 2.4,11.4 -0.1,16.8 l -8,16.7 c -4.2,8.9 -4.6,19.3 -1.1,28.6 z"
   id="path1004" />
			<path
   class="st6"
   d="m 855.5,307.2 c -2.5,-5.1 -3.7,-10.8 -3.2,-16.6 l 1.5,-17.3 c 0.5,-5.5 -1.7,-10.7 -5.7,-14.3 0.1,0.9 0,1.8 0,2.7 l -1.5,18.8 c -0.8,9.9 2.4,19.7 8.9,26.7 z"
   id="path1006" />
			<path
   class="st7"
   d="M 870.8,477.6 H 527.7 c 0,-94.6 77,-171.6 171.6,-171.6 94.6,0 171.5,77 171.5,171.6 z"
   id="path1008" />
			<g
   id="g1012">
				<path
   class="st4"
   d="m 574.6,426.7 c 6.8,-17.4 14.7,-35.6 30.7,-46.3 6.4,-4.3 0.4,-14.7 -6.1,-10.4 -18.9,12.7 -28.1,33 -36.2,53.5 -2.8,7.2 8.8,10.3 11.6,3.2 z"
   id="path1010" />
			</g>
			<g
   id="g1016">
				<path
   class="st4"
   d="m 630,359.5 c 7.7,0 7.7,-12 0,-12 -7.8,0 -7.8,12 0,12 z"
   id="path1014" />
			</g>
		</g><g
     id="Layer_3"
     transform="translate(0.1,-0.1)"
     style="filter:url(#filter1174)">
			<g
   id="g1031">
				<path
   class="st8"
   d="m 906.5,477.6 c 0,-35.3 -8.9,-68.5 -24.5,-97.6 l 5.3,-5 c 0,0 7.6,-7.2 9.4,-13.6 -6.5,1.6 -14,8.8 -14,8.8 l -4,3.8 C 842.8,312 775.8,270.3 699.3,270.3 c -43.1,0 -83.1,13.2 -116.3,35.8 l -5.6,-7.5 c 0,0 -7.9,-10.5 -14.9,-14.4 1.7,7.8 9.5,18.3 9.5,18.3 l 5.5,7.3 c -51.8,37.7 -85.5,98.8 -85.5,167.6 0,42.3 12.8,81.7 34.6,114.6 -1,1.1 -2.1,2.1 -3.2,3.1 0,0 -1.7,1.6 -4,3.6 -2.2,2.1 -5.1,4.4 -7.1,7 3.2,0.5 7.3,-0.6 10.3,-2.2 3.1,-1.6 5.1,-3.4 5.1,-3.4 0.9,-0.8 1.8,-1.7 2.7,-2.5 37.6,52.7 99.2,87.1 168.7,87.1 15.3,0 30.2,-1.7 44.6,-4.9 l 1.6,5.8 c 0,0 3,11.1 7.9,16.4 1.5,-7 -1.5,-18.2 -1.5,-18.2 l -1.5,-5.6 C 840,655.6 906.5,574.2 906.5,477.6 Z m -207.2,193 c -106.4,0 -193,-86.6 -193,-193 0,-106.4 86.6,-193 193,-193 106.4,0 193,86.6 193,193 -0.1,106.4 -86.6,193 -193,193 z"
   id="path1019" />
				<path
   class="st8"
   d="m 699.3,297.4 c -99.3,0 -180.1,80.8 -180.1,180.1 0,37 11.2,71.4 30.4,100 v 0 0 c 32.3,48.3 87.4,80.1 149.8,80.1 99.3,0 180.1,-80.8 180.1,-180.1 -0.1,-99.3 -80.9,-180.1 -180.2,-180.1 z m 0,351.8 c -4.4,0 -8.8,-0.2 -13.2,-0.5 3.5,-2.5 7.4,-4.2 13.5,-4.2 6.1,0 10,1.7 13.4,4.2 -4.5,0.3 -9.1,0.5 -13.7,0.5 z m 25.7,-2 c -0.7,-0.6 -1.5,-1.2 -2.2,-1.8 -5.4,-4.5 -11.4,-9.5 -23.2,-9.5 -11.8,0 -17.9,5.1 -23.2,9.6 -0.8,0.6 -1.5,1.3 -2.3,1.9 -27.6,-4.1 -53.2,-14.8 -74.9,-30.4 0.2,-0.2 0.4,-0.4 0.6,-0.5 4.9,-4.1 9.1,-7.6 17.8,-7.6 8.7,0 12.9,3.5 17.8,7.6 5.4,4.5 11.4,9.5 23.2,9.5 11.8,0 17.9,-5.1 23.2,-9.5 4.9,-4.1 9.1,-7.6 17.8,-7.6 8.7,0 12.9,3.5 17.8,7.6 5.4,4.5 11.4,9.5 23.2,9.5 11.8,0 17.9,-5.1 23.2,-9.5 4.9,-4.1 9.1,-7.6 17.8,-7.6 8.7,0 12.9,3.5 17.8,7.6 0.1,0.1 0.2,0.2 0.3,0.3 -21.7,15.5 -47.1,26.3 -74.7,30.4 z m 81.7,-35.9 c -0.6,-0.5 -1.2,-1 -1.8,-1.5 -5.4,-4.5 -11.4,-9.5 -23.2,-9.5 -11.8,0 -17.9,5.1 -23.2,9.5 -4.9,4.1 -9.1,7.6 -17.8,7.6 -8.7,0 -12.9,-3.5 -17.8,-7.6 -5.4,-4.5 -11.4,-9.5 -23.2,-9.5 -11.8,0 -17.9,5.1 -23.2,9.6 -4.9,4.1 -9.1,7.6 -17.7,7.6 -8.7,0 -12.9,-3.5 -17.8,-7.6 -5.4,-4.5 -11.4,-9.5 -23.2,-9.5 -11.8,0 -17.9,5.1 -23.2,9.5 -0.7,0.6 -1.4,1.2 -2.2,1.8 -8.3,-6.6 -15.9,-14 -22.9,-22 2.2,0.5 4.6,0.7 7.3,0.7 11.8,0 17.9,-5.1 23.2,-9.5 4.9,-4.1 9.1,-7.6 17.8,-7.6 8.7,0 12.9,3.5 17.8,7.6 5.4,4.5 11.4,9.5 23.2,9.5 11.8,0 17.9,-5.1 23.2,-9.5 4.9,-4.1 9.1,-7.6 17.8,-7.6 8.7,0 12.9,3.5 17.8,7.6 5.4,4.5 11.4,9.5 23.2,9.5 11.8,0 17.9,-5.1 23.2,-9.5 4.9,-4.1 9.1,-7.6 17.8,-7.6 8.7,0 12.9,3.5 17.8,7.6 5.4,4.5 11.4,9.5 23.2,9.5 2.4,0 4.5,-0.2 6.4,-0.6 -7,7.7 -14.4,15 -22.5,21.5 z m 33.7,-37.2 c -4.9,4.1 -9.1,7.6 -17.8,7.6 -0.6,0 -1.1,0 -1.7,0 v -12.5 c 0,0 0,-15.4 -3.3,-23.9 -3.3,8.5 -3.3,23.9 -3.3,23.9 v 11.1 c -3.7,-1.4 -6.5,-3.7 -9.4,-6.2 -5.4,-4.5 -11.4,-9.5 -23.2,-9.5 -11.8,0 -17.9,5.1 -23.2,9.5 -4.9,4.1 -9.1,7.6 -17.8,7.6 -8.7,0 -12.9,-3.5 -17.8,-7.6 -5.4,-4.5 -11.4,-9.5 -23.2,-9.5 -11.8,0 -17.9,5.1 -23.2,9.6 -4.9,4.1 -9.1,7.6 -17.7,7.6 -8.7,0 -12.9,-3.5 -17.8,-7.6 -5.4,-4.5 -11.4,-9.5 -23.2,-9.5 -3.8,0 -7,0.5 -9.8,1.4 v -7.3 c 0,0 0,-16.9 -3.3,-26.2 -3.3,9.3 -3.3,26.2 -3.3,26.2 V 569 c -2.6,1.6 -4.7,3.4 -6.8,5.1 -4.9,4.1 -9.1,7.6 -17.7,7.6 -8.7,0 -12.9,-3.5 -17.8,-7.6 -0.9,-0.8 -1.9,-1.6 -2.9,-2.4 -17.8,-27.1 -28.3,-59.4 -28.3,-94.2 0,-94.6 77,-171.6 171.6,-171.6 94.6,0 171.6,77 171.6,171.6 0,35.3 -10.7,68.1 -29.1,95.4 -0.7,0.5 -1.1,0.9 -1.6,1.2 z"
   id="path1021" />
				<path
   class="st8"
   d="m 762,900 c -0.8,-0.6 -1.6,-1.2 -2.5,-1.9 -3.1,-2.6 -6.6,-5.5 -13.5,-5.5 -6.9,0 -10.4,2.9 -13.5,5.5 -2.8,2.3 -5,4.2 -9.8,4.2 -4.8,0 -7,-1.9 -9.8,-4.2 -3.1,-2.6 -6.6,-5.5 -13.5,-5.5 -6.9,0 -10.4,2.9 -13.5,5.5 -2.8,2.3 -5,4.2 -9.8,4.2 -4.8,0 -7,-1.9 -9.8,-4.2 -3.1,-2.6 -6.6,-5.5 -13.5,-5.5 -6.9,0 -10.4,2.9 -13.5,5.5 -0.9,0.7 -1.7,1.5 -2.6,2.1 -1.3,0.9 -1.6,2.7 -0.8,4 0.9,1.3 2.7,1.6 4,0.8 1.1,-0.8 2.1,-1.6 3.1,-2.4 2.8,-2.3 5,-4.2 9.8,-4.2 4.8,0 7,1.9 9.8,4.2 3.1,2.6 6.6,5.5 13.5,5.5 6.8,0 10.4,-2.9 13.5,-5.5 2.8,-2.3 5,-4.2 9.8,-4.2 4.8,0 7,1.9 9.8,4.2 3.1,2.6 6.6,5.5 13.5,5.5 6.9,0 10.4,-2.9 13.5,-5.5 2.8,-2.3 5,-4.2 9.8,-4.2 4.8,0 7,1.8 9.8,4.2 0.9,0.7 1.8,1.5 2.8,2.2 1.3,0.9 3.1,0.6 4,-0.7 1,-1.4 0.7,-3.2 -0.6,-4.1 z"
   id="path1023" />
				<path
   class="st8"
   d="m 604.2,904.2 c -2.4,0 -4.3,1.9 -4.3,4.3 v 169.2 c 0,2.4 1.9,4.3 4.3,4.3 2.4,0 4.3,-1.9 4.3,-4.3 V 908.5 c 0,-2.4 -1.9,-4.3 -4.3,-4.3 z"
   id="path1025" />
				<path
   class="st8"
   d="m 794.3,904.2 c -2.4,0 -4.3,1.9 -4.3,4.3 v 169.2 c 0,2.4 1.9,4.3 4.3,4.3 2.4,0 4.3,-1.9 4.3,-4.3 V 908.5 c 0,-2.4 -1.9,-4.3 -4.3,-4.3 z"
   id="path1027" />
				<path
   class="st8"
   d="m 885,644.8 17.3,1.5 c 11.6,1 22.3,-4.2 28.7,-13.8 6.4,-9.6 7.1,-21.5 1.8,-31.8 l -8,-15.4 c -2.3,-4.5 -2.5,-9.7 -0.6,-14.4 1.9,-4.7 5.8,-8.2 10.6,-9.8 l 16.6,-5.3 c 11,-3.5 19,-12.4 21.2,-23.8 2.3,-11.4 -1.7,-22.6 -10.5,-30.1 l -13.3,-11.2 c -3.9,-3.3 -6.1,-8 -6.1,-13.1 0,-5 2.2,-9.8 6.1,-13.1 l 13.3,-11.2 c 8.8,-7.5 12.8,-18.7 10.5,-30.1 -2.3,-11.4 -10.2,-20.2 -21.2,-23.8 l -16.6,-5.3 c -4.8,-1.5 -8.7,-5.1 -10.6,-9.8 -1.9,-4.7 -1.7,-9.9 0.6,-14.4 l 8,-15.4 c 5.3,-10.3 4.6,-22.2 -1.8,-31.8 -6.4,-9.6 -17.2,-14.8 -28.7,-13.8 l -17.3,1.5 c -5,0.4 -10,-1.4 -13.5,-5 -3.6,-3.6 -5.4,-8.5 -5,-13.5 l 1.5,-17.3 c 1,-11.5 -4.2,-22.3 -13.8,-28.7 -9.6,-6.4 -21.5,-7.1 -31.8,-1.8 l -15.4,8 c -4.5,2.3 -9.7,2.5 -14.4,0.6 -4.7,-1.9 -8.2,-5.8 -9.8,-10.6 l -5.3,-16.6 c -3.5,-11 -12.4,-19 -23.8,-21.2 -11.4,-2.3 -22.6,1.7 -30.1,10.5 L 712.3,228 c -3.3,3.9 -8,6.1 -13.1,6.1 -5.1,0 -9.8,-2.2 -13.1,-6.1 L 675,214.7 c -7.5,-8.8 -18.7,-12.8 -30.1,-10.5 -11.4,2.3 -20.3,10.2 -23.8,21.2 l -5.3,16.6 c -1.5,4.8 -5.1,8.7 -9.8,10.6 -4.7,1.9 -9.9,1.7 -14.4,-0.6 l -15.4,-8 c -10.3,-5.3 -22.2,-4.6 -31.8,1.8 -9.6,6.4 -14.8,17.2 -13.8,28.7 l 1.5,17.3 c 0.4,5 -1.4,10 -5,13.5 -3.6,3.6 -8.5,5.4 -13.5,5 l -17.3,-1.5 c -11.5,-1 -22.3,4.2 -28.7,13.8 -6.4,9.6 -7.1,21.5 -1.8,31.8 l 8,15.4 c 2.3,4.5 2.5,9.7 0.6,14.4 -1.9,4.7 -5.8,8.2 -10.6,9.8 l -16.6,5.3 c -11,3.5 -19,12.4 -21.2,23.8 -2.2,11.4 1.7,22.6 10.5,30.1 l 13.3,11.2 c 3.9,3.3 6.1,8 6.1,13.1 0,5.1 -2.2,9.8 -6.1,13.1 l -13.3,11.2 c -8.8,7.5 -12.8,18.7 -10.5,30.1 2.3,11.4 10.2,20.2 21.2,23.8 l 16.6,5.3 c 4.8,1.5 8.7,5.1 10.6,9.8 1.9,4.7 1.7,9.9 -0.6,14.4 l -8,15.4 c -5.3,10.3 -4.6,22.2 1.8,31.8 6.4,9.6 17.2,14.8 28.7,13.8 l 17.3,-1.5 c 2.6,-0.2 5.2,0.2 7.6,1.1 l -112,194.3 117.3,-4.5 48,90.8 v 275.4 L 700,1102 825.5,1201.8 V 926.4 l 48,-90.8 117.3,4.5 -112.1,-194.6 c 2,-0.6 4.1,-0.9 6.3,-0.7 z m -310.5,251.1 -37.2,-70.3 18.8,-31.3 c 1.2,-2 0.6,-4.7 -1.5,-5.9 -2,-1.2 -4.7,-0.6 -5.9,1.5 l -18.7,31.3 -95.6,3.7 96.9,-168.1 c 0.6,2.1 0.9,4.3 0.7,6.5 l -1.5,17.3 c -1,11.5 4.2,22.3 13.8,28.7 9.1,6.1 20.2,7 30.1,2.6 v 184 z m 236.7,276.4 -111.2,-88.5 -111.2,88.4 v -35.9 l 111.2,-88.4 111.2,88.4 z m 0,-54.2 -111.2,-88.4 -111.2,88.4 V 704.7 l 2.9,-1.5 c 2.6,-1.3 5.4,-2 8.3,-1.9 v 126.9 c 0,2.4 1.9,4.3 4.3,4.3 2.4,0 4.3,-1.9 4.3,-4.3 V 703.9 c 3.4,2.1 6.1,5.4 7.3,9.3 l 5.3,16.6 c 3.5,11 12.4,19 23.8,21.2 2.6,0.5 5.3,0.7 7.8,0.6 -0.1,0.4 -1.3,9.3 1.1,14.8 4.1,-4.6 5.5,-13.8 5.5,-13.8 l 0.3,-2.1 c 5.9,-1.7 11.2,-5.1 15.3,-10 l 11.2,-13.3 c 2.6,-3.1 6.1,-5.1 10,-5.8 V 734 c 0,0 0,25.7 3.3,39.9 3.3,-14.2 3.3,-39.9 3.3,-39.9 v -12.5 c 3.7,0.8 7,2.8 9.5,5.7 l 11.2,13.3 c 6.1,7.2 14.7,11.1 23.8,11.1 1.5,0 3,-0.1 4.5,-0.4 l 0.8,2.5 c 0,0 2,6.6 6.3,9.3 2.1,-4.6 0.1,-11.3 0.1,-11.3 l -0.6,-2.1 c 9.1,-3.3 16.1,-10.5 19.1,-19.9 l 5.3,-16.6 c 1.3,-3.9 3.9,-7.2 7.3,-9.3 v 124.3 c 0,2.4 1.9,4.3 4.3,4.3 2.4,0 4.3,-1.9 4.3,-4.3 V 701.3 c 2.8,-0.1 5.7,0.5 8.3,1.9 l 4.4,2.3 v 412.6 z m 2.2,-427.6 c -8.2,-4.2 -17.8,-4.6 -26.4,-1.1 -8.6,3.5 -15.1,10.6 -17.9,19.4 l -5.3,16.6 c -1.9,6 -6.8,10.4 -13,11.6 -6.2,1.2 -12.3,-0.9 -16.4,-5.7 L 723.2,718 c -6,-7.1 -14.7,-11.1 -24,-11.1 0,0 0,0 0,0 -9.3,0 -18,4.1 -24,11.1 L 664,731.3 c -4.1,4.8 -10.2,7 -16.4,5.7 -6.2,-1.2 -11,-5.6 -13,-11.6 l -5.3,-16.6 c -2.8,-8.8 -9.3,-15.9 -17.9,-19.4 -3.9,-1.6 -7.9,-2.4 -12,-2.4 -4.9,0 -9.9,1.2 -14.4,3.5 l -15.4,8 c -5.6,2.9 -12.1,2.5 -17.4,-1 -5.3,-3.5 -8.1,-9.4 -7.5,-15.7 l 1.5,-17.3 c 0.8,-9.2 -2.5,-18.3 -9.1,-24.8 -6.5,-6.5 -15.6,-9.9 -24.8,-9.1 l -17.3,1.5 c -6.3,0.5 -12.2,-2.3 -15.7,-7.5 -3.5,-5.3 -3.9,-11.7 -1,-17.4 l 8,-15.4 c 4.2,-8.2 4.6,-17.8 1.1,-26.4 -3.5,-8.6 -10.6,-15.1 -19.4,-17.9 l -16.6,-5.3 c -6,-1.9 -10.4,-6.8 -11.6,-13 -1.2,-6.2 0.9,-12.3 5.7,-16.4 l 13.3,-11.2 c 7.1,-6 11.1,-14.7 11.1,-24 0,-9.3 -4.1,-18 -11.1,-24 l -13.3,-11.2 c -4.8,-4.1 -7,-10.2 -5.7,-16.4 1.2,-6.2 5.6,-11 11.6,-13 l 16.6,-5.3 c 8.8,-2.8 15.9,-9.3 19.4,-17.9 3.5,-8.6 3.1,-18.2 -1.1,-26.4 l -8,-15.4 c -2.9,-5.6 -2.5,-12.1 1,-17.4 3.5,-5.3 9.4,-8.1 15.7,-7.5 l 17.3,1.5 c 9.2,0.8 18.3,-2.5 24.8,-9.1 6.5,-6.5 9.9,-15.6 9.1,-24.8 l -1.5,-17.3 c -0.5,-6.3 2.3,-12.2 7.5,-15.7 5.3,-3.5 11.7,-3.9 17.4,-1 l 15.4,8 c 8.2,4.2 17.8,4.6 26.4,1.1 8.6,-3.5 15.1,-10.6 17.9,-19.4 l 5.3,-16.6 c 1.9,-6 6.8,-10.4 13,-11.6 6.2,-1.2 12.3,0.9 16.4,5.7 l 11.2,13.3 c 6,7.1 14.7,11.1 24,11.1 9.3,0 18,-4.1 24,-11.1 l 11.2,-13.3 c 4.1,-4.8 10.2,-7 16.4,-5.7 6.2,1.2 11,5.6 13,11.6 l 5.3,16.6 c 2.8,8.8 9.3,15.9 17.9,19.4 8.6,3.5 18.2,3.1 26.4,-1.1 l 15.4,-8 c 5.6,-2.9 12.1,-2.5 17.4,1 5.3,3.5 8.1,9.4 7.5,15.7 l -1.5,17.3 c -0.8,9.2 2.5,18.3 9.1,24.8 6.5,6.5 15.6,9.9 24.8,9.1 l 17.3,-1.5 c 6.3,-0.5 12.2,2.3 15.7,7.5 3.5,5.3 3.9,11.7 1,17.4 l -8,15.4 c -4.2,8.2 -4.6,17.8 -1.1,26.4 3.5,8.6 10.6,15.1 19.4,17.9 L 947,413 c 6,1.9 10.4,6.8 11.6,13 1.2,6.2 -0.9,12.3 -5.7,16.4 l -13.3,11.2 c -7.1,6 -11.1,14.7 -11.1,24 0,9.3 4.1,18 11.1,24 l 13.3,11.2 c 4.8,4.1 7,10.2 5.7,16.4 -1.2,6.2 -5.6,11 -11.6,13 l -16.6,5.3 c -8.8,2.8 -15.9,9.3 -19.4,17.9 -3.5,8.6 -3.1,18.2 1.1,26.4 l 8,15.4 c 2.9,5.6 2.5,12.1 -1,17.4 -3.5,5.3 -9.4,8.1 -15.7,7.6 l -17.3,-1.5 c -9.2,-0.8 -18.3,2.5 -24.8,9.1 -6.5,6.5 -9.9,15.6 -9.1,24.8 l 1.5,17.3 c 0.5,6.3 -2.3,12.2 -7.5,15.7 -5.3,3.5 -11.7,3.9 -17.4,1 z M 965.6,824.9 870,821.2 851.1,789.9 c -1.2,-2 -3.8,-2.7 -5.9,-1.5 -2,1.2 -2.7,3.8 -1.5,5.9 l 18.8,31.3 -37.2,70.3 V 712.6 c 9.5,3.7 20,2.6 28.6,-3.2 9.6,-6.4 14.8,-17.2 13.8,-28.7 l -1.5,-17.3 c -0.2,-2.8 0.2,-5.6 1.3,-8.1 z"
   id="path1029" />
			</g>
		</g></g>

</svg>
