<?xml version="1.0" encoding="UTF-8" standalone="no"?>
<svg
   xmlns:dc="http://purl.org/dc/elements/1.1/"
   xmlns:cc="http://creativecommons.org/ns#"
   xmlns:rdf="http://www.w3.org/1999/02/22-rdf-syntax-ns#"
   xmlns:svg="http://www.w3.org/2000/svg"
   xmlns="http://www.w3.org/2000/svg"
   xmlns:sodipodi="http://sodipodi.sourceforge.net/DTD/sodipodi-0.dtd"
   xmlns:inkscape="http://www.inkscape.org/namespaces/inkscape"
   version="1.1"
   id="Capa_1"
   x="0px"
   y="0px"
   viewBox="0 0 1400 1400"
   enable-background="new 0 0 1400 980"
   xml:space="preserve"
   sodipodi:docname="safe5.svg"
   width="1400"
   height="1400"
   inkscape:version="1.0.1 (3bc2e813f5, 2020-09-07)"><metadata
   id="metadata7496"><rdf:RDF><cc:Work
       rdf:about=""><dc:format>image/svg+xml</dc:format><dc:type
         rdf:resource="http://purl.org/dc/dcmitype/StillImage" /><dc:title></dc:title></cc:Work></rdf:RDF></metadata><defs
   id="defs7494"><linearGradient
     id="linearGradient8367"
     gradientUnits="userSpaceOnUse"
     x1="1098.8905"
     y1="758.96912"
     x2="1186.0046"
     y2="758.96912"
     gradientTransform="matrix(1.0877,-0.00623701,0.01102514,0.8603,-1006.7668,125.9656)"><stop
       offset="3.188190e-002"
       style="stop-color:#F2CF3A"
       id="stop7103-3" /><stop
       offset="1"
       style="stop-color:#D59E26"
       id="stop7105-7" /></linearGradient><linearGradient
     id="linearGradient8371"
     gradientUnits="userSpaceOnUse"
     x1="1098.8905"
     y1="728.51782"
     x2="1186.0046"
     y2="728.51782"
     gradientTransform="matrix(1.0877,-0.00623701,0.01102514,0.8603,-1006.7668,125.9656)"><stop
       offset="3.188190e-002"
       style="stop-color:#F2CF3A"
       id="stop7144-9" /><stop
       offset="1"
       style="stop-color:#D59E26"
       id="stop7146-8" /></linearGradient><linearGradient
     id="linearGradient8375"
     gradientUnits="userSpaceOnUse"
     x1="1098.8905"
     y1="698.06659"
     x2="1186.0046"
     y2="698.06659"
     gradientTransform="matrix(1.0877,-0.00623701,0.01102514,0.8603,-1006.7668,125.9656)"><stop
       offset="3.188190e-002"
       style="stop-color:#F2CF3A"
       id="stop7185-1" /><stop
       offset="1"
       style="stop-color:#D59E26"
       id="stop7187-5" /></linearGradient><linearGradient
     id="linearGradient8379"
     gradientUnits="userSpaceOnUse"
     x1="1098.8905"
     y1="667.61542"
     x2="1186.0046"
     y2="667.61542"
     gradientTransform="matrix(1.0877,-0.00623701,0.01102514,0.8603,-1006.7668,125.9656)"><stop
       offset="3.188190e-002"
       style="stop-color:#F2CF3A"
       id="stop7226-4" /><stop
       offset="1"
       style="stop-color:#D59E26"
       id="stop7228-8" /></linearGradient><linearGradient
     id="linearGradient8383"
     gradientUnits="userSpaceOnUse"
     x1="1098.8905"
     y1="637.16418"
     x2="1186.0046"
     y2="637.16418"
     gradientTransform="translate(-895.8058,31.9241)"><stop
       offset="3.188190e-002"
       style="stop-color:#F2CF3A"
       id="stop7267-7" /><stop
       offset="1"
       style="stop-color:#D59E26"
       id="stop7269-0" /></linearGradient><path
     id="XMLID_14_-7"
     d="m 175.3,827.6 c 40.7,18.6 107.3,18.8 148,0.3 20.8,-9.4 31,-22 30.5,-34.5 -0.1,-2.4 -0.2,-18.7 -0.2,-18.7 0,0 -14.4,-6.9 -30.2,-14.2 -40.7,-18.7 -107.2,-18.8 -148,-0.3 -18.2,8.3 -30.8,15.1 -30.8,15.1 0,0 0.2,17.8 0.3,19.4 0.4,11.9 10.5,23.8 30.4,32.9 z" /><path
     id="XMLID_13_-6"
     d="m 175,801.4 c 40.7,18.6 107.3,18.8 148,0.3 20.8,-9.4 31,-22 30.5,-34.5 -0.1,-2.4 -0.2,-18.7 -0.2,-18.7 0,0 -14.4,-6.9 -30.2,-14.2 -40.7,-18.7 -107.2,-18.8 -148,-0.3 -18.2,8.3 -30.8,15.1 -30.8,15.1 0,0 0.2,17.8 0.3,19.4 0.3,11.9 10.5,23.8 30.4,32.9 z" /><path
     id="XMLID_12_-3"
     d="m 174.7,775.2 c 40.7,18.6 107.3,18.8 148,0.3 20.8,-9.4 31,-22 30.5,-34.5 -0.1,-2.4 -0.2,-18.7 -0.2,-18.7 0,0 -14.4,-6.9 -30.2,-14.2 -40.7,-18.7 -107.2,-18.8 -148,-0.3 -18.2,8.3 -30.8,15.1 -30.8,15.1 0,0 0.2,17.8 0.3,19.4 0.3,11.9 10.5,23.8 30.4,32.9 z" /><path
     id="XMLID_11_-6"
     d="m 174.3,749 c 40.7,18.6 107.3,18.8 148,0.3 20.8,-9.4 31,-22 30.5,-34.5 -0.1,-2.4 -0.2,-18.7 -0.2,-18.7 0,0 -14.4,-6.9 -30.2,-14.2 -40.7,-18.7 -107.2,-18.8 -148,-0.3 -18.2,8.3 -30.8,15.1 -30.8,15.1 0,0 0.2,17.8 0.3,19.4 0.3,11.9 10.5,23.8 30.4,32.9 z" /><path
     id="XMLID_10_-1"
     d="m 174,722.8 c 40.7,18.6 107.3,18.8 148,0.3 20.8,-9.4 31,-22 30.5,-34.5 -0.1,-2.4 -0.2,-18.7 -0.2,-18.7 0,0 -14.4,-6.9 -30.2,-14.2 -40.7,-18.7 -107.2,-18.8 -148,-0.3 -18.2,8.3 -30.8,15.1 -30.8,15.1 0,0 0.2,17.8 0.3,19.4 0.3,11.9 10.5,23.8 30.4,32.9 z" /></defs><sodipodi:namedview
   pagecolor="#ffffff"
   bordercolor="#666666"
   borderopacity="1"
   objecttolerance="10"
   gridtolerance="10"
   guidetolerance="10"
   inkscape:pageopacity="0"
   inkscape:pageshadow="2"
   inkscape:window-width="1366"
   inkscape:window-height="705"
   id="namedview7492"
   showgrid="false"
   inkscape:zoom="0.38818719"
   inkscape:cx="817.07934"
   inkscape:cy="611.07717"
   inkscape:window-x="-8"
   inkscape:window-y="-8"
   inkscape:window-maximized="1"
   inkscape:current-layer="g9723"
   inkscape:document-rotation="0" />












<linearGradient
   id="SVGID_1_"
   gradientUnits="userSpaceOnUse"
   x1="572.08539"
   y1="437.6712"
   x2="790.45032"
   y2="437.6712"
   gradientTransform="matrix(1.2590065,0,0,1.2590065,-284.56848,220.21813)">
	<stop
   offset="0"
   style="stop-color:#BABDB6"
   id="stop6697" />
	<stop
   offset="1"
   style="stop-color:#EEEEEC"
   id="stop6699" />
</linearGradient>



















<g
   inkscape:groupmode="layer"
   id="layer1"
   inkscape:label="Layer 1" /><g
   id="g9723"
   transform="matrix(1.2161488,0,0,1.2161488,-148.58048,-102.41709)"><g
     id="g2951"
     transform="matrix(1.2276568,0,0,1.2276568,-34.834861,-285.4973)"><polygon
       fill="#d19205"
       points="731.2,950.4 731.7,951.4 731.7,942.5 731.2,941.6 "
       id="polygon6675"
       transform="matrix(1.2590065,0,0,1.2590065,-284.56848,-21.511117)" /><path
       fill="#818182"
       d="m 190.45467,338.18704 c -16.74478,0 -30.21615,13.59727 -30.21615,30.21615 v 804.75701 c 0,16.7448 13.59727,30.342 30.21615,30.342 h 402.63028 l -0.2518,-865.18926 H 190.45467 Z"
       id="path6679"
       style="stroke-width:1.25901" /><path
       fill="#656768"
       d="M 1003.3952,338.18704 H 592.83315 l 0.2518,865.18926 h 410.31025 c 16.7448,0 29.8384,-13.5972 29.8384,-30.342 V 368.40319 c 0,-16.74478 -13.0936,-30.21615 -29.8384,-30.21615 z"
       id="path6681"
       style="stroke-width:1.25901" /><polygon
       fill="#e5e7eb"
       points="698.5,710.6 698.4,161.9 421.7,161.9 421.7,710.6 "
       id="polygon6683"
       transform="matrix(1.2590065,0,0,1.2590065,-284.56848,220.21813)" /><polygon
       fill="#d7dadd"
       points="698.3,710.6 970.4,710.6 970.4,161.9 698.4,161.9 "
       id="polygon6685"
       transform="matrix(1.2590065,0,0,1.2590065,-284.56848,220.21813)" /><path
       fill="#656768"
       d="M 941.578,1119.2747 H 241.94804 V 419.51886 H 941.7039 v 699.75584 z m -690.81692,-8.939 H 932.639 V 428.0801 H 250.76108 Z"
       id="path6687"
       style="stroke-width:1.25901" /><polygon
       fill="#676868"
       points="832.2,440.4 799.9,425.4 799.9,454.2 "
       id="polygon6689"
       transform="matrix(1.2590065,0,0,1.2590065,-284.56848,220.21813)" /><circle
       fill="#656768"
       cx="572.18542"
       cy="773.9292"
       r="152.96928"
       id="circle6691"
       style="stroke-width:1.25901" /><path
       fill="#656768"
       d="m 570.80054,640.3486 c 74.53318,0 134.96549,60.43231 134.96549,134.96549 0,74.53319 -60.43231,134.9655 -134.96549,134.9655 -74.53319,0 -134.9655,-60.43231 -134.9655,-134.9655 0,-74.53318 60.43231,-134.96549 134.9655,-134.96549 m 0,-6.92454 c -19.1369,0 -37.7702,3.77702 -55.27039,11.20516 -16.87069,7.17634 -32.10467,17.37429 -45.07243,30.46796 -13.09367,13.09366 -23.29162,28.20174 -30.46796,45.07243 -7.42814,17.50019 -11.20516,36.13349 -11.20516,55.27038 0,19.1369 3.77702,37.7702 11.20516,55.27039 7.17634,16.87069 17.37429,32.10467 30.46796,45.07243 13.09367,13.09367 28.20174,23.29162 45.07243,30.46796 17.50019,7.42814 36.13349,11.20516 55.27039,11.20516 19.13689,0 37.77019,-3.77702 55.27038,-11.20516 16.87069,-7.17634 32.10467,-17.37429 45.07243,-30.46796 13.09367,-13.09367 23.29162,-28.20174 30.46796,-45.07243 7.42814,-17.50019 11.20516,-36.13349 11.20516,-55.27039 0,-19.13689 -3.77702,-37.77019 -11.20516,-55.27038 -7.17634,-16.87069 -17.37429,-32.10467 -30.46796,-45.07243 -13.09366,-13.09367 -28.20174,-23.29162 -45.07243,-30.46796 -17.50019,-7.42814 -36.13349,-11.20516 -55.27038,-11.20516 z"
       id="path6693"
       style="stroke-width:1.25901" /><path
       fill="#d4d5d8"
       d="m 570.80054,646.26593 c 0,0 0,0 0,0 -0.1259,0 -0.1259,0 -0.1259,0 0,0 0,0 -0.12591,0 0,0 0,0 0,0 0,0 -0.1259,0 -0.1259,0 0,0 0,0 0,0 0,0 0,0 -0.1259,0 0,0 0,0 0,0 0,0 -0.1259,0 -0.2518,0 0,0 0,0 0,0 0,0 0,0 -0.1259,0 0,0 0,0 0,0 0,0 -0.1259,0 -0.2518,0 0,0 0,0 0,0 0,0 0,0 -0.1259,0 0,0 0,0 0,0 -0.1259,0 -0.1259,0 -0.2518,0 0,0 0,0 0,0 0,0 0,0 -0.1259,0 0,0 0,0 0,0 -0.1259,0 -0.1259,0 -0.2518,0 0,0 0,0 0,0 0,0 0,0 -0.1259,0 0,0 0,0 0,0 -0.1259,0 -0.1259,0 -0.25181,0 0,0 0,0 0,0 0,0 -0.1259,0 -0.1259,0 0,0 0,0 0,0 -0.1259,0 -0.1259,0 -0.2518,0 0,0 0,0 0,0 -0.1259,0 -0.2518,0 -0.2518,0 0,0 0,0 0,0 -1.63671,0 -3.27342,0 -4.91012,0 0,0 0,0 0,0 -0.1259,0 -0.25181,0.1259 -0.25181,0.1259 0,0 0,0 0,0 0,0 0,0 -0.1259,0 0,0 0,0 0,0 0,0 -0.1259,0 -0.1259,0 0,0 0,0 0,0 0,0 0,0 -0.1259,0 0,0 0,0 0,0 0,0 0,0 -0.1259,0 0,0 0,0 0,0 0,0 0,0 -0.1259,0 0,0 0,0 0,0 0,0 0,0 0,0 0,0 0,0 0,0 0,0 0,0 0,0 0,0 0,0 0,0 0,0 0,0 0,0 0,0 0,0 -0.1259,0 0,0 0,0 0,0 0,0 0,0 0,0 0,0 0,0 0,0 -0.1259,0 -0.1259,0 -0.2518,0 v 0 c -0.2518,0 -0.6295,0 -0.88131,0.1259 l 2.01442,26.94274 c 2.64391,-0.2518 4.78422,-0.2518 7.80584,-0.2518 v -26.94274 z m -19.76641,1.51081 c -0.7554,0.1259 -1.6367,0.2518 -2.39211,0.3777 0,0 0,0 0,0 -0.1259,0 -0.1259,0 -0.2518,0 v 0 c 0,0 0,0 -0.1259,0 0,0 0,0 0,0 0,0 0,0 0,0 0,0 0,0 0,0 -0.1259,0 -0.1259,0 -0.2518,0 0,0 0,0 0,0 0,0 0,0 0,0 0,0 0,0 0,0 -0.1259,0 -0.1259,0 -0.2518,0 0,0 0,0 0,0 0,0 0,0 0,0 0,0 0,0 0,0 0,0 0,0 0,0 0,0 0,0 0,0 0,0 -0.1259,0 -0.1259,0 0,0 0,0 0,0 0,0 0,0 0,0 0,0 0,0 0,0 0,0 0,0 0,0 0,0 0,0 0,0 0,0 -0.1259,0 -0.1259,0 0,0 0,0 0,0 0,0 0,0 0,0 0,0 0,0 0,0 0,0 0,0 0,0 0,0 0,0 0,0 -0.1259,0 -0.1259,0 -0.25181,0 0,0 0,0 0,0 0,0 0,0 0,0 0,0 0,0 0,0 -0.1259,0 -0.1259,0 -0.2518,0 0,0 0,0 0,0 0,0 0,0 -0.1259,0 v 0 c -0.1259,0 -0.2518,0 -0.2518,0 0,0 0,0 0,0 -1.63671,0.2518 -3.14751,0.6295 -4.78422,1.0072 l 6.16913,26.31324 c 2.51801,-0.6295 5.16193,-1.13311 7.67994,-1.51081 z m -19.2628,4.40652 c 0,0 0,0 0,0 0,0 0,0.1259 0,0 -0.1259,0 -0.1259,0 -0.1259,0 0,0 0,0 0,0 0,0 0,0 0,0 0,0 0,0 0,0 0,0 0,0 -0.1259,0 0,0 0,0 0,0 0,0 -0.1259,0 -0.1259,0 0,0 0,0 0,0 0,0 0,0 -0.1259,0 0,0 0,0 0,0 0,0 0,0 -0.1259,0 0,0 0,0 0,0 0,0 -0.1259,0 -0.1259,0 0,0 0,0 0,0 0,0 0,0 -0.1259,0 0,0 0,0 0,0 -0.1259,0 -0.1259,0 -0.2518,0.1259 0,0 0,-0.1259 0,-0.1259 -0.1259,0 -0.2518,0 -0.3777,0 0,0 0,0 0,0 -0.2518,0 -0.62951,0.2518 -0.88131,0.3777 0,0 0,0 0,0 0,0 0,0 -0.1259,0 0,0 0,0 0,0 -0.1259,0 -0.1259,0.1259 -0.2518,0.1259 0,0 0,0 0,0 0,0 0,0 -0.1259,0 0,0 0,0 0,0 0,0 -0.1259,0 -0.1259,0 0,0 0,0 0,0 0,0 0,0 -0.1259,0 0,0 0,0 0,0 0,0 0,0 -0.1259,0 0,0 0,0 0,0 0,0 0,0 -0.1259,0 0,0 0,0 0,0 0,0 0,0 -0.1259,0 0,0 0,0 0,0 0,0 0,0 -0.1259,0 0,0 0,0 0,0 0,0 0,0 -0.1259,0 0,0 0,0 0,0 0,0 0,0 -0.12591,0 0,0 0,0 0,0 0,0 0,0 0,0 0,0 0,0 0,0 0,0 0,0 0,0 0,0 0,0 0,0 0,0 0,0 0,0 0,0 0,0 0,0 0,0 0,0 0,0 0,0 0,0 0,0 0,0 0,0 0,0 0,0 0,0 0,0 0,0 0,0 0,0 0,0 -0.1259,0 -0.1259,0.1259 0,0 0,0 0,0 0,0 0,0 0,0 0,0 0,0 0,0 -0.1259,0 -0.1259,0.1259 -0.2518,0.1259 v 0 c -1.51081,0.5036 -2.89571,1.13311 -4.28062,1.63671 l 10.07205,25.05423 c 2.39211,-1.00721 4.91013,-1.88851 7.30224,-2.64391 z m -18.25559,7.42814 c -3.02162,1.5108 -5.91733,3.02161 -8.68714,4.78422 l 13.84907,23.29162 c 2.26621,-1.38491 4.53242,-2.64391 6.92453,-3.77702 z m -16.99659,10.19795 c 0,0 0,0 0,0 0,0 0,0 0,0 -0.1259,0 -0.1259,0 0,0 -0.1259,0 -0.1259,0 0,0 -0.1259,0.1259 -0.1259,0.1259 -0.1259,0.1259 0,0 0,0 0,0 0,0 0,0 -0.1259,0 0,0 0,0 0,0 0,0 0,0 0,0 0,0 0,0 0,0 0,0 0,0 0,0 0,0 0,0 0,0 0,0 0,0 0,0 0,0 -0.1259,0.1259 -0.1259,0.1259 0,0 0,0 0,0 0,0 0,0 0,0 v 0 c 0,0 0,0 0,0 0,0 0,0 0,0 -0.1259,0 -0.1259,0.1259 -0.2518,0.1259 v 0 c -0.7554,0.5036 -1.38491,1.00721 -2.14031,1.51081 v 0 c 0,0 0,0 0,0 0,0 0,0 0,0 -0.1259,0 -0.1259,0.1259 -0.2518,0.1259 0,0 0,0 0,0 0,0 0,0 0,0 0,0 0,0 0,0 0,0 0,0 0,0 v 0 c 0,0 -0.1259,0 -0.1259,0.1259 0,0 0,0 0,0 0,0 0,0 0,0 0,0 0,0 0,0 0,0 0,0 0,0 0,0 0,0 0,0 0,0 0,0 0,0 0,0 0,0 0,0 0,0 0,0 0,0 0,0 0,0 0,0 0,0 0,0 0,0 0,0 0,0 0,0 0,0 0,0 0,0 0,0 0,0 0,0 0,0 0,0 0,0 0,0 -0.1259,0.1259 -0.1259,0.1259 0,0 0,0 0,0 0,0 0,0 0,0 0,0 0,0 0,0 -0.1259,0 -0.1259,0.1259 -0.25181,0.1259 0,0 0,0 0,0 -1.1331,0.88131 -2.14031,1.76261 -3.27341,2.64392 l 17.24839,20.8995 c 2.01441,-1.63671 4.15472,-3.27341 6.16913,-4.78422 z m -15.23398,12.59006 c -1.5108,1.38491 -2.89571,2.76982 -4.28062,4.28063 v 0 c -0.1259,0.1259 -0.1259,0.1259 -0.2518,0.2518 0,0 0,0 0,0 0,0 0,0 0,0 v 0 c -0.1259,0.1259 -0.1259,0.1259 -0.2518,0.2518 0,0 0,0 0,0 0,0 0,0 0,0 0,0 0,0 0,0 -0.1259,0.1259 -0.1259,0.1259 -0.2518,0.2518 0,0 0,0 0,0 0,0 0,0 0,0 0,0 0,0 0,0 0,0 -0.1259,0.1259 -0.1259,0.1259 v 0 c 0,0 0,0 0,0 0,0 0,0 0,0 0,0 0,0 0,0 v 0 c -0.1259,0.1259 -0.1259,0.1259 -0.2518,0.2518 0,0 0,0 0,0 0,0 0,0 0,0 v 0 c -0.37771,0.5036 -0.88131,1.00721 -1.25901,1.38491 l 20.1441,18.00379 c 1.76261,-1.88851 3.52522,-3.90292 5.41373,-5.66553 z m -13.21956,14.73038 c -0.37771,0.5036 -0.75541,1.00721 -1.13311,1.51081 0,0 0,0 0,0 0,0.1259 -0.1259,0.1259 -0.1259,0.2518 0,0 0,0 0,0 0,0 0,0 0,0 0,0 0,0 0,0 0,0.1259 -0.1259,0.1259 -0.1259,0.2518 0,0 0,0 0,0 0,0 0,0 0,0 0,0 0,0 0,0 0,0 0,0 0,0 v 0 c 0,0 0,0.1259 -0.1259,0.1259 v 0 c 0,0 0,0 0,0 0,0 0,0 0,0 0,0 0,0 0,0 0,0 0,0 0,0 0,0 0,0 0,0 0,0 0,0 0,0 0,0 0,0.1259 -0.1259,0.1259 0,0 0,0 0,0 0,0 0,0 0,0 0,0 0,0 0,0 0,0 0,0 0,0 0,0 0,0 0,0 0,0 0,0 0,0 0,0 0,0 0,0 0,0 0,0.1259 -0.1259,0.1259 0,0 0,0 0,0 0,0 0,0 0,0 0,0 0,0 0,0 0,0 0,0 0,0 0,0 0,0 0,0 0,0 -0.1259,0.1259 -0.1259,0.1259 0,0 0,0 0,0 0,0 0,0 0,0 0,0 0,0 0,0 0,0 0,0 0,0 0,0 0,0 0,0 0,0 -0.1259,0.1259 -0.1259,0.1259 0,0 0,0 0,0 0,0 0,0 0,0 0,0 0,0 0,0 0,0 0,0 0,0 0,0 0,0 0,0 0,0 -0.12591,0.1259 -0.12591,0.1259 0,0 0,0 0,0 0,0 0,0 0,0 0,0 0,0 0,0 0,0 0,0 0,0 0,0 0,0 0,0 0,0 -0.1259,0.12591 -0.1259,0.12591 0,0 0,0 0,0 0,0 0,0 0,0 0,0 0,0 0,0 0,0 0,0 0,0 0,0 0,0 0,0 0,0 -0.1259,0.1259 -0.1259,0.1259 0,0 0,0 0,0 0,0 0,0 0,0 0,0 0,0 0,0 0,0 0,0 0,0 0,0 0,0 0,0 0,0 -0.1259,0.1259 -0.1259,0.1259 0,0 0,0 0,0 0,0 0,0 0,0 0,0 0,0 0,0 0,0 0,0 0,0 0,0 0,0 0,0 0,0 -0.1259,0.1259 -0.1259,0.1259 v 0 c 0,0 0,0 0,0 0,0 0,0 0,0 0,0.1259 -0.1259,0.1259 -0.1259,0.2518 v 0 c -0.6295,0.8813 -1.1331,1.76261 -1.76261,2.51801 l 22.66212,14.73038 c 1.38491,-2.14031 2.89571,-4.28062 4.53242,-6.42094 z m -10.70156,16.61889 c -0.1259,0.2518 -0.2518,0.5036 -0.3777,0.7554 v 0 c 0,0 0,0 0,0 0,0 0,0 0,0 0,0 0,0 0,0 0,0 0,0 0,0 0,0 0,0 0,0.1259 0,0 0,0 0,0 0,0 0,0 0,0 0,0 0,0 0,0 0,0 0,0 0,0 0,0 0,0 0,0 0,0 0,0 0,0 0,0 0,0.1259 -0.1259,0.1259 0,0 0,0 0,0 0,0 0,0 0,0.1259 0,0 0,0 0,0 -1.13311,2.01441 -2.14031,4.15472 -3.02162,6.16913 0,0 0,0 0,0 0,0 0,0 0,0.1259 0,0 0,0 0,0 0,0 0,0 0,0.12591 0,0 0,0 0,0 0,0 0,0 0,0.1259 0,0 0,0 0,0 0,0 0,0 0,0 0,0 0,0 0,0 0,0 0,0 0,0 0,0 0,0 0,0 0,0 0,0 0,0 0,0 0,0 0,0.1259 0,0 0,0 0,0 0,0 0,0 0,0 0,0 0,0 0,0 0,0 0,0 0,0 0,0 0,0 0,0 0,0.1259 -0.1259,0.2518 -0.1259,0.3777 l 24.67653,11.07926 c 1.0072,-2.39212 2.26621,-4.78423 3.52522,-7.05044 z m -8.18354,18.00379 c 0,0.1259 -0.1259,0.2518 -0.1259,0.5036 0,0 0,0 0,0 0,0.1259 0,0.1259 -0.1259,0.2518 0,0 0,0 0,0 0,0 0,0 0,0.1259 0,0 -0.1259,0 -0.1259,0 0,0 -0.1259,0 -0.1259,0.1259 0,0 0,0 0,0 0,0 0.1259,0 0,0.1259 0,0 0,0 0,0 0,0 0,0 0,0.12591 0,0 0,0 0,0 0,0 0,0 0,0.1259 0,0 -0.25181,0 -0.25181,0 0,0 -0.2518,0 -0.2518,0.1259 0,0 0,0 0,0 0,0 0.2518,0 0.2518,0.1259 0,0 0.1259,0 0.1259,0 0,0 0,0 0,0 0,0 0,0 0,0 0,0 0,0 0,0 0,0 0,0 0,0 0,0 0,0 0,0.1259 0,0 0,0 0,0 0,0 0,0 0,0 0,0 0,0 0,0 0,0 0,0 0,0 0,0 0,0 0,0 0,0 0,0 0,0 0,0 0,0 0,0.1259 0,0 0,0 0,0 0,0 0,0 0,0 0,0 0,0 0,0 0,0 0,0 0,0 0,0 0,0 0,0 0,0 0,0 0,0 0,0 0,0 0,0.1259 0,0 0,0 0,0 0,0 0,0 0,0 0,0 0,0 0,0 0,0 0,0 0,0 0,0 0,0 0,0 0,0 0,0 0,0 0,0 0,0.1259 0,0.1259 0,0 0,0 0,0 0,0 0,0 0,0 0,0 0,0 0,0 0,0 0,0 0,0 0,0 0,0 0,0 0,0.1259 0,0.1259 -0.1259,0.2518 0,0 0,0 0,0 0,0 0,0 0,0 0,0 0,0 0,0 0,0 0,0 0,0 v 0 c 0,0.1259 0,0.1259 -0.1259,0.2518 0,0 0,0 0,0 0,0 0,0 0,0 0,0 0,0 0,0 0,0.1259 0,0.1259 -0.1259,0.2518 0,0 0,0 0,0 0,0.1259 0,0.1259 -0.1259,0.25181 0,0 0,0 0,0 0,0 0,0 0,0.1259 0,0 0,0 0,0 0,0.1259 0,0.1259 -0.1259,0.2518 0,0 0,0 0,0 0,0 0,0 0,0.1259 0,0 0,0 0,0 0,0.1259 0,0.1259 -0.1259,0.2518 0,0 0,0 0,0 0,0 0,0 0,0.1259 0,0 0,0 0,0 0,0.1259 0,0.1259 0,0.2518 v 0 c 0,0 0,0 0,0.1259 0,0 0,0.1259 0,0.1259 0,0 0,0.1259 0,0.1259 v 0 c 0,0 0,0.1259 -0.1259,0.1259 0,0 0,0 0,0 0,0 0,0 0,0 0,0 0,0 0,0 0,0 0,0 0,0 v 0 c 0,0 0,0.1259 0,0.1259 0,0 0,0 0,0 0,0 0,0 0,0 0,0 0,0 0,0 0,0 0,0 0,0 0,0 0,0 0,0 0,0 0,0 0,0.1259 0,0 0,0 0,0 0,0 0,0 0,0 0,0 0,0 0,0 0,0 0,0 0,0 0,0 0,0 0,0 0,0 0,0 0,0 0,0 0,0 0,0.12591 0,0 0,0 0,0 0,0 0,0 0,0.1259 0,0 0,0 0,0 0,0 0,0 0,0 0,0 0,0 0,0 0,0 0,0 0,0.1259 0,0 0,0 0,0 0,0 0,0 0,0.1259 0,0 0,0 0,0 0,0 0,0 0,0.1259 0,0 0,0 0,0 0,0 0,0 0,0.1259 0,0 0,0 0,0 -0.2518,0.8813 -0.5036,1.76261 -0.7554,2.51801 l 26.06143,7.17634 c 0.6295,-2.51801 1.51081,-5.03603 2.39211,-7.42814 z m -5.16193,19.1369 c -0.1259,0.6295 -0.2518,1.259 -0.3777,1.88851 0,0 0,0 0,0 0,0 0,0 0,0.1259 0,0 0,0 0,0 0,0 0,0.1259 0,0.1259 0,0 0,0 0,0 0,0 0,0 0,0 0,0 0,0 0,0 0,0 0,0 0,0.1259 0,0 0,0 0,0 0,0 0,0 0,0 0,0 0,0 0,0 0,0 0,0 0,0 0,0 0,0 0,0 0,0 0,0 0,0 0,0 0,0.1259 0,0.1259 0,0 0,0 0,0 0,0 0,0 0,0.1259 0,0 0,0 0,0 -0.2518,1.38491 -0.3777,2.76982 -0.6295,4.15472 0,0 0,0 0,0 0,0 0,0 0,0.1259 0,0 0,0 0,0 0,0.1259 0,0.1259 0,0.2518 0,0 0,0 0,0 0,0 0,0 0,0 0,0 0,0 0,0 0,0 0,0.1259 0,0.1259 0,0 0,0 0,0 0,0 0,0 0,0 0,0 0,0 0,0 0,0 0,0 0,0 0,0 0,0 0,0.12591 0,0 0,0 0,0 0,0 0,0 0,0 0,0 0,0 0,0 0,0 0,0 0,0 0,0 0,0 0,0 0,0 0,0 0,0.1259 0,0 0,0 0,0 0,0 0,0 0,0.1259 0,0 0,0 0,0 0,0 0,0 0,0.1259 0,0 0,0 0,0 0,0.1259 0,0.1259 0,0.2518 0,0 0,0 0,0 0,0 0,0 0,0.1259 0,0 0,0 0,0 0,0.3777 -0.1259,0.6295 -0.1259,1.0072 l 26.94273,3.02162 c 0.25181,-2.64391 0.62951,-5.16193 1.13311,-7.67994 z m -2.26621,19.6405 c 0,0.6295 -0.1259,1.25901 -0.1259,2.01441 0,0 0,0 0,0 0,0.1259 0,0.1259 0,0.2518 0,0 0,0 0,0 0,0 0,0 0,0 0,0 0,0 0,0 0,0 0,0.1259 0,0.1259 0,0 0,0 0,0 0,0 0,0 0,0 0,0 0,0 0,0 0,0 0,0 0,0 0,0 0,0 0,0 0,0 0,0 0,0.1259 0,0 0,0 0,0 0,0 0,0 0,0 0,0 0,0 0,0 0,0 0,0 0,0 0,0 0,0 0,0.1259 0,0 0,0 0,0 0,0 0,0 0,0 0,0 0,0 0,0 0,0 0,0 0,0.1259 0,0 0,0 0,0 0,0 0,0 0,0.1259 0,0 0,0 0,0 0,0 0,0 0,0 0,0 0,0 0,0 0,0 0,0 0,0.1259 0,0 0,0 0,0 0,0 0,0 0,0.12591 0,0 0,0 0,0 0,0 0,0 0,0.1259 0,0 0,0 0,0 0,0 0,0 0,0.1259 0,0 0,0 0,0 0,0 0,0 0,0.1259 0,0 0,0 0,0 0,0 0,0 0,0.1259 0,0 0,0 0,0 0,0 0,0 0,0.1259 0,0 0,0 0,0 0,0 0,0 0,0.1259 0,0 0,0 0,0 0,0 0,0.1259 0,0.1259 0,0 0,0 0,0 0,0 0,0 0,0.1259 0,0 0,0 0,0 0,0 0,0 0,0.1259 0,0 0,0 0,0 0,0 0,0 0,0.1259 0,0 0,0 0,0 0,0 0,0 0,0.1259 0,0 0,0 0,0 0,0 0,0 0,0.1259 v 0 c 0,0 0,0.1259 0,0.1259 0,0 0,0 0,0 0,0 0,0 0,0.1259 0,0 0,0 0,0 0,0 0,0 0,0.12591 0,0 0,0 0,0 0,0 0,0.1259 0,0.1259 0,0 0,0 0,0 0,0 0,0 0,0.1259 0,0 0,0 0,0 0,0 0,0 0,0.1259 0,0 0,0 0,0 0,0 0,0.1259 0,0.1259 0,0 0,0 0,0 0,0 0,0 0,0.1259 0,0 0,0 0,0 0,0 0,0 0,0.1259 0,0 0,0 0,0 0,0.1259 0,0.1259 0,0.2518 0,0 0,0 0,0 0,0 0,0 0,0.1259 0,0 0,0 0,0 0,0.1259 0,0.1259 0,0.2518 0,0 0,0 0,0 0,0.75541 0,1.63671 0,2.39211 0,0 0,0 0,0 0,0 0,0 0,0.12591 0,0 0,0 0,0 0,0 0,0.1259 0,0.1259 0,0 0,0 0,0 0,0 0,0 0,0.1259 0,0 0,0 0,0 0,0 0,0 0,0 0,0 0,0 0,0 0,0 0,0 0,0 0,0 0,0 0,0.1259 0,0 0,0 0,0 0,0 0,0 0,0.1259 0,0 0,0 0,0 0,0.1259 0,0.3777 0,0.5036 l 27.06864,-1.0072 c 0,-1.38491 -0.1259,-2.64392 -0.1259,-4.02883 0,-1.259 0,-2.51801 0.1259,-3.77701 z m 27.69814,16.61888 -26.94274,3.14752 c 0,0 0,0.1259 0,0.1259 0,0 0,0 0,0 0,0 0,0 0,0.1259 0,0 0,0 0,0 0,0 0,0 0,0 0,0 0,0 0,0 0,0 0,0.1259 0,0.1259 0,0 0,0 0,0 0,0 0,0 0,0 0,0 0,0 0,0 0,0 0,0 0,0 0,0 0,0 0,0.1259 0,0 0,0 0,0 0,0 0,0 0,0.1259 0,0 0,0 0,0 0,0 0,0 0,0.12591 0,0 0,0 0,0 0,0 0,0 0,0.1259 0,0 0,0 0,0 0,0 0,0.1259 0,0.1259 0,0 0,0 0,0 0,0 0,0 0,0.1259 0,0 0,0 0,0 0,0.1259 0,0.2518 0,0.2518 0,0 0,0 0,0 0.1259,0.8813 0.37771,1.76261 0.37771,2.64391 0,0 0,0 0,0 0,0.1259 0,0.2518 0,0.2518 0,0 0,0 0,0 0,0 0,0 0,0.1259 0,0 0,0 0,0 0,0 0,0.1259 0,0.25181 0,0 0,0 0,0 0,0 0,0 0,0.1259 0,0 0,0 0,0 0,0 0,0.1259 0,0.1259 0,0 0,0 0,0 0,0 0,0 0,0.1259 0,0 0,0 0,0 0,0 0,0 0,0.1259 0,0 0,0 0,0 0,0 0,0 0,0.1259 0,0 0,0 0,0 0,0 0,0 0,0 0,0 0,0 0,0 0,0 0,0 0,0 0,0 0,0 0,0 0,0 0,0 0,0 0,0 0,0 0,0.1259 0,0 0,0 0,0 0,0 0,0 0,0 0,0 0,0 0,0 0,0 0,0 0,0 0,0 0,0 0,0 0,0 0,0.1259 0,0.1259 0,0 0,0 0,0 0,0 0,0 0,0.1259 0,0 0,0 0,0 0.2518,1.25901 0.3777,2.51801 0.6295,3.65112 l 26.56504,-5.16193 c 0,-2.14031 -0.37771,-4.65832 -0.62951,-7.30224 z m 3.02162,15.35988 -26.06144,7.17634 c 0.88131,3.14752 1.88851,6.29503 3.02162,9.44255 l 25.43193,-9.19075 c -1.0072,-2.39211 -1.76261,-4.91012 -2.39211,-7.42814 z m 5.28783,14.73038 -24.67653,11.07926 c 1.0072,2.14031 2.01441,4.15472 3.02161,6.29503 0,0 0,0 0,0 0,0.1259 0.1259,0.1259 0.1259,0.2518 0,0 0,0 0,0 0,0 0,0 0,0.1259 0,0 0,0 0,0 0,0 0,0.1259 0.12591,0.1259 0,0 0,0 0,0 0,0 0,0 0,0.1259 0,0 0,0 0,0 0,0 0,0 0,0.1259 0,0 0,0 0,0 0,0 0,0 0,0.1259 0,0 0,0 0,0 0,0 0,0 0,0.12591 0,0 0,0 0,0 0,0 0,0 0,0 0,0 0,0 0,0 0,0 0,0 0,0 0,0 0,0 0,0 0,0 0,0 0,0.1259 0,0 0,0 0,0 0,0 0,0 0,0.1259 0,0 0,0 0,0 0,0 0,0 0,0 0,0 0,0 0,0 0,0 0,0 0,0 0,0 0,0 0,0 0,0 0,0 0,0.1259 0,0 0,0 0,0 0,0 0,0 0,0 0,0 0,0 0,0 0,0 0,0 0,0 0,0 0,0 0,0 0,0 0,0 0,0 0,0 0,0 0,0 0,0 0,0 0,0.1259 0,0 0,0 0,0 0,0 0,0 0,0 0,0 0,0 0,0 0,0 0,0 0,0 0,0 0,0 0,0 0,0 0,0 0,0 0,0 0,0 0,0 0,0 0,0 0,0.1259 0,0 0,0 0,0 0,0 0,0 0,0 0,0 0,0 0,0 0,0 0,0 0,0 0,0 0,0 0,0 0,0 0,0 0,0 0,0 0,0 0,0 0,0 0,0 0,0 0,0 0,0 0,0 0,0 0,0 0,0 0,0 0,0 0,0 0,0 0,0 0,0 l 23.79522,-12.96777 c -0.2518,-1.38491 -1.38491,-3.77702 -2.39211,-6.04323 z m 7.42813,13.72317 -22.66211,14.73038 c 0.6295,0.8813 1.259,1.88851 1.88851,2.76981 0,0 0,0 0,0 0,0.1259 0.1259,0.1259 0.1259,0.2518 0,0 0,0 0,0 0,0 0,0 0,0.1259 0,0 0,0 0,0 0,0 0,0 0,0.1259 0,0 0,0 0,0 0,0 0,0 0,0.1259 0,0 0,0 0,0 0,0 0,0 0,0.12591 0,0 0,0 0,0 0,0 0,0 0,0 0,0 0,0 0,0 0,0 0,0 0,0.1259 0,0 0,0 0,0 0,0 0,0 0,0.1259 0,0 0,0 0,0 0,0 0,0 0,0 0,0 0,0 0,0 0,0 0,0 0,0 0,0 0,0 0,0 0,0 0,0 0,0 0,0 0,0 0,0 0,0 0,0 0,0.1259 0,0 0,0 0,0 0,0 0,0 0,0 0,0 0,0 0,0 0,0 0,0 0,0 0,0 0,0 0,0 0,0 0,0 0,0 0,0 0,0 0,0 0,0 0,0 0,0.1259 0,0 0,0 0,0 0,0 0,0 0,0 0,0 0,0 0,0 0,0 0,0 0,0 0,0 0,0 0,0 0,0 0,0 0,0 0,0 0,0 0,0 0,0 0,0 0,0 0,0 0,0 0,0 0,0 0,0 0,0 0,0 0,0 0,0 0,0 0,0 0,0 0,0 0,0 0,0 0,0 0,0 0,0 0,0 0,0 0,0 0,0 0,0 0,0 0,0 0,0 0,0 0,0 0,0 0,0 0,0 0,0 0,0 0,0 0,0 0,0 0,0 0,0 0,0 0,0 0,0 0,0 0,0 0,0 0,0 0,0 0,0 0,0 0,0 0,0 0,0 0,0 0,0 0,0 0,0 0,0 0,0 0,0 0,0 0,0 0,0 0,0 0,0 0,0 0,0 0,0 0,0 0,0 0,0 0,0 0,0 0,0 0,0 0,0 0,0 0,0 0,0 0,0 0,0 0,0 0,0 0,0 0,0 0,0 0,0 0,0 0,0 0,0 0,0 0,0 0,0 0,0 0,0 0,0 0,0 0,0 0,0 0,0 0,0 0,0 0,0 0,0 0,0 0,0 0,0 0,0 0,0 0,0 0,0 0,0 0,0 0,0 0,0 0,0.1259 0,0 0,0 0,0 0,0 0,0 0,0.1259 0,0 0,0 0,0 0,0 0,0 0,0 0,0 0,0 0,0 0,0 0,0 0,0.1259 0,0 0,0 0,0 0,0 0,0 0,0.1259 0,0 0,0 0,0 0,0 0,0 0,0.1259 0,0 0,0 0,0 0,0 0,0 0,0.1259 0,0 0,0 0,0 0,0.1259 0.1259,0.1259 0.1259,0.2518 0,0 0,0 0,0 0,0 0,0 0,0.1259 0,0 0,0 0,0 0.3777,0.37771 0.6295,0.88131 1.0072,1.25901 l 21.52901,-16.49298 c 0.88131,-0.37771 -0.6295,-2.51802 -2.01441,-4.65833 z m 9.56845,12.33826 -20.1441,18.0038 c 1.38491,1.63671 2.89571,3.14751 4.40652,4.65832 v 0 c 0,0 0,0 0,0 v 0 c 0,0 0.1259,0.1259 0.1259,0.1259 0,0 0,0 0,0 0,0 0,0 0,0 0,0 0,0 0,0 0,0 0,0 0,0 0,0 0,0 0,0 0,0 0.1259,0.1259 0.1259,0.1259 0,0 0,0 0,0 0,0 0,0 0,0 0,0 0,0 0,0 0,0 0,0 0,0 0,0 0,0 0,0 0,0 0,0 0,0 0,0 0,0 0,0 0,0 0,0 0,0 0,0 0,0 0,0 0,0 0,0 0,0 0,0 0,0 0,0 0,0 0,0 0,0 0,0 0,0 0,0 0,0 0,0 0,0 0,0 0,0 0.1259,0.1259 0,0 0,0 0,0 0,0 0,0 0.1259,0.1259 0,0 0,0 0,0 0,0 0,0 0,0 0,0 0,0 0,0 0.50361,0.50361 0.88131,0.88131 1.38491,1.25901 l 18.7592,-19.5146 c -1.38491,-1.0072 -3.27342,-2.89571 -4.91013,-4.91013 z m 11.20516,10.82746 -17.24839,20.89951 v 0 c 0,0 0,0 0,0 0,0 0,0 0,0 0,0 0,0 0,0 0,0 0,0 0,0 2.51802,2.01441 5.03603,4.02882 7.80584,5.91733 l 15.61168,-22.15852 c -2.01441,-1.3849 -4.15472,-2.89571 -6.16913,-4.65832 z m 12.84187,9.06485 -13.84907,23.29162 c 0,0 0,0 0,0 0,0 0,0 0,0 0,0 0,0 0,0 0,0 0,0 0,0 0,0 0,0 0.1259,0 0,0 0,0 0,0 0,0 0,0 0.1259,0 0,0 0,0 0,0 0,0 0,0 0,0 0,0 0,0 0,0 0,0 0,0 0,0 0,0 0,0 0,0 0,0 0.1259,0 0.1259,0.1259 0,0 0,0 0,0 0,0 0,0 0,0 0,0 0,0 0,0 0,0 0,0 0,0 0,0 0,0 0,0 0,0 0,0 0.1259,0 0,0 0,0 0,0 0,0 0,0 0,0 0,0 0,0 0,0 0,0 0,0 0,0 0,0 0,0 0,0 0,0 0,0 0,0 0,0 0,0 0,0 0,0 0,0 0.1259,0 0,0 0,0 0,0 0,0 0,0 0,0 0,0 0,0 0,0 0,0 0,0 0,0 0,0 0,0 0,0 0,0 0,0 0,0 0,0 0,0 0,0 0,0 0,0 0.1259,0 0,0 0,0 0,0 0,0 0,0 0,0 0,0 0,0 0,0 0,0 0,0 0,0 0,0 0,0 0,0 0,0 0,0 0,0 0,0 0,0 0,0 0,0 0,0 0.1259,0 0,0 0,0 0,0 0,0 0,0 0,0 0,0 0,0 0,0 0,0 0,0 0,0 0,0 0,0 0,0 0,0 0,0 0.1259,0 0,0 0,0 0,0 0,0 0,0 0.1259,0 0,0 0,0 0,0 0,0 0,0 0,0 0,0 0,0 0,0 0,0 0,0 0,0 0,0 0,0 0,0 0,0 0,0 0.1259,0 0,0 0,0 0,0 0,0 0,0 0,0 0,0 0,0 0,0 0,0 0,0 0,0 0,0 0,0 0,0 0,0 0,0 0,0 0,0 0,0 0,0 0,0 0,0 0.1259,0 0,0 0,0 0,0 0,0 0,0 0,0 0,0 0,0 0,0 0,0 0,0 0,0 0,0 0,0 0,0 0,0 0,0 0,0 0,0 0,0 0,0 0,0 0,0 0.1259,0 0,0 0,0 0,0 0,0 0,0 0,0 0,0 0,0 0,0 0,0 0,0 0,0 0,0 0,0 0,0 0,0 0,0 0,0 0,0 0,0 0,0 0,0 0,0 0.1259,0 0,0 0,0 0,0 0,0 0,0 0,0 0,0 0,0 0,0 0,0 0,0 0,0 0,0 0,0 0,0 0,0 0,0 0,0 0,0 0,0 0,0 0,0 0,0 0.12591,0 0,0 0,0 0,0 0,0 0,0 0,0 0,0 0,0 0,0 0,0 0,0 0,0 0,0 0,0 0,0 0,0 0,0 0,0 0,0 0,0 0,0 0,0 0,0 0,0 0,0 0,0 0,0 0,0 0,0 0,0 0,0 0,0 0,0 0,0 0,0 0,0 0,0 0,0 0,0 0,0 0,0 0.1259,0 0,0 0,0 0,0 0,0 0,0 0,0 0,0 0,0 0,0 0,0 0,0 0,0 0,0 0,0 0,0 0,0 0,0 0,0 0,0 0,0 0,0 0,0 0,0 0.1259,0 0,0 0,0 0,0 0,0 0,0 0,0 0,0 0,0 0,0 0,0 0,0 0,0 0,0 0,0 0,0 0,0 0,0 0,0 0,0 0,0 0,0 0,0 0,0 0.1259,0 0,0 0,0 0,0 0,0 0,0 0,0 0,0 0,0 0,0 0,0 0,0 0,0 0,0 0,0 0,0 0,0 0,0 0.1259,0 0,0 0,0 0,0 0,0 0,0 0.1259,0 0,0 0,0 0,0 0,0 0,0 0,0 0,0 0,0 0,0 0,0 0,0 0,0 0,0 0,0 0,0 0,0 0,0 0,0 0,0 0,0 0,0 0,0 0,0 0.1259,0 0,0 0,0 0,0 0,0 0,0 0,0 0,0 0,0 0,0 0,0 0,0 0,0 0,0 0,0 0,0 0,0 0,0 0.1259,0 0,0 0,0 0,0 0,0 0,0 0,0 0,0 0,0 0,0 0,0 0,0 0,0 0,0 0,0 0,0 0,0 0,0 0,0 0,0 0,0 0,0 0,0 0,0 0.1259,0 0,0 0,0 0,0 0,0 0,0 0,0 0,0 0,0 0,0 0,0 0,0 0,0 0,0 0,0 0,0 0,0 0,0 0,0 0,0 0,0 0,0 0,0 0,0 0.1259,0 0,0 0,0 0,0 0,0 0,0 0,0 0,0 0,0 0,0 0,0 0,0 0,0 0,0 0,0 0,0 0,0 0,0 0,0 0,0 0,0 0,0 0,0 0,0 0.1259,0 0,0 0,0 0,0 0,0 0,0 0,0 0,0 0,0 0,0 0,0 0,0 0,0 0,0 0,0 0,0 0,0 0,0 0,0 0,0 0,0 0,0 0,0 0,0 0,0 0,0 0,0 0,0 0,0 0,0 0,0 0,0 0,0 0,0 0,0 0,0 0,0 0,0 0,0 0,0 0,0 0,0 0,0 0,0 0,0 0.1259,0 0,0 0,0 0,0 0,0 0,0 0,0 0,0 0,0 0,0 0,0 0,0 0,0 0,0 0,0 0,0 0,0 0,0 0,0 0,0 0,0 0,0 0,0 0,0 0.1259,0 0,0 0,0 0,0 0,0 0,0 0,0 0,0 0,0 0,0 0,0 0,0 0,0 0,0 0,0 0,0 0,0 0.1259,0 0.1259,0.1259 0,0 0,0 0,0 0,0 0,0 0,0 0,0 0,0 0,0 0,0 0,0 0,0 0,0 0,0 0,0 0,0 0,0 0,0 l 11.96057,-24.29883 c 3.02161,3.27342 0.7554,2.01441 -1.51081,0.75541 z m 13.97497,6.92453 -10.07205,25.05423 c 0.8813,0.3777 1.88851,0.75541 2.76981,1.13311 v 0 c 0.1259,0 0.2518,0.1259 0.2518,0.1259 v 0 c 0,0 0,0 0.1259,0 0,0 0,0 0,0 0.1259,0 0.1259,0 0.25181,0.1259 v 0 c 0,0 0,0 0,0 0,0 0,0 0,0 0,0 0,0 0,0 0,0 0,0 0,0 0,0 0.1259,0 0.1259,0.1259 0,0 0,0 0,0 0,0 0,0 0,0 0,0 0,0 0,0 0,0 0,0 0,0 0,0 0,0 0,0 0,0 0,0 0,0 0,0 0,0 0.1259,0 0,0 0,0 0,0 0,0 0,0 0,0 0,0 0,0 0,0 0,0 0,0 0,0 0,0 0,0 0,0 0,0 0,0 0.1259,0 0,0 0,0 0,0 0,0 0,0 0.1259,0 0,0 0,0 0,0 0,0 0,0 0.1259,0 0,0 0,0 0,0 0.1259,0 0.1259,0.1259 0.2518,0.1259 0,0 0,0 0,0 0,0 0,0 0.1259,0 0,0 0,0 0,0 0.1259,0 0.1259,0.1259 0.2518,0.1259 0,0 0,0 0,0 1.38491,0.5036 2.76982,0.88131 4.15472,1.38491 l 8.05764,-25.80963 c -1.8885,-0.62951 -4.40652,-1.51081 -6.79863,-2.39212 z m 14.98218,4.65833 -6.04323,26.31323 c 3.14751,0.75541 6.42093,1.38491 9.69435,1.88851 l 4.02882,-26.81684 c -2.64392,-0.3777 -5.16193,-0.7554 -7.67994,-1.3849 z m 15.35988,2.39211 -2.01441,26.94274 c 2.01441,0.1259 4.02882,0.2518 6.16913,0.2518 v 0 c 0.1259,0 0.2518,0 0.2518,0 0,0 0,0 0,0 0.1259,0 0.1259,0.1259 0.2518,0.1259 0,0 0,0 0,0 0,0 0,0 0.1259,0 0,0 0,-0.1259 0,-0.1259 0,0 0.1259,0 0.1259,0 v 0 c 0,0 0,0.1259 0,0.1259 0,0 0,0 0,0 0,0 0,0 0,0 0,0 0,0 0,0 0,0 0.1259,0 0.1259,0 0,0 0,0 0,0 0,0 0,0 0,0 0,0 0,0 0,0 0,0 0,0 0,0 0,0 0,0 0.1259,0 0,0 0,0 0,0 0,0 0,0 0,0 0,0 0,0 0,0 0,0 0,0 0,0 0,0 0,0 0,0 0,0 0,0 0.1259,0 0,0 0,0 0,0 0,0 0,0 0,0 0,0 0,0 0,0 0,0 0,0 0,0 0,0 0,0 0,0 0,0 0,0 0,0 0,0 0,0 0,0 0,0 0,0 0,0 0,0 0,-0.1259 0,-0.1259 0,0 0,-0.1259 0.1259,-0.1259 0,0 0,0 0,0 0,0 0,0 0.12591,0 0,0 0,0 0,0 0,0 0,0 0.1259,0 0,0 0,0 0,0 0,0 0,0 0.1259,0 0,0 0,0 0,0 0,0 0,0 0.1259,0 0,0 0,0 0,0 0,0 0,0 0.1259,0 0,0 0,0 0,0 0,0 0,0 0.1259,0 0,0 0,0 0,0 0,0 0,0 0.1259,0 0,0 0,0 0,0 0,0 0,0 0.1259,0 0,0 0,0 0,0 0,0 0,0 0.1259,0 0,0 0,0 0,0 0,0 0,0 0.1259,0 0,0 0,0 0,0 0,0 0,0 0.1259,0 0,0 0,0 0,0 0,0 0,0 0.1259,0 0,0 0,0 0,0 0,0 0,0 0.1259,0 v 0 0 c 0,0 0,0 0.1259,0 0,0 0,0 0,0 0,0 0.1259,0 0.1259,0 v -26.81684 h -0.2518 c -1.88851,0 -4.53242,-0.1259 -7.05043,-0.2518 z m 23.54342,-1.00721 c -2.51802,0.37771 -5.16193,0.75541 -7.80584,0.88131 l 2.14031,26.94274 c 3.27342,-0.2518 6.54683,-0.62951 9.82025,-1.13311 z m 15.10808,-3.52521 c -2.51802,0.7554 -5.03603,1.5108 -7.55404,2.14031 l 6.16913,26.31323 c 0.5036,-0.1259 1.1331,-0.2518 1.63671,-0.3777 0,0 0,0 0,0 0,0 0,0 0.1259,0 0,0 0,0 0,0 0.1259,0 0.1259,0 0.2518,0 0,0 0,0 0,0 0,0 0,0 0.1259,0 0,0 0,0 0,0 0,0 0,0 0.1259,0 0,0 0,0 0,0 0,0 0,0 0.1259,0 0,0 0,0 0,0 0,0 0,0 0.1259,0 0,0 0,0 0,0 0,0 0,0 0.1259,0 0,0 0,0 0,0 0,0 0.1259,0 0.1259,0 0,0 0,0 0,0 0,0 0,0 0.1259,0 0,0 0,0 0,0 0,0 0,0 0.1259,0 0,0 0,0 0,0 0,0 0,0 0.12591,0 0,0 0,0 0,0 0,0 0,0 0.1259,0 0,0 0,0 0,0 0,0 0,0 0.1259,0 0,0 0,0 0,0 0,0 0.1259,0 0.1259,0 0,0 0,0 0,0 0,0 0,0 0.1259,0 0,0 0,0 0,0 0,0 0,0 0.1259,0 0,0 0,0 0,0 0.1259,0 0.1259,0 0.2518,0 0,0 0,0 0,0 0,0 0,0 0.1259,0 0,0 0,0 0,0 1.88851,-0.5036 3.90292,-1.1331 5.79143,-1.63671 z m 14.47857,-5.91733 c -2.26621,1.1331 -4.65832,2.26621 -7.17634,3.27341 l 10.32386,25.05423 c 0.3777,-0.1259 0.7554,-0.3777 1.1331,-0.5036 0,0 0,0 0,0 0,0 0,0 0.1259,0 0,0 0,0 0,0 0,0 0.1259,0 0.1259,-0.1259 0,0 0,0 0,0 0,0 0,0 0.1259,0 0,0 0,0 0,0 0,0 0,0 0,0 0,0 0,0 0,0 0,0 0,0 0.12591,0 0,0 0,0 0,0 0,0 0,0 0,0 0,0 0,0 0,0 0,0 0,0 0,0 0,0 0,0 0,0 0,0 0,0 0,0 0,0 0,0 0,0 0,0 0,0 0.1259,0 0,0 0,0 0,0 0,0 0,0 0,0 0,0 0,0 0,0 0,0 0,0 0,0 0,0 0,0 0,0 0,0 0,0 0,0 0,0 0.1259,0 0.1259,-0.1259 0,0 0,0 0,0 0,0 0,0 0,0 0,0 0,0 0,0 0,0 0,0 0,0 v 0 c 0.1259,0 0.1259,0 0.2518,-0.1259 0,0 0,0 0,0 0,0 0,0 0,0 0,0 0,0 0,0 0.1259,0 0.1259,-0.1259 0.2518,-0.1259 v -0.1259 c 0,0 0,0.2518 0.1259,-0.25181 v 0 c 0.1259,0 0.1259,0.12591 0.2518,0 l -0.1259,0.12591 c 0.3777,-0.12591 0.6295,-0.25181 0.88131,-0.37771 v 0 c 2.14031,-0.6295 3.14751,-1.3849 4.65832,-2.14031 z m 13.47137,-8.05765 c -2.14031,1.51081 -4.28062,2.89572 -6.54683,4.28063 l 13.84907,23.16572 c 0.2518,-0.1259 0.6295,-0.37771 0.8813,-0.50361 0,0 0,0 0,0 0,0 0,0 0,0 v 0 c 0.1259,0 0.1259,-0.1259 0.2518,-0.1259 v 0 c 0,0 0,0 0,0 0,0 0,0 0,0 0,0 0,0 0,0 0,0 0,0 0,0 0,0 0.1259,-0.1259 0.1259,-0.1259 0,0 0,0 0,0 0,0 0,0 0,0 0,0 0,0 0,0 0,0 0,0 0,0 0,0 0,0 0,0 0,0 0,0 0,0 0,0 0,0 0.12591,0 0,0 0,0 0,0 0,0 0,0 0,0 0,0 0,0 0,0 0,0 0,0 0,0 0,0 0,0 0,0 0,0 0,0 0,0 0,0 0,0 0,0 0,0 0,0 0.1259,0 0,0 0,0 0,0 0,0 0,0 0,0 0,0 0,0 0,0 0,0 0,0 0,0 0,0 0,0 0,0 0,0 0,0 0.1259,0 0,0 0,0 0,0 0,0 0,0 0.1259,0 0,0 0,0 0,0 0,0 0,0 0.1259,0 0,0 0,0 0,0 0,0 0,0 0.1259,0 0,0 0,0 0,0 0.1259,0 0.1259,-0.1259 0.2518,-0.1259 0,0 0,0 0,0 1.63671,-1.1331 3.39932,-2.14031 5.03603,-3.39932 0,0 0,0 0,0 0,0 0,0 0.1259,0 0,0 0,0 0,0 0,0 0,0 0.1259,0 0,0 0,0 0,0 0,0 0,0 0.1259,0 0,0 0,0 0,0 0,0 0,0 0,0 0,0 0,0 0,0 0,0 0,0 0,0 0,0 0,0 0,0 0,0 0,0 0,0 z m 11.96056,-9.94615 c -1.88851,1.76261 -3.77702,3.52522 -5.79143,5.28783 l 17.24839,20.77361 c 1.00721,-0.88131 2.14031,-1.76261 3.14752,-2.64392 0,0 0,0 0,0 0,0 0,0 0.1259,0 0,0 0,0 0,0 0.1259,-0.1259 0.1259,-0.1259 0.2518,-0.1259 0,0 0,0 0,0 0,0 0,0 0,0 0,0 0,0 0,0 0.1259,-0.1259 0.1259,-0.1259 0.2518,-0.1259 0,0 0,0 0,0 0,0 0,0 0,0 0,0 0,0 0,0 0,0 0,0 0.1259,0 0,0 0,0 0,0 0,0 0.1259,-0.1259 0.1259,-0.1259 0,0 0,0 0,0 0,0 0,0 0,0 0,0 0,0 0,0 0,0 0,0 0.1259,0 0,0 0,0 0,0 0,0 0.1259,-0.1259 0.1259,-0.1259 0,0 0,0 0,0 0,0 0,0 0,0 0,0 0,0 0,0 0.1259,-0.1259 0.1259,-0.1259 0.2518,-0.2518 0,0 0,-0.1259 0,-0.1259 0,0 0,-0.2518 0.12591,-0.2518 0,0 0,0 0,0 0.8813,-0.2518 1.88851,-1.51081 2.76981,-2.39211 z m 10.44976,-11.70876 c -1.51081,2.01441 -3.27342,4.15472 -4.91013,6.04323 l 20.27001,18.0038 v 0 c 0,0 0,0 0,0 0,0 0,0 0,0 0,0 0,0 0,0 0,0 0,0 0,0 0,0 0,0 0,0 0,-0.1259 0.1259,-0.1259 0.1259,-0.2518 0,0 0,0 0,0 1.6367,-1.76261 3.14751,-3.65112 4.65832,-5.53963 0,0 0,0 0,0 0,0 0,0 0,-0.1259 0,0 0,0 0,0 0,-0.1259 0.1259,-0.1259 0.1259,-0.25181 0,0 0,0 0,0 0,0 0,0 0,-0.1259 0,0 0,0 0,0 0,-0.1259 0.1259,-0.1259 0.1259,-0.2518 0,0 0,0 0,0 0,0 0,0 0,0 0,0 0,0 0,0 0,0 0,0 0,-0.1259 0,0 0,0 0,0 0,0 0,0 0,-0.1259 0,0 0,0 0,0 0,0 0,0 0,0 0,0 0,0 0,0 0,0 0,0 0,0 0,0 0,0 0,0 0,0 0,0 0,0 0,0 0,0 0,0 0,0 0,0 0,-0.1259 0,0 0,0 0,0 0,0 0,0 0,0 0,0 0,0 0,0 0,0 0,0 0,0 0,0 0,0 0,0 0,0 0,0 0,0 0,0 0,0 0,0 0,0 0,0 0,-0.1259 0,0 0,0 0,0 0,0 0,0 0,0 0,0 0,0 0,0 0,0 0,0 0,0 0,0 0,0 0,0 0,0 0,0 0,0 0,0 0,0 0,0 0,0 0,0 0,0 z m 8.43534,-13.09367 c -1.25901,2.26622 -2.51801,4.53243 -4.02882,6.67274 l 22.78802,14.73038 c 1.76261,-2.76982 3.52521,-5.66553 5.03602,-8.56125 z m 6.42093,-14.35267 c -0.8813,2.39211 -1.88851,4.91013 -2.89571,7.30224 l 24.67653,11.07926 c 0.3777,-0.88131 0.7554,-1.88851 1.1331,-2.76982 v 0 c 0,-0.1259 0.1259,-0.1259 0.1259,-0.2518 v 0 c 0,0 0,0 0,-0.1259 0,0 0,0 0,0 0,0 0,0 0,0 v 0 c 0,-0.1259 0,-0.1259 0.1259,-0.2518 0,0 0,0 0,0 0,0 0,0 0,0 0,0 0,0 0,0 0,0 0,0 0,0 0,0 0,0 0,0 0,0 0,-0.1259 0,-0.1259 0,0 0,0 0,0 0,0 0,0 0,0 0,0 0,0 0,0 0,0 0,0 0,0 0,0 0,0 0,0 0,0 0,0 0,0 0,0 0,0 0,-0.1259 0,0 0,0 0,0 0,0 0,0 0,0 0,0 0,0 0,0 0,0 0,0 0,0 0,0 0,0 0,0 0,0 0,0 0,-0.1259 0,0 0,0 0,0 0,0 0,0 0,-0.1259 0,0 0,0 0,0 0,0 0,0 0,-0.12591 0,0 0,0 0,0 0,0 0,0 0,-0.1259 0,0 0,0 0,0 0,0 0,-0.1259 0.1259,-0.1259 0,0 0,0 0,0 0,0 0,0 0,-0.1259 0,0 0,0 0,0 0.62951,-1.51081 1.13311,-2.89571 1.63671,-4.40652 z m 4.02882,-14.98218 c -0.5036,2.51802 -1.1331,5.16193 -1.76261,7.55404 l 26.06144,7.05044 c 0.3777,-1.38491 0.7554,-2.76982 1.0072,-4.15472 v 0 c 0.37771,-1.51081 0.62951,-3.02162 1.00721,-4.65833 0,0 0,0 0,0 0,-0.1259 0,-0.2518 0,-0.2518 0,0 0,0 0,0 0,0 0,0 0,-0.1259 0,0 0,0 0,0 0,-0.1259 0,-0.1259 0,-0.2518 0,0 0,0 0,0 0,0 0,0 0,0 0,0 0,0 0,0 0,0 0,0 0,0 0,0 0,0 0,0 0,0 0,0 0,0 z m 1.76261,-15.61168 c -0.1259,2.64392 -0.2518,5.28783 -0.6295,7.80584 l 26.94274,3.02162 c 0,-0.2518 0.1259,-0.6295 0.1259,-0.88131 0,0 0,0 0,0 0,0 0,0 0,-0.1259 0,0 0,0 0,0 0,-0.1259 0,-0.1259 0,-0.1259 0,0 0,0 0,0 0,0 0,0 0,0 0,0 0,0 0,0 0,0 0,0 0,-0.1259 0,0 0,0 0,0 0,0 0,0 0,0 0,0 0,0 0,0 0,0 0,0 0,0 0,0 0,0 0,0 0,0 0,0 0,0 0,0 0,-0.1259 0,-0.1259 0,0 0,0 0,0 0,0 0,0 0,0 0,0 0,0 0,0 0,0 0,0 0,0 0,0 0,0 0,0 0,0 0,-0.1259 0,-0.1259 v 0 c 0,0 0,0 0,-0.1259 0,0 0,0 0,0 0,-0.1259 0,-0.2518 0,-0.2518 h 0.1259 c 0,-0.1259 0.1259,-0.2518 0.1259,-0.2518 v 0 c 0,-0.1259 0,-0.2518 0,-0.2518 v 0 c 0,-0.37771 0,-0.75541 0,-1.25901 0,0 -0.1259,0 -0.1259,0 0,-0.1259 0,-0.2518 0,-0.2518 0,0 0,0 0,0 0,0 0,0 0,-0.1259 0,0 0,0 0,0 0,-0.1259 0,-0.1259 0,-0.2518 0,0 0,0 0,0 0,0 0,0 0,0 0,0 0,0 0,0 0,0 0,-0.1259 0,-0.1259 0,0 0,0 0,0 0,0 0,0 0,0 0,0 0,0 0,0 0,0 0,0 0,0 0,0 0,0 0,0 0,0 0,0 0,-0.1259 0,0 0,0 0,0 0,0 0,0 0,0 0,0 0,0 0,0 0,0 0,0 0,0 0,0 0,0 0,0 0,0 0,0 0,0 0,0 0,0 0,-0.12591 0,0 0,0 0,0 0,0 0,0 0,0 0,0 0,0 0,0 0,0 0,0 0,-0.1259 0,0 0,0 0,0 0,0 0,-0.1259 0,-0.1259 0,0 0,0 0,0 0,0 0,0 0,-0.1259 0,0 0,0 0,0 0,0 0,0 0,-0.1259 0,0 0,0 0,0 0,0 0,0 0,-0.1259 0,0 0,0 0,0 0,0 0,0 0,-0.1259 0,0 0.1259,0 0.1259,0 0,0 0.1259,0 0.1259,-0.1259 0,0 0,0 0,0 0,-0.1259 -0.1259,-0.1259 -0.1259,-0.2518 0,0 0,0 0,0 0,-1.00721 0.1259,-2.01441 0.1259,-3.02162 z m 26.43914,-18.75919 -26.94274,3.14751 c 0.2518,2.51802 0.5036,5.16193 0.6295,7.80584 l 27.06864,-1.1331 c 0,-1.25901 -0.1259,-2.39212 -0.2518,-3.65112 v 0 c 0,0 0,0 0,-0.1259 v 0 c 0,-0.1259 0,-0.1259 0,-0.2518 0,0 0,0 0,0 0,0 0,0 0,-0.1259 0,0 0,0 0,0 0,-0.12591 0,-0.12591 0,-0.25181 0,0 0,0 0,0 0,0 0,0 0,0 0,0 0,0 0,0 0,0 0,-0.1259 0,-0.1259 0,0 0,0 0,0 0,0 0,0 0,0 0,0 0,0 0,0 0,0 0,0 0,0 0,0 0,0 0,-0.1259 0,0 0,0 0,0 0,0 0,0 0,0 0,0 0,0 0,0 0,0 0,0 0,0 0,0 0,0 0,0 0,0 0,0 0,-0.1259 0,0 0,0 0,0 0,0 0,0 0,0 0,0 0,0 0,0 0,0 0,0 0,-0.1259 0,0 0,0 0,0 0,0 0,0 0,-0.1259 0,0 0,0 0,0 0,0 0,0 0,-0.1259 0,0 0,0 0,0 0,0 0,0 0,-0.1259 0,0 0,0 0,0 0,-0.1259 0,-0.1259 0,-0.2518 0,0 0.1259,0 0.1259,0 0,0 0.1259,-0.1259 0.1259,-0.1259 0,0 0,0 0,0 0,-0.1259 0,-0.1259 0,-0.2518 0,0 0,0 0,0 -0.2518,-1.51081 -0.6295,-2.76982 -0.7554,-3.90292 z m -4.02882,-19.5146 -26.06144,7.17633 c 0.75541,2.51802 1.25901,5.03603 1.76261,7.55404 l 26.56504,-5.16193 c -0.2518,-1.259 -0.5036,-2.39211 -0.7554,-3.65111 0,0 -0.1259,0 -0.1259,0 0,0 -0.12591,0 -0.12591,-0.1259 0,0 0,0 0,0 0,-0.12591 0.12591,-0.12591 0.12591,-0.25181 0,0 0.1259,0 0.1259,0 0,0 0,0 0,-0.1259 0,0 0,0 0,0 0,0 0,0 0,-0.1259 0,0 0,0 0,0 0,0 0,0 0,-0.1259 0,0 0,0 0,0 0,0 0,0 0,0 0,0 0,0 0,0 0,0 0,0 0,0 0,0 0,0 0,0 0,0 0,0 0,-0.1259 0,0 0,0 0,0 0,0 0,0 0,0 0,0 0,0 0,0 0,0 0,0 0,0 0,0 0,0 0,0 0,0 0,0 0,0 0,0 0,0 0,-0.1259 0,0 0,0 0,0 0,0 0,0 0,0 0,0 0,0 0,0 0,0 0,0 0,0 0,0 0,0 0,0 0,-0.1259 0,-0.1259 0,-0.2518 v 0 c 0,0 0,0 0,-0.1259 0,0 0,0 0,0 -0.75541,-1.63671 -1.13311,-3.02162 -1.51081,-4.53242 z m -6.67274,-18.5074 -24.67652,11.20516 c 1.0072,2.39211 2.01441,4.78422 2.89571,7.17633 l 25.43193,-9.19074 c -1.1331,-3.14752 -2.39211,-6.16913 -3.65112,-9.19075 z m -9.56845,-17.37429 -22.66211,14.85628 c 1.3849,2.14031 2.76981,4.40652 4.02882,6.67273 l 23.66932,-12.96777 c 0,0 0,0 0,0 0,0 0,0 0,0 0,0 0,0 0,0 0,0 0,0 0,0 0,0 0,0 0,0 0,0 0,0 0,0 0,0 0,0 0,0 0,0 0,0 0,-0.1259 0,0 0,0 0,0 0,0 0,0 0,-0.1259 0,0 0,0 0,0 0,0 0,0 0,0 0,0 0,0 0,0 0,-0.1259 -0.1259,-0.1259 -0.1259,-0.2518 0,0 0,0 0,0 0,0 0,0 0,-0.1259 0,0 0,0 0,0 -1.76261,-2.89571 -3.27342,-5.41373 -4.91013,-7.93174 z m -12.08646,-15.73758 -20.1441,18.12969 c 1.76261,1.88851 3.39932,3.90292 5.03602,6.04323 l 21.40311,-16.49298 c -1.7626,-2.39211 -3.65111,-4.65833 -5.66552,-6.79864 v 0 c 0,0 0,0 0,0 v 0 c -0.12591,-0.1259 -0.12591,-0.2518 -0.25181,-0.2518 v 0 c -0.1259,-0.1259 -0.1259,-0.1259 -0.2518,-0.2518 v 0 c 0,-0.1259 0,-0.2518 -0.1259,-0.3777 z m -14.22677,-13.59727 -17.12249,20.89951 c 2.01441,1.6367 4.02882,3.39931 5.91733,5.16192 l 18.7592,-19.5146 c -2.51802,-2.26621 -5.03603,-4.53242 -7.55404,-6.54683 z m -16.24119,-11.33106 -13.72317,23.29162 c 2.26622,1.25901 4.40653,2.76981 6.54684,4.28062 l 15.48578,-22.15851 c -2.64392,-2.01441 -5.41373,-3.77702 -8.30945,-5.41373 z m -17.75199,-8.81305 -10.07205,25.18013 c 2.39211,1.00721 4.78423,2.01441 7.17634,3.14752 l 11.96056,-24.29882 c 0,0 0,0 0,0 0,0 0,0 0,0 0,0 0,0 0,0 -0.1259,0 -0.1259,-0.12591 -0.2518,-0.12591 0,0 0,0 0,0 0,0 0,0 0,0 v 0 c -0.1259,0 -0.1259,-0.1259 -0.2518,-0.1259 v 0 c -2.26621,-1.1331 -4.65833,-2.14031 -6.92454,-3.14751 0,0 0,0 0,0 0,0 0,0 -0.1259,0 0,0 0,0 0,0 -0.1259,0 -0.1259,0 -0.2518,-0.1259 0,0 0,0 0,0 0,0 0,0 0,0 0,0 0,0 0,0 0,0 0,0 0,0 0,0 0,0 0,0 0,0 0,0 0,0 0,0 0,0 0,0 0,0 0,0 0,0 0,0 0,0 0,0 0,0 0,0 0,0 0,0 0,0 0,0 0,0 0,0 0,0 0,0 -0.1259,0 -0.1259,-0.1259 0,0 0,0 0,0 0,0 0,0 -0.1259,0 0,0 0,0 0,0 -0.75541,-0.2518 -0.88131,-0.2518 -1.00721,-0.37771 z m -18.88509,-5.79143 -6.04324,26.31324 c 2.51802,0.6295 5.03603,1.25901 7.55404,2.01441 l 8.05764,-25.80963 c 0,0 0,0 0,0 0,0 0,0 0,0 0,0 0,0 0,0 0,0 0,0 0,0 0,0 0,0 0,0 0,0 0,0 -0.1259,0 0,0 0,0 0,0 0,0 0,0 0,0 0,0 0,0 0,0 0,0 0,0 0,0 0,0 0,0 0,0 -0.1259,0 -0.1259,0 -0.2518,0 0,0 0,0 0,0 0,0 0,0 -0.1259,0 0,0 0,0 0,0 -1.76261,-0.50361 -3.39932,-1.00721 -5.16192,-1.51081 v 0 c 0,0 0,0 -0.1259,0 0,0 0,0 0,0 0,0 0,0 0,0 0,0 0,0 0,0 -0.12591,0 -0.12591,0 -0.25181,0 0,0 0,0 0,0 0,0 0,0 0,0 0,0 0,0 0,0 0,0 0,0 0,0 0,0 0,0 -0.1259,0 0,0 0,0 0,0 0,0 0,0 -0.1259,0 0,0 0,0 0,0 0,0 0,0 -0.1259,0 0,0 0,0 0,0 -0.1259,0 -0.1259,0 -0.2518,-0.1259 0,0 0,0 0,0 -1.25901,-0.5036 -2.01441,-0.7554 -2.89571,-0.88131 z m -19.51461,-3.02161 -1.8885,26.94274 c 2.64391,0.1259 5.16192,0.5036 7.80584,0.8813 l 4.02882,-26.81684 c -0.75541,-0.1259 -1.63671,-0.2518 -2.39212,-0.3777 0,0 0,0 0,0 0,0 0,0 -0.1259,0 0,0 0,0 0,0 -0.1259,0 -0.1259,0 -0.1259,0 0,0 0,0 0,0 0,0 0,0 0,0 0,0 0,0 0,0 0,0 0,0 0,0 0,0 0,0 0,0 0,0 0,0 -0.1259,0 0,0 0,0 0,0 0,0 0,0 0,0 0,0 0,0 0,0 0,0 0,0.1259 0,0.1259 0,0 -0.1259,0.1259 -0.1259,0.1259 v 0 c 0,0 0,-0.1259 0,-0.1259 0,0 0,-0.1259 0,-0.1259 0,0 0,0 0,0 0,0 0,0 0,0 -0.1259,0 -0.1259,0 -0.2518,0 0,0 0,0 0,0 0,0 0,0 -0.1259,0 v 0 c -2.64391,-0.2518 -4.65832,-0.3777 -6.67274,-0.6295 z"
       id="path6695"
       style="stroke-width:1.25901" /><path
       fill="url(#SVGID_1_)"
       d="m 573.19265,908.76878 c -75.79219,0 -137.48351,-61.69132 -137.48351,-137.48351 0,-75.79219 61.69132,-137.48351 137.48351,-137.48351 75.79219,0 137.48351,61.69132 137.48351,137.48351 0,75.79219 -61.69132,137.48351 -137.48351,137.48351 z m 0,-271.8195 c -74.02958,0 -134.336,60.30641 -134.336,134.33599 0,74.02959 60.30642,134.336 134.336,134.336 74.02958,0 134.33599,-60.30641 134.33599,-134.336 -0.1259,-74.02958 -60.30641,-134.33599 -134.33599,-134.33599 z"
       id="path6702"
       style="fill:url(#SVGID_1_);stroke-width:1.25901" /><path
       fill="#e5e7eb"
       d="m 652.25826,774.55869 c 0,42.93212 -34.74858,77.6807 -77.6807,77.6807 -42.93213,0 -77.68071,-34.74858 -77.68071,-77.6807 v 0 c 0,-42.93212 34.74858,-77.6807 77.68071,-77.6807 42.93212,0 77.6807,34.74858 77.6807,77.6807 z"
       id="path6704"
       style="stroke-width:1.25901" /><g
       id="g6718"
       transform="matrix(1.2590065,0,0,1.2590065,-284.56848,220.21813)">
	<path
   fill="#818182"
   d="m 492.9,196 c -0.5,0 -1,0 -1.5,0 -31.9,0 -57.7,25.8 -57.7,57.7 0,0 0,0 0,0 0,31.9 25.8,57.7 57.7,57.7 0.5,0 1,0 1.5,0 z"
   id="path6706" />
	<path
   fill="#656768"
   d="m 493.3,196 c 0.5,0 1,0 1.5,0 31.9,0 57.7,25.8 57.7,57.7 0,0 0,0 0,0 0,31.9 -25.8,57.7 -57.7,57.7 -0.5,0 -1,0 -1.5,0 z"
   id="path6708" />
	<path
   fill="#656768"
   d="m 511.8,241.5 c 0,-7.4 -8.6,-13.4 -19.3,-13.4 -0.3,0 -0.6,0 -0.9,0 l -0.2,248 c 0.4,0 0.8,0 1.1,0 10.7,0 29.7,-8.8 29.7,-16.2 z"
   id="path6710" />
	<path
   fill="#818182"
   d="m 473.2,241.5 -12.7,217.9 c 0,7.1 19.9,16.1 30.9,16.8 l 0.2,-248 c -10.3,0.3 -18.4,6.2 -18.4,13.3 z"
   id="path6712" />
	<path
   fill="#656768"
   d="m 493.2,215.9 c 0.3,0 0.7,0 1,0 20.9,0 37.8,16.9 37.8,37.8 0,0 0,0 0,0 0,20.9 -16.9,37.8 -37.8,37.8 -0.3,0 -0.7,0 -1,0 z"
   id="path6714" />
	<path
   fill="#656768"
   d="m 492.9,215.9 c -0.3,0 -0.7,0 -1,0 -20.9,0 -37.8,16.9 -37.8,37.8 0,0 0,0 0,0 0,20.9 16.9,37.8 37.8,37.8 0.3,0 0.7,0 1,0 z"
   id="path6716" />
</g><g
       id="g6736"
       transform="matrix(1.2590065,0,0,1.2590065,-284.56848,220.21813)">
	<g
   id="g6726">
		<rect
   x="942"
   y="283.39999"
   fill="#818182"
   width="48.200001"
   height="308.89999"
   id="rect6720" />
		<path
   fill="#818182"
   d="m 985.7,643.5 c 2.9,0 5.3,-2.4 5.3,-5.3 V 597 h -48.2 v 41.2 c 0,2.9 2.4,5.3 5.3,5.3 z"
   id="path6722" />
		<path
   fill="#818182"
   d="m 985.2,231.1 c 2.9,0 5.3,2.4 5.3,5.3 v 41.2 h -48.2 v -41.2 c 0,-2.9 2.4,-5.3 5.3,-5.3 z"
   id="path6724" />
	</g>
	<g
   id="g6734">
		<rect
   x="942"
   y="283.39999"
   fill="#656768"
   width="26.1"
   height="308.89999"
   id="rect6728" />
		<path
   fill="#656768"
   d="m 965.6,643.5 c 1.6,0 2.9,-2.4 2.9,-5.3 V 597 h -26.1 v 41.2 c 0,2.9 1.3,5.3 2.9,5.3 z"
   id="path6730" />
		<path
   fill="#656768"
   d="m 965.4,231.1 c 1.6,0 2.9,2.4 2.9,5.3 v 41.2 h -26.1 v -41.2 c 0,-2.9 1.3,-5.3 2.9,-5.3 z"
   id="path6732" />
	</g>
</g></g></g></svg>
