<?xml version="1.0" encoding="UTF-8" standalone="no"?>
<svg
   xmlns:dc="http://purl.org/dc/elements/1.1/"
   xmlns:cc="http://creativecommons.org/ns#"
   xmlns:rdf="http://www.w3.org/1999/02/22-rdf-syntax-ns#"
   xmlns:svg="http://www.w3.org/2000/svg"
   xmlns="http://www.w3.org/2000/svg"
   xmlns:sodipodi="http://sodipodi.sourceforge.net/DTD/sodipodi-0.dtd"
   xmlns:inkscape="http://www.inkscape.org/namespaces/inkscape"
   version="1.1"
   x="0px"
   y="0px"
   viewBox="0 0 500 500"
   enable-background="new 0 0 1400 980"
   xml:space="preserve"
   id="svg25112"
   sodipodi:docname="tag.svg"
   width="500"
   height="500"
   inkscape:version="1.0.1 (3bc2e813f5, 2020-09-07)"><metadata
   id="metadata25118"><rdf:RDF><cc:Work
       rdf:about=""><dc:format>image/svg+xml</dc:format><dc:type
         rdf:resource="http://purl.org/dc/dcmitype/StillImage" /><dc:title></dc:title></cc:Work></rdf:RDF></metadata><defs
   id="defs25116">
	
	
	
	
	
	
	

		
		
		
		
		
		
	
	
	
	
	
	
	
	
	
	
	
	
	
	
	
	
	
	
	
	
	
	
	
	
	
	
	
	
	
	
	
	
	
	
	
	
	
	
	
	
	
	
	
	
	
	
	
	
	
	
	
	
	
	
	
	
	
	
	
	
	
	
	
	
	
	
	
	
	
	
	
	
	
	
	
	
	
	
	
	
	
	
	
	
	
	
	
	
	
	
	
	
	
	
	
	
	
	
	
	
	
	
	
	
	
	
	
	
	
	
	
	
	
	
	
	
	
	
	
	
	
	
	
	
	
	
	
	
	
	
	
	
	
	
	
	
	
	
	
	
	
	
	
	
	
	
	
	
	
	
	
	
	
	
	
	
	
	
	
	
	
	
	
	
	
	
	
	
	
	
	
	
	
	
	
	
	
	
	
	
	
	
	
	
	
	
	
	
	
	
	
	
	
	
	
	
	
	
	
	
	
	
	
	
	
	
	
	
	
	
	
	
	
	
	
	
	
	
	
	
	
	
	
	
	
	
	
	
	
	
	
	
	
	
	
	
	
	
	
	
	
	
	
	
	
	
	
	
	
	
	
	
	
	
	
	
	
	
	
	
	
	
	
	
</defs><sodipodi:namedview
   pagecolor="#ffffff"
   bordercolor="#666666"
   borderopacity="1"
   objecttolerance="10"
   gridtolerance="10"
   guidetolerance="10"
   inkscape:pageopacity="0"
   inkscape:pageshadow="2"
   inkscape:window-width="1366"
   inkscape:window-height="705"
   id="namedview25114"
   showgrid="false"
   inkscape:zoom="0.77637438"
   inkscape:cx="342.21063"
   inkscape:cy="238.12942"
   inkscape:window-x="-8"
   inkscape:window-y="-8"
   inkscape:window-maximized="1"
   inkscape:current-layer="svg25112"
   inkscape:document-rotation="0" />
<g
   id="Layer_1"
   display="none">
	<g
   display="inline"
   id="g24174">
		<g
   id="g23892">
			<path
   fill="none"
   stroke="#910e15"
   stroke-width="12"
   stroke-linejoin="round"
   stroke-miterlimit="10"
   d="M 390.33,215.125 H 440 c 14.91,0 27,12.09 27,27 v 198 c 0,14.91 -12.09,27 -27,27 H 328 c -14.91,0 -27,-12.09 -27,-27 v -198 c 0,-14.91 12.09,-27 27,-27 h 48.26"
   id="path23826" />
			<path
   fill="none"
   stroke="#910e15"
   stroke-width="8"
   stroke-linecap="round"
   stroke-linejoin="round"
   stroke-miterlimit="10"
   d="m 390.33,233.575 c 3.73,2.34 6.21,6.49 6.21,11.22 0,7.32 -5.93,13.25 -13.25,13.25 -7.31,0 -13.25,-5.93 -13.25,-13.25 0,-4.74 2.49,-8.89 6.22,-11.23"
   id="path23828" />
			
				<path
   fill="none"
   stroke="#910e15"
   stroke-width="10"
   stroke-linecap="round"
   stroke-linejoin="round"
   stroke-miterlimit="10"
   d="m 383.294,244.792 v 0 c -3.887,0 -7.039,-3.151 -7.039,-7.039 v -71.59 c 0,-3.887 3.151,-7.039 7.039,-7.039 v 0 c 3.887,0 7.039,3.151 7.039,7.039 v 71.59 c 0,3.888 -3.151,7.039 -7.039,7.039 z"
   id="path23830" />
			
				<line
   fill="none"
   stroke="#910e15"
   stroke-width="8"
   stroke-linecap="round"
   stroke-linejoin="round"
   stroke-miterlimit="10"
   x1="356.5"
   y1="233.565"
   x2="326.5"
   y2="233.565"
   id="line23832" />
			
				<line
   fill="none"
   stroke="#910e15"
   stroke-width="8"
   stroke-linecap="round"
   stroke-linejoin="round"
   stroke-miterlimit="10"
   x1="440.79001"
   y1="438.20499"
   x2="327.20999"
   y2="438.20499"
   id="line23834" />
			
				<line
   fill="none"
   stroke="#910e15"
   stroke-width="8"
   stroke-linecap="round"
   stroke-linejoin="round"
   stroke-miterlimit="10"
   x1="410.07999"
   y1="233.565"
   x2="440.07999"
   y2="233.565"
   id="line23836" />
			<g
   id="g23846">
				<g
   id="g23840">
					<path
   fill="#910e15"
   d="m 353.689,328.848 v 3.883 h -7.399 v -3.726 c -4.04,-0.682 -7.451,-2.519 -9.498,-4.88 v -0.735 l 3.988,-4.933 h 0.735 c 1.679,1.574 4.985,3.411 7.766,3.411 2.099,0 3.516,-0.735 3.516,-1.994 0,-1.732 -1.942,-1.889 -4.88,-2.729 -4.46,-1.312 -9.813,-3.883 -9.813,-9.76 0,-4.408 3.253,-7.766 8.186,-8.815 v -3.831 h 7.399 v 3.883 c 3.306,0.682 6.14,2.151 7.766,4.04 v 0.735 l -4.093,4.88 h -0.734 c -1.26,-1.259 -3.726,-3.096 -6.612,-3.096 -1.732,0 -2.886,0.682 -2.886,1.837 0,1.574 2.046,2.309 4.04,2.938 5.037,1.574 10.705,3.201 10.705,9.918 0,5.091 -3.516,8.03 -8.186,8.974 z"
   id="path23838" />
				</g>
				<g
   id="g23844">
					<path
   fill="#910e15"
   d="m 427.875,372.35 c 0,17.4 -13.44,29.16 -33.719,29.16 -13.32,0 -26.281,-5.521 -32.281,-13.68 v -1.68 l 11.041,-11.401 h 1.68 c 4.559,5.161 11.76,8.641 17.879,8.641 7.081,0 11.88,-4.32 11.88,-10.679 0,-6.48 -4.799,-10.681 -11.88,-10.681 -4.439,0 -8.879,1.8 -11.4,4.44 h -1.68 l -14.399,-6.36 7.2,-42 h 49.8 v 18.599 h -34.56 l -1.56,9.241 c 3.36,-0.961 7.2,-1.561 11.64,-1.561 17.879,10e-4 30.359,10.922 30.359,27.961 z"
   id="path23842" />
				</g>
			</g>
			<g
   id="g23852">
				<g
   id="g23850">
					<path
   fill="#910e15"
   d="m 434.333,258.625 c 3.217,0 3.223,-5 0,-5 -3.217,0 -3.222,5 0,5 z"
   id="path23848" />
				</g>
			</g>
			<g
   id="g23858">
				<g
   id="g23856">
					<path
   fill="#910e15"
   d="m 440.667,251.958 c 3.217,0 3.223,-5 0,-5 -3.218,0 -3.223,5 0,5 z"
   id="path23854" />
				</g>
			</g>
			<g
   id="g23864">
				<g
   id="g23862">
					<path
   fill="#910e15"
   d="m 443.667,261.292 c 3.217,0 3.223,-5 0,-5 -3.218,0 -3.223,5 0,5 z"
   id="path23860" />
				</g>
			</g>
			<g
   id="g23870">
				<g
   id="g23868">
					<path
   fill="#910e15"
   d="m 332,414.625 c 3.217,0 3.223,-5 0,-5 -3.217,0 -3.223,5 0,5 z"
   id="path23866" />
				</g>
			</g>
			<g
   id="g23876">
				<g
   id="g23874">
					<path
   fill="#910e15"
   d="m 333.333,403.958 c 3.217,0 3.223,-5 0,-5 -3.217,0 -3.222,5 0,5 z"
   id="path23872" />
				</g>
			</g>
			<g
   id="g23882">
				<g
   id="g23880">
					<path
   fill="#910e15"
   d="m 341,411.958 c 3.217,0 3.223,-5 0,-5 -3.217,0 -3.223,5 0,5 z"
   id="path23878" />
				</g>
			</g>
			
				<line
   fill="none"
   stroke="#910e15"
   stroke-width="4"
   stroke-linejoin="round"
   stroke-miterlimit="10"
   x1="378"
   y1="172.375"
   x2="391"
   y2="185.375"
   id="line23884" />
			
				<line
   fill="none"
   stroke="#910e15"
   stroke-width="4"
   stroke-linejoin="round"
   stroke-miterlimit="10"
   x1="378"
   y1="186.5"
   x2="391"
   y2="199.5"
   id="line23886" />
			
				<line
   fill="none"
   stroke="#910e15"
   stroke-width="4"
   stroke-linejoin="round"
   stroke-miterlimit="10"
   x1="378"
   y1="200.625"
   x2="391"
   y2="213.625"
   id="line23888" />
			
				<line
   fill="none"
   stroke="#910e15"
   stroke-width="4"
   stroke-linejoin="round"
   stroke-miterlimit="10"
   x1="378"
   y1="214.75"
   x2="391"
   y2="227.75"
   id="line23890" />
		</g>
		<g
   id="g23954">
			<path
   fill="none"
   stroke="#910e15"
   stroke-width="12"
   stroke-linejoin="round"
   stroke-miterlimit="10"
   d="m 707.04,215.125 h 63.63 c 6.81,0 12.33,5.52 12.33,12.33 v 182.92 c 0,31.34 -25.41,56.75 -56.75,56.75 h -52.5 c -31.34,0 -56.75,-25.41 -56.75,-56.75 v -182.92 c 0,-6.81 5.52,-12.33 12.33,-12.33 h 63.64"
   id="path23894" />
			<path
   fill="none"
   stroke="#910e15"
   stroke-width="8"
   stroke-linecap="round"
   stroke-linejoin="round"
   stroke-miterlimit="10"
   d="m 707.04,233.575 c 3.73,2.34 6.21,6.49 6.21,11.22 0,7.32 -5.93,13.25 -13.25,13.25 -7.31,0 -13.25,-5.93 -13.25,-13.25 0,-4.74 2.49,-8.89 6.22,-11.23"
   id="path23896" />
			
				<path
   fill="none"
   stroke="#910e15"
   stroke-width="10"
   stroke-linecap="round"
   stroke-linejoin="round"
   stroke-miterlimit="10"
   d="m 700.004,244.792 v 0 c -3.888,0 -7.039,-3.151 -7.039,-7.039 v -71.59 c 0,-3.887 3.151,-7.039 7.039,-7.039 v 0 c 3.887,0 7.039,3.151 7.039,7.039 v 71.59 c 0,3.888 -3.151,7.039 -7.039,7.039 z"
   id="path23898" />
			
				<line
   fill="none"
   stroke="#910e15"
   stroke-width="8"
   stroke-linecap="round"
   stroke-linejoin="round"
   stroke-miterlimit="10"
   x1="673.21002"
   y1="233.565"
   x2="643.21002"
   y2="233.565"
   id="line23900" />
			
				<line
   fill="none"
   stroke="#910e15"
   stroke-width="8"
   stroke-linecap="round"
   stroke-linejoin="round"
   stroke-miterlimit="10"
   x1="726.78998"
   y1="233.565"
   x2="756.78998"
   y2="233.565"
   id="line23902" />
			<g
   id="g23912">
				<g
   id="g23906">
					<path
   fill="#910e15"
   d="m 668.897,328.848 v 3.883 h -7.399 v -3.726 c -4.04,-0.682 -7.451,-2.519 -9.498,-4.88 v -0.735 l 3.988,-4.933 h 0.735 c 1.679,1.574 4.985,3.411 7.766,3.411 2.099,0 3.516,-0.735 3.516,-1.994 0,-1.732 -1.942,-1.889 -4.88,-2.729 -4.461,-1.312 -9.813,-3.883 -9.813,-9.76 0,-4.408 3.253,-7.766 8.186,-8.815 v -3.831 h 7.399 v 3.883 c 3.306,0.682 6.14,2.151 7.766,4.04 v 0.735 l -4.093,4.88 h -0.734 c -1.26,-1.259 -3.726,-3.096 -6.612,-3.096 -1.732,0 -2.886,0.682 -2.886,1.837 0,1.574 2.046,2.309 4.04,2.938 5.037,1.574 10.705,3.201 10.705,9.918 0,5.091 -3.516,8.03 -8.186,8.974 z"
   id="path23904" />
				</g>
				<g
   id="g23910">
					<path
   fill="#910e15"
   d="m 743.083,372.35 c 0,17.4 -13.44,29.16 -33.719,29.16 -13.32,0 -26.281,-5.521 -32.281,-13.68 v -1.68 l 11.041,-11.401 h 1.68 c 4.559,5.161 11.76,8.641 17.879,8.641 7.081,0 11.88,-4.32 11.88,-10.679 0,-6.48 -4.799,-10.681 -11.88,-10.681 -4.439,0 -8.879,1.8 -11.4,4.44 h -1.68 l -14.399,-6.36 7.2,-42 h 49.8 v 18.599 h -34.56 l -1.56,9.241 c 3.36,-0.961 7.2,-1.561 11.64,-1.561 17.879,10e-4 30.359,10.922 30.359,27.961 z"
   id="path23908" />
				</g>
			</g>
			
				<line
   fill="none"
   stroke="#910e15"
   stroke-width="5"
   stroke-linecap="round"
   stroke-linejoin="round"
   stroke-miterlimit="10"
   x1="722"
   y1="300.125"
   x2="726.33301"
   y2="288.79199"
   id="line23914" />
			
				<line
   fill="none"
   stroke="#910e15"
   stroke-width="5"
   stroke-linecap="round"
   stroke-linejoin="round"
   stroke-miterlimit="10"
   x1="737.33301"
   y1="301.125"
   x2="748.33301"
   y2="287.79199"
   id="line23916" />
			
				<line
   fill="none"
   stroke="#910e15"
   stroke-width="5"
   stroke-linecap="round"
   stroke-linejoin="round"
   stroke-miterlimit="10"
   x1="751.66699"
   y1="307.79199"
   x2="759.66699"
   y2="304.79199"
   id="line23918" />
			
				<line
   fill="none"
   stroke="#910e15"
   stroke-width="5"
   stroke-linecap="round"
   stroke-linejoin="round"
   stroke-miterlimit="10"
   x1="755.66699"
   y1="320.45801"
   x2="761.66699"
   y2="320.45801"
   id="line23920" />
			<g
   id="g23926">
				<g
   id="g23924">
					<path
   fill="#910e15"
   d="m 650,407.125 c 3.217,0 3.223,-5 0,-5 -3.217,0 -3.223,5 0,5 z"
   id="path23922" />
				</g>
			</g>
			<g
   id="g23932">
				<g
   id="g23930">
					<path
   fill="#910e15"
   d="m 652.333,398.292 c 3.217,0 3.223,-5 0,-5 -3.217,0 -3.222,5 0,5 z"
   id="path23928" />
				</g>
			</g>
			<g
   id="g23938">
				<g
   id="g23936">
					<path
   fill="#910e15"
   d="m 657.667,403.625 c 3.217,0 3.223,-5 0,-5 -3.218,0 -3.223,5 0,5 z"
   id="path23934" />
				</g>
			</g>
			<g
   id="g23944">
				
					<line
   fill="none"
   stroke="#910e15"
   stroke-width="8"
   stroke-linecap="round"
   stroke-linejoin="round"
   stroke-miterlimit="10"
   x1="663.125"
   y1="445.625"
   x2="672.125"
   y2="445.625"
   id="line23940" />
				
					<line
   fill="none"
   stroke="#910e15"
   stroke-width="8"
   stroke-linecap="round"
   stroke-linejoin="round"
   stroke-miterlimit="10"
   x1="692.125"
   y1="445.625"
   x2="736.875"
   y2="445.625"
   id="line23942" />
			</g>
			
				<line
   fill="none"
   stroke="#910e15"
   stroke-width="4"
   stroke-linejoin="round"
   stroke-miterlimit="10"
   x1="693.50403"
   y1="172.375"
   x2="706.50403"
   y2="185.375"
   id="line23946" />
			
				<line
   fill="none"
   stroke="#910e15"
   stroke-width="4"
   stroke-linejoin="round"
   stroke-miterlimit="10"
   x1="693.50403"
   y1="186.5"
   x2="706.50403"
   y2="199.5"
   id="line23948" />
			
				<line
   fill="none"
   stroke="#910e15"
   stroke-width="4"
   stroke-linejoin="round"
   stroke-miterlimit="10"
   x1="693.50403"
   y1="200.625"
   x2="706.50403"
   y2="213.625"
   id="line23950" />
			
				<line
   fill="none"
   stroke="#910e15"
   stroke-width="4"
   stroke-linejoin="round"
   stroke-miterlimit="10"
   x1="693.50403"
   y1="214.75"
   x2="706.50403"
   y2="227.75"
   id="line23952" />
		</g>
		<g
   id="g24022">
			<path
   fill="none"
   stroke="#910e15"
   stroke-width="12"
   stroke-linejoin="round"
   stroke-miterlimit="10"
   d="m 1023.05,215.425 c 20.11,1.69 38.18,10.55 51.64,24.01 15.02,15.02 24.31,35.77 24.31,58.69 v 169 H 933 v -169 c 0,-43.47 33.42,-79.14 75.97,-82.7"
   id="path23956" />
			
				<line
   fill="none"
   stroke="#910e15"
   stroke-width="8"
   stroke-linecap="round"
   stroke-linejoin="round"
   stroke-miterlimit="10"
   x1="1072.79"
   y1="438.20499"
   x2="959.21002"
   y2="438.20499"
   id="line23958" />
			<path
   fill="none"
   stroke="#910e15"
   stroke-width="8"
   stroke-linecap="round"
   stroke-linejoin="round"
   stroke-miterlimit="10"
   d="m 1023.043,233.575 c 3.73,2.34 6.21,6.49 6.21,11.22 0,7.32 -5.93,13.25 -13.25,13.25 -7.31,0 -13.25,-5.93 -13.25,-13.25 0,-4.74 2.49,-8.89 6.22,-11.23"
   id="path23960" />
			
				<path
   fill="none"
   stroke="#910e15"
   stroke-width="10"
   stroke-linecap="round"
   stroke-linejoin="round"
   stroke-miterlimit="10"
   d="m 1016.007,244.792 v 0 c -3.887,0 -7.039,-3.151 -7.039,-7.039 v -71.59 c 0,-3.887 3.151,-7.039 7.039,-7.039 v 0 c 3.888,0 7.039,3.151 7.039,7.039 v 71.59 c 0,3.888 -3.151,7.039 -7.039,7.039 z"
   id="path23962" />
			<g
   id="g23972">
				<g
   id="g23966">
					<path
   fill="#910e15"
   d="m 981.737,328.848 v 3.883 h -7.399 v -3.726 c -4.04,-0.682 -7.451,-2.519 -9.498,-4.88 v -0.735 l 3.988,-4.933 h 0.735 c 1.679,1.574 4.985,3.411 7.766,3.411 2.099,0 3.516,-0.735 3.516,-1.994 0,-1.732 -1.942,-1.889 -4.88,-2.729 -4.46,-1.312 -9.813,-3.883 -9.813,-9.76 0,-4.408 3.253,-7.766 8.186,-8.815 v -3.831 h 7.399 v 3.883 c 3.306,0.682 6.14,2.151 7.766,4.04 v 0.735 l -4.093,4.88 h -0.734 c -1.26,-1.259 -3.726,-3.096 -6.612,-3.096 -1.732,0 -2.886,0.682 -2.886,1.837 0,1.574 2.046,2.309 4.04,2.938 5.037,1.574 10.705,3.201 10.705,9.918 0,5.091 -3.516,8.03 -8.186,8.974 z"
   id="path23964" />
				</g>
				<g
   id="g23970">
					<path
   fill="#910e15"
   d="m 1055.923,372.35 c 0,17.4 -13.44,29.16 -33.719,29.16 -13.32,0 -26.281,-5.521 -32.281,-13.68 v -1.68 l 11.041,-11.401 h 1.68 c 4.559,5.161 11.76,8.641 17.879,8.641 7.081,0 11.88,-4.32 11.88,-10.679 0,-6.48 -4.799,-10.681 -11.88,-10.681 -4.439,0 -8.879,1.8 -11.4,4.44 h -1.68 l -14.399,-6.36 7.2,-42 h 49.8 v 18.599 h -34.56 l -1.56,9.241 c 3.36,-0.961 7.2,-1.561 11.64,-1.561 17.879,10e-4 30.359,10.922 30.359,27.961 z"
   id="path23968" />
				</g>
			</g>
			<circle
   fill="#910e15"
   cx="976.75299"
   cy="250.79201"
   r="4.25"
   id="circle23974" />
			<circle
   fill="#910e15"
   cx="1055.261"
   cy="250.79201"
   r="4.25"
   id="circle23976" />
			
				<line
   fill="none"
   stroke="#910e15"
   stroke-width="4"
   stroke-linejoin="round"
   stroke-miterlimit="10"
   x1="1009.5"
   y1="172.375"
   x2="1022.5"
   y2="185.375"
   id="line23978" />
			
				<line
   fill="none"
   stroke="#910e15"
   stroke-width="4"
   stroke-linejoin="round"
   stroke-miterlimit="10"
   x1="1009.5"
   y1="186.5"
   x2="1022.5"
   y2="199.5"
   id="line23980" />
			
				<line
   fill="none"
   stroke="#910e15"
   stroke-width="4"
   stroke-linejoin="round"
   stroke-miterlimit="10"
   x1="1009.5"
   y1="200.625"
   x2="1022.5"
   y2="213.625"
   id="line23982" />
			
				<line
   fill="none"
   stroke="#910e15"
   stroke-width="4"
   stroke-linejoin="round"
   stroke-miterlimit="10"
   x1="1009.5"
   y1="214.75"
   x2="1022.5"
   y2="227.75"
   id="line23984" />
			<path
   fill="none"
   stroke="#910e15"
   stroke-width="5"
   stroke-linecap="round"
   stroke-linejoin="round"
   stroke-miterlimit="10"
   d="m 1007.661,268.575 c 8.383,2.857 18.317,0.456 24.469,-5.914"
   id="path23986" />
			
				<line
   fill="none"
   stroke="#910e15"
   stroke-width="5"
   stroke-linecap="round"
   stroke-linejoin="round"
   stroke-miterlimit="10"
   x1="1006.42"
   y1="304.125"
   x2="1022.92"
   y2="304.125"
   id="line23988" />
			
				<line
   fill="none"
   stroke="#910e15"
   stroke-width="5"
   stroke-linecap="round"
   stroke-linejoin="round"
   stroke-miterlimit="10"
   x1="1037.92"
   y1="304.125"
   x2="1051.011"
   y2="304.125"
   id="line23990" />
			<g
   id="g23996">
				<g
   id="g23994">
					<path
   fill="#910e15"
   d="m 964.587,421.292 c 3.217,0 3.223,-5 0,-5 -3.218,0 -3.223,5 0,5 z"
   id="path23992" />
				</g>
			</g>
			<g
   id="g24002">
				<g
   id="g24000">
					<path
   fill="#910e15"
   d="m 964.92,410.625 c 3.217,0 3.223,-5 0,-5 -3.217,0 -3.223,5 0,5 z"
   id="path23998" />
				</g>
			</g>
			<g
   id="g24008">
				<g
   id="g24006">
					<path
   fill="#910e15"
   d="m 974.587,415.292 c 3.217,0 3.223,-5 0,-5 -3.218,0 -3.223,5 0,5 z"
   id="path24004" />
				</g>
			</g>
			<g
   id="g24014">
				<g
   id="g24012">
					<path
   fill="#910e15"
   d="m 1073.253,382.958 c 3.217,0 3.223,-5 0,-5 -3.217,0 -3.222,5 0,5 z"
   id="path24010" />
				</g>
			</g>
			<g
   id="g24020">
				<g
   id="g24018">
					<path
   fill="#910e15"
   d="m 1040.92,241.958 c 3.217,0 3.223,-5 0,-5 -3.217,0 -3.223,5 0,5 z"
   id="path24016" />
				</g>
			</g>
		</g>
		<g
   id="g24068">
			<polyline
   fill="none"
   stroke="#910e15"
   stroke-width="12"
   stroke-linejoin="round"
   stroke-miterlimit="10"
   points="     390.33,568.875 432.33,568.875 467,625.795 467,820.875 384,820.875 301,820.875 301,625.795 335.67,568.875 376.26,568.875         "
   id="polyline24024" />
			
				<line
   fill="none"
   stroke="#910e15"
   stroke-width="8"
   stroke-linecap="round"
   stroke-linejoin="round"
   stroke-miterlimit="10"
   x1="440.79001"
   y1="799.21503"
   x2="327.20999"
   y2="799.21503"
   id="line24026" />
			<g
   id="g24036">
				<g
   id="g24030">
					<path
   fill="#910e15"
   d="m 353.689,692.463 v 3.883 h -7.399 v -3.726 c -4.04,-0.682 -7.451,-2.519 -9.498,-4.88 v -0.735 l 3.988,-4.933 h 0.735 c 1.679,1.574 4.985,3.411 7.766,3.411 2.099,0 3.516,-0.735 3.516,-1.994 0,-1.732 -1.942,-1.889 -4.88,-2.729 -4.46,-1.312 -9.813,-3.883 -9.813,-9.76 0,-4.408 3.253,-7.766 8.186,-8.815 v -3.831 h 7.399 v 3.883 c 3.306,0.682 6.14,2.151 7.766,4.04 v 0.735 l -4.093,4.88 h -0.734 c -1.26,-1.259 -3.726,-3.096 -6.612,-3.096 -1.732,0 -2.886,0.682 -2.886,1.837 0,1.574 2.046,2.309 4.04,2.938 5.037,1.574 10.705,3.201 10.705,9.918 0,5.091 -3.516,8.029 -8.186,8.974 z"
   id="path24028" />
				</g>
				<g
   id="g24034">
					<path
   fill="#910e15"
   d="m 427.875,735.965 c 0,17.4 -13.44,29.16 -33.719,29.16 -13.32,0 -26.281,-5.521 -32.281,-13.68 v -1.68 l 11.041,-11.401 h 1.68 c 4.559,5.161 11.76,8.641 17.879,8.641 7.081,0 11.88,-4.32 11.88,-10.679 0,-6.48 -4.799,-10.681 -11.88,-10.681 -4.439,0 -8.879,1.8 -11.4,4.44 h -1.68 l -14.399,-6.36 7.2,-42 h 49.8 v 18.599 h -34.56 l -1.56,9.241 c 3.36,-0.961 7.2,-1.561 11.64,-1.561 17.879,10e-4 30.359,10.921 30.359,27.961 z"
   id="path24032" />
				</g>
			</g>
			<path
   fill="none"
   stroke="#910e15"
   stroke-width="8"
   stroke-linecap="round"
   stroke-linejoin="round"
   stroke-miterlimit="10"
   d="m 390.33,591.195 c 3.73,2.34 6.21,6.49 6.21,11.22 0,7.32 -5.93,13.25 -13.25,13.25 -7.31,0 -13.25,-5.93 -13.25,-13.25 0,-4.74 2.49,-8.89 6.22,-11.23"
   id="path24038" />
			
				<path
   fill="none"
   stroke="#910e15"
   stroke-width="10"
   stroke-linecap="round"
   stroke-linejoin="round"
   stroke-miterlimit="10"
   d="m 383.294,602.412 v 0 c -3.887,0 -7.039,-3.151 -7.039,-7.039 v -71.59 c 0,-3.887 3.151,-7.039 7.039,-7.039 v 0 c 3.887,0 7.039,3.151 7.039,7.039 v 71.59 c 0,3.887 -3.151,7.039 -7.039,7.039 z"
   id="path24040" />
			
				<line
   fill="none"
   stroke="#910e15"
   stroke-width="4"
   stroke-linejoin="round"
   stroke-miterlimit="10"
   x1="378"
   y1="529.995"
   x2="391"
   y2="542.995"
   id="line24042" />
			
				<line
   fill="none"
   stroke="#910e15"
   stroke-width="4"
   stroke-linejoin="round"
   stroke-miterlimit="10"
   x1="378"
   y1="544.12"
   x2="391"
   y2="557.12"
   id="line24044" />
			
				<line
   fill="none"
   stroke="#910e15"
   stroke-width="4"
   stroke-linejoin="round"
   stroke-miterlimit="10"
   x1="378"
   y1="558.245"
   x2="391"
   y2="571.245"
   id="line24046" />
			
				<line
   fill="none"
   stroke="#910e15"
   stroke-width="4"
   stroke-linejoin="round"
   stroke-miterlimit="10"
   x1="378"
   y1="572.37"
   x2="391"
   y2="585.37"
   id="line24048" />
			<circle
   fill="#910e15"
   cx="346.375"
   cy="591.75"
   r="5.375"
   id="circle24050" />
			<circle
   fill="#910e15"
   cx="420.21399"
   cy="591.75"
   r="5.375"
   id="circle24052" />
			<path
   fill="none"
   stroke="#910e15"
   stroke-width="5"
   stroke-linecap="round"
   stroke-linejoin="round"
   stroke-miterlimit="10"
   d="m 361.66,617.166 c 1.81,4.002 5.947,6.845 10.331,7.1"
   id="path24054" />
			<polygon
   fill="#910e15"
   points="425.592,657.467 422.001,660.191 422.209,664.694 418.508,662.12 414.29,663.709 415.594,659.394 412.779,655.873 417.286,655.781 419.765,652.015 421.246,656.273 "
   id="polygon24056" />
			<polygon
   fill="#910e15"
   points="443.771,657.946 443.044,662.395 446.297,665.515 441.841,666.199 439.878,670.257 437.851,666.23 433.385,665.617 436.588,662.446 435.791,658.009 439.797,660.075 "
   id="polygon24058" />
			<polygon
   fill="#910e15"
   points="439.618,639.462 437.05,643.842 439.202,648.441 434.242,647.352 430.533,650.82 430.037,645.766 425.592,643.31 430.245,641.277 431.207,636.291 434.579,640.087 "
   id="polygon24060" />
			<polygon
   fill="#910e15"
   points="334.827,763.343 331.061,763.503 329.058,766.696 327.742,763.163 324.087,762.244 327.04,759.902 326.784,756.141 329.924,758.226 333.422,756.82 332.41,760.451 "
   id="polygon24062" />
			<polygon
   fill="#910e15"
   points="347.088,772.338 344.468,775.048 345.215,778.743 341.828,777.088 338.545,778.94 339.072,775.208 336.296,772.658 340.009,772.006 341.576,768.577 343.344,771.907 "
   id="polygon24064" />
			<polygon
   fill="#910e15"
   points="353.046,757.659 349.194,759.444 348.48,763.63 345.592,760.517 341.391,761.132 343.458,757.423 341.575,753.618 345.741,754.438 348.779,751.471 349.286,755.687 "
   id="polygon24066" />
		</g>
		<g
   id="g24138">
			<polyline
   fill="none"
   stroke="#910e15"
   stroke-width="12"
   stroke-linejoin="round"
   stroke-miterlimit="10"
   points="     707.04,568.875 783,568.875 783,746.125 700,820.875 617,746.125 617,568.875 692.97,568.875    "
   id="polyline24070" />
			
				<polyline
   fill="none"
   stroke="#910e15"
   stroke-width="8"
   stroke-linecap="round"
   stroke-linejoin="round"
   stroke-miterlimit="10"
   points="     756.979,742.92 700,794.235 643.021,742.92    "
   id="polyline24072" />
			<g
   id="g24082">
				<g
   id="g24076">
					<path
   fill="#910e15"
   d="m 671.355,662.449 v 3.883 h -7.399 v -3.726 c -4.04,-0.682 -7.451,-2.519 -9.498,-4.88 v -0.735 l 3.988,-4.932 h 0.735 c 1.679,1.574 4.985,3.411 7.766,3.411 2.099,0 3.516,-0.735 3.516,-1.994 0,-1.732 -1.942,-1.889 -4.88,-2.729 -4.46,-1.312 -9.813,-3.883 -9.813,-9.76 0,-4.408 3.253,-7.766 8.186,-8.815 v -3.831 h 7.399 v 3.883 c 3.306,0.682 6.14,2.151 7.766,4.04 v 0.735 l -4.093,4.88 h -0.734 c -1.26,-1.259 -3.726,-3.096 -6.612,-3.096 -1.732,0 -2.886,0.682 -2.886,1.837 0,1.574 2.046,2.309 4.04,2.938 5.037,1.574 10.705,3.201 10.705,9.918 0,5.089 -3.516,8.028 -8.186,8.973 z"
   id="path24074" />
				</g>
				<g
   id="g24080">
					<path
   fill="#910e15"
   d="m 745.541,705.951 c 0,17.4 -13.44,29.16 -33.719,29.16 -13.32,0 -26.281,-5.521 -32.281,-13.68 v -1.68 l 11.041,-11.401 h 1.68 c 4.559,5.161 11.76,8.641 17.879,8.641 7.081,0 11.88,-4.32 11.88,-10.679 0,-6.48 -4.799,-10.681 -11.88,-10.681 -4.439,0 -8.879,1.8 -11.4,4.44 h -1.68 l -14.399,-6.36 7.2,-42 h 49.8 v 18.599 h -34.56 l -1.56,9.241 c 3.36,-0.961 7.2,-1.561 11.64,-1.561 17.88,0 30.359,10.921 30.359,27.961 z"
   id="path24078" />
				</g>
			</g>
			<path
   fill="none"
   stroke="#910e15"
   stroke-width="8"
   stroke-linecap="round"
   stroke-linejoin="round"
   stroke-miterlimit="10"
   d="m 707.04,591.195 c 3.73,2.34 6.21,6.49 6.21,11.22 0,7.32 -5.93,13.25 -13.25,13.25 -7.31,0 -13.25,-5.93 -13.25,-13.25 0,-4.74 2.49,-8.89 6.22,-11.23"
   id="path24084" />
			
				<path
   fill="none"
   stroke="#910e15"
   stroke-width="10"
   stroke-linecap="round"
   stroke-linejoin="round"
   stroke-miterlimit="10"
   d="m 700.004,602.412 v 0 c -3.888,0 -7.039,-3.151 -7.039,-7.039 v -71.59 c 0,-3.887 3.151,-7.039 7.039,-7.039 v 0 c 3.887,0 7.039,3.151 7.039,7.039 v 71.59 c 0,3.887 -3.151,7.039 -7.039,7.039 z"
   id="path24086" />
			
				<line
   fill="none"
   stroke="#910e15"
   stroke-width="4"
   stroke-linejoin="round"
   stroke-miterlimit="10"
   x1="694.71002"
   y1="529.995"
   x2="707.71002"
   y2="542.995"
   id="line24088" />
			
				<line
   fill="none"
   stroke="#910e15"
   stroke-width="4"
   stroke-linejoin="round"
   stroke-miterlimit="10"
   x1="694.71002"
   y1="544.12"
   x2="707.71002"
   y2="557.12"
   id="line24090" />
			
				<line
   fill="none"
   stroke="#910e15"
   stroke-width="4"
   stroke-linejoin="round"
   stroke-miterlimit="10"
   x1="694.71002"
   y1="558.245"
   x2="707.71002"
   y2="571.245"
   id="line24092" />
			
				<line
   fill="none"
   stroke="#910e15"
   stroke-width="4"
   stroke-linejoin="round"
   stroke-miterlimit="10"
   x1="694.71002"
   y1="572.37"
   x2="707.71002"
   y2="585.37"
   id="line24094" />
			
				<line
   fill="none"
   stroke="#910e15"
   stroke-width="8"
   stroke-linecap="round"
   stroke-linejoin="round"
   stroke-miterlimit="10"
   x1="639.83301"
   y1="586.375"
   x2="665.83301"
   y2="586.375"
   id="line24096" />
			
				<line
   fill="none"
   stroke="#910e15"
   stroke-width="8"
   stroke-linecap="round"
   stroke-linejoin="round"
   stroke-miterlimit="10"
   x1="760.16699"
   y1="586.375"
   x2="734.16699"
   y2="586.375"
   id="line24098" />
			<path
   fill="none"
   stroke="#910e15"
   stroke-width="5"
   stroke-linecap="round"
   stroke-linejoin="round"
   stroke-miterlimit="10"
   d="m 715.794,622.497 c 3.982,-3.143 6.689,-7.857 7.396,-12.881"
   id="path24100" />
			<g
   id="g24106">
				<g
   id="g24104">
					<path
   fill="#910e15"
   d="m 753.833,606.292 c 3.217,0 3.223,-5 0,-5 -3.217,0 -3.222,5 0,5 z"
   id="path24102" />
				</g>
			</g>
			<g
   id="g24112">
				<g
   id="g24110">
					<path
   fill="#910e15"
   d="m 757.5,616.292 c 3.217,0 3.223,-5 0,-5 -3.217,0 -3.223,5 0,5 z"
   id="path24108" />
				</g>
			</g>
			<g
   id="g24118">
				<g
   id="g24116">
					<path
   fill="#910e15"
   d="m 766.167,607.625 c 3.217,0 3.223,-5 0,-5 -3.218,0 -3.223,5 0,5 z"
   id="path24114" />
				</g>
			</g>
			<g
   id="g24124">
				<g
   id="g24122">
					<path
   fill="#910e15"
   d="m 650.5,718.125 c 3.217,0 3.223,-5 0,-5 -3.217,0 -3.223,5 0,5 z"
   id="path24120" />
				</g>
			</g>
			<g
   id="g24130">
				<g
   id="g24128">
					<path
   fill="#910e15"
   d="m 642,710.625 c 3.217,0 3.223,-5 0,-5 -3.217,0 -3.223,5 0,5 z"
   id="path24126" />
				</g>
			</g>
			<g
   id="g24136">
				<g
   id="g24134">
					<path
   fill="#910e15"
   d="m 652,706.625 c 3.217,0 3.223,-5 0,-5 -3.217,0 -3.223,5 0,5 z"
   id="path24132" />
				</g>
			</g>
		</g>
		<g
   id="g24172">
			<polyline
   fill="none"
   stroke="#910e15"
   stroke-width="12"
   stroke-linejoin="round"
   stroke-miterlimit="10"
   points="     1023.04,563.544 1099,622.497 1099,818.909 1023.03,818.909 1008.96,818.909 933,818.909 933,622.497 1008.97,563.534    "
   id="polyline24140" />
			<g
   id="g24150">
				<g
   id="g24144">
					<path
   fill="#910e15"
   d="m 985.147,700.534 v 3.883 h -7.399 v -3.726 c -4.04,-0.682 -7.451,-2.519 -9.498,-4.88 v -0.735 l 3.988,-4.932 h 0.735 c 1.679,1.574 4.985,3.411 7.766,3.411 2.099,0 3.516,-0.735 3.516,-1.994 0,-1.732 -1.942,-1.889 -4.88,-2.729 -4.461,-1.312 -9.813,-3.883 -9.813,-9.76 0,-4.408 3.253,-7.766 8.186,-8.815 v -3.831 h 7.399 v 3.883 c 3.306,0.682 6.14,2.151 7.766,4.04 v 0.735 l -4.093,4.88 h -0.734 c -1.26,-1.259 -3.726,-3.096 -6.612,-3.096 -1.732,0 -2.886,0.682 -2.886,1.837 0,1.574 2.046,2.309 4.04,2.938 5.037,1.574 10.705,3.201 10.705,9.918 0,5.089 -3.516,8.028 -8.186,8.973 z"
   id="path24142" />
				</g>
				<g
   id="g24148">
					<path
   fill="#910e15"
   d="m 1059.333,744.036 c 0,17.4 -13.44,29.16 -33.719,29.16 -13.32,0 -26.281,-5.521 -32.281,-13.68 v -1.68 l 11.041,-11.401 h 1.68 c 4.559,5.161 11.76,8.641 17.879,8.641 7.081,0 11.88,-4.32 11.88,-10.679 0,-6.481 -4.799,-10.681 -11.88,-10.681 -4.439,0 -8.879,1.8 -11.4,4.44 h -1.68 l -14.399,-6.36 7.2,-42 h 49.8 v 18.599 h -34.56 l -1.56,9.241 c 3.36,-0.961 7.2,-1.561 11.64,-1.561 17.879,0 30.359,10.921 30.359,27.961 z"
   id="path24146" />
				</g>
			</g>
			<path
   fill="none"
   stroke="#910e15"
   stroke-width="8"
   stroke-linecap="round"
   stroke-linejoin="round"
   stroke-miterlimit="10"
   d="m 1023.04,591.195 c 3.73,2.34 6.21,6.49 6.21,11.22 0,7.32 -5.93,13.25 -13.25,13.25 -7.31,0 -13.25,-5.93 -13.25,-13.25 0,-4.74 2.49,-8.89 6.22,-11.23"
   id="path24152" />
			
				<path
   fill="none"
   stroke="#910e15"
   stroke-width="10"
   stroke-linecap="round"
   stroke-linejoin="round"
   stroke-miterlimit="10"
   d="m 1016.004,602.412 v 0 c -3.888,0 -7.039,-3.151 -7.039,-7.039 v -71.59 c 0,-3.887 3.151,-7.039 7.039,-7.039 v 0 c 3.887,0 7.039,3.151 7.039,7.039 v 71.59 c 0,3.887 -3.151,7.039 -7.039,7.039 z"
   id="path24154" />
			
				<line
   fill="none"
   stroke="#910e15"
   stroke-width="4"
   stroke-linejoin="round"
   stroke-miterlimit="10"
   x1="1010.71"
   y1="529.995"
   x2="1023.71"
   y2="542.995"
   id="line24156" />
			
				<line
   fill="none"
   stroke="#910e15"
   stroke-width="4"
   stroke-linejoin="round"
   stroke-miterlimit="10"
   x1="1010.71"
   y1="544.12"
   x2="1023.71"
   y2="557.12"
   id="line24158" />
			
				<line
   fill="none"
   stroke="#910e15"
   stroke-width="4"
   stroke-linejoin="round"
   stroke-miterlimit="10"
   x1="1010.71"
   y1="558.245"
   x2="1023.71"
   y2="571.245"
   id="line24160" />
			
				<line
   fill="none"
   stroke="#910e15"
   stroke-width="4"
   stroke-linejoin="round"
   stroke-miterlimit="10"
   x1="1010.71"
   y1="572.37"
   x2="1023.71"
   y2="585.37"
   id="line24162" />
			<polygon
   fill="#910e15"
   points="984.75,620.024 980.461,624.205 981.473,630.109 976.171,627.322 970.87,630.109 971.882,624.205 967.593,620.024 973.521,619.163 976.171,613.792 978.822,619.163 "
   id="polygon24164" />
			<polygon
   fill="#910e15"
   points="1047.25,620.024 1051.539,624.205 1050.527,630.109 1055.829,627.322 1061.13,630.109 1060.118,624.205 1064.407,620.024 1058.479,619.163 1055.829,613.792 1053.178,619.163 "
   id="polygon24166" />
			
				<line
   fill="none"
   stroke="#910e15"
   stroke-width="6"
   stroke-linecap="round"
   stroke-linejoin="round"
   stroke-miterlimit="10"
   x1="954.25"
   y1="647.336"
   x2="954.25"
   y2="778.94"
   id="line24168" />
			
				<line
   fill="none"
   stroke="#910e15"
   stroke-width="6"
   stroke-linecap="round"
   stroke-linejoin="round"
   stroke-miterlimit="10"
   x1="1077.75"
   y1="647.336"
   x2="1077.75"
   y2="778.94"
   id="line24170" />
		</g>
	</g>
</g>
<g
   id="Layer_3"
   display="none">
	<path
   display="inline"
   fill="#31b78d"
   d="m 712.043,590.071 c 3.305,3.207 5.207,7.613 5.207,12.343 0,9.512 -7.738,17.25 -17.25,17.25 -9.512,0 -17.25,-7.738 -17.25,-17.25 0,-4.733 1.905,-9.142 5.215,-12.352 V 574.875 H 623 v 168.579 l 77,69.347 77,-69.347 V 574.875 h -64.957 z m -22.181,61.64 h 49.8 v 18.599 h -34.56 l -1.56,9.241 c 3.36,-0.961 7.2,-1.561 11.64,-1.561 17.88,0 30.36,10.921 30.36,27.96 0,17.4 -13.44,29.16 -33.719,29.16 -13.32,0 -26.281,-5.521 -32.281,-13.68 v -1.68 l 11.041,-11.401 h 1.68 c 4.559,5.161 11.76,8.641 17.879,8.641 7.081,0 11.88,-4.32 11.88,-10.679 0,-6.48 -4.799,-10.681 -11.88,-10.681 -4.439,0 -8.879,1.8 -11.4,4.44 h -1.68 l -14.399,-6.36 z m -10.74,-15.447 v 0.735 l -4.093,4.88 h -0.734 c -1.26,-1.259 -3.726,-3.096 -6.612,-3.096 -1.732,0 -2.886,0.682 -2.886,1.837 0,1.574 2.046,2.309 4.04,2.938 5.037,1.574 10.705,3.201 10.705,9.918 0,5.09 -3.516,8.029 -8.186,8.973 v 3.883 h -7.399 v -3.726 c -4.04,-0.682 -7.451,-2.519 -9.498,-4.88 v -0.735 l 3.988,-4.933 h 0.735 c 1.679,1.574 4.985,3.411 7.766,3.411 2.099,0 3.516,-0.735 3.516,-1.994 0,-1.732 -1.942,-1.889 -4.88,-2.729 -4.46,-1.312 -9.813,-3.883 -9.813,-9.76 0,-4.408 3.253,-7.766 8.186,-8.815 v -3.831 h 7.399 v 3.883 c 3.305,0.682 6.139,2.152 7.766,4.041 z m -43.289,-49.889 c 0,-2.209 1.791,-4 4,-4 h 26 c 2.209,0 4,1.791 4,4 0,2.209 -1.791,4 -4,4 h -26 c -2.208,0 -4,-1.791 -4,-4 z M 652,706.625 c -3.223,0 -3.217,-5 0,-5 3.223,0 3.217,5 0,5 z m -1.5,11.5 c -3.223,0 -3.217,-5 0,-5 3.223,0 3.217,5 0,5 z m -8.5,-7.5 c -3.223,0 -3.217,-5 0,-5 3.223,0 3.217,5 0,5 z m 117.656,35.268 -56.979,51.315 c -0.761,0.685 -1.719,1.027 -2.677,1.027 -0.958,0 -1.916,-0.343 -2.677,-1.027 l -56.979,-51.315 c -1.642,-1.479 -1.774,-4.008 -0.295,-5.649 1.477,-1.643 4.007,-1.774 5.649,-0.296 L 700,788.853 754.303,739.948 c 1.641,-1.479 4.17,-1.347 5.649,0.296 1.478,1.641 1.346,4.17 -0.296,5.649 z m -5.823,-139.601 c -3.223,0 -3.217,-5 0,-5 3.223,0 3.218,5 0,5 z m 3.667,5 c 3.223,0 3.217,5 0,5 -3.223,0 -3.217,-5 0,-5 z m 8.667,-8.667 c 3.223,0 3.217,5 0,5 -3.223,0 -3.218,-5 0,-5 z m -32,-20.25 h 26 c 2.209,0 4,1.791 4,4 0,2.209 -1.791,4 -4,4 h -26 c -2.209,0 -4,-1.791 -4,-4 0,-2.209 1.791,-4 4,-4 z m -10.63,24.766 c 1.367,0.192 2.32,1.456 2.128,2.823 -0.796,5.667 -3.83,10.95 -8.322,14.496 -0.459,0.361 -1.005,0.537 -1.547,0.537 -0.739,0 -1.471,-0.326 -1.965,-0.951 -0.854,-1.084 -0.67,-2.656 0.414,-3.512 3.492,-2.755 5.85,-6.861 6.469,-11.266 0.192,-1.368 1.448,-2.322 2.823,-2.127 z"
   id="path24177" />
	<path
   display="inline"
   fill="#f09b36"
   d="m 702.043,166.164 c 0,-1.125 -0.914,-2.039 -2.039,-2.039 -1.125,0 -2.039,0.915 -2.039,2.039 v 7.844 l 4.078,4.078 z"
   id="path24179" />
	<polygon
   display="inline"
   fill="#f09b36"
   points="697.965,188.133 702.043,192.21 702.043,183.741 697.965,179.664 "
   id="polygon24181" />
	<polygon
   display="inline"
   fill="#f09b36"
   points="381.255,544.546 385.333,548.625 385.333,540.156 381.255,536.078 "
   id="polygon24183" />
	<polygon
   display="inline"
   fill="#f09b36"
   points="381.255,558.671 385.333,562.75 385.333,554.281 381.255,550.203 "
   id="polygon24185" />
	<path
   display="inline"
   fill="#f09b36"
   d="m 385.333,523.783 c 0,-1.124 -0.915,-2.039 -2.039,-2.039 -1.124,0 -2.039,0.915 -2.039,2.039 v 6.638 l 4.078,4.078 z"
   id="path24187" />
	<path
   display="inline"
   fill="#f09b36"
   d="m 1018.043,523.783 c 0,-1.124 -0.914,-2.039 -2.038,-2.039 -1.124,0 -2.039,0.915 -2.039,2.039 v 6.639 l 4.077,4.077 z"
   id="path24189" />
	<path
   display="inline"
   fill="#31b78d"
   d="m 770.67,221.12 h -58.63 v 11.33 c 3.31,3.21 5.21,7.61 5.21,12.34 0,9.52 -7.74,17.25 -17.25,17.25 -9.51,0 -17.25,-7.73 -17.25,-17.25 0,-4.73 1.91,-9.14 5.22,-12.35 v -11.32 h -58.64 c -3.49,0 -6.33,2.84 -6.33,6.34 v 182.92 c 0,6.82 1.35,13.33 3.8,19.27 7.61,18.45 25.79,31.47 46.95,31.47 h 52.5 c 27.98,0 50.75,-22.76 50.75,-50.74 V 227.46 c 0,-3.5 -2.84,-6.34 -6.33,-6.34 z m -43.88,8.44 h 30 c 2.21,0 4,1.8 4,4 0,2.21 -1.79,4 -4,4 h -30 c -2.21,0 -4,-1.79 -4,-4 0,-2.2 1.79,-4 4,-4 z m -7.12,69.67 4.33,-11.33 c 0.49,-1.29 1.93,-1.94 3.23,-1.44 1.29,0.49 1.93,1.93 1.44,3.22 l -4.34,11.34 c -0.38,0.99 -1.32,1.61 -2.33,1.61 -0.3,0 -0.6,-0.06 -0.89,-0.17 -1.29,-0.49 -1.94,-1.94 -1.44,-3.23 z m -76.46,-69.67 h 30 c 2.21,0 4,1.8 4,4 0,2.21 -1.79,4 -4,4 h -30 c -2.21,0 -4,-1.79 -4,-4 0,-2.2 1.79,-4 4,-4 z m 8.79,94.57 v -0.74 l 3.99,-4.93 h 0.73 c 1.68,1.57 4.99,3.41 7.77,3.41 2.1,0 3.51,-0.74 3.51,-2 0,-1.73 -1.94,-1.88 -4.88,-2.72 -4.46,-1.32 -9.81,-3.89 -9.81,-9.76 0,-4.41 3.26,-7.77 8.19,-8.82 v -3.83 h 7.4 v 3.88 c 3.3,0.69 6.14,2.15 7.76,4.04 v 0.74 l -4.09,4.88 h -0.73 c -1.26,-1.26 -3.73,-3.1 -6.62,-3.1 -1.73,0 -2.88,0.68 -2.88,1.84 0,1.57 2.04,2.31 4.04,2.94 5.04,1.57 10.7,3.2 10.7,9.91 0,5.09 -3.51,8.03 -8.18,8.98 v 3.88 h -7.4 v -3.72 c -4.04,-0.69 -7.45,-2.52 -9.5,-4.88 z m -2,82.99 c -1.57,0 -2.38,-1.18 -2.42,-2.4 -0.04,-1.21 0.68,-2.46 2.16,-2.59 0.08,-0.01 0.17,-0.01 0.26,-0.01 3.22,0 3.22,5 0,5 z m 3.01,-8.92 c -0.21,0.06 -0.43,0.09 -0.68,0.09 -3.22,0 -3.21,-5 0,-5 1.77,0 2.57,1.5 2.39,2.86 -0.11,0.93 -0.68,1.79 -1.71,2.05 z m 4.66,0.42 c 3.22,0 3.21,5 0,5 -3.23,0 -3.22,-5 0,-5 z m 14.45,51 h -9 c -2.2,0 -4,-1.79 -4,-4 0,-2.2 1.8,-4 4,-4 h 9 c 2.21,0 4,1.8 4,4 0,2.21 -1.79,4 -4,4 z m 64.76,0 h -44.76 c -2.2,0 -4,-1.79 -4,-4 0,-2.2 1.8,-4 4,-4 h 44.76 c 2.2,0 4,1.8 4,4 0,2.21 -1.8,4 -4,4 z m 14.79,-139.33 c -1.01,0 -1.97,-0.62 -2.34,-1.62 -0.49,-1.29 0.17,-2.73 1.46,-3.22 l 8,-3 c 1.29,-0.48 2.73,0.17 3.22,1.46 0.48,1.3 -0.17,2.74 -1.47,3.22 l -8,3 c -0.28,0.11 -0.58,0.16 -0.87,0.16 z m -12.41,-7.57 c -0.49,0.59 -1.21,0.9 -1.93,0.9 -0.56,0 -1.12,-0.18 -1.59,-0.57 -1.06,-0.88 -1.21,-2.45 -0.34,-3.52 l 11,-13.33 c 0.88,-1.07 2.46,-1.22 3.52,-0.34 1.07,0.88 1.22,2.46 0.34,3.52 z m 22.41,20.24 h -6 c -1.38,0 -2.5,-1.12 -2.5,-2.5 0,-1.38 1.12,-2.5 2.5,-2.5 h 6 c 1.38,0 2.5,1.12 2.5,2.5 0,1.38 -1.12,2.5 -2.5,2.5 z m -24.47,-4.85 v 18.6 h -34.56 l -0.41,2.46 -1.15,6.78 c 3.36,-0.96 7.2,-1.56 11.64,-1.56 17.88,0 30.36,10.92 30.36,27.96 0,17.4 -13.44,29.16 -33.72,29.16 -13.32,0 -26.28,-5.52 -32.28,-13.68 v -1.68 l 11.04,-11.4 h 1.68 c 4.56,5.16 11.76,8.64 17.88,8.64 7.08,0 11.88,-4.32 11.88,-10.68 0,-6.48 -4.8,-10.68 -11.88,-10.68 -4.44,0 -8.88,1.8 -11.4,4.44 h -1.68 l -11.06,-4.89 -3.34,-1.47 7.2,-42 z"
   id="path24191" />
	<polygon
   display="inline"
   fill="#f09b36"
   points="1013.966,544.547 1018.043,548.624 1018.043,540.155 1013.966,536.078 "
   id="polygon24193" />
	<path
   display="inline"
   fill="#f09b36"
   d="m 700.004,239.792 c 1.125,0 2.039,-0.915 2.039,-2.039 v -11.637 l -4.078,-4.078 v 15.715 c 0,1.125 0.915,2.039 2.039,2.039 z"
   id="path24195" />
	<polygon
   display="inline"
   fill="#f09b36"
   points="697.965,216.383 702.043,220.46 702.043,211.991 697.965,207.914 "
   id="polygon24197" />
	<polygon
   display="inline"
   fill="#f09b36"
   points="697.965,202.258 702.043,206.335 702.043,197.866 697.965,193.789 "
   id="polygon24199" />
	<polygon
   display="inline"
   fill="#f09b36"
   points="697.965,572.796 702.043,576.874 702.043,568.405 697.965,564.328 "
   id="polygon24201" />
	<path
   display="inline"
   fill="#f09b36"
   d="m 702.043,523.783 c 0,-1.124 -0.914,-2.039 -2.039,-2.039 -1.125,0 -2.039,0.915 -2.039,2.039 v 6.638 l 4.078,4.078 z"
   id="path24203" />
	<polygon
   display="inline"
   fill="#f09b36"
   points="697.965,544.546 702.043,548.624 702.043,540.155 697.965,536.078 "
   id="polygon24205" />
	<polygon
   display="inline"
   fill="#f09b36"
   points="697.965,558.671 702.043,562.749 702.043,554.28 697.965,550.203 "
   id="polygon24207" />
	<path
   display="inline"
   fill="#31b78d"
   d="m 440,221.125 h -44.667 v 11.327 c 3.305,3.207 5.207,7.612 5.207,12.343 0,9.512 -7.738,17.25 -17.25,17.25 -9.512,0 -17.25,-7.738 -17.25,-17.25 0,-4.733 1.905,-9.142 5.215,-12.353 V 221.125 H 328 c -11.58,0 -21,9.42 -21,21 v 198 c 0,11.58 9.42,21 21,21 h 112 c 11.58,0 21,-9.42 21,-21 v -198 c 0,-11.58 -9.42,-21 -21,-21 z m -29.92,8.44 h 30 c 2.209,0 4,1.791 4,4 0,2.209 -1.791,4 -4,4 h -30 c -2.209,0 -4,-1.791 -4,-4 0,-2.209 1.791,-4 4,-4 z m 30.587,22.393 c -3.223,0 -3.217,-5 0,-5 3.222,0 3.217,5 0,5 z m -6.334,6.667 c -3.223,0 -3.217,-5 0,-5 3.223,0 3.218,5 0,5 z m -62.138,59.485 h 49.8 v 18.599 h -34.56 l -1.56,9.241 c 3.36,-0.961 7.2,-1.561 11.64,-1.561 17.88,0 30.36,10.921 30.36,27.96 0,17.4 -13.44,29.16 -33.719,29.16 -13.32,0 -26.281,-5.521 -32.281,-13.68 v -1.68 l 11.041,-11.401 h 1.68 c 4.559,5.161 11.76,8.641 17.879,8.641 7.081,0 11.88,-4.32 11.88,-10.679 0,-6.48 -4.799,-10.681 -11.88,-10.681 -4.439,0 -8.879,1.8 -11.4,4.44 h -1.68 l -14.399,-6.36 z m -10.74,-15.446 v 0.735 l -4.093,4.88 h -0.734 c -1.26,-1.259 -3.726,-3.096 -6.612,-3.096 -1.732,0 -2.886,0.682 -2.886,1.837 0,1.574 2.046,2.309 4.04,2.938 5.037,1.574 10.705,3.201 10.705,9.918 0,5.09 -3.516,8.029 -8.186,8.973 v 3.883 h -7.399 v -3.726 c -4.04,-0.682 -7.451,-2.519 -9.498,-4.88 v -0.735 l 3.988,-4.933 h 0.735 c 1.679,1.574 4.985,3.411 7.766,3.411 2.099,0 3.516,-0.735 3.516,-1.994 0,-1.732 -1.942,-1.889 -4.88,-2.729 -4.46,-1.312 -9.813,-3.883 -9.813,-9.76 0,-4.408 3.253,-7.766 8.186,-8.815 v -3.831 h 7.399 v 3.883 c 3.306,0.682 6.139,2.151 7.766,4.041 z M 341,411.958 c -3.223,0 -3.217,-5 0,-5 3.223,0 3.217,5 0,5 z M 326.5,229.565 h 30 c 2.209,0 4,1.791 4,4 0,2.209 -1.791,4 -4,4 h -30 c -2.209,0 -4,-1.791 -4,-4 0,-2.209 1.791,-4 4,-4 z m 6.833,174.393 c -3.223,0 -3.217,-5 0,-5 3.223,0 3.218,5 0,5 z M 332,414.625 c -3.223,0 -3.217,-5 0,-5 3.223,0 3.217,5 0,5 z m 108.79,27.58 H 327.21 c -2.209,0 -4,-1.791 -4,-4 0,-2.209 1.791,-4 4,-4 h 113.58 c 2.209,0 4,1.791 4,4 0,2.209 -1.791,4 -4,4 z m 2.877,-180.913 c -3.223,0 -3.217,-5 0,-5 3.222,0 3.217,5 0,5 z"
   id="path24209" />
	<path
   display="inline"
   fill="#f09b36"
   d="m 383.294,239.792 c 1.125,0 2.039,-0.915 2.039,-2.039 v -12.842 l -4.078,-4.078 v 16.92 c 0,1.125 0.915,2.039 2.039,2.039 z"
   id="path24211" />
	<polygon
   display="inline"
   fill="#f09b36"
   points="381.255,215.177 385.333,219.255 385.333,210.787 381.255,206.708 "
   id="polygon24213" />
	<polygon
   display="inline"
   fill="#f09b36"
   points="1013.966,558.672 1018.043,562.749 1018.043,554.28 1013.966,550.203 "
   id="polygon24215" />
	<polygon
   display="inline"
   fill="#f09b36"
   points="381.255,186.927 385.333,191.005 385.333,182.537 381.255,178.458 "
   id="polygon24217" />
	<path
   display="inline"
   fill="#f09b36"
   d="m 700.004,597.412 c 1.125,0 2.039,-0.915 2.039,-2.039 V 582.53 l -4.078,-4.078 v 16.92 c 0,1.125 0.915,2.04 2.039,2.04 z"
   id="path24219" />
	<path
   display="inline"
   fill="#f09b36"
   d="m 383.294,597.412 c 1.125,0 2.039,-0.915 2.039,-2.039 v -12.842 l -4.078,-4.078 v 16.92 c 0,1.124 0.915,2.039 2.039,2.039 z"
   id="path24221" />
	<path
   display="inline"
   fill="#31b78d"
   d="m 395.333,574.875 v 15.196 c 3.305,3.207 5.207,7.612 5.207,12.343 0,9.512 -7.738,17.25 -17.25,17.25 -9.512,0 -17.25,-7.738 -17.25,-17.25 0,-4.733 1.905,-9.142 5.215,-12.352 V 574.875 H 339.04 L 307,627.479 V 814.875 H 461 V 627.479 l -32.041,-52.604 z m 24.881,11.5 c 2.969,0 5.375,2.406 5.375,5.375 0,2.969 -2.406,5.375 -5.375,5.375 -2.969,0 -5.375,-2.406 -5.375,-5.375 0,-2.969 2.406,-5.375 5.375,-5.375 z m -2.928,69.406 2.479,-3.765 1.481,4.258 4.347,1.194 -3.592,2.724 0.208,4.503 -3.701,-2.574 -4.218,1.589 1.304,-4.315 -2.815,-3.521 z m 4.709,25.944 v 18.599 h -34.56 l -1.56,9.241 c 3.36,-0.961 7.2,-1.561 11.64,-1.561 17.88,0 30.36,10.921 30.36,27.96 0,17.4 -13.44,29.16 -33.719,29.16 -13.32,0 -26.281,-5.521 -32.281,-13.68 v -1.68 l 11.041,-11.401 h 1.68 c 4.559,5.161 11.76,8.641 17.879,8.641 7.081,0 11.88,-4.32 11.88,-10.679 0,-6.48 -4.799,-10.681 -11.88,-10.681 -4.439,0 -8.879,1.8 -11.4,4.44 h -1.68 l -14.399,-6.36 7.2,-42 h 49.799 z m -61.364,-66.838 c 1.258,-0.566 2.739,-0.01 3.308,1.248 1.433,3.168 4.727,5.433 8.198,5.634 1.378,0.08 2.431,1.263 2.351,2.642 -0.077,1.328 -1.179,2.354 -2.493,2.354 -0.049,0 -0.098,-10e-4 -0.147,-0.004 -5.277,-0.307 -10.286,-3.749 -12.464,-8.565 -0.57,-1.259 -0.011,-2.74 1.247,-3.309 z m -14.256,-28.512 c 2.969,0 5.375,2.406 5.375,5.375 0,2.969 -2.406,5.375 -5.375,5.375 -2.969,0 -5.375,-2.406 -5.375,-5.375 0,-2.969 2.406,-5.375 5.375,-5.375 z m -9.583,100.63 3.988,-4.932 h 0.735 c 1.679,1.574 4.985,3.411 7.766,3.411 2.099,0 3.516,-0.735 3.516,-1.994 0,-1.732 -1.942,-1.889 -4.88,-2.729 -4.46,-1.312 -9.813,-3.883 -9.813,-9.76 0,-4.408 3.253,-7.766 8.186,-8.815 v -3.831 h 7.399 v 3.883 c 3.306,0.682 6.14,2.151 7.766,4.04 v 0.735 l -4.093,4.88 h -0.734 c -1.26,-1.259 -3.726,-3.096 -6.612,-3.096 -1.732,0 -2.886,0.682 -2.886,1.837 0,1.574 2.046,2.309 4.04,2.938 5.037,1.574 10.705,3.201 10.705,9.918 0,5.09 -3.516,8.029 -8.186,8.973 v 3.883 h -7.399 v -3.726 c -4.04,-0.682 -7.451,-2.519 -9.498,-4.88 z m 4.783,66.612 4.166,0.82 3.038,-2.967 0.507,4.216 3.76,1.972 -3.853,1.785 -0.714,4.186 -2.888,-3.112 -4.201,0.615 2.068,-3.709 z m -1.566,18.389 1.567,-3.428 1.768,3.329 3.745,0.431 -2.62,2.71 0.747,3.695 -3.387,-1.654 -3.283,1.852 0.527,-3.732 -2.776,-2.55 z m -13.225,-15.865 3.141,2.085 3.498,-1.405 -1.012,3.631 2.417,2.892 -3.766,0.16 -2.004,3.193 -1.316,-3.532 -3.656,-0.919 2.953,-2.343 z M 440.79,803.215 H 327.21 c -2.209,0 -4,-1.791 -4,-4 0,-2.209 1.791,-4 4,-4 h 113.58 c 2.209,0 4,1.791 4,4 0,2.209 -1.791,4 -4,4 z m 2.981,-145.269 -0.727,4.449 3.253,3.121 -4.456,0.683 -1.963,4.058 -2.027,-4.026 -4.466,-0.613 3.203,-3.172 -0.797,-4.437 4.006,2.066 z m -12.564,-21.655 3.372,3.796 5.039,-0.626 -2.568,4.38 2.152,4.599 -4.959,-1.089 -3.709,3.468 -0.497,-5.053 -4.444,-2.456 4.653,-2.034 z"
   id="path24223" />
	<path
   display="inline"
   fill="#f09b36"
   d="m 385.333,166.164 c 0,-1.125 -0.915,-2.039 -2.039,-2.039 -1.124,0 -2.039,0.915 -2.039,2.039 v 6.638 l 4.078,4.078 z"
   id="path24225" />
	<polygon
   display="inline"
   fill="#f09b36"
   points="381.255,572.796 385.333,576.875 385.333,568.406 381.255,564.328 "
   id="polygon24227" />
	<path
   display="inline"
   fill="#f09b36"
   d="m 1018.046,166.164 c 0,-1.125 -0.915,-2.039 -2.039,-2.039 -1.124,0 -2.039,0.915 -2.039,2.039 v 7.851 l 4.078,4.078 z"
   id="path24229" />
	<polygon
   display="inline"
   fill="#f09b36"
   points="1013.966,572.797 1018.043,576.874 1018.043,568.405 1013.966,564.328 "
   id="polygon24231" />
	<path
   display="inline"
   fill="#f09b36"
   d="m 1016.007,239.792 c 1.124,0 2.039,-0.915 2.039,-2.039 v -11.629 l -4.078,-4.078 v 15.708 c 0,1.124 0.915,2.038 2.039,2.038 z"
   id="path24233" />
	<polygon
   display="inline"
   fill="#f09b36"
   points="1013.968,216.39 1018.046,220.468 1018.046,211.999 1013.968,207.921 "
   id="polygon24235" />
	<polygon
   display="inline"
   fill="#f09b36"
   points="381.255,201.052 385.333,205.13 385.333,196.662 381.255,192.583 "
   id="polygon24237" />
	<polygon
   display="inline"
   fill="#f09b36"
   points="1013.968,188.14 1018.046,192.218 1018.046,183.749 1013.968,179.671 "
   id="polygon24239" />
	<polygon
   display="inline"
   fill="#f09b36"
   points="1013.968,202.265 1018.046,206.343 1018.046,197.874 1013.968,193.796 "
   id="polygon24241" />
	<path
   display="inline"
   fill="#31b78d"
   d="m 1028.043,590.071 c 3.305,3.207 5.207,7.613 5.207,12.343 0,9.512 -7.738,17.25 -17.25,17.25 -9.512,0 -17.25,-7.738 -17.25,-17.25 0,-4.733 1.905,-9.143 5.216,-12.353 V 575.014 L 939,625.436 V 812.91 h 154 V 625.436 l -64.957,-50.414 z M 957.25,778.94 c 0,1.657 -1.343,3 -3,3 -1.657,0 -3,-1.343 -3,-3 V 647.336 c 0,-1.657 1.343,-3 3,-3 1.657,0 3,1.343 3,3 z m 16.271,-159.777 2.651,-5.371 2.651,5.371 5.928,0.861 -4.289,4.181 1.013,5.904 -5.302,-2.787 -5.302,2.787 1.013,-5.904 -4.289,-4.181 z m 11.626,81.371 v 3.883 h -7.399 v -3.726 c -4.04,-0.682 -7.451,-2.519 -9.498,-4.88 v -0.735 l 3.988,-4.932 h 0.735 c 1.679,1.574 4.985,3.411 7.766,3.411 2.099,0 3.516,-0.735 3.516,-1.994 0,-1.732 -1.942,-1.889 -4.88,-2.729 -4.461,-1.312 -9.813,-3.883 -9.813,-9.76 0,-4.408 3.253,-7.766 8.186,-8.815 v -3.831 h 7.399 v 3.883 c 3.306,0.682 6.14,2.151 7.766,4.04 v 0.735 l -4.093,4.88 h -0.734 c -1.26,-1.259 -3.726,-3.096 -6.612,-3.096 -1.732,0 -2.886,0.682 -2.886,1.837 0,1.574 2.046,2.309 4.04,2.938 5.037,1.574 10.705,3.201 10.705,9.918 0,5.089 -3.516,8.028 -8.186,8.973 z m 40.466,72.662 c -13.32,0 -26.281,-5.521 -32.281,-13.68 v -1.68 l 11.041,-11.401 h 1.68 c 4.559,5.161 11.76,8.641 17.879,8.641 7.081,0 11.88,-4.32 11.88,-10.679 0,-6.48 -4.799,-10.681 -11.88,-10.681 -4.439,0 -8.879,1.8 -11.4,4.44 h -1.68 l -14.399,-6.36 7.2,-42 h 49.8 v 18.599 h -34.56 l -1.56,9.241 c 3.36,-0.961 7.2,-1.561 11.64,-1.561 17.88,0 30.359,10.921 30.359,27.96 10e-4,17.401 -13.439,29.161 -33.719,29.161 z m 49.137,-125.86 c 0,-1.657 1.343,-3 3,-3 1.657,0 3,1.343 3,3 V 778.94 c 0,1.657 -1.343,3 -3,3 -1.657,0 -3,-1.343 -3,-3 z m -21.572,-28.173 2.651,-5.371 2.651,5.371 5.928,0.861 -4.289,4.181 1.012,5.904 -5.302,-2.787 -5.302,2.787 1.013,-5.904 -4.289,-4.181 z"
   id="path24243" />
	<path
   display="inline"
   fill="#31b78d"
   d="m 1070.45,243.68 c -11.53,-11.53 -26.43,-19.07 -42.4,-21.59 v 10.36 c 3.3,3.21 5.2,7.61 5.2,12.34 0,9.52 -7.74,17.25 -17.25,17.25 -9.51,0 -17.25,-7.73 -17.25,-17.25 0,-4.73 1.91,-9.14 5.22,-12.35 V 222.09 C 967.12,227.91 939,260.28 939,298.12 v 163 h 154 v -163 c 0,-20.56 -8.01,-39.9 -22.55,-54.44 z m -15.19,2.86 c 2.35,0 4.25,1.9 4.25,4.25 0,2.35 -1.9,4.25 -4.25,4.25 -2.35,0 -4.25,-1.9 -4.25,-4.25 0,-2.35 1.9,-4.25 4.25,-4.25 z m -14.34,-9.58 c 3.22,0 3.22,5 0,5 -3.22,0 -3.22,-5 0,-5 z m -3,64.66 h 13.09 c 1.38,0 2.5,1.12 2.5,2.5 0,1.39 -1.12,2.5 -2.5,2.5 h -13.09 c -1.38,0 -2.5,-1.11 -2.5,-2.5 0,-1.38 1.12,-2.5 2.5,-2.5 z m -32.63,-33.85 c 0.45,-1.31 1.87,-2.01 3.18,-1.56 7.42,2.53 16.41,0.36 21.86,-5.29 0.96,-0.99 2.54,-1.02 3.54,-0.06 0.99,0.96 1.02,2.54 0.06,3.54 -4.92,5.09 -11.9,7.88 -18.9,7.88 -2.77,0 -5.53,-0.44 -8.18,-1.34 -1.3,-0.44 -2,-1.86 -1.56,-3.17 z m 1.13,33.85 h 16.5 c 1.38,0 2.5,1.12 2.5,2.5 0,1.39 -1.12,2.5 -2.5,2.5 h -16.5 c -1.38,0 -2.5,-1.11 -2.5,-2.5 0,-1.38 1.12,-2.5 2.5,-2.5 z m -29.67,-55.08 c 2.35,0 4.25,1.9 4.25,4.25 0,2.35 -1.9,4.25 -4.25,4.25 -2.34,0 -4.25,-1.9 -4.25,-4.25 0,-2.35 1.91,-4.25 4.25,-4.25 z m -11.91,76.85 3.99,-4.93 h 0.73 c 1.68,1.57 4.99,3.41 7.77,3.41 2.1,0 3.51,-0.74 3.51,-2 0,-1.73 -1.94,-1.88 -4.88,-2.72 -4.46,-1.32 -9.81,-3.89 -9.81,-9.76 0,-4.41 3.26,-7.77 8.19,-8.82 v -3.83 h 7.4 v 3.88 c 3.3,0.69 6.14,2.15 7.76,4.04 v 0.74 l -4.09,4.88 h -0.73 c -1.26,-1.26 -3.73,-3.1 -6.62,-3.1 -1.73,0 -2.88,0.68 -2.88,1.84 0,1.57 2.04,2.31 4.04,2.94 5.04,1.57 10.7,3.2 10.7,9.91 0,5.09 -3.51,8.03 -8.18,8.98 v 3.88 h -7.4 v -3.72 c -4.04,-0.69 -7.45,-2.52 -9.5,-4.88 z m 9.75,91.9 c -3.23,0 -3.22,-5 0,-5 3.22,0 3.21,5 0,5 z m -9.67,-4.67 c -3.22,0 -3.22,-5 0,-5 3.22,0 3.22,5 0,5 z m -0.33,10.67 c -3.23,0 -3.22,-5 0,-5 3.22,0 3.21,5 0,5 z m 108.2,20.92 H 959.21 c -2.21,0 -4,-1.8 -4,-4 0,-2.21 1.79,-4 4,-4 h 113.58 c 2.21,0 4,1.79 4,4 0,2.2 -1.79,4 -4,4 z m 0.46,-64.25 c 3.23,0 3.22,5 0,5 -3.22,0 -3.21,-5 0,-5 z m -47.69,-33.57 c 17.88,0 30.36,10.92 30.36,27.96 0,17.4 -13.44,29.16 -33.72,29.16 -13.32,0 -26.28,-5.52 -32.28,-13.68 v -1.68 l 11.04,-11.4 h 1.68 c 4.56,5.16 11.76,8.64 17.88,8.64 7.08,0 11.88,-4.32 11.88,-10.68 0,-6.48 -4.8,-10.68 -11.88,-10.68 -4.44,0 -8.88,1.8 -11.4,4.44 h -1.68 l -14.4,-6.36 3.84,-22.41 3.36,-19.59 h 49.8 v 18.6 h -34.56 l -1.56,9.24 c 3.36,-0.96 7.2,-1.56 11.64,-1.56 z"
   id="path24245" />
	<path
   display="inline"
   fill="#f09b36"
   d="m 1016.005,597.412 c 1.124,0 2.038,-0.915 2.038,-2.039 V 582.53 l -4.077,-4.077 v 16.92 c 0,1.124 0.915,2.039 2.039,2.039 z"
   id="path24247" />
</g>
<g
   id="Layer_4"
   display="none">
	<rect
   x="299"
   y="287.95801"
   display="inline"
   fill="#f4bb3a"
   width="167"
   height="126.667"
   id="rect24250" />
	<path
   display="inline"
   fill="#f4bb3a"
   d="m 777,249.46 v 160.92 c 0,27.98 -22.77,50.74 -50.75,50.74 h -52.5 c -21.16,0 -39.34,-13.02 -46.95,-31.47 l 20.78,-24.93 2.16,-2.59 3.27,-3.93 1.71,-2.05 28.82,-34.57 18.69,-22.41 2.04,-2.46 15.51,-18.6 z"
   id="path24252" />
	<path
   display="inline"
   fill="#f4bb3a"
   d="m 1093,366.2 v 94.92 H 939 V 366.2 c 15.8,-14.59 35.75,-24.75 57.88,-28.5 6.22,-1.06 12.6,-1.61 19.12,-1.61 4.01,0 7.97,0.21 11.88,0.62 25.01,2.6 47.62,13.32 65.12,29.49 z"
   id="path24254" />
	<polyline
   display="inline"
   fill="#f4bb3a"
   points="307,814.875 383.29,619.664 461,814.875  "
   id="polyline24256" />
	<polygon
   display="inline"
   fill="#f4bb3a"
   points="640.048,740.243 700,795.215 759.952,740.243 759.952,644.336 700,644.336 640.048,644.336 "
   id="polygon24258" />
	<rect
   x="939"
   y="693.41101"
   display="inline"
   fill="#f4bb3a"
   width="154"
   height="119.499"
   id="rect24260" />
	<rect
   x="952.75"
   y="647.336"
   display="inline"
   fill="#f4bb3a"
   width="30.999001"
   height="30.999001"
   id="rect24262" />
	<g
   display="inline"
   id="g24268">
		<g
   id="g24266">
			<path
   fill="#ffffff"
   d="m 319,261 c 0,26.833 0,53.667 0,80.5 0,3.861 6,3.867 6,0 0,-26.833 0,-53.667 0,-80.5 0,-3.861 -6,-3.867 -6,0 z"
   id="path24264" />
		</g>
	</g>
	<g
   display="inline"
   id="g24274">
		<g
   id="g24272">
			<path
   fill="#ffffff"
   d="m 323,358 c 3.861,0 3.867,-6 0,-6 -3.861,0 -3.867,6 0,6 z"
   id="path24270" />
		</g>
	</g>
	<g
   display="inline"
   id="g24280">
		<g
   id="g24278">
			<path
   fill="#ffffff"
   d="m 390,426.5 c 7.5,0 15,0 22.5,0 3.861,0 3.867,-6 0,-6 -7.5,0 -15,0 -22.5,0 -3.861,0 -3.867,6 0,6 z"
   id="path24276" />
		</g>
	</g>
	<g
   display="inline"
   id="g24286">
		<g
   id="g24284">
			<path
   fill="#ffffff"
   d="m 634,261 c 0,24.222 0,48.444 0,72.667 0,3.861 6,3.867 6,0 0,-24.222 0,-48.444 0,-72.667 0,-3.861 -6,-3.867 -6,0 z"
   id="path24282" />
		</g>
	</g>
	<g
   display="inline"
   id="g24292">
		<g
   id="g24290">
			<path
   fill="#ffffff"
   d="m 639,354.667 c 3.861,0 3.867,-6 0,-6 -3.861,0 -3.867,6 0,6 z"
   id="path24288" />
		</g>
	</g>
	<g
   display="inline"
   id="g24298">
		<g
   id="g24296">
			<path
   fill="#ffffff"
   d="m 639,368.667 c 3.861,0 3.867,-6 0,-6 -3.861,0 -3.867,6 0,6 z"
   id="path24294" />
		</g>
	</g>
	<g
   display="inline"
   id="g24304">
		<g
   id="g24302">
			<path
   fill="#ffffff"
   d="m 635.333,385 c 0,7.111 0,14.222 0,21.333 0,3.861 6,3.867 6,0 0,-7.111 0,-14.222 0,-21.333 0,-3.861 -6,-3.867 -6,0 z"
   id="path24300" />
		</g>
	</g>
	<g
   display="inline"
   id="g24310">
		<g
   id="g24308">
			<path
   fill="#ffffff"
   d="m 743,255.333 c 2.667,0 5.333,0 8,0 3.861,0 3.867,-6 0,-6 -2.667,0 -5.333,0 -8,0 -3.861,0 -3.867,6 0,6 z"
   id="path24306" />
		</g>
	</g>
	<g
   display="inline"
   id="g24316">
		<g
   id="g24314">
			<path
   fill="#ffffff"
   d="m 950,295 c 0,30 0,60 0,90 0,3.861 6,3.867 6,0 0,-30 0,-60 0,-90 0,-3.861 -6,-3.867 -6,0 z"
   id="path24312" />
		</g>
	</g>
	<g
   display="inline"
   id="g24322">
		<g
   id="g24320">
			<path
   fill="#ffffff"
   d="m 949.333,403 c 0,2.222 0,4.444 0,6.667 0,3.861 6,3.867 6,0 0,-2.222 0,-4.444 0,-6.667 0,-3.861 -6,-3.867 -6,0 z"
   id="path24318" />
		</g>
	</g>
	<g
   display="inline"
   id="g24328">
		<g
   id="g24326">
			<path
   fill="#ffffff"
   d="m 1063,279.333 c 2.444,0 4.889,0 7.333,0 3.861,0 3.867,-6 0,-6 -2.444,0 -4.889,0 -7.333,0 -3.861,0 -3.867,6 0,6 z"
   id="path24324" />
		</g>
	</g>
	<g
   display="inline"
   id="g24334">
		<g
   id="g24332">
			<path
   fill="#ffffff"
   d="m 968.5,270.5 c 3.861,0 3.867,-6 0,-6 -3.861,0 -3.867,6 0,6 z"
   id="path24330" />
		</g>
	</g>
	<g
   display="inline"
   id="g24340">
		<g
   id="g24338">
			<path
   fill="#ffffff"
   d="m 323.333,748.333 c 0,-25.778 0,-51.556 0,-77.333 0,-3.861 -6,-3.867 -6,0 0,25.778 0,51.556 0,77.333 0,3.861 6,3.867 6,0 z"
   id="path24336" />
		</g>
	</g>
	<g
   display="inline"
   id="g24346">
		<g
   id="g24344">
			<path
   fill="#ffffff"
   d="m 321,658 c 3.861,0 3.867,-6 0,-6 -3.861,0 -3.867,6 0,6 z"
   id="path24342" />
		</g>
	</g>
	<g
   display="inline"
   id="g24352">
		<g
   id="g24350">
			<path
   fill="#ffffff"
   d="m 320.333,644.667 c 3.861,0 3.867,-6 0,-6 -3.86,0 -3.867,6 0,6 z"
   id="path24348" />
		</g>
	</g>
	<g
   display="inline"
   id="g24358">
		<g
   id="g24356">
			<path
   fill="#ffffff"
   d="m 430.333,616.667 c 3.861,0 3.867,-6 0,-6 -3.86,0 -3.867,6 0,6 z"
   id="path24354" />
		</g>
	</g>
	<g
   display="inline"
   id="g24364">
		<g
   id="g24362">
			<path
   fill="#ffffff"
   d="m 656.879,734.455 c 10.889,10.889 21.778,21.778 32.667,32.667 2.734,2.734 6.978,-1.508 4.243,-4.243 -10.889,-10.889 -21.778,-21.778 -32.667,-32.667 -2.735,-2.734 -6.978,1.508 -4.243,4.243 z"
   id="path24360" />
		</g>
	</g>
	<g
   display="inline"
   id="g24370">
		<g
   id="g24368">
			<path
   fill="#ffffff"
   d="m 756,626.333 c 0,24.222 0,48.444 0,72.667 0,3.861 6,3.867 6,0 0,-24.222 0,-48.444 0,-72.667 0,-3.86 -6,-3.867 -6,0 z"
   id="path24366" />
		</g>
	</g>
	<g
   display="inline"
   id="g24376">
		<g
   id="g24374">
			<path
   fill="#ffffff"
   d="m 639,613.333 c 3.333,0 6.667,0 10,0 3.861,0 3.867,-6 0,-6 -3.333,0 -6.667,0 -10,0 -3.861,0 -3.867,6 0,6 z"
   id="path24372" />
		</g>
	</g>
	<g
   display="inline"
   id="g24382">
		<g
   id="g24380">
			<path
   fill="#ffffff"
   d="m 666.333,612.667 c 3.861,0 3.867,-6 0,-6 -3.86,0 -3.867,6 0,6 z"
   id="path24378" />
		</g>
	</g>
	<g
   display="inline"
   id="g24388">
		<g
   id="g24386">
			<path
   fill="#ffffff"
   d="m 1070.667,645.667 c 0,43.556 0,87.111 0,130.667 0,3.861 6,3.867 6,0 0,-43.556 0,-87.111 0,-130.667 0,-3.861 -6,-3.867 -6,0 z"
   id="path24384" />
		</g>
	</g>
	<g
   display="inline"
   id="g24394">
		<g
   id="g24392">
			<path
   fill="#ffffff"
   d="m 957.667,802 c 27.111,0 54.222,0 81.333,0 3.861,0 3.867,-6 0,-6 -27.111,0 -54.222,0 -81.333,0 -3.861,0 -3.867,6 0,6 z"
   id="path24390" />
		</g>
	</g>
	<g
   display="inline"
   id="g24400">
		<g
   id="g24398">
			<path
   fill="#ffffff"
   d="m 1054.333,802 c 3.861,0 3.867,-6 0,-6 -3.86,0 -3.867,6 0,6 z"
   id="path24396" />
		</g>
	</g>
	<g
   display="inline"
   id="g24406">
		<g
   id="g24404">
			<path
   fill="#ffffff"
   d="m 1067,802 c 3.861,0 3.867,-6 0,-6 -3.861,0 -3.867,6 0,6 z"
   id="path24402" />
		</g>
	</g>
</g>
<g
   id="Layer_1_copy"
   display="none">
	<g
   display="inline"
   id="g24555">
		<path
   fill="#190d3a"
   d="m 440,209.125 h -44.667 v -42.961 c 0,-6.638 -5.401,-12.039 -12.039,-12.039 -6.638,0 -12.039,5.401 -12.039,12.039 v 42.961 H 328 c -18.196,0 -33,14.804 -33,33 v 198 c 0,18.196 14.804,33 33,33 h 112 c 18.196,0 33,-14.804 33,-33 v -198 c 0,-18.196 -14.804,-33 -33,-33 z m -58.745,-42.961 c 0,-1.125 0.915,-2.039 2.039,-2.039 1.124,0 2.039,0.915 2.039,2.039 v 10.716 l -4.078,-4.078 z m 0,12.294 4.078,4.078 v 8.469 l -4.078,-4.078 z m 0,14.125 4.078,4.078 v 8.469 l -4.078,-4.078 z m 0,14.125 4.078,4.078 v 8.469 l -4.078,-4.078 z m 0,14.125 4.078,4.078 v 12.842 c 0,1.125 -0.915,2.039 -2.039,2.039 -1.124,0 -2.039,-0.915 -2.039,-2.039 z m 2.039,28.959 c 3.693,0 7,-1.675 9.21,-4.302 -0.358,4.776 -4.349,8.554 -9.215,8.554 -4.869,0 -8.862,-3.784 -9.215,-8.565 2.211,2.634 5.522,4.313 9.22,4.313 z M 461,440.125 c 0,11.58 -9.42,21 -21,21 H 328 c -11.58,0 -21,-9.42 -21,-21 v -198 c 0,-11.58 9.42,-21 21,-21 h 43.255 v 11.317 c -3.31,3.211 -5.215,7.62 -5.215,12.353 0,9.512 7.738,17.25 17.25,17.25 9.512,0 17.25,-7.738 17.25,-17.25 0,-4.73 -1.902,-9.135 -5.207,-12.343 V 221.125 H 440 c 11.58,0 21,9.42 21,21 z"
   id="path24409" />
		<path
   fill="#190d3a"
   d="m 326.5,237.565 h 30 c 2.209,0 4,-1.791 4,-4 0,-2.209 -1.791,-4 -4,-4 h -30 c -2.209,0 -4,1.791 -4,4 0,2.209 1.791,4 4,4 z"
   id="path24411" />
		<path
   fill="#190d3a"
   d="M 440.79,434.205 H 327.21 c -2.209,0 -4,1.791 -4,4 0,2.209 1.791,4 4,4 h 113.58 c 2.209,0 4,-1.791 4,-4 0,-2.209 -1.791,-4 -4,-4 z"
   id="path24413" />
		<path
   fill="#190d3a"
   d="m 410.08,237.565 h 30 c 2.209,0 4,-1.791 4,-4 0,-2.209 -1.791,-4 -4,-4 h -30 c -2.209,0 -4,1.791 -4,4 0,2.209 1.791,4 4,4 z"
   id="path24415" />
		<path
   fill="#190d3a"
   d="m 353.689,294.74 h -7.399 v 3.831 c -4.932,1.049 -8.186,4.407 -8.186,8.815 0,5.877 5.352,8.448 9.813,9.76 2.938,0.84 4.88,0.997 4.88,2.729 0,1.26 -1.417,1.994 -3.516,1.994 -2.781,0 -6.087,-1.837 -7.766,-3.411 h -0.735 l -3.988,4.933 v 0.735 c 2.047,2.361 5.458,4.198 9.498,4.88 v 3.726 h 7.399 v -3.883 c 4.67,-0.945 8.186,-3.883 8.186,-8.973 0,-6.717 -5.667,-8.343 -10.705,-9.918 -1.994,-0.63 -4.04,-1.364 -4.04,-2.938 0,-1.155 1.154,-1.837 2.886,-1.837 2.886,0 5.353,1.837 6.612,3.096 h 0.734 l 4.093,-4.88 v -0.735 c -1.627,-1.889 -4.461,-3.358 -7.766,-4.04 z"
   id="path24417" />
		<path
   fill="#190d3a"
   d="m 381.075,366.47 c 2.52,-2.641 6.961,-4.44 11.4,-4.44 7.081,0 11.88,4.2 11.88,10.681 0,6.359 -4.799,10.679 -11.88,10.679 -6.119,0 -13.32,-3.48 -17.879,-8.641 h -1.68 l -11.041,11.401 v 1.68 c 6,8.159 18.961,13.68 32.281,13.68 20.279,0 33.719,-11.76 33.719,-29.16 0,-17.04 -12.479,-27.96 -30.36,-27.96 -4.44,0 -8.28,0.6 -11.64,1.561 l 1.56,-9.241 h 34.56 v -18.6 h -49.8 l -7.2,42 14.399,6.36 z"
   id="path24419" />
		<path
   fill="#190d3a"
   d="m 434.333,258.625 c 3.217,0 3.223,-5 0,-5 -3.217,0 -3.222,5 0,5 z"
   id="path24421" />
		<path
   fill="#190d3a"
   d="m 440.667,246.958 c -3.217,0 -3.223,5 0,5 3.217,0 3.222,-5 0,-5 z"
   id="path24423" />
		<path
   fill="#190d3a"
   d="m 443.667,256.292 c -3.217,0 -3.223,5 0,5 3.217,0 3.222,-5 0,-5 z"
   id="path24425" />
		<path
   fill="#190d3a"
   d="m 332,414.625 c 3.217,0 3.223,-5 0,-5 -3.217,0 -3.223,5 0,5 z"
   id="path24427" />
		<path
   fill="#190d3a"
   d="m 333.333,398.958 c -3.217,0 -3.223,5 0,5 3.218,0 3.223,-5 0,-5 z"
   id="path24429" />
		<path
   fill="#190d3a"
   d="m 341,411.958 c 3.217,0 3.223,-5 0,-5 -3.217,0 -3.223,5 0,5 z"
   id="path24431" />
		<path
   fill="#190d3a"
   d="m 770.67,209.125 h -58.627 v -42.961 c 0,-6.638 -5.4,-12.039 -12.039,-12.039 -6.639,0 -12.039,5.401 -12.039,12.039 v 42.961 H 629.33 c -10.107,0 -18.33,8.223 -18.33,18.33 v 182.92 c 0,34.601 28.149,62.75 62.75,62.75 h 52.5 c 34.601,0 62.75,-28.149 62.75,-62.75 v -182.92 c 0,-10.107 -8.223,-18.33 -18.33,-18.33 z m -72.705,-42.961 c 0,-1.125 0.915,-2.039 2.039,-2.039 1.124,0 2.039,0.915 2.039,2.039 v 11.921 l -4.078,-4.078 z m 0,13.5 4.078,4.078 v 8.469 l -4.078,-4.078 z m 0,14.125 4.078,4.078 v 8.469 l -4.078,-4.078 z m 0,14.125 4.078,4.078 v 8.469 l -4.078,-4.078 z m 0,14.125 4.078,4.078 v 11.637 c 0,1.125 -0.914,2.039 -2.039,2.039 -1.125,0 -2.039,-0.915 -2.039,-2.039 z m 2.039,27.753 c 3.694,0 7,-1.675 9.21,-4.302 -0.358,4.776 -4.349,8.555 -9.215,8.555 -4.869,0 -8.862,-3.784 -9.215,-8.565 2.211,2.633 5.522,4.312 9.22,4.312 z M 777,410.375 c 0,27.983 -22.767,50.75 -50.75,50.75 h -52.5 c -27.983,0 -50.75,-22.767 -50.75,-50.75 v -182.92 c 0,-3.49 2.84,-6.33 6.33,-6.33 h 58.635 v 11.317 c -3.31,3.211 -5.215,7.619 -5.215,12.353 0,9.512 7.738,17.25 17.25,17.25 9.512,0 17.25,-7.738 17.25,-17.25 0,-4.73 -1.902,-9.135 -5.207,-12.343 v -11.327 h 58.627 c 3.49,0 6.33,2.84 6.33,6.33 z"
   id="path24433" />
		<path
   fill="#190d3a"
   d="m 677.21,233.565 c 0,-2.209 -1.791,-4 -4,-4 h -30 c -2.209,0 -4,1.791 -4,4 0,2.209 1.791,4 4,4 h 30 c 2.209,0 4,-1.791 4,-4 z"
   id="path24435" />
		<path
   fill="#190d3a"
   d="m 726.79,237.565 h 30 c 2.209,0 4,-1.791 4,-4 0,-2.209 -1.791,-4 -4,-4 h -30 c -2.209,0 -4,1.791 -4,4 0,2.209 1.791,4 4,4 z"
   id="path24437" />
		<path
   fill="#190d3a"
   d="m 668.897,332.731 v -3.883 c 4.67,-0.945 8.186,-3.883 8.186,-8.973 0,-6.717 -5.667,-8.343 -10.705,-9.918 -1.994,-0.63 -4.04,-1.364 -4.04,-2.938 0,-1.155 1.154,-1.837 2.886,-1.837 2.886,0 5.353,1.837 6.612,3.096 h 0.734 l 4.093,-4.88 v -0.735 c -1.627,-1.889 -4.461,-3.358 -7.766,-4.04 v -3.883 h -7.399 v 3.831 c -4.932,1.049 -8.186,4.407 -8.186,8.815 0,5.877 5.352,8.448 9.813,9.76 2.938,0.84 4.88,0.997 4.88,2.729 0,1.26 -1.417,1.994 -3.516,1.994 -2.781,0 -6.087,-1.837 -7.766,-3.411 h -0.735 L 652,323.391 v 0.735 c 2.047,2.361 5.458,4.198 9.498,4.88 v 3.726 h 7.399 z"
   id="path24439" />
		<path
   fill="#190d3a"
   d="m 712.723,344.39 c -4.44,0 -8.28,0.6 -11.64,1.561 l 1.56,-9.241 h 34.56 v -18.6 h -49.8 l -7.2,42 14.399,6.36 h 1.68 c 2.52,-2.641 6.961,-4.44 11.4,-4.44 7.081,0 11.88,4.2 11.88,10.681 0,6.359 -4.799,10.679 -11.88,10.679 -6.119,0 -13.32,-3.48 -17.879,-8.641 h -1.68 l -11.041,11.401 v 1.68 c 6,8.159 18.961,13.68 32.281,13.68 20.279,0 33.719,-11.76 33.719,-29.16 10e-4,-17.039 -12.479,-27.96 -30.359,-27.96 z"
   id="path24441" />
		<path
   fill="#190d3a"
   d="m 721.107,302.46 c 0.294,0.112 0.596,0.166 0.892,0.166 1.007,0 1.955,-0.612 2.336,-1.608 l 4.333,-11.333 c 0.493,-1.29 -0.152,-2.735 -1.442,-3.228 -1.295,-0.495 -2.734,0.154 -3.228,1.442 l -4.333,11.333 c -0.493,1.29 0.152,2.735 1.442,3.228 z"
   id="path24443" />
		<path
   fill="#190d3a"
   d="m 746.404,286.201 -11,13.333 c -0.878,1.065 -0.728,2.641 0.338,3.519 0.466,0.385 1.029,0.572 1.59,0.572 0.72,0 1.436,-0.31 1.93,-0.909 l 11,-13.333 c 0.878,-1.065 0.728,-2.641 -0.338,-3.519 -1.065,-0.88 -2.641,-0.729 -3.52,0.337 z"
   id="path24445" />
		<path
   fill="#190d3a"
   d="m 762.008,303.914 c -0.484,-1.293 -1.929,-1.947 -3.219,-1.463 l -8,3 c -1.293,0.485 -1.947,1.926 -1.463,3.219 0.376,1.003 1.329,1.623 2.341,1.623 0.292,0 0.589,-0.051 0.878,-0.16 l 8,-3 c 1.293,-0.486 1.947,-1.926 1.463,-3.219 z"
   id="path24447" />
		<path
   fill="#190d3a"
   d="m 761.667,317.958 h -6 c -1.381,0 -2.5,1.119 -2.5,2.5 0,1.381 1.119,2.5 2.5,2.5 h 6 c 1.381,0 2.5,-1.119 2.5,-2.5 0,-1.381 -1.119,-2.5 -2.5,-2.5 z"
   id="path24449" />
		<path
   fill="#190d3a"
   d="m 650,402.125 c -3.217,0 -3.223,5 0,5 3.217,0 3.223,-5 0,-5 z"
   id="path24451" />
		<path
   fill="#190d3a"
   d="m 652.333,393.292 c -3.217,0 -3.223,5 0,5 3.218,0 3.223,-5 0,-5 z"
   id="path24453" />
		<path
   fill="#190d3a"
   d="m 657.667,398.625 c -3.217,0 -3.223,5 0,5 3.217,0 3.222,-5 0,-5 z"
   id="path24455" />
		<path
   fill="#190d3a"
   d="m 672.125,441.625 h -9 c -2.209,0 -4,1.791 -4,4 0,2.209 1.791,4 4,4 h 9 c 2.209,0 4,-1.791 4,-4 0,-2.209 -1.791,-4 -4,-4 z"
   id="path24457" />
		<path
   fill="#190d3a"
   d="m 736.875,441.625 h -44.75 c -2.209,0 -4,1.791 -4,4 0,2.209 1.791,4 4,4 h 44.75 c 2.209,0 4,-1.791 4,-4 0,-2.209 -1.791,-4 -4,-4 z"
   id="path24459" />
		<path
   fill="#190d3a"
   d="m 1028.046,209.951 v -43.787 c 0,-6.638 -5.4,-12.039 -12.039,-12.039 -6.639,0 -12.039,5.401 -12.039,12.039 v 43.782 c -20.427,2.759 -39.231,12.517 -53.346,27.791 C 935.39,254.22 927,275.667 927,298.125 v 169 c 0,3.313 2.687,6 6,6 h 166 c 3.313,0 6,-2.687 6,-6 v -169 c 0,-23.772 -9.258,-46.123 -26.067,-62.933 -13.778,-13.777 -31.706,-22.632 -50.887,-25.241 z m -14.078,-43.787 c 0,-1.125 0.915,-2.039 2.039,-2.039 1.124,0 2.039,0.915 2.039,2.039 v 11.929 l -4.078,-4.078 z m 0,13.507 4.078,4.078 v 8.469 l -4.078,-4.078 z m 0,14.125 4.078,4.078 v 8.469 l -4.078,-4.078 z m 0,14.125 4.078,4.078 v 8.469 l -4.078,-4.078 z m 0,14.125 4.078,4.078 v 11.629 c 0,1.125 -0.915,2.039 -2.039,2.039 -1.124,0 -2.039,-0.915 -2.039,-2.039 z m 2.039,27.746 c 3.694,0 7.001,-1.675 9.211,-4.302 -0.358,4.776 -4.349,8.555 -9.215,8.555 -4.869,0 -8.862,-3.784 -9.215,-8.564 2.21,2.633 5.521,4.311 9.219,4.311 z M 1093,461.125 H 939 v -163 c 0,-37.849 28.122,-70.215 64.968,-76.035 v 10.353 c -3.31,3.21 -5.215,7.619 -5.215,12.352 0,9.512 7.738,17.25 17.25,17.25 9.512,0 17.25,-7.738 17.25,-17.25 0,-4.73 -1.902,-9.135 -5.207,-12.343 v -10.367 c 15.978,2.522 30.869,10.06 42.401,21.592 14.544,14.543 22.553,33.88 22.553,54.447 z"
   id="path24461" />
		<path
   fill="#190d3a"
   d="M 1072.79,434.205 H 959.21 c -2.209,0 -4,1.791 -4,4 0,2.209 1.791,4 4,4 h 113.58 c 2.209,0 4,-1.791 4,-4 0,-2.209 -1.791,-4 -4,-4 z"
   id="path24463" />
		<path
   fill="#190d3a"
   d="m 974.338,329.005 v 3.726 h 7.399 v -3.883 c 4.67,-0.945 8.186,-3.883 8.186,-8.973 0,-6.717 -5.667,-8.343 -10.705,-9.918 -1.994,-0.63 -4.04,-1.364 -4.04,-2.938 0,-1.155 1.154,-1.837 2.886,-1.837 2.886,0 5.353,1.837 6.612,3.096 h 0.734 l 4.093,-4.88 v -0.735 c -1.627,-1.889 -4.46,-3.358 -7.766,-4.04 v -3.883 h -7.399 v 3.831 c -4.932,1.049 -8.186,4.407 -8.186,8.815 0,5.877 5.352,8.448 9.813,9.76 2.938,0.84 4.88,0.997 4.88,2.729 0,1.26 -1.417,1.994 -3.516,1.994 -2.781,0 -6.087,-1.837 -7.766,-3.411 h -0.735 l -3.988,4.933 v 0.735 c 2.047,2.361 5.457,4.197 9.498,4.879 z"
   id="path24465" />
		<path
   fill="#190d3a"
   d="m 1009.122,366.47 c 2.52,-2.641 6.961,-4.44 11.4,-4.44 7.081,0 11.88,4.2 11.88,10.681 0,6.359 -4.799,10.679 -11.88,10.679 -6.119,0 -13.32,-3.48 -17.879,-8.641 h -1.68 l -11.041,11.401 v 1.68 c 6,8.159 18.961,13.68 32.281,13.68 20.279,0 33.719,-11.76 33.719,-29.16 0,-17.04 -12.479,-27.96 -30.36,-27.96 -4.44,0 -8.28,0.6 -11.64,1.561 l 1.56,-9.241 h 34.56 v -18.6 h -49.8 l -7.2,42 14.399,6.36 z"
   id="path24467" />
		<circle
   fill="#190d3a"
   cx="976.75299"
   cy="250.79201"
   r="4.25"
   id="circle24469" />
		<circle
   fill="#190d3a"
   cx="1055.261"
   cy="250.79201"
   r="4.25"
   id="circle24471" />
		<path
   fill="#190d3a"
   d="m 1006.854,270.941 c 2.644,0.901 5.411,1.336 8.176,1.336 7.001,0 13.984,-2.792 18.898,-7.879 0.96,-0.993 0.932,-2.576 -0.061,-3.535 -0.993,-0.958 -2.576,-0.932 -3.535,0.062 -5.449,5.641 -14.44,7.814 -21.865,5.284 -1.308,-0.446 -2.728,0.253 -3.173,1.56 -0.445,1.306 0.253,2.727 1.56,3.172 z"
   id="path24473" />
		<path
   fill="#190d3a"
   d="m 1006.42,306.625 h 16.5 c 1.381,0 2.5,-1.119 2.5,-2.5 0,-1.381 -1.119,-2.5 -2.5,-2.5 h -16.5 c -1.381,0 -2.5,1.119 -2.5,2.5 0,1.381 1.119,2.5 2.5,2.5 z"
   id="path24475" />
		<path
   fill="#190d3a"
   d="m 1037.92,306.625 h 13.091 c 1.381,0 2.5,-1.119 2.5,-2.5 0,-1.381 -1.119,-2.5 -2.5,-2.5 h -13.091 c -1.381,0 -2.5,1.119 -2.5,2.5 0,1.381 1.119,2.5 2.5,2.5 z"
   id="path24477" />
		<path
   fill="#190d3a"
   d="m 964.587,421.292 c 3.217,0 3.223,-5 0,-5 -3.218,0 -3.223,5 0,5 z"
   id="path24479" />
		<path
   fill="#190d3a"
   d="m 964.92,410.625 c 3.217,0 3.223,-5 0,-5 -3.217,0 -3.223,5 0,5 z"
   id="path24481" />
		<path
   fill="#190d3a"
   d="m 974.587,415.292 c 3.217,0 3.223,-5 0,-5 -3.218,0 -3.223,5 0,5 z"
   id="path24483" />
		<path
   fill="#190d3a"
   d="m 1073.253,382.958 c 3.217,0 3.223,-5 0,-5 -3.217,0 -3.222,5 0,5 z"
   id="path24485" />
		<path
   fill="#190d3a"
   d="m 1040.92,241.958 c 3.217,0 3.223,-5 0,-5 -3.217,0 -3.223,5 0,5 z"
   id="path24487" />
		<path
   fill="#190d3a"
   d="m 437.455,565.754 c -1.089,-1.788 -3.031,-2.879 -5.125,-2.879 h -36.997 v -39.092 c 0,-6.639 -5.401,-12.039 -12.039,-12.039 -6.638,0 -12.039,5.4 -12.039,12.039 v 39.092 H 335.67 c -2.093,0 -4.035,1.091 -5.125,2.879 l -34.67,56.92 c -0.573,0.94 -0.875,2.021 -0.875,3.121 v 195.08 c 0,3.313 2.686,6 6,6 h 166 c 3.314,0 6,-2.687 6,-6 v -195.08 c 0,-1.101 -0.303,-2.181 -0.875,-3.121 z m -56.2,-41.971 c 0,-1.124 0.915,-2.039 2.039,-2.039 1.124,0 2.039,0.915 2.039,2.039 V 534.5 l -4.078,-4.078 z m 0,12.295 4.078,4.078 v 8.469 l -4.078,-4.078 z m 0,14.125 4.078,4.078 v 8.469 l -4.078,-4.078 z m 0,14.125 4.078,4.078 v 8.469 l -4.078,-4.078 z m 0,14.125 4.078,4.078 v 12.842 c 0,1.124 -0.915,2.039 -2.039,2.039 -1.124,0 -2.039,-0.915 -2.039,-2.039 z m 2.039,28.959 c 3.693,0 7,-1.675 9.21,-4.302 -0.358,4.775 -4.349,8.554 -9.215,8.554 -4.869,0 -8.862,-3.784 -9.215,-8.564 2.211,2.633 5.522,4.312 9.22,4.312 z M 461,814.875 H 307 V 627.479 l 32.041,-52.604 h 32.215 v 15.187 c -3.31,3.211 -5.215,7.619 -5.215,12.352 0,9.512 7.738,17.25 17.25,17.25 9.512,0 17.25,-7.738 17.25,-17.25 0,-4.73 -1.902,-9.135 -5.207,-12.343 V 574.875 H 428.96 L 461,627.479 Z"
   id="path24489" />
		<path
   fill="#190d3a"
   d="M 440.79,795.215 H 327.21 c -2.209,0 -4,1.791 -4,4 0,2.209 1.791,4 4,4 h 113.58 c 2.209,0 4,-1.791 4,-4 0,-2.209 -1.791,-4 -4,-4 z"
   id="path24491" />
		<path
   fill="#190d3a"
   d="m 346.29,692.62 v 3.726 h 7.399 v -3.883 c 4.67,-0.945 8.186,-3.883 8.186,-8.973 0,-6.717 -5.667,-8.343 -10.705,-9.918 -1.994,-0.63 -4.04,-1.364 -4.04,-2.938 0,-1.155 1.154,-1.837 2.886,-1.837 2.886,0 5.353,1.837 6.612,3.096 h 0.734 l 4.093,-4.88 v -0.735 c -1.627,-1.889 -4.461,-3.358 -7.766,-4.04 v -3.883 h -7.399 v 3.831 c -4.932,1.049 -8.186,4.408 -8.186,8.815 0,5.877 5.352,8.448 9.813,9.76 2.938,0.84 4.88,0.997 4.88,2.729 0,1.26 -1.417,1.994 -3.516,1.994 -2.781,0 -6.087,-1.837 -7.766,-3.411 h -0.735 l -3.988,4.932 v 0.735 c 2.047,2.361 5.458,4.198 9.498,4.88 z"
   id="path24493" />
		<path
   fill="#190d3a"
   d="m 364.995,723.725 14.399,6.36 h 1.68 c 2.52,-2.64 6.961,-4.44 11.4,-4.44 7.081,0 11.88,4.2 11.88,10.681 0,6.359 -4.799,10.679 -11.88,10.679 -6.119,0 -13.32,-3.48 -17.879,-8.641 h -1.68 l -11.041,11.401 v 1.68 c 6,8.159 18.961,13.68 32.281,13.68 20.279,0 33.719,-11.76 33.719,-29.16 0,-17.04 -12.479,-27.96 -30.36,-27.96 -4.44,0 -8.28,0.6 -11.64,1.561 l 1.56,-9.241 h 34.56 v -18.599 h -49.8 z"
   id="path24495" />
		<circle
   fill="#190d3a"
   cx="346.375"
   cy="591.75"
   r="5.375"
   id="circle24497" />
		<circle
   fill="#190d3a"
   cx="420.21399"
   cy="591.75"
   r="5.375"
   id="circle24499" />
		<path
   fill="#190d3a"
   d="m 371.847,626.761 c 0.049,0.003 0.098,0.004 0.147,0.004 1.314,0 2.416,-1.026 2.493,-2.354 0.08,-1.379 -0.972,-2.562 -2.351,-2.642 -3.471,-0.201 -6.766,-2.466 -8.198,-5.634 -0.569,-1.258 -2.049,-1.814 -3.308,-1.248 -1.258,0.569 -1.817,2.05 -1.248,3.309 2.179,4.816 7.187,8.258 12.465,8.565 z"
   id="path24501" />
		<polygon
   fill="#190d3a"
   points="422.209,664.694 422.001,660.191 425.592,657.467 421.246,656.273 419.765,652.015 417.286,655.781 412.779,655.873 415.594,659.394 414.29,663.709 418.508,662.12 "
   id="polygon24503" />
		<polygon
   fill="#190d3a"
   points="437.851,666.23 439.878,670.257 441.841,666.199 446.297,665.515 443.044,662.395 443.771,657.946 439.797,660.075 435.791,658.009 436.588,662.446 433.385,665.617 "
   id="polygon24505" />
		<polygon
   fill="#190d3a"
   points="434.242,647.352 439.202,648.441 437.05,643.842 439.618,639.462 434.579,640.087 431.207,636.291 430.245,641.277 425.592,643.31 430.037,645.766 430.533,650.819 "
   id="polygon24507" />
		<polygon
   fill="#190d3a"
   points="331.061,763.503 334.828,763.343 332.41,760.451 333.422,756.82 329.924,758.226 326.784,756.141 327.04,759.902 324.087,762.244 327.742,763.163 329.058,766.696 "
   id="polygon24509" />
		<polygon
   fill="#190d3a"
   points="345.215,778.743 344.468,775.048 347.088,772.338 343.344,771.907 341.576,768.577 340.009,772.006 336.296,772.658 339.072,775.208 338.545,778.94 341.828,777.088 "
   id="polygon24511" />
		<polygon
   fill="#190d3a"
   points="349.194,759.444 353.046,757.659 349.286,755.687 348.779,751.471 345.741,754.438 341.575,753.617 343.458,757.423 341.391,761.132 345.592,760.517 348.48,763.63 "
   id="polygon24513" />
		<path
   fill="#190d3a"
   d="m 783,562.875 h -70.957 v -39.092 c 0,-6.639 -5.4,-12.039 -12.039,-12.039 -6.639,0 -12.039,5.4 -12.039,12.039 v 39.092 H 617 c -3.314,0 -6,2.687 -6,6 v 177.25 c 0,1.7 0.721,3.32 1.985,4.458 l 83,74.75 c 1.141,1.028 2.578,1.542 4.015,1.542 1.438,0 2.874,-0.514 4.016,-1.542 l 83,-74.75 c 1.263,-1.138 1.984,-2.758 1.984,-4.458 v -177.25 c 0,-3.313 -2.687,-6 -6,-6 z m -85.035,-39.092 c 0,-1.124 0.915,-2.039 2.039,-2.039 1.124,0 2.039,0.915 2.039,2.039 v 10.716 l -4.078,-4.078 z m 0,12.295 4.078,4.078 v 8.469 l -4.078,-4.078 z m 0,14.125 4.078,4.078 v 8.469 l -4.078,-4.078 z m 0,14.125 4.078,4.078 v 8.469 l -4.078,-4.078 z m 0,14.125 4.078,4.078 v 12.843 c 0,1.124 -0.914,2.039 -2.039,2.039 -1.125,0 -2.039,-0.915 -2.039,-2.039 z m 2.039,28.959 c 3.694,0 7,-1.675 9.21,-4.302 -0.358,4.776 -4.349,8.554 -9.215,8.554 -4.869,0 -8.862,-3.784 -9.215,-8.564 2.211,2.633 5.522,4.312 9.22,4.312 z M 777,743.454 700,812.801 623,743.454 V 574.875 h 64.965 v 15.187 c -3.31,3.211 -5.215,7.619 -5.215,12.352 0,9.512 7.738,17.25 17.25,17.25 9.512,0 17.25,-7.738 17.25,-17.25 0,-4.731 -1.902,-9.136 -5.207,-12.343 V 574.875 H 777 Z"
   id="path24515" />
		<path
   fill="#190d3a"
   d="M 754.303,739.947 700,788.853 645.697,739.948 c -1.642,-1.479 -4.172,-1.347 -5.649,0.296 -1.479,1.642 -1.346,4.171 0.295,5.649 l 56.979,51.315 c 0.761,0.685 1.719,1.027 2.677,1.027 0.958,0 1.916,-0.343 2.677,-1.027 l 56.979,-51.315 c 1.642,-1.479 1.773,-4.008 0.296,-5.649 -1.478,-1.643 -4.008,-1.775 -5.648,-0.297 z"
   id="path24517" />
		<path
   fill="#190d3a"
   d="m 663.957,628.34 v 3.831 c -4.933,1.049 -8.186,4.407 -8.186,8.815 0,5.877 5.352,8.448 9.813,9.76 2.938,0.84 4.88,0.997 4.88,2.729 0,1.26 -1.417,1.994 -3.516,1.994 -2.781,0 -6.087,-1.837 -7.766,-3.411 h -0.735 l -3.988,4.933 v 0.735 c 2.047,2.361 5.458,4.198 9.498,4.88 v 3.726 h 7.399 v -3.883 c 4.67,-0.945 8.186,-3.883 8.186,-8.973 0,-6.717 -5.667,-8.343 -10.705,-9.918 -1.994,-0.63 -4.04,-1.364 -4.04,-2.938 0,-1.155 1.154,-1.837 2.886,-1.837 2.886,0 5.353,1.837 6.612,3.096 h 0.734 l 4.093,-4.88 v -0.735 c -1.627,-1.889 -4.46,-3.358 -7.766,-4.04 v -3.883 h -7.399 z"
   id="path24519" />
		<path
   fill="#190d3a"
   d="m 698.741,700.071 c 2.52,-2.641 6.961,-4.44 11.4,-4.44 7.081,0 11.88,4.2 11.88,10.681 0,6.359 -4.799,10.679 -11.88,10.679 -6.119,0 -13.32,-3.48 -17.879,-8.641 h -1.68 l -11.041,11.401 v 1.68 c 6,8.159 18.961,13.68 32.281,13.68 20.279,0 33.719,-11.76 33.719,-29.16 0,-17.04 -12.479,-27.96 -30.36,-27.96 -4.44,0 -8.28,0.6 -11.64,1.561 l 1.56,-9.241 h 34.56 v -18.599 h -49.8 l -7.2,42 14.399,6.36 h 1.681 z"
   id="path24521" />
		<path
   fill="#190d3a"
   d="m 665.833,590.375 c 2.209,0 4,-1.791 4,-4 0,-2.209 -1.791,-4 -4,-4 h -26 c -2.209,0 -4,1.791 -4,4 0,2.209 1.791,4 4,4 z"
   id="path24523" />
		<path
   fill="#190d3a"
   d="m 734.167,590.375 h 26 c 2.209,0 4,-1.791 4,-4 0,-2.209 -1.791,-4 -4,-4 h -26 c -2.209,0 -4,1.791 -4,4 0,2.209 1.791,4 4,4 z"
   id="path24525" />
		<path
   fill="#190d3a"
   d="m 714.245,620.534 c -1.084,0.855 -1.269,2.428 -0.414,3.512 0.494,0.625 1.226,0.951 1.965,0.951 0.542,0 1.088,-0.176 1.547,-0.537 4.492,-3.546 7.526,-8.829 8.322,-14.496 0.192,-1.367 -0.761,-2.631 -2.128,-2.823 -1.375,-0.194 -2.631,0.76 -2.823,2.128 -0.619,4.404 -2.977,8.51 -6.469,11.265 z"
   id="path24527" />
		<path
   fill="#190d3a"
   d="m 753.833,601.292 c -3.217,0 -3.223,5 0,5 3.218,0 3.223,-5 0,-5 z"
   id="path24529" />
		<path
   fill="#190d3a"
   d="m 757.5,616.292 c 3.217,0 3.223,-5 0,-5 -3.217,0 -3.223,5 0,5 z"
   id="path24531" />
		<path
   fill="#190d3a"
   d="m 766.167,607.625 c 3.217,0 3.223,-5 0,-5 -3.218,0 -3.223,5 0,5 z"
   id="path24533" />
		<path
   fill="#190d3a"
   d="m 650.5,718.125 c 3.217,0 3.223,-5 0,-5 -3.217,0 -3.223,5 0,5 z"
   id="path24535" />
		<path
   fill="#190d3a"
   d="m 642,710.625 c 3.217,0 3.223,-5 0,-5 -3.217,0 -3.223,5 0,5 z"
   id="path24537" />
		<path
   fill="#190d3a"
   d="m 652,701.625 c -3.217,0 -3.223,5 0,5 3.217,0 3.223,-5 0,-5 z"
   id="path24539" />
		<path
   fill="#190d3a"
   d="m 1102.679,617.757 -74.636,-57.925 v -36.048 c 0,-6.639 -5.4,-12.039 -12.038,-12.039 -6.639,0 -12.039,5.4 -12.039,12.039 v 36.039 l -74.645,57.934 c -1.465,1.137 -2.321,2.887 -2.321,4.74 v 196.412 c 0,3.313 2.687,6 6,6 h 166 c 3.313,0 6,-2.687 6,-6 V 622.497 c 0,-1.853 -0.856,-3.603 -2.321,-4.74 z m -88.713,-93.974 c 0,-1.124 0.915,-2.039 2.039,-2.039 1.124,0 2.038,0.915 2.038,2.039 v 10.716 l -4.077,-4.077 z m 0,12.295 4.077,4.077 v 8.469 l -4.077,-4.077 z m 0,14.125 4.077,4.077 v 8.469 l -4.077,-4.077 z m 0,14.125 4.077,4.077 v 8.469 l -4.077,-4.077 z m 0,14.125 4.077,4.077 v 12.843 c 0,1.124 -0.914,2.039 -2.038,2.039 -1.124,0 -2.039,-0.915 -2.039,-2.039 z m 2.039,28.959 c 3.693,0 7,-1.675 9.21,-4.302 -0.358,4.776 -4.349,8.554 -9.215,8.554 -4.869,0 -8.862,-3.784 -9.215,-8.564 2.21,2.633 5.521,4.312 9.22,4.312 z M 1093,812.909 H 939 V 625.436 l 64.966,-50.422 v 15.047 c -3.31,3.211 -5.216,7.62 -5.216,12.353 0,9.512 7.738,17.25 17.25,17.25 9.512,0 17.25,-7.738 17.25,-17.25 0,-4.731 -1.902,-9.136 -5.207,-12.343 V 575.022 L 1093,625.436 Z"
   id="path24541" />
		<path
   fill="#190d3a"
   d="m 982.628,681.643 c -1.994,-0.63 -4.04,-1.364 -4.04,-2.938 0,-1.155 1.154,-1.837 2.886,-1.837 2.886,0 5.353,1.837 6.612,3.096 h 0.734 l 4.093,-4.88 v -0.735 c -1.627,-1.889 -4.461,-3.358 -7.766,-4.04 v -3.883 h -7.399 v 3.831 c -4.932,1.049 -8.186,4.408 -8.186,8.815 0,5.877 5.352,8.448 9.813,9.76 2.938,0.84 4.88,0.997 4.88,2.729 0,1.26 -1.417,1.994 -3.516,1.994 -2.781,0 -6.087,-1.837 -7.766,-3.411 h -0.735 l -3.988,4.932 v 0.735 c 2.047,2.361 5.458,4.198 9.498,4.88 v 3.726 h 7.399 v -3.883 c 4.67,-0.945 8.186,-3.883 8.186,-8.973 0,-6.718 -5.668,-8.344 -10.705,-9.918 z"
   id="path24543" />
		<path
   fill="#190d3a"
   d="m 1028.973,716.075 c -4.44,0 -8.281,0.6 -11.64,1.561 l 1.56,-9.241 h 34.56 v -18.599 h -49.8 l -7.2,42 14.399,6.36 h 1.68 c 2.52,-2.64 6.961,-4.44 11.4,-4.44 7.081,0 11.88,4.2 11.88,10.681 0,6.359 -4.799,10.679 -11.88,10.679 -6.119,0 -13.32,-3.48 -17.879,-8.641 h -1.68 l -11.041,11.401 v 1.68 c 6,8.159 18.961,13.68 32.281,13.68 20.279,0 33.719,-11.76 33.719,-29.16 10e-4,-17.04 -12.479,-27.961 -30.359,-27.961 z"
   id="path24545" />
		<polygon
   fill="#190d3a"
   points="981.473,630.109 980.461,624.205 984.75,620.024 978.822,619.163 976.171,613.792 973.521,619.163 967.593,620.024 971.882,624.205 970.87,630.109 976.171,627.322 "
   id="polygon24547" />
		<polygon
   fill="#190d3a"
   points="1061.13,630.109 1060.118,624.205 1064.407,620.024 1058.479,619.163 1055.829,613.792 1053.178,619.163 1047.25,620.024 1051.539,624.205 1050.527,630.109 1055.829,627.322 "
   id="polygon24549" />
		<path
   fill="#190d3a"
   d="m 954.25,644.336 c -1.657,0 -3,1.343 -3,3 V 778.94 c 0,1.657 1.343,3 3,3 1.657,0 3,-1.343 3,-3 V 647.336 c 0,-1.657 -1.343,-3 -3,-3 z"
   id="path24551" />
		<path
   fill="#190d3a"
   d="m 1077.75,781.94 c 1.657,0 3,-1.343 3,-3 V 647.336 c 0,-1.657 -1.343,-3 -3,-3 -1.657,0 -3,1.343 -3,3 V 778.94 c 0,1.658 1.343,3 3,3 z"
   id="path24553" />
	</g>
</g>

<rect
   x="702.64301"
   y="339.70999"
   fill="none"
   width="1.627"
   height="0"
   id="rect24591" /><path
   fill="#25896a"
   d="M 386.03245,187.52873 277.93443,103.63386 V 51.424233 c 0,-9.615504 -7.82102,-17.43652 -17.43507,-17.43652 -9.61551,0 -17.43652,7.821016 -17.43652,17.43652 v 52.196597 l -108.11106,83.9079 c -2.12181,1.64676 -3.36159,4.18135 -3.36159,6.86512 v 284.47061 c 0,4.79834 3.89168,8.69002 8.69002,8.69002 h 240.42381 c 4.79834,0 8.69002,-3.89168 8.69002,-8.69002 V 194.39385 c 0,-2.68377 -1.23978,-5.21836 -3.36159,-6.86512 z"
   id="path24570"
   style="fill:#666666;stroke-width:1.44834" /><path
   fill="none"
   d="m 232.83873,151.93557 c 7.0476,0 12.82646,-5.47182 13.34642,-12.38907 -3.20083,3.80478 -7.99048,6.23074 -13.33918,6.23074 -5.3574,0 -10.15284,-2.43175 -13.35366,-6.24522 0.51126,6.92304 6.29447,12.40355 13.34642,12.40355 z"
   id="path24813"
   style="stroke-width:1.44834" /><path
   fill="#f09b36"
   d="m 235.79768,24.65433 c 0,-1.62793 -1.32378,-2.953157 -2.95171,-2.953157 -1.62793,0 -2.95316,1.325227 -2.95316,2.953157 v 9.615504 l 5.90487,5.904867 z"
   id="path24827"
   style="stroke-width:1.44834" /><polygon
   fill="#f09b36"
   points="1013.966,539.078 1013.966,547.547 1018.043,551.624 1018.043,543.155 "
   id="polygon24833"
   transform="matrix(1.4483362,0,0,1.4483362,-1238.6709,-738.30455)" /><polygon
   fill="#f09b36"
   points="1013.966,553.203 1013.966,561.672 1018.043,565.749 1018.043,557.28 "
   id="polygon24857"
   transform="matrix(1.4483362,0,0,1.4483362,-1238.6709,-738.30455)" /><polygon
   fill="#f09b36"
   points="1013.966,567.328 1013.966,575.797 1018.043,579.874 1018.043,571.405 "
   id="polygon24877"
   transform="matrix(1.4483362,0,0,1.4483362,-1238.6709,-738.30455)" /><path
   fill="#31b78d"
   d="m 250.28099,120.66164 c 4.78675,4.64482 7.54149,11.02619 7.54149,17.87682 0,13.77657 -11.20723,24.9838 -24.9838,24.9838 -13.77658,0 -24.9838,-11.20723 -24.9838,-24.9838 0,-6.85498 2.75908,-13.24214 7.55452,-17.8913 V 98.85405 l -94.09261,73.028 v 98.45066 h 17.74212 v -66.73209 c 0,-2.3999 1.94511,-4.34501 4.34501,-4.34501 2.39989,0 4.34501,1.94511 4.34501,4.34501 h 38.3809 v 27.64729 h 2.02333 v 5.62389 c 4.7882,0.98776 8.89278,3.11537 11.24778,5.85127 v 1.06453 l -5.92804,7.06788 h -1.06308 c -1.31943,-1.31943 -3.56146,-3.06323 -6.27999,-3.93513 v 1.57579 h -7.40679 c -0.0406,0.17091 -0.0695,0.3476 -0.0695,0.53444 0,2.27968 2.9633,3.34421 5.85128,4.25521 7.29527,2.27968 15.50444,4.63612 15.50444,14.3646 0,0.94431 -0.0869,1.83649 -0.24622,2.67942 h 14.29653 l 0.89797,-5.23573 h 72.12714 v 5.23573 h 24.93166 c 0,-23.05027 0,-46.09909 0,-69.14936 0,-5.03587 7.00415,-5.52106 8.42208,-1.50772 0.55905,-0.26215 1.17749,-0.42002 1.83649,-0.42002 2.39989,0 4.345,1.94512 4.345,4.34501 v 66.73209 h 17.74067 V 171.87916 L 250.28099,98.86274 Z m -68.91473,49.43751 1.46716,8.55098 -7.67908,-4.03651 -7.67908,4.03651 1.46717,-8.55098 -6.21192,-6.05549 8.58574,-1.24702 3.83954,-7.77901 3.83954,7.77901 8.58574,1.24702 z m 105.31866,-7.30251 3.83954,-7.77901 3.83954,7.77901 8.58574,1.24702 -6.21192,6.05549 1.46572,8.55098 -7.67908,-4.03651 -7.67908,4.03651 1.46717,-8.55098 -6.21192,-6.05549 z"
   id="path24889"
   style="fill:#f4bb3a;fill-opacity:1;stroke-width:1.44834" /><path
   fill="#31b78d"
   d="m 168.39356,265.8081 c 2.04649,1.9176 5.75858,4.08576 9.28383,4.73172 h 4.09155 c 1.82925,-0.39105 2.96474,-1.32523 2.96474,-2.67942 0,-2.50852 -2.81266,-2.73591 -7.06788,-3.95251 -6.46102,-1.90022 -14.21252,-5.62389 -14.21252,-14.13577 0,-0.36063 0.0203,-0.71547 0.0492,-1.06597 h -17.88115 v 21.83512 h 17.88115 l 3.82506,-4.73172 h 1.06598 z"
   id="path24891"
   style="fill:#f4bb3a;fill-opacity:1;stroke-width:1.44834" /><path
   fill="#f09b36"
   d="m 232.84597,131.29388 c 1.62793,0 2.95171,-1.32523 2.95171,-2.95316 v -18.60098 l -5.90487,-5.90487 v 24.50585 c 0,1.62793 1.32523,2.95316 2.95316,2.95316 z"
   id="path24895"
   style="stroke-width:1.44834" /><path
   fill="#f4bb3a"
   d="m 181.76894,270.53982 c 0.78211,0 1.49469,-0.0724 2.12761,-0.20856 H 179.805 c 0.66479,0.12311 1.32523,0.20856 1.96394,0.20856 z"
   id="path24909"
   style="stroke-width:1.44834" /><path
   fill="#f4bb3a"
   d="m 326.6199,394.21035 c 0,2.3999 -1.94512,4.34501 -4.34501,4.34501 -2.34486,0 -4.24073,-1.85966 -4.32908,-4.18279 -2.54473,0.8661 -5.92949,-0.44754 -5.92949,-3.93803 0,-40.03346 0,-80.06692 0,-120.10038 h -24.93166 v 21.70332 h -50.0545 l -2.2594,13.38407 c 4.86641,-1.39185 10.42802,-2.26085 16.85863,-2.26085 25.89625,0 43.97004,15.81728 43.97004,40.49548 0,25.20105 -19.46564,42.23348 -48.83645,42.23348 -19.29184,0 -38.06372,-7.99626 -46.75374,-19.81324 v -2.4332 l 15.99108,-16.51248 h 2.43321 c 6.60296,7.47486 17.03243,12.51507 25.8948,12.51507 10.25567,0 17.20623,-6.25681 17.20623,-15.46678 0,-9.38522 -6.95056,-15.46968 -17.20623,-15.46968 -6.42916,0 -12.85978,2.607 -16.51103,6.43061 h -2.43321 l -20.85459,-9.21142 9.53005,-55.59438 h -14.29653 c -1.08914,5.73396 -5.71223,9.12307 -11.60986,10.3165 v 5.62389 h -10.71624 v -5.3965 c -5.85128,-0.98777 -10.79155,-3.64836 -13.75629,-7.06788 v -1.06453 l 1.94946,-2.41148 h -17.87971 v 123.87619 c 0,2.3999 -1.94512,4.34501 -4.34501,4.34501 -2.3999,0 -4.34501,-1.94511 -4.34501,-4.34501 V 270.33416 H 121.31824 V 443.40889 H 344.36201 V 270.33561 H 326.6199 Z m -60.46804,33.39864 c -39.26584,0 -78.53169,0 -117.79753,0 -5.60071,0 -5.59202,-8.69002 0,-8.69002 39.26584,0 78.53169,0 117.79753,0 5.60072,0 5.59203,8.69002 0,8.69002 z m 22.20734,0 c -5.60072,0 -5.59203,-8.69002 0,-8.69002 5.60071,0 5.59202,8.69002 0,8.69002 z m 18.34607,0 c -5.60071,0 -5.59202,-8.69002 0,-8.69002 5.60072,0 5.59203,8.69002 0,8.69002 z"
   id="path24911"
   style="stroke-width:1.44834" /><path
   fill="#f4bb3a"
   d="m 147.74898,248.49759 h 17.88115 c 0.49533,-5.85562 5.06628,-10.26725 11.80684,-11.70111 v -5.54857 h 8.69291 v -27.64729 h -38.3809 c 0,0 0,0 0,0 z"
   id="path24913"
   style="stroke-width:1.44834;fill:#f4bb3a;fill-opacity:1" /><path
   fill="#f4bb3a"
   d="m 178.72164,248.49759 h 7.4068 v -1.57579 c -1.03846,-0.33312 -2.14064,-0.54892 -3.29642,-0.54892 -2.22464,0 -3.78595,0.78066 -4.11038,2.12471 z"
   id="path24915"
   style="stroke-width:1.44834" /><path
   fill="#ffffff"
   d="m 317.94441,394.36967 c -0.001,-0.055 -0.0159,-0.10718 -0.0159,-0.16222 V 203.60062 c 0,-1.7409 1.02977,-3.23124 2.50852,-3.92499 -1.41792,-4.01334 -8.42208,-3.52815 -8.42208,1.50771 0,23.05027 0,46.0991 0,69.14937 0,40.03346 0,80.06692 0,120.10038 0,3.48904 3.38476,4.80413 5.92949,3.93658 z"
   id="path24957"
   style="stroke-width:1.44834" /><path
   fill="#ffffff"
   d="m 266.15046,418.91607 c -39.26584,0 -78.53169,0 -117.79753,0 -5.59202,0 -5.60071,8.69002 0,8.69002 39.26584,0 78.53169,0 117.79753,0 5.59203,0 5.60072,-8.69002 0,-8.69002 z"
   id="path24959"
   style="stroke-width:1.44834" /><path
   fill="#ffffff"
   d="m 288.3578,418.91607 c -5.59203,0 -5.60072,8.69002 0,8.69002 5.59202,0 5.60071,-8.69002 0,-8.69002 z"
   id="path24961"
   style="stroke-width:1.44834" /><path
   fill="#ffffff"
   d="m 306.70387,418.91607 c -5.59202,0 -5.60071,8.69002 0,8.69002 5.59203,0 5.60072,-8.69002 0,-8.69002 z"
   id="path24963"
   style="stroke-width:1.44834" /><g
   id="g25967"
   transform="matrix(1.4483362,0,0,1.4483362,-382.47677,-737.90047)"><path
     fill="#ffffff"
     d="m 430.333,619.667 c 3.861,0 3.867,-6 0,-6 -3.86,0 -3.867,6 0,6 z"
     id="path24947" /><polygon
     fill="#190d3a"
     points="415.594,662.394 414.29,666.709 418.508,665.12 422.209,667.694 422.001,663.191 425.592,660.467 421.246,659.273 419.765,655.015 417.286,658.781 412.779,658.873 "
     id="polygon25059" /><polygon
     fill="#190d3a"
     points="441.841,669.199 446.297,668.515 443.044,665.395 443.771,660.946 439.797,663.075 435.791,661.009 436.588,665.446 433.385,668.617 437.851,669.23 439.878,673.257 "
     id="polygon25061" /><polygon
     fill="#190d3a"
     points="434.242,650.352 439.202,651.441 437.05,646.842 439.618,642.462 434.579,643.087 431.207,639.291 430.245,644.277 425.592,646.31 430.037,648.766 430.533,653.819 "
     id="polygon25063" /></g><path
   fill="#190d3a"
   d="M 358.37906,160.76028 250.28104,76.865406 V 24.655779 c 0,-9.615504 -7.82102,-17.4365199 -17.43507,-17.4365199 -9.61551,0 -17.43652,7.8210159 -17.43652,17.4365199 V 76.852371 L 107.29839,160.76028 c -2.12181,1.64676 -3.36158,4.18135 -3.36158,6.86511 V 452.096 c 0,4.79834 3.89167,8.69002 8.69001,8.69002 h 240.42381 c 4.79834,0 8.69002,-3.89168 8.69002,-8.69002 V 167.62539 c 0,-2.68376 -1.23978,-5.21835 -3.36159,-6.86511 z M 229.89281,24.65433 c 0,-1.62793 1.32523,-2.953157 2.95316,-2.953157 1.62793,0 2.95171,1.325227 2.95171,2.953157 v 15.520371 l -5.90487,-5.904867 z m 0,17.807294 5.90487,5.904867 V 60.63245 l -5.90487,-5.904867 z m 0,20.457749 5.90487,5.904871 v 12.265959 l -5.90487,-5.904867 z m 0,20.457753 5.90487,5.904867 v 12.265957 l -5.90487,-5.904865 z m 0,20.457744 5.90487,5.90487 v 18.60098 c 0,1.62793 -1.32378,2.95316 -2.95171,2.95316 -1.62793,0 -2.95316,-1.32523 -2.95316,-2.95316 z m 2.95316,41.94237 c 5.3487,0 10.13835,-2.42596 13.33918,-6.23074 -0.51851,6.91725 -6.29882,12.38907 -13.34642,12.38907 -7.05195,0 -12.83516,-5.48051 -13.34642,-12.40355 3.20082,3.81347 7.99626,6.24522 13.35366,6.24522 z M 344.36061,270.33271 V 443.40744 H 121.31684 V 270.33271 171.88205 l 94.09261,-73.028003 v 21.793113 c -4.79399,4.65061 -7.55452,11.03632 -7.55452,17.8913 0,13.77657 11.20722,24.9838 24.9838,24.9838 13.77657,0 24.9838,-11.20723 24.9838,-24.9838 0,-6.85208 -2.75474,-13.232 -7.54149,-17.87682 V 98.865633 l 94.07957,73.016417 z"
   id="path25097"
   style="stroke-width:1.44834" /><path
   fill="#190d3a"
   d="m 175.43697,236.79648 c -6.74056,1.43386 -11.31006,5.84549 -11.80684,11.70111 -0.0304,0.3505 -0.0492,0.70534 -0.0492,1.06598 0,8.51187 7.7515,12.23554 14.21252,14.13576 4.25522,1.2166 7.06788,1.44399 7.06788,3.95251 0,1.35564 -1.13549,2.28837 -2.96474,2.67942 -0.63292,0.13614 -1.3455,0.20856 -2.12761,0.20856 -0.63871,0 -1.29915,-0.0869 -1.96394,-0.20856 -3.52525,-0.64596 -7.23734,-2.81412 -9.28383,-4.73172 h -1.06453 l -3.82506,4.73172 -1.94946,2.41148 v 1.06453 c 2.96475,3.41952 7.90502,6.08011 13.7563,7.06788 v 5.3965 h 10.71624 v -5.62389 c 5.89618,-1.19198 10.52071,-4.58254 11.60986,-10.3165 0.16077,-0.84293 0.24622,-1.73511 0.24622,-2.67942 0,-9.72848 -8.20772,-12.08347 -15.50444,-14.3646 -2.88798,-0.91245 -5.85128,-1.97553 -5.85128,-4.25521 0,-0.18829 0.0275,-0.36498 0.0695,-0.53444 0.32443,-1.34405 1.88429,-2.12471 4.11038,-2.12471 1.15577,0 2.25796,0.2158 3.29641,0.54892 2.71853,0.87045 4.96055,2.6157 6.27999,3.93513 h 1.06308 l 5.92804,-7.06788 v -1.06453 c -2.35645,-2.7359 -6.46103,-4.86351 -11.24778,-5.85128 v -5.62388 h -2.02333 -8.69291 v 5.54712 z"
   id="path25099"
   style="stroke-width:1.44834" /><path
   fill="#190d3a"
   d="m 225.38409,335.13996 h 2.43321 c 3.6498,-3.82361 10.08186,-6.43061 16.51103,-6.43061 10.25567,0 17.20623,6.08301 17.20623,15.46968 0,9.20997 -6.95056,15.46678 -17.20623,15.46678 -8.86237,0 -19.29184,-5.04021 -25.8948,-12.51507 h -2.43321 l -15.99108,16.51248 v 2.4332 c 8.69002,11.81698 27.4619,19.81324 46.75374,19.81324 29.37081,0 48.83645,-17.03243 48.83645,-42.23348 0,-24.67965 -18.07379,-40.49548 -43.97004,-40.49548 -6.43061,0 -11.99367,0.869 -16.85863,2.26085 l 2.2594,-13.38407 h 50.0545 v -21.70332 -5.23574 h -72.12714 l -0.89797,5.23574 -9.53005,55.59438 z"
   id="path25101"
   style="stroke-width:1.44834" /><polygon
   fill="#190d3a"
   points="978.822,622.163 976.171,616.792 973.521,622.163 967.593,623.024 971.882,627.205 970.87,633.109 976.171,630.322 981.473,633.109 980.461,627.205 984.75,623.024 "
   id="polygon25103"
   transform="matrix(1.4483362,0,0,1.4483362,-1238.6709,-738.30455)" /><polygon
   fill="#190d3a"
   points="1051.539,627.205 1050.527,633.109 1055.829,630.322 1061.13,633.109 1060.118,627.205 1064.407,623.024 1058.479,622.163 1055.829,616.792 1053.178,622.163 1047.25,623.024 "
   id="polygon25105"
   transform="matrix(1.4483362,0,0,1.4483362,-1238.6709,-738.30455)" /><path
   fill="#190d3a"
   d="m 143.40397,398.55246 c 2.39989,0 4.34501,-1.94511 4.34501,-4.34501 V 270.33126 248.49614 203.59917 c 0,0 0,0 0,0 0,-2.39989 -1.94512,-4.34501 -4.34501,-4.34501 -2.3999,0 -4.34501,1.94512 -4.34501,4.34501 v 66.73209 123.87619 c 0,2.40135 1.94511,4.34501 4.34501,4.34501 z"
   id="path25107"
   style="stroke-width:1.44834" /><path
   fill="#190d3a"
   d="m 317.92848,203.60062 v 190.60683 c 0,0.055 0.0145,0.10718 0.0159,0.16222 0.0869,2.32313 1.98422,4.18279 4.32908,4.18279 2.39989,0 4.34501,-1.94511 4.34501,-4.34501 V 270.33126 203.59917 c 0,-2.39989 -1.94512,-4.34501 -4.34501,-4.34501 -0.659,0 -1.27744,0.15787 -1.83649,0.42002 -1.47875,0.6952 -2.50852,2.18554 -2.50852,3.92644 z"
   id="path25109"
   style="stroke-width:1.44834" />
</svg>
