<?xml version="1.0" encoding="utf-8"?>
<!-- Generator: Adobe Illustrator 24.1.0, SVG Export Plug-In . SVG Version: 6.00 Build 0)  -->
<svg version="1.1" id="Layer_1" xmlns="http://www.w3.org/2000/svg" xmlns:xlink="http://www.w3.org/1999/xlink" x="0px" y="0px"
	 viewBox="0 0 526 269" style="enable-background:new 0 0 526 269;" xml:space="preserve">
<style type="text/css">
	.st0{fill:#20324F;}
	.st1{fill:#1D1D1B;}
	.st2{fill:#83CEEA;}
	.st3{fill:#FFCB00;}
	.st4{fill:#6EBFA2;}
</style>
<g>
	<path class="st0" d="M7.6,122.3H18l17.1,61.5l18.1-61.5h10l18.1,61.5l17.1-61.5H109l-21.5,74.7H76l-17.7-59.7l-17.7,59.7H29
		L7.6,122.3z"/>
	<path class="st0" d="M179.9,180.3h-33.6l-6.1,16.8h-10.6l27.9-74.7h11.2l27.9,74.7h-10.6L179.9,180.3z M176.4,171L163,134.2
		L149.6,171H176.4z"/>
	<path class="st0" d="M268.9,187.7v9.4h-42.2v-74.7h9.9v65.3H268.9z"/>
	<path class="st0" d="M342.3,197.1l-32.2-35.9v35.9h-9.9v-74.7h9.9v33.7l31.2-33.7h12.2l-33,36.3l34.1,38.4H342.3z"/>
	<path class="st0" d="M429.3,187.7v9.4h-44.6v-74.7h44.1v9.4h-34.2v23h31.5v9.3h-31.5v23.7H429.3z"/>
	<path class="st0" d="M490.2,168.4h-17.6v28.6h-9.9v-74.7h29.9c12.8,0,23.3,10.4,23.3,23.2c0,9.8-6.5,18.5-15.5,21.7l17.6,29.9h-11
		L490.2,168.4z M472.6,159.5h20c7.4,0,13.3-6.3,13.3-14c0-7.7-6-13.9-13.3-13.9h-20V159.5z"/>
</g>
<path class="st1" d="M262.7,95.1"/>
<g>
	<g>
		<polygon class="st2" points="239.1,13 259.7,13 290.2,74.7 280.5,95.2 		"/>
	</g>
	<g>
		<polygon class="st3" points="192.7,12.8 213.2,12.9 243.7,74.6 234,95.1 		"/>
	</g>
	<g>
		<polygon class="st4" points="320.8,13.1 300.3,13.1 288,37.7 308.6,37.7 		"/>
	</g>
</g>
<g>
	<path class="st0" d="M204.1,242.3c0,5.8-4.3,10.3-11.1,10.3c-7,0-12-5.3-12-11.8c0-6.5,5-11.8,11.9-11.8c4.2,0,7.9,2.2,9.8,5.5
		l-2.6,1.5c-1.3-2.4-4.1-4.1-7.3-4.1c-5.3,0-8.9,3.9-8.9,8.9c0,4.9,3.6,8.8,9,8.8c4.7,0,7.5-2.6,8.1-6h-8.3V241h11.4V242.3z"/>
	<path class="st0" d="M222.7,243.5h-5.4v8.7h-3v-22.7h9.1c3.9,0,7.1,3.1,7.1,7c0,3-2,5.6-4.7,6.6l5.4,9.1h-3.3L222.7,243.5z
		 M217.3,240.8h6.1c2.2,0,4.1-1.9,4.1-4.2c0-2.3-1.8-4.2-4.1-4.2h-6.1V240.8z"/>
	<path class="st0" d="M256.2,236.8c0,4.1-3.1,7.3-7.3,7.3h-5.2v8.1h-3v-22.7h8.2C253,229.5,256.2,232.6,256.2,236.8z M253.2,236.8
		c0-2.6-1.8-4.5-4.3-4.5h-5.2v9h5.2C251.3,241.3,253.2,239.4,253.2,236.8z"/>
	<path class="st0" d="M293.6,249.4v2.9h-12.8v-22.7h3v19.9H293.6z"/>
	<path class="st0" d="M315.4,232.4h-6.7v19.9h-3v-19.9H299v-2.9h16.4V232.4z"/>
	<path class="st0" d="M344.5,240.9c0,6.3-4.5,11.4-10.8,11.4h-8.9v-22.7h8.9C339.9,229.5,344.5,234.6,344.5,240.9z M341.6,240.9
		c0-4.8-3.2-8.5-7.9-8.5h-5.8v17h5.8C338.4,249.4,341.6,245.7,341.6,240.9z"/>
</g>
<g>
</g>
<g>
</g>
<g>
</g>
<g>
</g>
<g>
</g>
<g>
</g>
<g>
</g>
<g>
</g>
<g>
</g>
<g>
</g>
<g>
</g>
<g>
</g>
<g>
</g>
<g>
</g>
<g>
</g>
</svg>
